<?xml version="1.0" encoding="utf-8"?>
<!-- Generator: Adobe Illustrator 17.0.0, SVG Export Plug-In . SVG Version: 6.00 Build 0)  -->
<!DOCTYPE svg PUBLIC "-//W3C//DTD SVG 1.1//EN" "http://www.w3.org/Graphics/SVG/1.1/DTD/svg11.dtd">
<svg version="1.1" xmlns="http://www.w3.org/2000/svg" xmlns:xlink="http://www.w3.org/1999/xlink" x="0px" y="0px" width="56.3px"
	 height="66px" viewBox="0 0 56.3 66" enable-background="new 0 0 56.3 66" xml:space="preserve">
<g id="fondo">
</g>
<g id="Capa_1">
</g>
<g id="Capa_2">
	<g>
		<g>
			<path fill="#ED6F11" d="M56,6.9c-0.6-0.1-1.5-0.1-2.1-0.1c-0.4,0-0.8,0-1.2,0c-0.2-0.3-0.3-0.7-0.5-1c-0.3-0.7-0.6-1.5-1.1-2.2
				c0.1-0.8,0.1-1.5,0.1-2.3c0-0.2-0.7-0.4-0.7-0.2c-1.6,4.6-1,10.2-1.4,15c-0.4,5-0.8,9.9-0.6,14.9c0.1,5.2,0,10.4,0,15.7
				c0,2.5,0.1,4.9-0.1,7.4c-0.1,1.7-0.4,3.5-0.1,5.2c-8-0.2-16,0-24-0.2c-7.6-0.1-16.1-1-23.8,0.1c-0.1-0.1-0.3-0.1-0.3,0.1
				c0.3,2.3,2.6,5.8,5.4,6.2c0,0,0,0,0.1,0c7.5,0.4,15.2,0.2,22.7,0.3c8.5,0.1,16.8,0,25.3,0c0.3,0,0.5,0.1,0.5-0.5
				c1-9.1,0.9-18.4,0.9-27.5c0-5.3,0.1-8.5,0.6-14.1c0.2-2.1,0.2-6.5,0.3-8.5C56.1,12.7,56.5,7,56,6.9z"/>
			<path fill="#F5A816" d="M51.1,1.2c0-0.2-0.1-0.4-0.4-0.4c-3.5-0.2-7.1,0-10.7,0c-3.9,0-7.8-0.1-11.7-0.2
				c-7.8-0.2-16.3-1.3-24,0.2c-0.1,0-0.1,0.1-0.2,0.1C4.1,0.9,4,1,4,1.2C2.7,10.1,1.9,19.1,1.5,28C1.2,33.3,1,38.5,0.8,43.7
				c-0.2,5.1-1.1,10.5-0.6,15.6c0,0.1,0.1,0.2,0.3,0.2c0,0.1,0.1,0.2,0.2,0.2c7.9-0.3,15.8,0.2,23.7,0.4c8.1,0.1,16.2,0.1,24.3,0.1
				c0.3,0,0.5-0.2,0.4-0.4c0.1-0.1,0.1-0.2,0.1-0.3c0.6-9.2,0.6-18.4,0.3-27.5c-0.2-5.5,0.2-10.9,0.6-16.5c0.2-2.1,0.2-4.1,0.3-6.2
				C50.6,6.6,51.3,3.9,51.1,1.2C51.2,1.2,51.1,1.2,51.1,1.2z"/>
			<path fill="#F28A14" d="M4.9,1.5l3.4-0.3c0,0,0.3,53.7,37.7,58.9L0.6,59.6C0.6,59.6,2.8,3.5,4.9,1.5z"/>
			<path fill="#FFF9C4" d="M53.8,8.8c-0.6-1-1.1-2-1.6-3c-0.3-0.7-0.6-1.5-1.1-2.2c0.1-0.8,0.1-1.5,0.1-2.3c0-0.2-0.7-0.4-0.7-0.2
				c-1.6,4.6-1,10.2-1.4,15c-0.4,5-0.8,9.9-0.6,14.9c0.1,5.2,0,10.4,0,15.7c0,2.5,0.1,4.9-0.1,7.4c-0.1,1.7-0.4,3.5-0.1,5.2
				c-8-0.2-16,0-24-0.2C17.4,59,9.9,58.2,2.8,58.9c0,0-0.1,0.5-0.1,0.6c0.2,1,1.7,4.2,3.3,4.3c0,0,0.1,0.1,0.1,0.1
				c3.1,0.4,6.4-0.1,9.6-0.1c4.6-0.1,9.2-0.1,13.8,0c4.8,0.1,9.6-0.1,14.3,0.1c2.7,0.1,5.5,0.8,8.2,0.3c0.2,0,0.3-0.2,0.3-0.3
				c0.6-3.8,0.4-7.7,0.5-11.5c0.2-4.9,0.1-9.9,0-14.8c-0.1-5.1,0-10.2,0.3-15.3c0.2-4.4,0-9,0.7-13.3C53.9,8.9,53.9,8.8,53.8,8.8z"
				/>
			<path fill="#1D1D1B" d="M51.1,1.2c0-0.2-0.1-0.4-0.4-0.4c-3.5-0.2-7.1,0-10.7,0c-3.9,0-7.8-0.1-11.7-0.2
				c-7.8-0.2-16.3-1.3-24,0.2c-0.1,0-0.1,0.1-0.2,0.1C4.1,0.9,4,1,4,1.2C2.7,10.1,1.9,19.1,1.5,28C1.2,33.3,1,38.5,0.8,43.7
				c-0.2,5.1-1.1,10.5-0.6,15.6c0,0.1,0.1,0.2,0.3,0.2c0,0.1,0.1,0.2,0.2,0.2c7.9-0.3,15.8,0.2,23.7,0.4c8.1,0.1,16.2,0.1,24.3,0.1
				c0.3,0,0.5-0.4,0.6-0.7c0.9-9.1,0.6-18.4,0.3-27.5c-0.2-5.5,0.2-10.9,0.6-16.5c0.2-2.1,0.2-4.1,0.3-6.2
				C50.6,6.6,51.3,3.9,51.1,1.2C51.2,1.2,51.1,1.2,51.1,1.2z M49,16.1c-0.4,5-0.8,9.9-0.6,14.9c0.1,5.2,0,10.4,0,15.7
				c0,2.5,0.1,4.9-0.1,7.4c-0.1,1.7-0.6,3.1-0.4,4.8c-8-0.2-15.7,0.3-23.7,0.2c-7.4-0.1-15.4-1.4-23-0.4c0.5-4,0.2-8.8,0.4-13.1
				c0.3-5.2,0.6-10.5,0.9-15.7C2.8,24.8,3,19.7,3.7,14.6c0.5-4.3,2-8.5,1.9-12.8c4.7,0,12.8,0.2,21.3,0.4C35.8,2.4,42,1.8,50,2
				C48.6,6.5,49.4,11.5,49,16.1z"/>
			<g>
				<path fill="#1D1D1B" d="M4.7,55.8c0.6-8.6,1.4-17.3,2-25.9c0.3-4.5,0.6-9,1-13.4C8.2,12.3,9.2,8,8.5,3.9C8.4,3.7,8,3.7,8,4
					c-0.4,8.6-1.4,17.3-1.8,25.9c-0.2,4.7-0.5,9.4-1.1,14c-0.4,3.9-1.2,8-0.5,11.9C4.6,55.9,4.7,55.9,4.7,55.8L4.7,55.8z"/>
			</g>
			<g>
				<path fill="#1D1D1B" d="M51,0.9c-0.2,0-0.2,0-0.3,0.1c0,0,0,0.1,0,0C50.9,1,50.9,1,51,0.9C51.1,1,51.1,0.9,51,0.9L51,0.9z"/>
			</g>
			<g>
				<path fill="#1D1D1B" d="M50.4,3c0.7,2,1.5,4.6,3.2,6c0.1,0.1,0.3,0,0.2-0.1c-0.6-1-1.2-2.1-1.7-3.2c-0.4-1-0.8-2-1.6-2.8
					C50.5,2.8,50.3,2.9,50.4,3L50.4,3z"/>
			</g>
			<g>
				<path fill="#1D1D1B" d="M48.1,59.8c0.5,0.8,1.2,1.6,1.8,2.3c0.6,0.7,1.1,1.4,1.8,2.1c0.1,0.1,0.3,0,0.2-0.1
					c-0.4-0.8-0.9-1.5-1.5-2.3c-0.6-0.8-1.2-1.7-2-2.3C48.2,59.3,47.9,59.6,48.1,59.8L48.1,59.8z"/>
			</g>
			<path fill="#1D1D1B" d="M56.1,6.8c-0.6-0.1-1.6,0-2.2,0c-0.6,0-1.4-0.1-1.7,0.1c-0.1,0.1-0.1,0.2,0,0.3c0.3,0.3,0.8,0.1,1.3,0.1
				c0.6,0,1.3,0,1.9,0C55,12.1,55,17.4,54.6,22c-0.4,5-0.6,10.2-0.4,15.2c0.1,5.2-0.3,10.3-0.3,15.5c0,2.5,0,4.6-0.1,7.1
				c-0.1,1.7-0.1,4-0.3,5.6c-8-0.2-16.1,0-24.1-0.1c-7.8-0.1-16.1,0.1-23.6-0.2c-2.7-1.3-4.1-3.4-5.2-5.8c-0.1-0.1-0.3-0.1-0.3,0.1
				c0.3,2.3,2.6,5.8,5.4,6.2c0,0,0,0,0.1,0c7.5,0.4,15.2,0.2,22.7,0.3C36.8,66,45.3,66,53.8,66c0.3,0,0.5-0.1,0.6-0.7
				c1-9.1,0.7-18.4,0.7-27.5c0-5.3,0.1-8.5,0.6-14.1c0.2-2.1,0.2-6.5,0.3-8.5C56,12.7,56.6,6.9,56.1,6.8z"/>
			<g>
				<path fill="#1D1D1B" d="M6.2,63.9c3.1,0.4,6.4-0.1,9.6-0.1c4.6-0.1,9.2-0.1,13.8,0c4.8,0.1,9.6-0.1,14.3,0.1
					c2.7,0.1,5.5,0.8,8.2,0.3c0.4-0.1,0.4-0.6,0-0.6c-3,0.1-6-0.4-9.1-0.5c-4.1-0.2-8.3,0-12.5-0.1c-4.6-0.1-9.2-0.2-13.8,0
					c-3.5,0.1-7,0.4-10.5,0.4C6,63.5,6,63.8,6.2,63.9L6.2,63.9z"/>
			</g>
			<g>
				<path fill="#1D1D1B" d="M53.3,8.8c-0.5,3.5-0.4,7.1-0.6,10.6c-0.3,5.1-0.4,10.3-0.3,15.4c0.1,4.9,0.2,9.9,0.1,14.8
					c-0.1,2.7-0.2,5.5-0.4,8.2c-0.2,2,0.1,4-0.2,6c-0.1,0.3,0.5,0.4,0.6,0.1c0.6-3.8,0.4-7.8,0.5-11.6c0.2-4.9,0.1-9.9,0-14.8
					c-0.1-5.1,0-10.2,0.3-15.3c0.2-4.4,0-9,0.7-13.3c0-0.2-0.4-0.3-0.4-0.1L53.3,8.8z"/>
			</g>
			<g>
				<path fill="#1D1D1B" d="M6.3,63.6c-1.5-0.7-2.8-2.8-3.6-4.1c0-0.1-0.2,0-0.1,0c0.2,1.3,2,4.3,3.7,4.3
					C6.4,63.8,6.4,63.6,6.3,63.6L6.3,63.6z"/>
			</g>
		</g>
	</g>
</g>
<g id="fondo_gris">
</g>
<g id="instrucciones">
</g>
</svg>
