<?xml version="1.0" encoding="utf-8"?>
<!-- Generator: Adobe Illustrator 17.0.0, SVG Export Plug-In . SVG Version: 6.00 Build 0)  -->
<!DOCTYPE svg PUBLIC "-//W3C//DTD SVG 1.1//EN" "http://www.w3.org/Graphics/SVG/1.1/DTD/svg11.dtd">
<svg version="1.1" xmlns="http://www.w3.org/2000/svg" xmlns:xlink="http://www.w3.org/1999/xlink" x="0px" y="0px" width="34.9px"
	 height="35.7px" viewBox="0 0 34.9 35.7" enable-background="new 0 0 34.9 35.7" xml:space="preserve">
<g id="fondo">
</g>
<g id="Capa_1">
</g>
<g id="Capa_2">
	<g>
		<g>
			
				<ellipse transform="matrix(0.3844 -0.9231 0.9231 0.3844 -5.689 27.0355)" fill="#64DD17" cx="17.4" cy="17.8" rx="17.5" ry="16.9"/>
			<g>
				<path fill="#1D1E1C" d="M23.9,2c8.3,3.7,11.8,12.8,8.9,21.3c-2.9,8.7-12.7,13.3-21.3,10.5C2.7,30.9-0.8,20.6,2,12.2
					C5,3.2,15.3-1.3,24,2.1c0.5,0.2,0.8-0.7,0.2-0.9C15.1-2.3,5.4,2.3,1.5,11.1c-3.9,8.8,0.3,19.4,9,23.2c9,4,19.1-1.3,22.9-9.8
					c3.9-8.8-0.3-19.4-9-23.2C23.8,1,23.4,1.8,23.9,2z"/>
			</g>
		</g>
		<g>
			<path fill="#FFFFFF" d="M25.1,9.8c-1.2-1-2.3-0.6-3.6,1.1l-6.2,8.8l-3-2.6c-0.9-0.8-2.4-0.3-3.4,1c-1,1.3-0.6,2.5,0.3,3.2
				l5.2,4.4c0.9,0.8,2,0.9,3-0.4c0.1-0.1,0.6-0.8,0.8-1l7.2-10.1C26.7,12.4,26.3,10.8,25.1,9.8z"/>
			<path fill="#1D1E1C" d="M25.2,9.4c-1.6-0.9-3.4,0.7-4.7,2.5c-2.1,2.8-2.7,4-4.8,6.8c-0.2,0.3-0.4,0.6-0.4,0.6s-0.6-0.5-1.2-1.1
				c-1-0.8-1.8-1.5-3.1-1.6c-2.5-0.2-3.8,3.5-1.9,5.2c1.7,1.4,3.8,4.2,5.8,4.8c2.3,0.7,3.7-1.9,5-3.6c2.2-3,2.9-3.9,4.9-6.7
				C26.8,13.5,27.3,11,25.2,9.4z M22.8,17.7c-1.5,2.1-3,4.1-4.5,6.2c-0.6,0.9-1.5,1.7-2.2,1.8c-1.9,0.4-3.8-2.3-5.4-3.7
				c-0.3-0.3-0.7-0.7-1-1C8.6,20,9,18.8,9.4,18.2c0.7-1,1.5-1.4,3-0.4c1,0.6,1.8,1.4,2.7,2.2c0.1,0.1,0.3,0.1,0.4,0
				c1.3-1.8,2.6-3.7,3.9-5.6c1-1.4,3.3-5.6,5.5-4.3C27.6,12.1,24.1,16,22.8,17.7z"/>
		</g>
		<path opacity="0.18" fill="#616261" d="M23.7,29.2C13.4,24.9,7.4,14.8,7.4,4c-2.4,1.8-4.3,4.3-5.6,7.3c-3.7,8.9,0.2,19.1,8.8,22.6
			c6.2,2.6,13,1.1,17.8-3.3C26.9,30.3,25.3,29.8,23.7,29.2z"/>
	</g>
</g>
<g id="fondo_gris">
</g>
<g id="instrucciones">
</g>
</svg>
