<?xml version="1.0" encoding="utf-8"?>
<!-- Generator: Adobe Illustrator 17.0.0, SVG Export Plug-In . SVG Version: 6.00 Build 0)  -->
<!DOCTYPE svg PUBLIC "-//W3C//DTD SVG 1.1//EN" "http://www.w3.org/Graphics/SVG/1.1/DTD/svg11.dtd">
<svg version="1.1" xmlns="http://www.w3.org/2000/svg" xmlns:xlink="http://www.w3.org/1999/xlink" x="0px" y="0px" width="51.4px"
	 height="60.3px" viewBox="0 0 51.4 60.3" enable-background="new 0 0 51.4 60.3" xml:space="preserve">
<g id="fondo">
</g>
<g id="Capa_1">
</g>
<g id="Capa_2">
	<g>
		<g>
			<path fill="#ED6F11" d="M51.1,6.3c-0.6-0.1-1.3-0.1-1.9-0.1c-0.3,0-0.8,0-1.1,0c-0.2-0.3-0.3-0.6-0.5-0.9c-0.3-0.7-0.6-1.4-1-2
				c0.1-0.7,0.1-1.4,0.1-2.1c0-0.2-0.6-0.3-0.7-0.2c-1.5,4.2-0.9,9.3-1.3,13.7c-0.4,4.6-0.7,9-0.6,13.6c0.1,4.8,0,9.5,0,14.3
				c0,2.3,0.1,4.5-0.1,6.7C44,51,43.8,52.6,44,54.2c-7.3-0.2-14.6,0-21.9-0.2c-6.9-0.1-14.7-0.9-21.7,0.1C0.4,54,0.1,54,0.2,54.2
				c0.3,2.1,2.3,5.3,5,5.6c0,0,0,0,0.1,0C12,60.2,19,60,25.9,60.1c7.7,0.1,15.3,0,23.1,0c0.3,0,0.4,0.1,0.5-0.5
				c0.9-8.3,0.8-16.8,0.8-25.1c0-4.8,0.1-7.8,0.5-12.8c0.1-1.9,0.2-5.9,0.3-7.8C51.2,11.6,51.6,6.4,51.1,6.3z"/>
			<path fill="#F5A816" d="M46.7,1.1c0-0.2-0.1-0.4-0.4-0.4c-3.2-0.2-6.5,0-9.7,0c-3.6,0-7.1-0.1-10.7-0.2C18.8,0.3,11-0.6,4,0.7
				c-0.1,0-0.1,0.1-0.1,0.1c-0.1,0-0.2,0.1-0.2,0.3C2.5,9.2,1.8,17.4,1.3,25.6c-0.3,4.8-0.5,9.6-0.6,14.3c-0.2,4.7-1,9.6-0.6,14.2
				c0,0.1,0.1,0.2,0.2,0.2c0,0.1,0.1,0.1,0.1,0.1c7.2-0.3,14.4,0.2,21.7,0.3c7.4,0.1,14.8,0.1,22.2,0.1c0.3,0,0.4-0.2,0.4-0.4
				c0.1-0.1,0.1-0.2,0.1-0.3c0.6-8.4,0.5-16.8,0.2-25.1c-0.2-5.1,0.2-10,0.5-15c0.1-1.9,0.2-3.8,0.3-5.6C46.2,6,46.8,3.6,46.7,1.1
				C46.7,1.1,46.7,1.1,46.7,1.1z"/>
			<path fill="#F28A14" d="M4.5,1.4l3.1-0.3c0,0,0.3,49,34.4,53.8L0.6,54.4C0.6,54.4,2.5,3.2,4.5,1.4z"/>
			<path fill="#FFF9C4" d="M49.1,8c-0.5-0.9-1-1.8-1.5-2.8c-0.3-0.7-0.6-1.4-1-2c0.1-0.7,0.1-1.4,0.1-2.1c0-0.2-0.6-0.3-0.7-0.2
				c-1.5,4.2-0.9,9.3-1.3,13.7c-0.4,4.6-0.7,9-0.6,13.6c0.1,4.8,0,9.5,0,14.3c0,2.3,0.1,4.5-0.1,6.7c-0.1,1.6-0.4,3.2-0.1,4.7
				c-7.3-0.2-14.6,0-21.9-0.2C15.9,53.9,9,53.2,2.6,53.8c0,0-0.1,0.5-0.1,0.5c0.2,0.9,1.6,3.8,3,3.9c0,0,0.1,0.1,0.1,0.1
				c2.9,0.3,5.8,0,8.7-0.1c4.2-0.1,8.4-0.1,12.6,0c4.4,0.1,8.7-0.1,13.1,0.1c2.5,0.1,5.1,0.7,7.5,0.3c0.2,0,0.3-0.2,0.3-0.3
				c0.5-3.4,0.3-7,0.5-10.5c0.2-4.5,0.1-9,0-13.5c-0.1-4.7,0-9.3,0.3-14c0.2-4,0-8.2,0.6-12.2C49.2,8.1,49.2,8.1,49.1,8z"/>
			<path fill="#1D1D1B" d="M46.7,1.1c0-0.2-0.1-0.4-0.4-0.4c-3.2-0.2-6.5,0-9.7,0c-3.6,0-7.1-0.1-10.7-0.2C18.8,0.3,11-0.6,4,0.7
				c-0.1,0-0.1,0.1-0.1,0.1c-0.1,0-0.2,0.1-0.2,0.3C2.5,9.2,1.8,17.4,1.3,25.6c-0.3,4.8-0.5,9.6-0.6,14.3c-0.2,4.7-1,9.6-0.6,14.2
				c0,0.1,0.1,0.2,0.2,0.2c0,0.1,0.1,0.1,0.1,0.1c7.2-0.3,14.4,0.2,21.7,0.3c7.4,0.1,14.8,0.1,22.2,0.1c0.3,0,0.5-0.4,0.5-0.7
				c0.8-8.3,0.5-16.8,0.2-25.1c-0.2-5.1,0.2-10,0.5-15c0.1-1.9,0.2-3.8,0.3-5.6C46.2,6,46.8,3.6,46.7,1.1
				C46.7,1.1,46.7,1.1,46.7,1.1z M44.8,14.7c-0.4,4.6-0.7,9-0.6,13.6c0.1,4.8,0,9.5,0,14.3c0,2.3,0.1,4.5-0.1,6.7
				c-0.1,1.6-0.6,2.9-0.3,4.4c-7.3-0.2-14.4,0.3-21.7,0.2c-6.8-0.1-14.1-1.3-21-0.3c0.4-3.6,0.1-8,0.4-12c0.3-4.8,0.6-9.6,0.8-14.3
				c0.2-4.7,0.4-9.4,1-14C3.8,9.3,5.2,5.6,5.1,1.6c4.3,0,11.7,0.2,19.4,0.4c8.1,0.2,13.8-0.4,21.1-0.1C44.4,6,45.1,10.5,44.8,14.7z"
				/>
			<g>
				<path fill="#1D1D1B" d="M4.3,51c0.6-7.9,1.3-15.8,1.8-23.7c0.3-4.1,0.6-8.2,0.9-12.3c0.3-3.7,1.3-7.7,0.6-11.4
					c0-0.2-0.4-0.2-0.4,0c-0.4,7.9-1.3,15.8-1.7,23.6c-0.2,4.3-0.5,8.5-1,12.8C4.3,43.6,3.6,47.4,4.2,51C4.2,51,4.3,51,4.3,51
					L4.3,51z"/>
			</g>
			<g>
				<path fill="#1D1D1B" d="M46.6,0.9c-0.1,0-0.2,0-0.3,0.1c0,0,0,0,0,0C46.4,0.9,46.5,0.9,46.6,0.9C46.6,0.9,46.6,0.9,46.6,0.9
					L46.6,0.9z"/>
			</g>
			<g>
				<path fill="#1D1D1B" d="M46,2.8c0.6,1.8,1.3,4.2,3,5.5c0.1,0.1,0.3,0,0.2-0.1c-0.5-1-1.1-1.9-1.5-2.9c-0.4-0.9-0.7-1.8-1.4-2.6
					C46.1,2.6,45.9,2.6,46,2.8L46,2.8z"/>
			</g>
			<g>
				<path fill="#1D1D1B" d="M43.9,54.6c0.5,0.8,1.1,1.4,1.7,2.1c0.5,0.7,1,1.3,1.6,1.9c0.1,0.1,0.3,0,0.2-0.1
					C47,57.7,46.6,57,46,56.4c-0.5-0.7-1.1-1.5-1.9-2.1C44,54.2,43.8,54.4,43.9,54.6L43.9,54.6z"/>
			</g>
			<path fill="#1D1D1B" d="M51.2,6.2c-0.6-0.1-1.4,0-2,0c-0.5,0-1.3-0.1-1.5,0.1c-0.1,0.1-0.1,0.2,0,0.3c0.3,0.3,0.7,0.1,1.2,0.1
				c0.6,0,1.2,0,1.8,0c-0.4,4.3-0.5,9.2-0.8,13.4c-0.4,4.6-0.5,9.3-0.4,13.9c0.1,4.8-0.3,9.4-0.3,14.1c0,2.3,0,4.2-0.1,6.5
				c-0.1,1.6-0.1,3.7-0.3,5.1c-7.3-0.2-14.7,0-22-0.1c-7.1-0.1-14.7,0-21.6-0.2c-2.5-1.2-3.7-3.1-4.8-5.3C0.4,54,0.1,54,0.1,54.2
				c0.3,2.1,2.3,5.3,5,5.6c0,0,0,0,0.1,0C12,60.2,19,60,25.9,60.1c7.7,0.1,15.5,0.1,23.2,0.2c0.3,0,0.5-0.1,0.5-0.7
				c0.9-8.3,0.7-16.8,0.6-25.1c0-4.8,0.1-7.8,0.5-12.8c0.1-1.9,0.2-5.9,0.3-7.8C51.2,11.6,51.7,6.3,51.2,6.2z"/>
			<g>
				<path fill="#1D1D1B" d="M5.7,58.3c2.9,0.3,5.8,0,8.7-0.1c4.2-0.1,8.4-0.1,12.6,0c4.4,0.1,8.7-0.1,13.1,0.1
					c2.5,0.1,5.1,0.7,7.5,0.3c0.4-0.1,0.3-0.5,0-0.5c-2.8,0.1-5.5-0.3-8.3-0.5c-3.8-0.2-7.6,0-11.4-0.1c-4.2-0.1-8.4-0.2-12.6,0
					C12.1,57.7,8.9,58,5.7,58C5.5,58,5.5,58.3,5.7,58.3L5.7,58.3z"/>
			</g>
			<g>
				<path fill="#1D1D1B" d="M48.7,8c-0.5,3.2-0.4,6.5-0.6,9.7c-0.3,4.7-0.4,9.4-0.3,14.1c0.1,4.5,0.1,9,0.1,13.6
					c0,2.5-0.1,5-0.4,7.5c-0.2,1.8,0.1,3.7-0.2,5.5c0,0.3,0.5,0.4,0.5,0.1c0.5-3.5,0.3-7.1,0.5-10.6c0.2-4.5,0.1-9,0-13.5
					c-0.1-4.7,0-9.3,0.3-14c0.2-4,0-8.2,0.6-12.2c0-0.2-0.4-0.3-0.4-0.1L48.7,8z"/>
			</g>
			<g>
				<path fill="#1D1D1B" d="M5.8,58c-1.4-0.7-2.5-2.6-3.3-3.7c0-0.1-0.1,0-0.1,0c0.2,1.2,1.8,3.9,3.4,3.9C5.9,58.3,5.9,58.1,5.8,58
					L5.8,58z"/>
			</g>
		</g>
	</g>
</g>
<g id="fondo_gris">
</g>
<g id="instrucciones">
</g>
</svg>
