<?xml version="1.0" encoding="utf-8"?>
<!-- Generator: Adobe Illustrator 17.0.0, SVG Export Plug-In . SVG Version: 6.00 Build 0)  -->
<!DOCTYPE svg PUBLIC "-//W3C//DTD SVG 1.1//EN" "http://www.w3.org/Graphics/SVG/1.1/DTD/svg11.dtd">
<svg version="1.1" xmlns="http://www.w3.org/2000/svg" xmlns:xlink="http://www.w3.org/1999/xlink" x="0px" y="0px" width="34.9px"
	 height="35.7px" viewBox="0 0 34.9 35.7" enable-background="new 0 0 34.9 35.7" xml:space="preserve">
<g id="fondo">
</g>
<g id="Capa_1">
</g>
<g id="Capa_2">
	<g>
		<g>
			
				<ellipse transform="matrix(0.3844 -0.9231 0.9231 0.3844 -5.689 27.0355)" fill="#B3E5FC" cx="17.4" cy="17.8" rx="17.5" ry="16.9"/>
			<g>
				<path fill="#1D1E1C" d="M23.9,2c8.3,3.7,11.8,12.8,8.9,21.3c-2.9,8.7-12.7,13.3-21.3,10.5C2.7,30.9-0.8,20.6,2,12.2
					C5,3.2,15.3-1.3,24,2.1c0.5,0.2,0.8-0.7,0.2-0.9C15.1-2.3,5.4,2.3,1.5,11.1c-3.9,8.8,0.3,19.4,9,23.2c9,4,19.1-1.3,22.9-9.8
					c3.9-8.8-0.3-19.4-9-23.2C23.8,1,23.4,1.8,23.9,2z"/>
			</g>
		</g>
		<g>
			<g>
				<path fill="#FFFFFF" d="M18.7,26.1l2.3-2.3l0.4,0.4c0-0.1,0.1-0.1,0.1-0.2c0-0.2,0-0.4,0-0.5c0,0,0,0,0,0c0.4-0.3,1.6-2,1.5-1.8
					c1.1-0.6,2.5-2.1,2.5-3.5c0-1.1-1.3-1.7-2-2.5c-0.4-0.5-2.6-2.2-2.6-2.2l-2.2-2.2c-1.5-1.5-4.6-2.6-5.9-0.8
					c-0.8,1.1-0.3,2.7-0.3,4.7l0,7.2c0,2-0.3,3.9,0.7,5C14.8,28.7,17.3,27.5,18.7,26.1z"/>
				<path fill="#1D1E1C" d="M23.9,15.1c-0.9-0.9-2.7-2.5-3-2.8c-1.4-1.4-3.3-2.5-4.6-2.8C14,8.9,11.9,9,11.9,13.6c0,0.1,0,0.1,0,0.2
					c0,1.4,0.1,9.1,0.1,9.3c-0.1,6.5,3.8,5.7,7,3.4c0.5-0.4,5.1-5,5.2-5.1C26.1,19.6,27.4,17.7,23.9,15.1z M23.5,21
					c-0.1,0.1-2.5,2.7-2.7,2.9c-1.3,1.3-2.8,2.4-4.1,3c-2.6,1-3.9,0.6-3.7-3.7c0-0.4-0.1-8,0-9.4C12.9,9.9,14,9.6,16,10
					c1.5,0.3,4.2,2.6,4.8,3.2c0.2,0.2,2.8,2.6,2.8,2.6C24.9,17.2,26.2,18.3,23.5,21z"/>
			</g>
		</g>
		<path opacity="0.18" fill="#616261" d="M23.7,29.2C13.4,24.9,7.4,14.8,7.4,4c-2.4,1.8-4.3,4.3-5.6,7.3c-3.7,8.9,0.2,19.1,8.8,22.6
			c6.2,2.6,13,1.1,17.8-3.3C26.9,30.3,25.3,29.8,23.7,29.2z"/>
	</g>
</g>
<g id="fondo_gris">
</g>
<g id="instrucciones">
</g>
</svg>
