<?xml version="1.0" encoding="utf-8"?>
<!-- Generator: Adobe Illustrator 17.0.0, SVG Export Plug-In . SVG Version: 6.00 Build 0)  -->
<!DOCTYPE svg PUBLIC "-//W3C//DTD SVG 1.1//EN" "http://www.w3.org/Graphics/SVG/1.1/DTD/svg11.dtd">
<svg version="1.1" xmlns="http://www.w3.org/2000/svg" xmlns:xlink="http://www.w3.org/1999/xlink" x="0px" y="0px" width="732px"
	 height="400px" viewBox="0 0 732 400" enable-background="new 0 0 732 400" xml:space="preserve">
<g id="fondo">
</g>
<g id="Capa_1">
</g>
<g id="Capa_2">
</g>
<g id="fondo_gris">
</g>
<g id="instrucciones">
	<g>
		<defs>
			<path id="SVGID_117_" d="M732,388c0,6.6-5.4,12-12,12H12c-6.6,0-12-5.4-12-12V12C0,5.4,5.4,0,12,0h708c6.6,0,12,5.4,12,12V388z"
				/>
		</defs>
		<use xlink:href="#SVGID_117_"  overflow="visible" fill="#FFF59D"/>
		<clipPath id="SVGID_2_">
			<use xlink:href="#SVGID_117_"  overflow="visible"/>
		</clipPath>
		<polygon clip-path="url(#SVGID_2_)" fill="#FFF176" points="-32,-24.1 196.4,-24.1 640.6,420.1 -24.8,420.1 		"/>
	</g>
	<g>
		<g>
			<g>
				<g>
					<polygon fill="#FFEA0D" points="234.6,124 241,109.7 248.4,123.5 264,125.2 253.2,136.5 256.4,151.8 242.3,145 228.7,152.8 
						229.8,145 230.8,137.3 219.2,126.8 					"/>
				</g>
				<polygon opacity="0.2" fill="#1D1D1B" points="219.3,126.8 230.9,137.3 229.8,145 228.8,152.8 242.3,145 256.4,151.8 234.7,124 
									"/>
				<path fill="#1D1D1B" d="M264,124.7c-5.1-0.6-10.1-1.1-15.2-1.7c0-0.1-0.1-0.1-0.2-0.3c-0.3-0.5-0.6-1-0.8-1.5
					c-0.9-1.6-1.7-3.2-2.6-4.9c-1.2-2.3-2.5-4.6-3.7-6.9c-0.2-0.3-0.7-0.3-0.8,0c-2.1,4.7-4.2,9.4-6.3,14.1
					c-5.1,0.9-10.1,1.8-15.2,2.8c-0.3,0.1-0.4,0.5-0.2,0.8c3.8,3.5,7.6,6.9,11.4,10.4c0,0.2-0.1,0.5-0.1,0.7
					c-0.1,0.9-0.2,1.8-0.4,2.7c-0.2,1.3-0.4,2.7-0.5,4c-0.4,2.6-0.7,5.2-1.1,7.8c-0.1,0.4,0.3,0.7,0.7,0.5c4.4-2.5,8.9-5.1,13.3-7.6
					c0.1,0,0.1,0.1,0.3,0.1c0.5,0.3,1.1,0.5,1.6,0.8c1.7,0.8,3.3,1.6,5,2.4c2.3,1.1,4.7,2.3,7,3.4c0.4,0.2,0.8-0.1,0.7-0.5
					c-1-5-2.1-10-3.1-15c0-0.1,0.1-0.1,0.2-0.2c0.4-0.4,0.8-0.8,1.2-1.3c1.3-1.3,2.5-2.7,3.8-4c1.8-1.9,3.6-3.8,5.4-5.6
					C264.6,125.2,264.4,124.8,264,124.7z M230.3,137.2C230.3,137.2,230.3,137.2,230.3,137.2L230.3,137.2z M242.2,145.5
					C242.1,145.5,242.1,145.5,242.2,145.5L242.2,145.5z M257.7,130.8c-1.2,1.3-2.2,2.6-3.5,3.9c-0.4,0.4-1.4,1.1-1.5,1.7
					c-0.2,0.6,0.3,1.7,0.4,2.2c0.4,1.8,1.1,4,1.5,5.8c0.5,2.4,0.6,4.2,1.1,6.6c-1.9-1.3-2.9-1.1-5-2.1c-1.6-0.8-4.7-2.6-6.4-3.3
					c-0.5-0.3-1.4-0.9-2.1-0.9c-0.6,0-1.5,0.8-2,1.1c-1.6,0.9-3.1,1.8-4.7,2.7c-2.1,1.2-4.7,2.6-6.2,3.8c0.3-2.3,0.8-4.6,1.1-6.9
					c0.2-1.5,0.2-3.1,0.4-4.6c0.1-0.9,0.9-2.4,0.6-3.4c-0.2-0.6-1.4-1.4-1.8-1.7c-1.3-1.2-2.6-2.1-3.9-3.3c-1.8-1.6-3.7-3.6-5.5-5.2
					c4.8-0.9,9.6-1.7,14.4-2.6c0.1,0,0.2,0,0.3-0.1c0.1-0.1,1.1-2.7,1.1-2.8c1.6-4.2,3.2-5.6,5-10.8c1.1,2.1,1.8,2.9,3,5
					c0.9,1.6,2.2,4.5,3,6.1c0.3,0.5,0.6,1.7,1.1,2c0.5,0.3,1.6,0.1,2.2,0.2c1.8,0.2,3.6,0.4,5.4,0.6c2.4,0.3,4.2,0,7.5,0.7
					C261.5,127.8,259.4,129,257.7,130.8z"/>
			</g>
			<g>
				<path fill="#FDEFBA" d="M252.4,128.9c2.2,0.1,5-1,7-1.7c0,0,1.3-0.7-0.4-0.9c-2.2-0.3-4.4,0.1-6.7,0
					C250.7,126.2,250.8,128.8,252.4,128.9L252.4,128.9z"/>
			</g>
			<g>
				<path fill="#FDEFBA" d="M245.6,122.1c-0.6-2.1-2.5-4.4-3.8-6.1c0,0-1.1-1-0.8,0.6c0.4,2.2,1.5,4.2,2.1,6.3
					C243.6,124.6,246.1,123.8,245.6,122.1L245.6,122.1z"/>
			</g>
		</g>
		<g>
			<g>
				<g>
					<polygon fill="#FFEA0D" points="296.8,107.9 303.2,93.7 310.6,107.4 326.2,109.1 315.4,120.4 318.5,135.7 304.5,128.9 
						290.9,136.7 292,128.9 293,121.2 281.4,110.7 					"/>
				</g>
				<polygon opacity="0.2" fill="#1D1D1B" points="281.5,110.7 293.1,121.2 292,128.9 291,136.7 304.5,128.9 318.6,135.7 
					296.9,107.9 				"/>
				<path fill="#1D1D1B" d="M326.2,108.7c-5.1-0.6-10.1-1.1-15.2-1.7c0-0.1-0.1-0.1-0.2-0.3c-0.3-0.5-0.6-1-0.8-1.5
					c-0.9-1.6-1.7-3.2-2.6-4.9c-1.2-2.3-2.5-4.6-3.7-6.9c-0.2-0.3-0.7-0.3-0.8,0c-2.1,4.7-4.2,9.4-6.3,14.1
					c-5.1,0.9-10.1,1.8-15.2,2.8c-0.3,0.1-0.4,0.5-0.2,0.8c3.8,3.5,7.6,6.9,11.4,10.4c0,0.2-0.1,0.5-0.1,0.7
					c-0.1,0.9-0.2,1.8-0.4,2.7c-0.2,1.3-0.4,2.7-0.5,4c-0.4,2.6-0.7,5.2-1.1,7.8c-0.1,0.4,0.3,0.7,0.7,0.5c4.4-2.5,8.9-5.1,13.3-7.6
					c0.1,0,0.1,0.1,0.3,0.1c0.5,0.3,1.1,0.5,1.6,0.8c1.7,0.8,3.3,1.6,5,2.4c2.3,1.1,4.7,2.3,7,3.4c0.4,0.2,0.8-0.1,0.7-0.5
					c-1-5-2.1-10-3.1-15c0-0.1,0.1-0.1,0.2-0.2c0.4-0.4,0.8-0.8,1.2-1.3c1.3-1.3,2.5-2.7,3.8-4c1.8-1.9,3.6-3.8,5.4-5.6
					C326.8,109.1,326.6,108.7,326.2,108.7z M292.5,121.2C292.5,121.1,292.5,121.1,292.5,121.2L292.5,121.2z M304.4,129.4
					C304.3,129.4,304.3,129.4,304.4,129.4L304.4,129.4z M319.9,114.7c-1.2,1.3-2.2,2.6-3.5,3.9c-0.4,0.4-1.4,1.1-1.5,1.7
					c-0.2,0.6,0.3,1.7,0.4,2.2c0.4,1.8,1.1,4,1.5,5.8c0.5,2.4,0.6,4.2,1.1,6.6c-1.9-1.3-2.9-1.1-5-2.1c-1.6-0.8-4.7-2.6-6.4-3.3
					c-0.5-0.3-1.4-0.9-2.1-0.9c-0.6,0-1.5,0.8-2,1.1c-1.6,0.9-3.1,1.8-4.7,2.7c-2.1,1.2-4.7,2.6-6.2,3.8c0.3-2.3,0.8-4.6,1.1-6.9
					c0.2-1.5,0.2-3.1,0.4-4.6c0.1-0.9,0.9-2.4,0.6-3.4c-0.2-0.6-1.4-1.4-1.8-1.7c-1.3-1.2-2.6-2.1-3.9-3.3c-1.8-1.6-3.7-3.6-5.5-5.2
					c4.8-0.9,9.6-1.7,14.4-2.6c0.1,0,0.2,0,0.3-0.1c0.1-0.1,1.1-2.7,1.1-2.8c1.6-4.2,3.2-5.6,5-10.8c1.1,2.1,1.8,2.9,3,5
					c0.9,1.6,2.2,4.5,3,6.1c0.3,0.5,0.6,1.7,1.1,2c0.5,0.3,1.6,0.1,2.2,0.2c1.8,0.2,3.6,0.4,5.4,0.6c2.4,0.3,4.2,0,7.5,0.7
					C323.7,111.7,321.6,112.9,319.9,114.7z"/>
			</g>
			<g>
				<path fill="#FDEFBA" d="M314.6,112.8c2.2,0.1,5-1,7-1.7c0,0,1.3-0.7-0.4-0.9c-2.2-0.3-4.4,0.1-6.7,0
					C312.9,110.1,312.9,112.7,314.6,112.8L314.6,112.8z"/>
			</g>
			<g>
				<path fill="#FDEFBA" d="M307.8,106.1c-0.6-2.1-2.5-4.4-3.8-6.1c0,0-1.1-1-0.8,0.6c0.4,2.2,1.5,4.2,2.1,6.3
					C305.8,108.5,308.3,107.7,307.8,106.1L307.8,106.1z"/>
			</g>
		</g>
		<g>
			<g>
				<g>
					<polygon fill="#FFEA0D" points="359,103.3 365.4,89 372.8,102.8 388.4,104.5 377.6,115.8 380.7,131.1 366.7,124.3 353.1,132 
						354.2,124.3 355.2,116.6 343.6,106 					"/>
				</g>
				<polygon opacity="0.2" fill="#1D1D1B" points="343.7,106 355.3,116.6 354.2,124.2 353.2,132 366.7,124.3 380.8,131.1 
					359.1,103.3 				"/>
				<path fill="#1D1D1B" d="M388.4,104c-5.1-0.6-10.1-1.1-15.2-1.7c0-0.1-0.1-0.1-0.2-0.3c-0.3-0.5-0.6-1-0.8-1.5
					c-0.9-1.6-1.7-3.2-2.6-4.9c-1.2-2.3-2.5-4.6-3.7-6.9c-0.2-0.3-0.7-0.3-0.8,0c-2.1,4.7-4.2,9.4-6.3,14.1
					c-5.1,0.9-10.1,1.8-15.2,2.8c-0.3,0.1-0.4,0.5-0.2,0.8c3.8,3.5,7.6,6.9,11.4,10.4c0,0.2-0.1,0.5-0.1,0.7
					c-0.1,0.9-0.2,1.8-0.4,2.7c-0.2,1.3-0.4,2.7-0.5,4c-0.4,2.6-0.7,5.2-1.1,7.8c-0.1,0.4,0.3,0.7,0.7,0.5c4.4-2.5,8.9-5.1,13.3-7.6
					c0.1,0,0.1,0.1,0.3,0.1c0.5,0.3,1.1,0.5,1.6,0.8c1.7,0.8,3.3,1.6,5,2.4c2.3,1.1,4.7,2.3,7,3.4c0.4,0.2,0.8-0.1,0.7-0.5
					c-1-5-2.1-10-3.1-15c0-0.1,0.1-0.1,0.2-0.2c0.4-0.4,0.8-0.8,1.2-1.3c1.3-1.3,2.5-2.7,3.8-4c1.8-1.9,3.6-3.8,5.4-5.6
					C389,104.5,388.8,104.1,388.4,104z M354.7,116.5C354.7,116.5,354.7,116.5,354.7,116.5L354.7,116.5z M366.6,124.8
					C366.5,124.8,366.5,124.8,366.6,124.8L366.6,124.8z M382.1,110c-1.2,1.3-2.2,2.6-3.5,3.9c-0.4,0.4-1.4,1.1-1.5,1.7
					c-0.2,0.6,0.3,1.7,0.4,2.2c0.4,1.8,1.1,4,1.5,5.8c0.5,2.4,0.6,4.2,1.1,6.6c-1.9-1.3-2.9-1.1-5-2.1c-1.6-0.8-4.7-2.6-6.4-3.3
					c-0.5-0.3-1.4-0.9-2.1-0.9c-0.6,0-1.5,0.8-2,1.1c-1.6,0.9-3.1,1.8-4.7,2.7c-2.1,1.2-4.7,2.6-6.2,3.8c0.3-2.3,0.8-4.6,1.1-6.9
					c0.2-1.5,0.2-3.1,0.4-4.6c0.1-0.9,0.9-2.4,0.6-3.4c-0.2-0.6-1.4-1.4-1.8-1.7c-1.3-1.2-2.6-2.1-3.9-3.3c-1.8-1.6-3.7-3.6-5.5-5.2
					c4.8-0.9,9.6-1.7,14.4-2.6c0.1,0,0.2,0,0.3-0.1c0.1-0.1,1.1-2.7,1.1-2.8c1.6-4.2,3.2-5.6,5-10.8c1.1,2.1,1.8,2.9,3,5
					c0.9,1.6,2.2,4.5,3,6.1c0.3,0.5,0.6,1.7,1.1,2c0.5,0.3,1.6,0.1,2.2,0.2c1.8,0.2,3.6,0.4,5.4,0.6c2.4,0.3,4.2,0,7.5,0.7
					C385.9,107.1,383.8,108.3,382.1,110z"/>
			</g>
			<g>
				<path fill="#FDEFBA" d="M376.8,108.1c2.2,0.1,5-1,7-1.7c0,0,1.3-0.7-0.4-0.9c-2.2-0.3-4.4,0.1-6.7,0
					C375.1,105.4,375.1,108.1,376.8,108.1L376.8,108.1z"/>
			</g>
			<g>
				<path fill="#FDEFBA" d="M370,101.4c-0.6-2.1-2.5-4.4-3.8-6.1c0,0-1.1-1-0.8,0.6c0.4,2.2,1.5,4.2,2.1,6.3
					C368,103.9,370.5,103,370,101.4L370,101.4z"/>
			</g>
		</g>
		<g>
			<g>
				<g>
					<polygon fill="#FFEA0D" points="421.2,107.9 427.6,93.7 435,107.4 450.6,109.1 439.8,120.4 442.9,135.7 428.9,128.9 
						415.3,136.7 416.4,128.9 417.4,121.2 405.8,110.7 					"/>
				</g>
				<polygon opacity="0.2" fill="#1D1D1B" points="405.9,110.7 417.5,121.2 416.4,128.9 415.4,136.7 428.9,128.9 443,135.7 
					421.3,107.9 				"/>
				<path fill="#1D1D1B" d="M450.6,108.7c-5.1-0.6-10.1-1.1-15.2-1.7c0-0.1-0.1-0.1-0.2-0.3c-0.3-0.5-0.6-1-0.8-1.5
					c-0.9-1.6-1.7-3.2-2.6-4.9c-1.2-2.3-2.5-4.6-3.7-6.9c-0.2-0.3-0.7-0.3-0.8,0c-2.1,4.7-4.2,9.4-6.3,14.1
					c-5.1,0.9-10.1,1.8-15.2,2.8c-0.3,0.1-0.4,0.5-0.2,0.8c3.8,3.5,7.6,6.9,11.4,10.4c0,0.2-0.1,0.5-0.1,0.7
					c-0.1,0.9-0.2,1.8-0.4,2.7c-0.2,1.3-0.4,2.7-0.5,4c-0.4,2.6-0.7,5.2-1.1,7.8c-0.1,0.4,0.3,0.7,0.7,0.5c4.4-2.5,8.9-5.1,13.3-7.6
					c0.1,0,0.1,0.1,0.3,0.1c0.5,0.3,1.1,0.5,1.6,0.8c1.7,0.8,3.3,1.6,5,2.4c2.3,1.1,4.7,2.3,7,3.4c0.4,0.2,0.8-0.1,0.7-0.5
					c-1-5-2.1-10-3.1-15c0-0.1,0.1-0.1,0.2-0.2c0.4-0.4,0.8-0.8,1.2-1.3c1.3-1.3,2.5-2.7,3.8-4c1.8-1.9,3.6-3.8,5.4-5.6
					C451.2,109.1,451,108.7,450.6,108.7z M416.9,121.2C416.9,121.1,416.9,121.1,416.9,121.2L416.9,121.2z M428.8,129.4
					C428.7,129.4,428.7,129.4,428.8,129.4L428.8,129.4z M444.3,114.7c-1.2,1.3-2.2,2.6-3.5,3.9c-0.4,0.4-1.4,1.1-1.5,1.7
					c-0.2,0.6,0.3,1.7,0.4,2.2c0.4,1.8,1.1,4,1.5,5.8c0.5,2.4,0.6,4.2,1.1,6.6c-1.9-1.3-2.9-1.1-5-2.1c-1.6-0.8-4.7-2.6-6.4-3.3
					c-0.5-0.3-1.4-0.9-2.1-0.9c-0.6,0-1.5,0.8-2,1.1c-1.6,0.9-3.1,1.8-4.7,2.7c-2.1,1.2-4.7,2.6-6.2,3.8c0.3-2.3,0.8-4.6,1.1-6.9
					c0.2-1.5,0.2-3.1,0.4-4.6c0.1-0.9,0.9-2.4,0.6-3.4c-0.2-0.6-1.4-1.4-1.8-1.7c-1.3-1.2-2.6-2.1-3.9-3.3c-1.8-1.6-3.7-3.6-5.5-5.2
					c4.8-0.9,9.6-1.7,14.4-2.6c0.1,0,0.2,0,0.3-0.1c0.1-0.1,1.1-2.7,1.1-2.8c1.6-4.2,3.2-5.6,5-10.8c1.1,2.1,1.8,2.9,3,5
					c0.9,1.6,2.2,4.5,3,6.1c0.3,0.5,0.6,1.7,1.1,2c0.5,0.3,1.6,0.1,2.2,0.2c1.8,0.2,3.6,0.4,5.4,0.6c2.4,0.3,4.2,0,7.5,0.7
					C448.1,111.7,446,112.9,444.3,114.7z"/>
			</g>
			<g>
				<path fill="#FDEFBA" d="M439,112.8c2.2,0.1,5-1,7-1.7c0,0,1.3-0.7-0.4-0.9c-2.2-0.3-4.4,0.1-6.7,0
					C437.3,110.1,437.3,112.7,439,112.8L439,112.8z"/>
			</g>
			<g>
				<path fill="#FDEFBA" d="M432.2,106.1c-0.6-2.1-2.5-4.4-3.8-6.1c0,0-1.1-1-0.8,0.6c0.4,2.2,1.5,4.2,2.1,6.3
					C430.2,108.5,432.7,107.7,432.2,106.1L432.2,106.1z"/>
			</g>
		</g>
		<g>
			<g>
				<g>
					<polygon fill="#FFEA0D" points="483.4,124 489.8,109.7 497.2,123.5 512.8,125.2 502,136.5 505.1,151.8 491.1,145 477.5,152.8 
						478.6,145 479.6,137.3 468,126.8 					"/>
				</g>
				<polygon opacity="0.2" fill="#1D1D1B" points="468.1,126.8 479.7,137.3 478.6,145 477.6,152.8 491.1,145 505.2,151.8 483.5,124 
									"/>
				<path fill="#1D1D1B" d="M512.8,124.7c-5.1-0.6-10.1-1.1-15.2-1.7c0-0.1-0.1-0.1-0.2-0.3c-0.3-0.5-0.6-1-0.8-1.5
					c-0.9-1.6-1.7-3.2-2.6-4.9c-1.2-2.3-2.5-4.6-3.7-6.9c-0.2-0.3-0.7-0.3-0.8,0c-2.1,4.7-4.2,9.4-6.3,14.1
					c-5.1,0.9-10.1,1.8-15.2,2.8c-0.3,0.1-0.4,0.5-0.2,0.8c3.8,3.5,7.6,6.9,11.4,10.4c0,0.2-0.1,0.5-0.1,0.7
					c-0.1,0.9-0.2,1.8-0.4,2.7c-0.2,1.3-0.4,2.7-0.5,4c-0.4,2.6-0.7,5.2-1.1,7.8c-0.1,0.4,0.3,0.7,0.7,0.5c4.4-2.5,8.9-5.1,13.3-7.6
					c0.1,0,0.1,0.1,0.3,0.1c0.5,0.3,1.1,0.5,1.6,0.8c1.7,0.8,3.3,1.6,5,2.4c2.3,1.1,4.7,2.3,7,3.4c0.4,0.2,0.8-0.1,0.7-0.5
					c-1-5-2.1-10-3.1-15c0-0.1,0.1-0.1,0.2-0.2c0.4-0.4,0.8-0.8,1.2-1.3c1.3-1.3,2.5-2.7,3.8-4c1.8-1.9,3.6-3.8,5.4-5.6
					C513.4,125.2,513.2,124.8,512.8,124.7z M479.1,137.2C479.1,137.2,479.1,137.2,479.1,137.2L479.1,137.2z M491,145.5
					C490.9,145.5,490.9,145.5,491,145.5L491,145.5z M506.5,130.8c-1.2,1.3-2.2,2.6-3.5,3.9c-0.4,0.4-1.4,1.1-1.5,1.7
					c-0.2,0.6,0.3,1.7,0.4,2.2c0.4,1.8,1.1,4,1.5,5.8c0.5,2.4,0.6,4.2,1.1,6.6c-1.9-1.3-2.9-1.1-5-2.1c-1.6-0.8-4.7-2.6-6.4-3.3
					c-0.5-0.3-1.4-0.9-2.1-0.9c-0.6,0-1.5,0.8-2,1.1c-1.6,0.9-3.1,1.8-4.7,2.7c-2.1,1.2-4.7,2.6-6.2,3.8c0.3-2.3,0.8-4.6,1.1-6.9
					c0.2-1.5,0.2-3.1,0.4-4.6c0.1-0.9,0.9-2.4,0.6-3.4c-0.2-0.6-1.4-1.4-1.8-1.7c-1.3-1.2-2.6-2.1-3.9-3.3c-1.8-1.6-3.7-3.6-5.5-5.2
					c4.8-0.9,9.6-1.7,14.4-2.6c0.1,0,0.2,0,0.3-0.1c0.1-0.1,1.1-2.7,1.1-2.8c1.6-4.2,3.2-5.6,5-10.8c1.1,2.1,1.8,2.9,3,5
					c0.9,1.6,2.2,4.5,3,6.1c0.3,0.5,0.6,1.7,1.1,2c0.5,0.3,1.6,0.1,2.2,0.2c1.8,0.2,3.6,0.4,5.4,0.6c2.4,0.3,4.2,0,7.5,0.7
					C510.3,127.8,508.2,129,506.5,130.8z"/>
			</g>
			<g>
				<path fill="#FDEFBA" d="M501.2,128.9c2.2,0.1,5-1,7-1.7c0,0,1.3-0.7-0.4-0.9c-2.2-0.3-4.4,0.1-6.7,0
					C499.5,126.2,499.5,128.8,501.2,128.9L501.2,128.9z"/>
			</g>
			<g>
				<path fill="#FDEFBA" d="M494.4,122.1c-0.6-2.1-2.5-4.4-3.8-6.1c0,0-1.1-1-0.8,0.6c0.4,2.2,1.5,4.2,2.1,6.3
					C492.4,124.6,494.9,123.8,494.4,122.1L494.4,122.1z"/>
			</g>
		</g>
	</g>
</g>
</svg>
