<?xml version="1.0" encoding="utf-8"?>
<!-- Generator: Adobe Illustrator 18.0.0, SVG Export Plug-In . SVG Version: 6.00 Build 0)  -->
<!DOCTYPE svg PUBLIC "-//W3C//DTD SVG 1.1//EN" "http://www.w3.org/Graphics/SVG/1.1/DTD/svg11.dtd">
<svg version="1.1" id="Capa_1" xmlns="http://www.w3.org/2000/svg" xmlns:xlink="http://www.w3.org/1999/xlink" x="0px" y="0px"
	 viewBox="1034.5 106 42.5 42.5" enable-background="new 1034.5 106 42.5 42.5" xml:space="preserve">
<g>
	<g>
		
			<ellipse transform="matrix(-0.9232 -0.3844 0.3844 -0.9232 1980.3602 651.8908)" fill="#D3302F" cx="1055.3" cy="128" rx="16.7" ry="17.4"/>
		<g>
			<path fill="#1D1E1C" d="M1061.8,112.4c8.2,3.6,11.6,12.7,8.8,21.1c-2.9,8.6-12.6,13.2-21,10.4c-8.8-2.9-12.3-13-9.5-21.3
				C1043.2,113.6,1053.3,109.2,1061.8,112.4c0.7,0.2,0.9-0.7,0.3-0.8c-9.1-3.5-18.7,1.1-22.5,9.8s0.3,19.1,9,23
				c8.8,4,18.9-1.3,22.7-9.7c3.9-8.7-0.3-19.1-9-23C1061.7,111.4,1061.3,112.2,1061.8,112.4z"/>
		</g>
	</g>
	<g>
		
			<ellipse transform="matrix(-0.9232 -0.3844 0.3844 -0.9232 1980.3602 651.8908)" fill="#EA5351" cx="1055.3" cy="128" rx="14" ry="14.6"/>
		<g>
			<path fill="#1D1E1C" d="M1060.8,115c6.9,3.1,9.8,10.6,7.4,17.7c-2.4,7.3-10.5,11.1-17.7,8.7c-7.4-2.4-10.3-10.9-8-17.9
				C1045,115.9,1053.7,112.2,1060.8,115c0.6,0.2,0.8-0.6,0.3-0.7c-7.6-3-15.7,0.9-18.9,8.2c-3.3,7.3,0.2,16.1,7.5,19.3
				c7.5,3.3,15.9-1.1,19-8.2c3.3-7.3-0.2-16.1-7.5-19.3C1060.7,114.1,1060.4,114.7,1060.8,115z"/>
		</g>
	</g>
	<path opacity="0.15" fill="#1D1E1C" enable-background="new    " d="M1061.6,139.3c-10.2-4.2-16.1-14.3-16-24.9
		c-2.3,1.8-4.3,4.3-5.5,7.2c-3.6,8.8,0.2,18.9,8.7,22.4c6.1,2.5,12.9,1.1,17.6-3.2C1064.7,140.5,1063.2,139.9,1061.6,139.3z"/>
	<g>
		<path fill="#E53935" d="M1063.8,132c0,0-1.9-1.8-4.1-3.9c2.1-2.2,3.6-3.9,3.6-3.9c1.8-1.9,1.7-3.6,0.4-4.8
			c-1.2-1.2-3.1-1.3-4.9,0.6c0,0-1.7,1.7-3.8,3.9c-2.2-2.1-4-3.8-4-3.8c-1.9-1.8-3.6-1.7-4.8-0.4c-1.2,1.2-1.3,3.1,0.6,4.9
			c0,0,1.7,1.7,3.9,3.9c-1.8,1.9-3.4,3.5-4.3,4.4c-1.8,1.8-0.6,3.1,0.4,4.1c1.7,1.5,3.2,1.4,4.5,0c0,0,1.8-1.9,3.9-4.1
			c1.8,1.8,3.3,3.5,4.3,4.2c1.4,1,3.4,1.4,4.4,0.3C1065.7,135.7,1065.2,133.3,1063.8,132z"/>
		<g>
			<path fill="#1D1E1C" d="M1064,131.8c-0.6-0.4-1-1-1.5-1.4c-0.9-0.9-2.1-2.2-2.1-2.2s0.9-1.1,1.9-2.1c1.2-1.3,2.2-2.2,2.5-4.1
				c0.6-2.9-2.8-4.8-5.3-3c-1.3,1-4.3,4.3-4.3,4.3s-1-0.8-1.5-1.3c-1.1-1-2.9-3-4.4-3.3c-3.4-0.7-5,2.3-3.5,5.2
				c0.6,1,4.4,4.5,4.4,4.5s-0.4,0.6-0.6,0.7c-1.5,1.5-3,2.4-3.9,4.5c-1.7,3.8,3.1,6.3,6,3.6c1.3-1.2,3.9-3.9,3.9-3.9
				c0.6,0.4,0.9,1,1.3,1.4c0.9,0.9,3,3.4,5.1,3.5C1065.7,138.5,1066.9,134.4,1064,131.8c-0.3-0.3-0.9,0.2-0.6,0.6
				c1.9,2,1.3,3.6,0.6,4.4c-1.1,1.2-3.2,1.1-4.9-0.7c-1-1.1-2.5-2.4-3.6-3.5c-0.1-0.1-0.4-0.1-0.6,0c-1.3,1.3-1.8,1.9-3.1,3.3
				c-1.1,1.3-3.1,2.3-4.8,1c-2-1.4-0.6-3.9,0.7-4.9c1.1-1.1,2.1-2.2,3.2-3.3c0.1-0.1,0.1-0.4,0-0.6c-1.3-1.3-2.5-2.5-3.9-3.9
				c-1.9-2-0.8-3.9-0.4-4.3c1-1.1,3-0.8,4.2,0.4c0.2,0.2,0.6,0.4,0.8,0.8c1,1,2.1,2,3.1,3c0.1,0.1,0.4,0.1,0.6,0
				c1.2-1.3,2.5-2.5,3.8-3.9c1.7-1.7,3-1.3,3.8-0.8c1.7,1.1,1.4,3.2,0.1,4.6c-0.2,0.2-0.4,0.6-0.7,0.8c-1,1-1.9,2-2.9,3.1
				c-0.1,0.1-0.1,0.4,0,0.6c1.3,1.3,2.7,2.5,4.1,3.9C1063.8,132.6,1064.5,132.1,1064,131.8z"/>
		</g>
	</g>
</g>
</svg>
