<?xml version="1.0" encoding="utf-8"?>
<!-- Generator: Adobe Illustrator 18.0.0, SVG Export Plug-In . SVG Version: 6.00 Build 0)  -->
<!DOCTYPE svg PUBLIC "-//W3C//DTD SVG 1.1//EN" "http://www.w3.org/Graphics/SVG/1.1/DTD/svg11.dtd">
<svg version="1.1" xmlns="http://www.w3.org/2000/svg" xmlns:xlink="http://www.w3.org/1999/xlink" x="0px" y="0px"
	 viewBox="0 0 561.5 228.5" enable-background="new 0 0 561.5 228.5" xml:space="preserve">
<g id="fondo">
</g>
<g id="Capa_2">
	<path fill="#FAFAFA" d="M545.3,223.6H15.7c-6.6,0-12-5.4-12-12V15.7c0-6.6,5.4-12,12-12h529.7c6.6,0,12,5.4,12,12v195.9
		C557.3,218.2,551.9,223.6,545.3,223.6z"/>
	<g>
		<defs>
			<path id="SVGID_277_" d="M545.3,223.7H15.7c-6.6,0-12-5.4-12-12V15.3c0-6.6,5.4-12,12-12h529.7c6.6,0,12,5.4,12,12v196.4
				C557.3,218.3,551.9,223.7,545.3,223.7z"/>
		</defs>
		<clipPath id="SVGID_2_">
			<use xlink:href="#SVGID_277_"  overflow="visible"/>
		</clipPath>
		<g clip-path="url(#SVGID_2_)">
			<g>
				<path fill="#DBA283" d="M84.4,153.2c-0.1-0.1-0.2-0.2-0.2-0.2c0,0,0,0,0,0c0,0-0.1-0.1-0.1-0.1c-0.1-0.1-0.2-0.1-0.2-0.2
					c-0.7-0.6-1.3-1-2.1-1.4c-0.6-0.7-2.4-1.7-2.8-2.4c0.4-1.6,0.6-3.3,1.3-4.8c0.5-1.1,0.3-2.4-1.6-1.7c-1.4,0.5-13.8-2-18.5-3.3
					c-0.1-0.1-0.1-0.1-0.2-0.2c-0.5-0.4-0.4-0.4-1-0.6c-0.2-0.1-0.5-0.2-0.7-0.2c0,0.6-0.3,1.2-0.5,1.7c-0.4,0.7-1.5,1.4-2,1.9
					c-0.9,0.9-1.9,1.5-3,2c-1.2,0.8-2.6,1.3-3.9,2.1c0,1.3-0.1,2.5-0.7,3.7c-0.1,0.2-0.3,0.3-0.6,0.2c0.1,0.4,0.3,0.8,0.5,1.2
					c0.1,1.4,0.4,2.8,0.7,4.1c0.3,1,0.7,3,1.4,3.9c0.8,2.9,1.9,4.9,3.1,7.8c0,0.1,0,0.1,0,0.2c0,0.1,0,0.1,0.1,0.1
					c0.8,1.1,1.3,2.4,2.1,3.6c0.9,1.5,2,3,2.4,4.6c0.1,0.2,0,0.4-0.2,0.5c0.1,0.1,0.1,0.2,0.2,0.3c0.8,1.9,1.2,3.6,1.6,5.4
					c0.1,0,0.2-0.1,0.3-0.1c1.2-0.9,1.9-2.2,2.9-3.3c1.4-1.5,2.8-2.9,4.3-4.2c0.5-0.4,0.9-0.9,1.4-1.3c1-0.7,1.9-1.4,2.8-2.1
					c0.3,0,0.6-0.1,0.9-0.3c1.8-1.9,3.6-3.8,5.2-5.8c1-0.9,1.9-1.8,2.7-2.9c0.1,0,0.2-0.1,0.2-0.1c1.4-1.4,2.4-2.9,3.3-4.6
					c0.1-0.2,0.1-0.5,0.1-0.7c0.2-0.4,0.3-0.7,0.3-1.1C84.4,154.6,85,154,84.4,153.2z"/>
				<path fill="#D4987F" d="M80.2,144.4c-1.2,0.2-4-0.1-5-0.2c-6.1-0.9-11.2-3.1-16.7-5.6c-0.6-0.3-0.6,0.9-0.7,1.5
					c-0.5,3.8-4.8,4.3-6.7,6.1c-0.5-0.1-1.1,0.1-1.2,0.7l-0.2,1.2c0,0,0,0.1,0,0.1c-0.2,0.5-0.2,1.2-0.3,1.9
					c-1,8.6,7.7,26.9,9.2,31.6c0.2,0.7,1.9-2.1,2-2.8c0.8-6.1-7.5-17.8-7.6-20.4c-0.1-2,0.4-4.8,1.5-6.7c1.3-2.3,1.9-2.2,4.3-1.8
					c1.6,0.2,2.5,0.7,4.1,0.2c1.1-0.4,2-1.2,2.9-1.8c3.1-2.1,5.6-2.7,8.8-2.5c1.1,0.2,3.1,0.8,4.3,0.7
					C79.9,146.7,80.5,144.3,80.2,144.4z"/>
				<g>
					<g>
						<path fill="#DBA283" d="M123.7,113.2c0-0.1,0-0.2,0.1-0.2c0.1-0.5,0.2-0.8,0.4-1.2c2.1-5.9,3.7-11.8,4.9-18.7
							c0.2-0.9,0.4-1.8,0.6-2.7c-4.4-2.3-10.7-5.9-13.6-9.3c-3.6-4.3-6.7-7.7-9.3-12.6c-1.9-3.8-2.5-5.3-5.5-5.9
							c-2.7-1.7-6.2-1.8-8.8,0.7c-0.5,0.3-1,0.6-1.5,1c-0.3-0.9-0.7-1.8-1.3-2.5c-0.4-0.7-0.8-1.4-1.4-2c-2.2-2.3-5.8-1.8-7.8,0.3
							c-4.4,1.8-8.1,6.1-12.3,8.3c-3.5,1.8-7.2,3.1-10.8,4.6c-0.8,0.3-1.6,0.5-2.4,0.7c-7.5,0.3-10.3-2.6-12.5-2.9
							c-1.2-0.5-2.7-0.1-4.2,0c-4.5,0.4-6.3,4.6-6.8,8.6c-0.6,4.4,1.2,8.4,5.6,9.8c0.7,0.2,1.4,0.2,2.1,0.1
							c-0.2,0.9-0.4,1.8-0.5,2.7c-1,3.3-0.7,7.3-0.3,10.9c-0.4,1.8-0.3,3.5,0.1,5.1c0.3,4.6,1.2,9.1,3.4,13
							c3,5.4,6.3,10.8,11.8,13.8c0.5,0.3,1.1,0.5,1.6,0.7c0.5,0.5,1,0.9,1.6,1.4c6.1,4.2,12.1,6.4,19.4,7.2c1.7,0.2,3.4,0.2,5.1,0.1
							c2.2,0.4,4.2,0.8,6.6,0.2c2.1-0.5,4.2-1.4,6.2-2.4c5.3-1.2,10.2-3.5,14.2-7c0.9-0.7,1.7-1.4,2.4-2.2c1.1-0.9,2.1-1.9,3-3
							c0,0,0,0,0,0c0,0,2.9-3.6,3.4-4.1c0.5-0.5,0.9-1.1,1.1-1.7c0.1,0,0.1-0.1,0.2-0.1c1-0.9,3.1-5,3.7-6c0.3-0.7,1-1.3,1-1.9
							C123.5,115,123.3,114.1,123.7,113.2z"/>
						<path fill="#DBA283" d="M135.1,105.7C135.1,105.7,135.1,105.7,135.1,105.7c0.1-0.4,0.1-0.8,0.1-1.2c0-1.7-0.5-3.4-1.6-4.9
							c-0.1-0.2,0-0.5-0.2-0.5c-0.1-0.1-0.9-1.5-1.2-1.4c-0.6-0.6-1.3-0.7-2.1-0.9c0,0-1.2-0.1-2-0.2c-2.2,5.7-3.2,11.4-4.4,17.4
							c0.1,0,0.2,0,0.3,0c0.5-0.1,0.9,0.1,1.4,0c0.9,0.1,1.8-0.3,2.5-0.6c0.2,0.2,3.3-1.8,4.4-3c0.1,0,0.1-0.1,0.2-0.1
							C133.9,109,134.8,107.3,135.1,105.7z"/>
						<path fill="#D4987F" d="M57.3,137c-0.6-0.4-1.1-0.9-1.6-1.4c-0.5-0.2-1.1-0.4-1.6-0.7c-5.5-3-8.8-8.5-11.8-13.8
							c-2.1-3.9-3.1-8.4-3.4-13c-0.4-1.6-0.5-3.3-0.1-5.1c-0.4-3.6-0.7-7.5,0.3-10.9c0.1-0.9,0.2-1.8,0.5-2.7
							c-0.7,0.1-1.5,0.1-2.1-0.1c-4.4-1.4-6.2-5.4-5.6-9.8c0.5-4,2.3-8.2,6.8-8.6c1.5-0.1,2.8-0.2,4,0.3c2.2,0.4,5.4,2.5,12.9,2.2
							c0.8-0.2,1.5-0.2,2.3-0.5c3.6-1.5,7.2-2.6,10.7-4.4c4.3-2.1,7.9-6.5,12.3-8.3c2-2.1,5.6-2.7,7.8-0.3c0.6,0.6,1,1.3,1.4,2
							c0.6,0.7,1,1.6,1.3,2.5c0.5-0.4,1-0.7,1.5-1c2.6-2.5,6.1-2.4,8.8-0.7c3,0.6,3.6,2.1,5.5,5.9c0,0-3.9-1.9-8-2.1
							c-2.8-0.1-5.4,1.7-8.2,1.3c-2.9-0.4-3.7-3.2-6.3-3.2c-6.5-0.1-10.2,6.7-21,10.2c-8.6,2.8-16.1,2.9-18.2,5.8
							c-2.8,3.9-5.5,18.7-2,31.3C47.2,125.7,57.3,137,57.3,137z"/>
						<g>
							<path fill="#D89084" d="M50.2,90.9c-0.3-0.1-0.6-0.1-0.9-0.2c-2.3-0.9-4.9-1.2-7-0.7c-0.7,0.2-1.4,0.6-1.8,1.2
								c-0.7,0.4-0.7,1.3-0.3,1.9c0,0.1,0.1,0.2,0.1,0.4c0.8,2,3.1,3,4.9,3.7c0.6,0.2,1.5,0.5,2.4,0.7c0.2,0.2,0.4,0.5,0.8,0.6
								c2.8,1.1,7.5,1.8,8.8-1.8C58.4,93.7,53,91.2,50.2,90.9z"/>
							<path fill="#D89084" d="M122.2,114.3c-0.3-0.7-0.7-1.3-1.2-1.9c0,0,0.1,0,0.1,0c0.2,0.1,0.3-0.3,0.2-0.5
								c-2.4-2.2-5.6-3.3-8.7-3.5c-0.2,0-0.4,0-0.6,0c-1.4,0-2.8,0.2-4,0.7c-0.8,0.3-1.5,1.8-1.1,2.7c0.2,0.3,0.4,0.6,0.6,0.8
								c0.6,2.7,3.5,3.6,5.5,4.2c2.5,0.7,6,1.4,8.6-0.7C122.2,115.8,122.5,114.9,122.2,114.3z"/>
						</g>
						<g>
							<path fill="#1C1C1B" d="M54.9,75.6c1,0.2,2.2-0.2,3.2-0.5c1.4-0.3,2.8-0.8,4.2-1.1c0.6-0.1,0.4-1-0.1-1
								c-1.6-0.1-3-0.1-4.6,0.4c-1,0.3-2.3,0.8-2.9,1.7C54.6,75.3,54.7,75.6,54.9,75.6L54.9,75.6z"/>
						</g>
						<g>
							<path fill="#1C1C1B" d="M118,91.8c0-1.1-0.8-2.3-1.5-3.1c-1-1.3-2.2-2-3.6-2.9c-0.5-0.3-1,0.4-0.6,0.8c1,1,1.9,2.2,2.9,3.3
								c0.7,0.8,1.4,1.7,2.4,2.1C117.8,92.2,118,92,118,91.8L118,91.8z"/>
						</g>
						<g>
							<path fill="#1C1C1B" d="M125.5,104.7c-1.1,5.5-2,10.5-5.1,15.9c-4.3,7.3-11.4,15.3-19.4,18.8c-13,5.7-28.1,5.6-40.9-1
								c-9.7-5-17.8-13.3-20.5-24.1c-2.4-9.5-1.5-20.7,0.8-30.2c0.1-0.5-0.6-0.7-0.7-0.2c-3,10-3.2,21.9-0.7,31.9
								c2.6,10.4,10.7,18.1,19.7,23.3c15.9,9.1,38.7,8.1,52.2-5c4.4-4.3,8.3-9,11.1-14.5c2.4-4.6,3.5-9.7,4.4-14.7
								C126.2,104.6,125.9,104.5,125.5,104.7z"/>
						</g>
						<g>
							<path fill="#1C1C1B" d="M42.5,71.2c-2.8-3-6.7-0.7-9,1.7c-3.1,3.3-3.8,8.3-1.6,12.3c0.2,0.4,0.9,0.1,0.7-0.3
								c-1.2-3.7-1.4-6.9,0.8-10.2c2-3.1,5.3-4.8,8.8-3.1C42.5,71.7,42.8,71.4,42.5,71.2L42.5,71.2z"/>
						</g>
						<g>
							<path fill="#1C1C1B" d="M37.6,76.4c-1.2-0.4-2,0.9-2.3,1.8c-0.3,0.9-0.1,2.9,1.1,3.1c0.2,0,0.3-0.1,0.3-0.3
								c-0.2-0.8-0.6-1.4-0.6-2.3c0.1-1,0.7-1.4,1.5-1.8C37.9,76.7,37.8,76.4,37.6,76.4L37.6,76.4z"/>
						</g>
						<g>
							<path fill="#1C1C1B" d="M130.6,103.3c0.5,1.2-0.8,2.4-1.4,3.4c-0.2,0.4,0.2,0.7,0.5,0.6c0.9-0.4,3-4,1.2-4.3
								C130.8,102.9,130.5,103.1,130.6,103.3L130.6,103.3z"/>
						</g>
						<g>
							<path fill="#1C1C1B" d="M33.1,86.3c0.1,2,3.5,3.5,5.2,3.4c0.3,0,0.4-0.5,0.1-0.6c-2-0.4-3.8-1.1-4.9-2.9
								C33.4,86.1,33,86.1,33.1,86.3L33.1,86.3z"/>
						</g>
						<g>
							<path fill="#D6A31A" d="M128.9,109.1c-0.1,0-0.5-0.1-0.6,0.5c-0.2,0.7,0.2,0.6,0.3,0.6c1.2,0.4,2.2,0.7,2.9,1.9
								c0.5,1,0.4,2.6-0.5,3.4c-0.6,0.6-1.8,0.5-2.5,0.2c-1.4-0.5-1.1-2.3-1.1-2.3c-0.1-0.1-0.2-0.1-0.2,0c0,0,0,0,0,0l-1.1,0.1
								c0,0,0,0,0,0l-0.4,0l0.1,1.1l0,0c0.1,3.1,4.3,4.7,6.8,2.6C135.8,114.7,133.4,108.2,128.9,109.1z"/>
							<g>
								<path fill="#1C1C1B" d="M128.4,110.4c1.2,0.4,2.2,0.7,2.9,1.9c0.6,1,0.3,2.5-0.5,3.3c-0.6,0.6-1.6,0.5-2.3,0.1
									c-0.9-0.4-0.9-1.2-1.2-2c0-0.1-0.2-0.2-0.3-0.1c-0.8,0.9,0,2.1,0.8,2.6c1,0.7,2.4,0.7,3.3,0c2.7-1.9,0.5-6.8-2.7-6
									C128.3,110.2,128.3,110.3,128.4,110.4L128.4,110.4z"/>
							</g>
							<path fill="#1C1C1B" d="M128.8,109C128.7,109,128.7,109,128.8,109c-0.6,0-1.1,1.3-0.3,1.3c0.1,0,0.1-0.1,0.1-0.1
								c0-0.2-0.2-0.4,0-0.6c0.1-0.2,0.3-0.3,0.4-0.3c1.8,0.5,3.4,1.4,4.1,3.3c0.6,1.6,0,3.4-1.4,4.4c-1.1,0.7-2.5,0.8-3.6,0.3
								c-1.4-0.6-1.7-2-1.9-3.4c-0.1-0.3-0.6-0.3-0.6,0c-0.7,3.8,4.2,5.9,6.9,3.6C135.8,114.7,133.4,108.1,128.8,109z"/>
						</g>
						<g>
							<path fill="#1C1C1B" d="M130.6,111.5c-0.8,1-2.1,1.4-3.2,1.7c-0.6,0.2-1.2,0.3-1.8,0.3c-0.7,0-1.4-0.2-2.1-0.2
								c-0.2,0-0.3,0.3-0.1,0.4c1.1,0.9,2.9,0.5,4.2,0.1c1.3-0.4,2.8-0.7,3.8-1.8C131.5,111.9,130.7,111.3,130.6,111.5L130.6,111.5z
								"/>
						</g>
						<path fill="#1C1C1B" d="M135.7,101.8c-0.8-3.1-3.9-6.3-7.3-5.6c0.1-0.6,0.6-2,0.8-2.6c-0.2-0.1-0.5-0.2-0.7-0.3
							c-0.3,0.7-0.9,2.2-1,2.9c-0.1,0.6,0.5,0.8,0.8,0.4c3.2,0.7,5.3,2.1,6.3,5.5c0.4,1.5,0.2,3.1-0.1,4.6c-0.4,1.7-1.7,2.4-2.5,3.7
							c-0.2,0.3,0.1,0.8,0.5,0.6C136,110,136.4,104.8,135.7,101.8z"/>
						<g>
							<path fill="#1C1C1B" d="M82,99.5c2.7,0.9,4.1,4.3,2.5,6.7c-1.3,2-3.8,1.4-5.7,1.8c-0.3,0.1-0.2,0.4,0,0.5
								c2.5,1.1,5.8-0.5,6.8-2.9c1.1-2.5-0.9-6-3.6-6.5C81.9,99.1,81.8,99.4,82,99.5L82,99.5z"/>
						</g>
						<g>
							<path opacity="0.7" fill="#FFFFFF" d="M70.1,97.5c1.8-1.1,5.2-10.5,5.3-11.8c0-0.3-3.6-3-3.9-3c-3.7-2.4-10.8-4.3-15.1-5.4
								c-2.6-0.7-6.7-0.3-6.8-0.3c-0.1,0-3.1,10.2-4.1,14.5c0,0.1,0.1,0.2,0.2,0.1c3.1,3.4,6.9,5.6,10.9,6.9
								c3.2,1.1,6.7,1.1,10.1,1.2C67.2,99.7,70.2,97.7,70.1,97.5z"/>
							<path opacity="0.7" fill="#FFFFFF" d="M121.5,97c0-0.1,0-0.1,0-0.2c0,0,0.1-0.1,0-0.1c0,0,0,0-0.1,0c0,0,0,0,0,0
								c-2-2.1-6.4-2.4-9-3.3c-4.3-1.4-8.7-3.1-13.3-3c-0.5,0-3.2,0.9-2.9,1.1c-1.8,4.1-0.9,11-2.8,15.1c-0.1,0.3,7.2,4.6,10.5,5.3
								c4.2,0.8,12,2.4,14-1.6C118,110.4,120.5,101.4,121.5,97z"/>
							<g>
								<path fill="#1C1C1B" d="M61.2,84.1C60,84,59.1,83.8,58,84.6c-1.7,1.3-2.2,3.7-0.2,5c1.5,1.1,4.3,1.2,5.5-0.3
									c1.1-1.6,0-4.2-1.6-5.1c-0.6-0.3-1.5-0.4-2.2-0.3"/>
								<path fill="#FFFFFF" d="M61.8,84.9c-0.7,0-2.3,0.5-1.3,1.7c1.7,2,3.4-0.8,1.5-1.8"/>
							</g>
							<g>
								<path fill="#1C1C1B" d="M108.8,97.7c-1.2-0.1-2.1-0.3-3.2,0.5c-1.7,1.3-2.2,3.7-0.2,5c1.5,1.1,4.3,1.2,5.5-0.3
									c1.1-1.6,0-4.2-1.6-5.1c-0.6-0.3-1.5-0.4-2.2-0.3"/>
								<path fill="#FFFFFF" d="M109.4,98.9c-0.8,0-2.6,0.6-1.5,1.9c1.8,2.2,3.7-0.8,1.6-1.9"/>
							</g>
							<path fill="#57B7D9" d="M122.9,101.7c0,0,5.7-5.7,7.2-5.8c0,0-3.9-1-5.7,0.7L122.9,101.7z"/>
							<path fill="#1C1C1B" d="M123.3,102.3c0,0,3.9-5.2,6.9-5.6c3-0.4-0.4-1.1-0.4-1.1s-5,2.5-6.2,5.3S123.3,102.3,123.3,102.3z"/>
							<path fill="#1C1C1B" d="M124,96.3c1.3-0.9,2.4-1.4,2.4-1.4s3.4,0.7,0.4,1.1c-0.9,0.1-1.9,0.7-2.9,1.5
								C124,97.1,124,96.7,124,96.3z"/>
							<path fill="#57B7D9" d="M46.5,79.9c0,0-1.9-7.8-3-8.7c0,0,3.9,1.2,4.5,3.6L46.5,79.9z"/>
							<path fill="#57B7D9" d="M76.5,84.5c-1.2-4.2-23.3-10.7-28-10c0,0-6.2,15.1-3.4,19.1c2.8,4,11.5,6.3,15.2,7.1
								c3.8,0.8,7.2,1.1,9,0.3C71.3,100.3,77.7,88.7,76.5,84.5z M72.5,89.1c-1.1,2.6-2.2,5.1-3.4,7.7c-0.4,0.7-0.9,1.4-1.7,1.7
								c-0.5,0.2-1,0.2-1.6,0.2c-0.6,0-1.2,0-1.8,0c-0.7-0.1-1.3-0.1-2-0.2c-0.7-0.1-1.9-0.3-2.5-0.4c-1.5-0.4-2.2-0.6-3.6-1.2
								c-2.2-0.8-5.1-1.8-6.8-3.6c-1.4-1.5-1.3-3.6-1-5.5c0.4-2.8,2-9,3-10c0.6-0.6,1.5-0.5,2.4-0.4c2.3,0.4,4.6,1.2,6.9,1.9
								c2.6,0.7,5.2,1.5,7.7,2.4c1.7,0.6,3.2,1.3,4.4,2.6c0,0,0,0,0,0c0,0,0,0,0,0c0.1,0.1,0.1,0.1,0.2,0.2c0,0,0,0,0,0
								c0.5,0.6,0.6,1.4,0.5,2.1C73.1,87.5,72.8,88.4,72.5,89.1z"/>
							<path fill="#57B7D9" d="M92.6,107.7c1.1,1.7,4.2,3.2,7.8,4.5c3.6,1.3,12.2,3.8,16.7,2c4.5-1.9,7.2-18,7.2-18
								c-3.5-3.1-25.8-9.3-29-6.3C92.1,92.8,91.4,106,92.6,107.7z M97,93.5c0.3-0.7,0.8-1.3,1.5-1.5c0,0,0,0,0,0
								c0.1,0,0.2-0.1,0.3-0.1c0,0,0,0,0,0l0,0c1.7-0.5,3.4-0.3,5.1,0.1c2.6,0.6,5.2,1.3,7.8,2c2.3,0.6,4.7,1.1,6.8,2
								c0.9,0.4,1.6,0.8,1.8,1.6c0.4,1.4-1.6,7.5-2.7,10.1c-0.7,1.7-1.8,3.7-3.7,4.2c-2.3,0.6-5.3-0.1-7.7-0.6
								c-1.5-0.3-2.3-0.4-3.7-0.9c-0.7-0.2-1.7-0.7-2.4-1c-0.6-0.3-1.2-0.6-1.8-0.9c-0.6-0.3-1.1-0.6-1.6-0.9
								c-0.5-0.3-0.9-0.6-1.2-1c-0.5-0.7-0.6-1.5-0.5-2.3c0.3-2.8,0.6-5.5,1.1-8.3C96.4,95.1,96.7,94.2,97,93.5z"/>
							<path fill="#57B7D9" d="M75.3,88.4c0,0,11.8-0.1,18.8,5.5l2.2-4.1c0,0-2.4-2.5-9.6-4.6C79.6,83,75.6,84,75.6,84L75.3,88.4z"
								/>
							<path fill="#1C1C1B" d="M76.5,88.9c0.2-0.6-0.9-0.7-1-0.1c-0.9,2.8-4.2,9.5-4.9,10.5c-0.4,0.5-0.8,0.9-1.3,1.3
								c-0.5,0.4-1.3,0.4-2,0.3c-0.7,0-5.1-0.4-8.4-1c-1.8-0.4-5.4-1.8-6.2-2.1c-1.5-0.7-3.1-1.4-4.5-2.3c-0.3-0.2-0.6-0.3-0.8-0.5
								c-3.5-2.2-2.3-6.7-1.4-10.1c0.8-3.2,2.2-9.4,2.9-9.9c0.4-0.3,4.5,0.4,6.4,0.9c2.4,0.7,4.7,1.5,7.1,2.2
								c4.3,1.4,10.4,2.3,13.4,6c0.5,0.6,1.4-0.2,0.9-0.9c-1.6-2-3.7-3-6.1-3.8c-3.3-1.1-6.7-2.2-10.1-3.1c-3-0.9-6-2-9.1-2.5
								c-1.2-0.2-2.4-0.2-3.1,0.5c-1.4,1.4-3.5,9.5-4,13.2c-0.4,2.5-0.6,5.3,1.3,7.2c2.2,2.3,6,3.6,9,4.7c1.8,0.7,2.8,1.1,4.7,1.5
								c0.9,0.2,2.4,0.4,3.3,0.5c0.9,0.1,1.7,0.1,2.6,0.2c0.8,0.1,1.6,0.1,2.4,0c0.7,0,1.4,0,2.1-0.3c1-0.4,1.7-1.3,2.2-2.2
								C73.6,95.9,75.5,92.6,76.5,88.9z"/>
							<path fill="#1C1C1B" d="M73.4,86.7c0.1-0.8-0.1-1.5-0.5-2.1c0,0,0,0,0,0c-0.1-0.1-0.1-0.1-0.2-0.2c0,0,0,0,0,0l0,0
								c-1.2-1.4-2.8-2.1-4.5-2.7c-2.6-0.9-5.2-1.7-7.8-2.4c-2.3-0.7-4.6-1.5-7-1.9c-0.9-0.2-1.8-0.2-2.4,0.4
								c-1.1,1-2.7,7.3-3.1,10.2c-0.3,1.9-0.4,4.1,1,5.6c1.7,1.8,4.7,2.7,6.9,3.6c1.4,0.5,2.2,0.8,3.7,1.2c0.7,0.2,1.9,0.3,2.6,0.4
								c0.7,0.1,1.3,0.1,2,0.2c0.6,0.1,1.2,0,1.9,0c0.6,0,1.1,0,1.6-0.2c0.8-0.3,1.3-1,1.7-1.7c1.3-2.6,2.4-5.1,3.5-7.8
								C73,88.4,73.3,87.4,73.4,86.7z M68.2,96.9c-0.3,0.4-0.6,0.7-1,1c-0.4,0.3-1,0.3-1.5,0.3c-0.5,0-4-0.3-6.5-0.8
								c-1.4-0.3-4.2-1.4-4.8-1.7c-1.2-0.5-2.4-1.1-3.5-1.8c-0.2-0.1-0.4-0.3-0.6-0.4c-2.7-1.7-1.8-5.2-1.1-7.8
								c0.7-2.5,1.7-7.3,2.2-7.6c0.3-0.2,3.5,0.3,5,0.7c1.8,0.5,3.6,1.1,5.5,1.7c3.2,1,7.6,1.7,10,4.3c1.2,1.3,0.2,3.8,0.1,3.9
								C71.2,90.9,68.7,96.1,68.2,96.9z"/>
							<path fill="#1C1C1B" d="M93,93.6c0.2-0.6,1.1-0.2,1,0.4c-0.7,2.8-1.5,10.3-1.4,11.5c0,0.6,0.2,1.2,0.5,1.8
								c0.2,0.6,0.9,1,1.5,1.3c0.6,0.3,4.6,2.4,7.7,3.5c1.7,0.6,5.6,1.3,6.4,1.5c1.7,0.3,3.4,0.4,5,0.4c0.3,0,0.6,0,1,0
								c4.1-0.1,5.5-4.5,6.5-7.8c1-3.2,3.1-9.2,2.8-9.9c-0.2-0.5-4-2.1-6-2.6c-2.4-0.6-4.8-1.2-7.2-1.8c-4.4-1.1-10.1-3.6-14.5-2
								c-0.8,0.3-1.1-1-0.3-1.2c2.4-0.9,4.7-0.6,7.1,0c3.4,0.8,6.9,1.7,10.2,2.7c3,0.8,6.1,1.5,9,2.7c1.1,0.5,2.1,1,2.4,2.1
								c0.5,1.9-2.1,9.9-3.5,13.3c-1,2.3-2.3,4.8-4.9,5.5c-3.1,0.8-7-0.2-10.1-0.7c-1.9-0.4-3-0.6-4.8-1.2c-0.9-0.3-2.3-0.9-3.1-1.3
								c-0.8-0.4-1.6-0.8-2.3-1.2c-0.7-0.4-1.4-0.8-2.1-1.2c-0.6-0.4-1.2-0.8-1.6-1.4c-0.6-0.9-0.8-2-0.7-3.1
								C91.8,101,91.9,97.3,93,93.6z"/>
							<path fill="#1C1C1B" d="M96.1,95.8c-0.5,2.8-0.9,5.6-1.1,8.4c-0.1,0.8,0,1.7,0.5,2.4c0.3,0.5,0.8,0.8,1.2,1.1
								c0.5,0.3,1,0.7,1.6,0.9c0.6,0.3,1.2,0.6,1.8,0.9c0.6,0.3,1.7,0.8,2.4,1c1.4,0.5,2.2,0.6,3.7,0.9c2.4,0.5,5.4,1.2,7.8,0.6
								c2-0.5,3-2.5,3.8-4.2c1.1-2.7,3.1-8.8,2.7-10.3c-0.2-0.8-1-1.2-1.8-1.6c-2.2-0.9-4.6-1.4-6.9-2.1c-2.6-0.7-5.3-1.4-7.9-2.1
								c-1.8-0.4-3.5-0.6-5.2-0.1l0,0c0,0,0,0,0,0c-0.1,0-0.2,0.1-0.3,0.1c0,0,0,0,0,0c-0.7,0.3-1.3,0.8-1.6,1.5
								C96.5,94.1,96.3,95,96.1,95.8z M96.9,95.9c0-0.1,0.5-2.8,2.2-3.3c3.4-0.9,7.5,0.8,10.8,1.6c1.9,0.5,3.7,0.9,5.5,1.4
								c1.5,0.4,4.4,1.6,4.6,2c0.2,0.6-1.4,5.2-2.1,7.6c-0.8,2.5-1.9,6-5,6c-0.3,0-0.5,0-0.8,0c-1.3,0-2.6-0.1-3.9-0.3
								c-0.6-0.1-3.6-0.6-4.9-1.1c-2.4-0.9-5.4-2.5-5.9-2.7c-0.4-0.2-1-0.5-1.1-1c-0.2-0.4-0.3-0.9-0.4-1.4
								C95.8,103.8,96.4,98.1,96.9,95.9z"/>
							<path fill="#1C1C1B" d="M75.5,88.8c0,0,12.2,0.7,18.3,5.5c0,0,0.8-1-0.4-1.8c-1.6-1-4.5-3-9.2-3.9S75.7,87.1,75.5,88.8z"/>
							<path fill="#1C1C1B" d="M75.9,84.3c0,0,13.7,0.8,19.8,5.6c0,0,1-0.7-0.2-1.5c-1.6-1-5.4-3.4-10-4.3S75.1,82.4,75.9,84.3z"/>
							<path fill="#1C1C1B" d="M46,80.3c0,0-0.6-6.5-2.9-8.4C40.7,70,44,71.2,44,71.2s3,4.8,2.5,7.8S46,80.3,46,80.3z"/>
							<path fill="#1C1C1B" d="M48.5,74.8c-0.6-1.4-1.3-2.5-1.3-2.5s-3.3-1.2-0.9,0.7c0.7,0.6,1.3,1.6,1.7,2.8
								C48.1,75.5,48.3,75.1,48.5,74.8z"/>
						</g>
						<path opacity="0.3" fill="#FFFFFF" d="M114.9,123.2c-5.7,7.6-13.5,11.2-22.2,15.3c-0.3,0.1-0.1,0.6,0.2,0.5
							c9-1.7,19-7.7,22.2-15.8C115.2,123.2,114.9,123.1,114.9,123.2z"/>
						<g>
							<path fill="#D6A31A" d="M37.9,89.7c0,0-0.1,0-0.2,0c-0.1,0-0.1,0-0.1,0c-0.1,0-0.3,0-0.4,0c-0.1,0-0.2-0.1-0.2-0.1
								c-0.1,0-0.2,0-0.3-0.1c0,0-0.1-0.1-0.1-0.1c-0.1,0-0.2,0-0.2,0c-0.3,0.4-0.9,0.9-1.8,0.8c-0.8-0.1-1.8-0.7-2-1.5
								c-0.3-1.1,0.4-2.6,1.4-3.1c1.1-0.7,2.3-0.4,3.4-0.1c0.1,0,0.4,0.3,0.6-0.4c0.2-0.6-0.2-0.7-0.2-0.8c-3.3-3.1-8.7,1.1-7.4,5.1
								c1,3,5.4,3.9,7.1,1.3l0,0l0.6-0.9L37.9,89.7z"/>
							<g>
								<path fill="#1C1C1B" d="M37.1,89.3C37.1,89.3,37,89.2,37.1,89.3c-0.3,0.1-0.5,0.2-0.8,0.2c-0.4,0.4-0.8,0.7-1.6,0.7
									c-0.8-0.1-1.7-0.5-1.9-1.3c-0.3-1.1,0.3-2.5,1.3-3.1c1.2-0.7,2.2-0.4,3.4,0c0.1,0,0.1-0.1,0.1-0.1c-2.3-2.3-6.7,0.7-5.4,3.7
									c0.5,1.1,1.7,1.8,2.9,1.7C35.9,90.8,37.1,90.3,37.1,89.3C37.1,89.3,37.1,89.3,37.1,89.3z"/>
							</g>
							<path fill="#1C1C1B" d="M37.9,89.7C37.8,89.7,37.8,89.7,37.9,89.7c-0.1,0-0.2,0-0.2,0.1c-1,1-1.9,2.1-3.4,1.8
								c-1.3-0.2-2.4-1-2.9-2.2C30.6,87.9,31,86,32.4,85c1.6-1.2,3.4-1.1,5.2-0.6c0.1,0.1,0.2,0.3,0.2,0.5c0,0.3-0.2,0.3-0.4,0.5
								c0,0,0,0.1,0,0.2c0.7,0.4,0.9-1,0.4-1.3c0,0,0,0,0,0c-3.4-3.2-9,1.1-7.6,5.3c1.2,3.4,6.4,4.2,7.8,0.6
								C38.2,89.9,38.1,89.7,37.9,89.7z"/>
						</g>
						<g>
							<path fill="#4C2602" d="M133.7,95c-0.4-0.3-0.7-0.8-1.1-1.2c-0.1-0.1-0.2-0.2-0.3-0.3c-0.1-0.1-0.2-0.2-0.3-0.3
								c-0.1-0.1-0.1-0.2-0.1-0.3c-0.1-0.1-0.1-0.1-0.1-0.3c0.1-0.5,0.5-0.9,0.8-1.3c0,0,0-0.1,0.1-0.1c0,0,0-0.1,0-0.1
								c1.2-2.4,1.4-5.9,1.8-7.8c1.4-6.3,2.5-13.8,0.9-20.2c-1.4-5.4-2.7-11.1-6.4-15.3c-1.6-1.8-3.3-3.7-5.3-5.1
								c-0.4-0.4-0.8-0.6-1.4-0.8c-0.2-0.1-0.4-0.2-0.6-0.3c-1.5-1.3-3.4-2.3-4.8-2.9c-1.5-0.7-3.1-1.6-4.7-2.4
								c-0.7-4.6-5.2-8.4-6.8-12.6c-0.3-0.7-0.8-1.1-1.4-1.2c-0.4-0.2-0.9-0.3-1.4-0.2c-1.2-2-2.3-4-4.5-5.2
								c-0.5-0.5-0.5-1.1-1.1-1.5c-0.2-0.5-1.2-0.8-1.8-1c-1-0.4-2-0.6-3.1-0.6c-2.3-0.9-4.7-0.7-7.3,1.3c-2.9,1.2-5.8,4.5-7.6,6.4
								c-1.1,1.2-2,2.5-3,3.8c-2.1,2.4-4.2,4.9-6.2,7.4c-0.1,0.1-0.2,0.3-0.3,0.4c-0.2,0.3-0.5,0.6-0.7,0.9
								c-0.9,0.4-1.8,0.9-2.8,1.3c-4.1,2-10.2,7.1-12.9,12.3c-0.6,0-1.1,0.3-1.6,0.8c-1.8,2.1-4.2,3.3-6.7,4.3
								c-0.6,0.1-1.1,0.2-1.7,0.3c-3.2,0.5-6.2,1.9-9.3,2.8c-2.3,0.7-4.8,1.1-7.1,2.1c-1.8,0.1-3.6,0.1-5.5-0.1
								c-0.4-0.1-0.8,0-1.1,0.3c-0.4-0.1-0.9-0.1-1.4,0.2c0,0-0.1,0-0.1,0.1c-0.1,0.1-0.3,0.2-0.4,0.3c-1.2-0.3-2.4-0.6-3.6-0.8
								c-1-0.2-1.3,1.2-0.5,1.7c0,0.2,0.1,0.3,0.2,0.5c1.4,1.4,3.6,2.1,5.4,2.7c0.4,0.2,0.8,0.3,1.3,0.5c0.5,0.2,0.9,0.3,1.4,0.5
								c1.2,0.8,2.6,0.9,4.1,1.4c1.5,0.5,2.3,1.1,3.8,1.3c-3.1,2.7-6.8,5.2-10.8,5.3c0,0,0,0-0.1,0c-0.9,0.2-1.9,0.3-2.8,0.3
								c-0.1,0.1-0.2,0.1-0.2,0.2c-0.3,0-0.7,0.1-0.9,0.1c0,0-0.1,0-0.1,0c-0.4,0-0.8-0.1-1.1-0.2c0,0-0.1-0.1-0.1-0.1
								c-0.3-0.1-0.6-0.1-0.8,0.1c-0.4,0.2-0.6,0.6-0.5,1c0.3,0.2,0.5,0.4,0.8,0.6c0.2,0.1,0.4,0.2,0.6,0.4c0.4,0.3,0.9,0.6,1.2,1
								c0,0,0,0,0,0c0.1,0,0.2,0.1,0.4,0.1c0.3,0.1,0.6,0.2,0.9,0.3c0,0.1,0.1,0.3,0.2,0.4c0.7,0,1.6,0.5,1.9,1.1c0,0,0,0,0,0
								c0.7,0.3,1.6,0.6,2.4,0.8c0.6,0.7,1.5,0.8,2.4,1.1c0.2,0.1,0.8,0.1,1.5,0.2c0.1,0.2,0.2,0.3,0.4,0.4c0.5,0.1,1,0.2,1.4,0.4
								c0,0,0,0,0,0c0.2,0,0.4,0,0.7,0.1c1.9,0.2-0.8,3.4-1.3,3.8c-0.2,0.2-0.4,0.4-0.6,0.5c-0.1-0.1-0.3-0.1-0.5,0
								c-1.3,0.6-2.5,1.5-4,1.9c0,0,0,0,0,0c-1.4,0.1-2.7,0.2-4,0.6c-0.5,0.2-0.6,0.7-0.3,1.1c1.3,0.1,2.6,0.4,3.7,0.8
								c0.4,0,0.8-0.1,1.2-0.2c0.1,0.1,0.3,0.1,0.5,0.1c1.6,0.2,3.1,0.5,4.7,0.5c0.2,0,2.3-0.2,2.4-0.1c0.1,0.1,0.1,0.1,0.2,0.2
								c0.7-0.2,1.4-0.4,2.1-0.5c0.2-0.1,0.3-0.2,0.5-0.2l0,0c0,0,0.1,0,0.1-0.1c0,0,0.1-0.1,0.1-0.2c0-0.1,0-0.1,0-0.2
								c0.1-0.2,0.1-0.3,0.1-0.5c0.2-0.5,0.3-1,0.5-1.5c0.2-0.4,0.4-0.9,0.7-1.3c0,0,0,0,0-0.1c0.1-0.1,0.3-0.2,0.4-0.4
								c0,0,0-0.1,0-0.1c0,0,0,0,0,0c0,0,0.1,0,0.1-0.1c-0.2-0.5-0.3-1.1-0.5-1.6c-0.3-2.6-0.7-4.6,0.2-7.1c0.5-1.3,1.9-2.8,2.9-3.9
								c1.1-0.7,2.1-1.3,3.2-1.9c1.3-0.1,2.5,0,3.8,0.2c0.1,0.1,0.2,0.1,0.4,0.2c0.4,0.2,0.8,0.4,1.4,0.4c0.1,0,0.1,0,0.2,0
								c0.2,0.1,0.3,0.1,0.5,0.2c0.3,0.6,0.8,1,1.6,1.3c12.9,3.5,23.9-4.4,34.1-11.8c1.9-0.4,4.3-0.9,6.3-0.7c0.5,0.2,1,0.3,1.6,0.5
								c0.8,0.4,1.4,1,1.8,2c-0.2,0.9,0.7,3.7,1.2,3.7c0.3,0,0.6-0.2,0.8-0.5c0.3-0.1,0.5-0.2,0.8-0.3c0.9-0.4,1.6-0.8,2.3-1.5
								c0.5-0.2,1-0.3,1.5-0.4c2.1-0.1,5.7,2.1,7.6,3.4c0.2,0.4,0.5,0.8,0.7,1.1c0,0.4,0.2,0.7,0.5,1c2.2,2.3,3.6,5.8,5.1,8.6
								c0.1,0.2,0.3,0.5,0.4,0.7c0.2,0.6,0.4,1.2,0.7,1.7c0.1,0.3,0.3,0.6,0.5,0.9c0.9,2.2,2,3.9,4.1,5.5c0.1,0.1,0.1,0.1,0.2,0.2
								c1.2,2.5,4.2,4.2,6.3,5.8c1.1,0.8,2.4,1.7,3.6,2.4c0.9,0.6,1.8,0.8,2.8,1.1c1.1,0.4,2,0.9,3.2,1c0,0,0,0,0.1,0
								c0.1,0,0.2,0,0.2,0c1,0.2,3.1,0.9,3.9,0.2c0.1-0.1,0.4-0.3,0.5-0.3C135.8,96.3,134.2,95.3,133.7,95z"/>
							<path fill="#859717" d="M111.3,33.2c-0.5-1.3-1.2-2.5-1.8-3.7c-0.1-0.3-1.6-3.1-2.3-2.7c0-1.1-0.9-2.4-1.5-3.2
								c-0.6-1-1.8-2.1-3-1.8c0,0,0,0,0,0c-3.2-0.9-6.3,0.3-9.4,0.7c-2.3,0.3-5.5,0.2-7.2,1.9c0,0-0.1,0-0.1,0c-0.5,0-0.7,0.6-0.9,1
								c-0.4,0.6-0.6,1.2-0.9,1.9c0,0,0,0,0,0.1c-0.2,0.1-0.5,0.2-0.7,0.3c0,0,0,0,0,0c-0.1-0.1-0.1-0.1-0.2,0
								c-0.6,0.4-0.9,1-1.2,1.6c-0.3,0.6-0.7,1.4-0.4,2c0.1,0.1,0.2,0.1,0.3,0.1c0.4-0.4,30,4.5,30,4.3
								C112,34.7,111.6,33.9,111.3,33.2z"/>
							<g>
								<path fill="#1C1C1B" d="M90.6,66.4c-0.3-3.5-1.4-6.3-4.9-7.5c-3.1-1-7.7,2.5-10.2,3.7c-5.3,2.6-9.6,6.5-15.2,8.7
									c-4.3,1.7-8.5,1.8-13,0.8c-4.6-1-7.4-3.9-10.7-6.9c-0.2-0.2-0.5,0-0.3,0.3c5.5,7.3,13.8,9.8,22.6,7.3
									c4-1.1,7.8-3.2,11.2-5.5c4.5-3,17.4-13.3,19.8-0.8C90.1,66.9,90.7,66.7,90.6,66.4L90.6,66.4z"/>
							</g>
							<g>
								<path fill="#1C1C1B" d="M36.5,65.4c3.3,2.2,8.2,0.9,11.9,0.3c5-0.8,9.8-3.2,13.5-6.6c0.2-0.2-0.1-0.4-0.3-0.3
									c-6.9,4.6-16.5,9.1-25.1,6.5C36.5,65.2,36.4,65.4,36.5,65.4L36.5,65.4z"/>
							</g>
							<g>
								<path fill="#1C1C1B" d="M94.8,54.5c1.5-8.4-11.3-8-16-5.7c-0.2,0.1-0.1,0.3,0.1,0.3c6.1-1.6,14.5-2.8,15.8,5.4
									C94.7,54.6,94.8,54.6,94.8,54.5L94.8,54.5z"/>
							</g>
							<g>
								<path fill="#1C1C1B" d="M95,54.3c5.6-4.7,15.3-0.6,16.9,6.2c0.1,0.3,0.4,0.2,0.4-0.1c-0.6-7.2-12.6-12.1-17.4-6.2
									C94.8,54.2,95,54.3,95,54.3L95,54.3z"/>
							</g>
							<g>
								<path fill="#1C1C1B" d="M41.2,66.3C43.3,59.9,48.7,56,51.5,50c2-4.3,5.2-7.7,8.6-10.9c11.6-10.9,26.4-7.8,40.5-4.7
									c3.3,0.7,6.5,0.5,9.7,1.6c3.3,1.1,7.4,3.6,10.4,5.4c5.4,3.2,11.3,10,12.8,16.2c1.1,4.4,1.4,9.1,1.7,13.6
									c0.2,2.8-3,22.1-4,21.8c-0.4-0.1-0.6,0.5-0.2,0.6c0,0,0.1,0,0.1,0c0.1,0,0.3,0,0.4-0.1c5.8-10.6,5.3-24.6,2.9-36.1
									c-2.6-12-18.1-22.3-29.6-23.3c-8.9-0.8-16.6-3.7-25.6-3.5c-6.5,0.2-12.1,2-17.3,5.9c-3.8,2.9-7.5,6.8-10.1,10.9
									c-2.3,3.6-4.1,7-6.8,10.4c-2.2,2.7-3.7,5.2-4.2,8.6C40.8,66.5,41.1,66.5,41.2,66.3L41.2,66.3z"/>
							</g>
							<g>
								<path fill="#1C1C1B" d="M107.2,27.1c0,0,1.8,3.2,2,3.6c0.8,1.6,1.5,3.3,2.3,4.9c0.1,0.2,0.4,0.1,0.5-0.1
									c0.1-0.8-0.3-1.6-0.6-2.3c-0.5-1.3-1.2-2.5-1.8-3.7c-0.2-0.3-1.8-3.5-2.4-2.6C107,27,107.1,27.1,107.2,27.1L107.2,27.1z"/>
							</g>
							<g>
								<path fill="#1C1C1B" d="M107.2,26.9c-4.2-1.9-9-1.4-13.4-1.2c-3.5,0.1-7.2,0.3-10.4,1.8c-0.3,0.1-0.2,0.7,0.2,0.6
									c7.8-2,15.7-1.8,23.6-1C107.3,27.1,107.3,27,107.2,26.9L107.2,26.9z"/>
							</g>
							<g>
								<path fill="#1C1C1B" d="M83.2,27.5c-0.6,0.4-0.9,1-1.2,1.6c-0.3,0.6-0.7,1.4-0.4,2c0.1,0.1,0.2,0.1,0.3,0.1
									c0.4-0.4,0.5-1,0.7-1.6c0.2-0.7,0.7-1.3,0.8-2C83.5,27.5,83.3,27.4,83.2,27.5L83.2,27.5z"/>
							</g>
							<g>
								<path fill="#1C1C1B" d="M84.5,27.4c0.3-0.5,0.6-1,0.9-1.6c0.2-0.4,0.8-0.9,0.7-1.3c0-0.1-0.1-0.2-0.2-0.2
									c-0.5,0-0.7,0.6-0.9,1c-0.4,0.6-0.6,1.2-0.9,1.9C84,27.5,84.4,27.7,84.5,27.4L84.5,27.4z"/>
							</g>
							<g>
								<path fill="#1C1C1B" d="M85.9,24.7c2.4-1.1,4.9-1.3,7.5-1.6c3.2-0.3,6.1-1.3,9.4-0.8c0.3,0.1,0.4-0.4,0.1-0.5
									c-3.2-1-6.4,0.3-9.7,0.7c-2.4,0.3-5.8,0.2-7.4,2.1C85.7,24.7,85.8,24.8,85.9,24.7L85.9,24.7z"/>
							</g>
							<g>
								<path fill="#1C1C1B" d="M102.8,22c-2.4-3-3.7-6.5-7.6-8.2c-3.7-1.6-6.6-1.1-10.1,0.7c-9.3,4.6-13.9,15-21.8,21.3
									c-0.1,0.1,0,0.3,0.1,0.2c6.6-3.5,10.6-11.3,16-16.3c4.6-4.3,10.6-8,16.6-4.1c2.6,1.7,4,5.4,6.6,6.6
									C102.8,22.3,102.9,22.1,102.8,22L102.8,22z"/>
							</g>
							<g>
								<path fill="#1C1C1B" d="M52.9,46.3c-5.5,5.1-13.3,7.2-20.3,9.3c-7.5,2.2-14.9,2.8-22.7,2.3c-0.4,0-0.4,0.6,0,0.6
									c8.3,1.6,16.8-0.5,24.7-2.8c6.1-1.8,14.7-3.7,18.5-9.2C53.2,46.4,53,46.2,52.9,46.3L52.9,46.3z"/>
							</g>
							<g>
								<path fill="#1C1C1B" d="M9.7,58.2c6.9,5.1,16.9,9.8,25.7,8.5c0.2,0,0.2-0.4,0-0.4c-4.5-0.2-8.8-1-13.2-2.4
									c-4.4-1.4-8.1-4.7-12.4-5.9C9.7,58.1,9.6,58.2,9.7,58.2L9.7,58.2z"/>
							</g>
							<g>
								<path fill="#1C1C1B" d="M27.9,66.3c-2.8,2.1-5.4,3.6-8.8,4.5c-3.1,0.8-6.2,0.9-9.3,1.4c-0.4,0.1-0.4,0.7,0,0.7
									c5.5,0.5,15.4-1,18.4-6.4C28.3,66.4,28.1,66.2,27.9,66.3L27.9,66.3z"/>
							</g>
							<g>
								<path fill="#1C1C1B" d="M9.5,72.4c5,4.2,10.8,7.5,17.5,7.9c0.2,0,0.2-0.3,0.1-0.3c-3.2-0.8-6.3-1.6-9.4-2.9
									c-3-1.3-5.1-3.5-7.9-5C9.5,72,9.3,72.3,9.5,72.4L9.5,72.4z"/>
							</g>
							<g>
								<path fill="#1C1C1B" d="M26.3,80c-0.8,1-1.3,2-2.2,2.8c-1,0.9-2.3,1.6-3.5,2.1c-2.3,1.1-4.7,1.5-7.1,2.2
									c-0.4,0.1-0.4,0.8,0.1,0.8c2.8-0.1,5.6-1.1,8.1-2.3c2-1,5.2-2.9,5-5.5C26.6,79.9,26.4,79.8,26.3,80L26.3,80z"/>
							</g>
							<g>
								<path fill="#1C1C1B" d="M13.7,87.3C13.7,87.3,13.7,87.3,13.7,87.3c-0.1,0-0.2,0.1-0.2,0.2c0,0,0,0.1,0,0.1
									c0,0.1,0,0.2,0.1,0.3c1.4,0.9,3.6,0.9,5.2,1.2c3.1,0.5,7.2,1.6,10.1,0.1c0.1,0,0.1-0.2,0-0.2c-1.8-0.1-3.6,0.2-5.4,0
									c-1.8-0.1-3.6-0.5-5.4-0.8c-0.8-0.1-1.7-0.3-2.5-0.4C15.1,87.6,13.7,87.1,13.7,87.3C13.8,87.4,13.8,87.3,13.7,87.3
									L13.7,87.3z"/>
							</g>
							<g>
								<path fill="#1C1C1B" d="M73.6,40.5c-3.3,0-5.4,2.1-7.6,4.3c-2.6,2.5-5.1,5.5-6.7,8.8c-0.1,0.2,0.2,0.3,0.3,0.1
									c3.5-4.9,7.7-11.8,14.1-13C73.7,40.6,73.7,40.5,73.6,40.5L73.6,40.5z"/>
							</g>
							<g>
								<path fill="#1C1C1B" d="M119.7,52.1c5.6,3,6.5,9.4,7.1,15.1c0,0.2,0.4,0.2,0.4,0c0.3-3.7-0.4-7.5-2.2-10.7
									C124.4,55.4,121.4,51.1,119.7,52.1C119.7,52.1,119.7,52.1,119.7,52.1L119.7,52.1z"/>
							</g>
							<g>
								<path fill="#1C1C1B" d="M91.7,41.1c-4.1-2.6-10.5-0.1-14.2,2.1c-0.2,0.1-0.1,0.3,0.1,0.3c2.3-0.9,4.6-1.8,7-2.3
									C87.1,40.7,89.3,41.3,91.7,41.1C91.7,41.2,91.8,41.1,91.7,41.1L91.7,41.1z"/>
							</g>
							<path opacity="0.2" fill="#FFFFFF" d="M132.5,79.7c0.5-3.6,0.7-6.5,0.3-10.1c-0.4-3.9-1.2-7.7-2.4-11.4
								c-1.1-3.2-2.8-6-4.6-8.7c-1.1-1.6-2.2-3.1-3.3-4.6c-0.9-1.2-2.1-2-3.4-2.7c-0.6-0.3,2.4,3.2,3.3,4.3c2.3,2.6,6.2,10,7.3,13.3
								c1,3.1,2.3,12.8,2.5,14.4C132.3,76.3,132.4,80.7,132.5,79.7z"/>
							<path fill="#1C1C1B" d="M137.1,97c-0.6-0.5-1.4-1-2-1.5c0,0-0.1,0-0.1,0c-3.5-2.5-6.5-5-9.1-8.5c-2.8-3.7-4.3-8.1-6.7-12
								c-0.1-0.2-0.4-0.1-0.3,0.1c3.6,8.5,8,16.5,16.3,21.2c0,0,0.3,0.3,0.5,0.4c-7.8-1.2-13.6-4.5-19.4-9.9
								c-5.1-4.7-7.2-14.3-10.9-19.9c-3.3-5-11.2-6.2-14.8-0.7c-0.2,0.2,0.2,0.5,0.4,0.3c6.3-6.3,12.9-0.7,16.1,5.6
								c2.1,4,3.9,10.9,7,14.2c4.1,4.3,8.9,8.1,14.4,10c0,0,0.3,0.1,0.4,0.2c0.1,0,0.1,0.1,0.2,0.1c0,0,4.9,1.2,7.5,1.1
								c0,0,0.1,0,0.1,0c0.1,0,0.2,0,0.2,0c0,0,0,0,0,0C137.2,97.4,137.3,97.2,137.1,97z"/>
							<g>
								<g>
									<path fill="none" stroke="#1C1C1B" stroke-miterlimit="10" d="M136.4,97.2"/>
								</g>
							</g>
							<g>
								<path fill="#1C1C1B" d="M102.6,22c1.3,0.4,2.2,1.2,3,2.3c0.5,0.8,0.8,2,1.5,2.6c0.1,0.1,0.2,0.1,0.3-0.1
									c0.2-1.1-1-2.6-1.7-3.4c-0.7-0.9-1.9-2-3.1-1.6C102.5,21.8,102.5,21.9,102.6,22L102.6,22z"/>
							</g>
						</g>
						<path fill="#C05F6E" d="M82.7,132.8c-4.7-6.8-13.5-9.1-20.7-4.9c-0.8,0.5-0.3,1.7,0.6,1.5l0,0c3,1.3,6,2.7,9.2,3.7
							c3.2,1,6.6,1,9.9,1.4C82.5,134.6,83.2,133.5,82.7,132.8z"/>
						<path fill="#A1887F" d="M89.2,129.5c0.3-1.5,0.1-3-0.4-4.7c0-0.2,0.1-0.3,0-0.5c0-0.2-0.1-0.5-0.1-0.7c0,0,0-0.1,0-0.1
							c-0.1-0.2-0.1-0.5-0.2-0.7c-0.2-0.7-0.7-0.9-1.2-0.8c-1.5-0.9-3.4-1.1-5.2-1.4l-0.3-0.1c-0.8-0.5-1.8-0.8-2.9-1.1
							c-4.6-1-9.2-1.6-13.8-2.9c-0.4-0.4-1-0.5-1.5-0.2c-0.3,0.1-0.5,0.3-0.6,0.6c-0.7,0.8-1.4,1.7-2.1,2.5
							c-1.9,2.3-3.4,4.9-1.5,7.6c0.2,0.3,0.5,0.5,0.9,0.6c0.3,0.3,0.7,0.4,1.1,0.2c2.9-1.5,6.3-2.2,9.6-2.1c0.2,0.2,0.4,0.3,0.6,0.3
							c1,0.2,1.9,0.4,2.9,0.6c0.2,0.1,0.4,0.3,0.7,0.3c0.2,0.1,0.5,0.1,0.7,0.2c0.6,0.1,1.6,0.4,2.6,0.6c1,0.6,1.9,1.2,2.7,2
							c0,0.2,0.1,0.3,0.2,0.5c0.9,1.2,1.8,2.4,2.7,3.6c0.6,0.8,1.4,0.6,2,0.1c0.4,0.1,0.8,0.1,1.2-0.3c0.2-0.3,0.5-0.6,0.7-0.8
							c0.1-0.2,0.2-0.3,0.3-0.5c0.3-0.3,0.6-0.6,1.1-1.3C89.7,130.4,89.6,129.9,89.2,129.5z"/>
						<path fill="#FFFFFF" d="M85.7,119.5c-5.1-3.7-10.4-6.6-16.9-5.4c-0.2,0-0.3,0.1-0.4,0.3c-1,0.1-2,0.3-3,0.5
							c-0.7,0.2-0.8,1.3,0,1.5c1.4,0.3,2.9,0.6,4.3,0.8c0.1,0.1,0.2,0.2,0.4,0.2c3.6,1,7.2,1.9,10.8,2.8c0.4,0.1,0.9,0.3,1.3,0.4
							c0.2,0.1,0.5,0.2,0.7,0.3c0.3,0.1,0.5,0.1,0.7,0c0.4,0.1,0.9,0.2,1.3,0.3C86,121.5,86.5,120.1,85.7,119.5z"/>
						<path fill="#1A1A19" d="M84.8,118.1c-2.5-2.1-5.6-3.3-8.8-4c-2.8-0.7-5.4-1-8.1-0.1c-2.7,0.8-5.1,2.5-7,4.6
							c-1.5,1.7-2.8,4-2.3,6.4c0.2,1,0.7,1.9,1.3,2.6c2.7,3.3,8,4.7,12,5.7c4.4,1.2,9.8,2.3,14.3,1.1
							C93.9,132.4,88.7,121.3,84.8,118.1z M69,114.4c1.6-0.4,3.3-0.3,5-0.1c4,0.9,8.1,2.9,10.1,4.7c0.5,0.4,1,0.9,1.4,1.4
							c-0.5-0.1-0.9-0.1-1.4-0.2c-0.4-0.1-0.8-0.2-1.2-0.2c-5.7-1.9-12-2.7-17.7-4.3C66.4,115.1,67.8,114.7,69,114.4z M62.7,128.8
							c-0.2-0.1-0.4-0.2-0.6-0.4c3.2-2.7,8.8-2.4,12.6-1.4c3.6,1,6,3.3,7.6,6.5c-0.2,0-0.4,0-0.6,0C75.7,133.5,68,131.9,62.7,128.8z
							 M83.9,133.6c-2.8-8.4-16.3-11.8-23-6c0,0,0,0,0,0c-1.1-1-2-2.3-1.9-3.9c0-2,1.4-3.8,2.7-5.3c0.8-0.8,1.6-1.6,2.5-2.2
							c7.3,3,15.4,3.5,22.9,6.2c0.7,1.2,1.3,2.4,1.6,3.8c0.3,1.4,0.6,3.3,0.1,4.6C88,133,85.9,133.5,83.9,133.6z"/>
					</g>
					<g>
						<path fill="#1C1C1B" d="M78.3,72.7c7.8-1.3,13.5,4.6,20.8,5.9c0.1,0,0.2-0.2,0.1-0.2c-6.5-2.2-13.7-8-20.9-5.9
							C78.1,72.6,78.2,72.7,78.3,72.7L78.3,72.7z"/>
					</g>
				</g>
				<g>
					<path fill="#DBA283" d="M49.6,122c-1-0.3-3,0.9-3.5,1.2c-0.5,0.3-1.2,0.8-2,1.4c0.3-0.3,0.7-0.6,1-0.9l0.1-0.1
						c0.4-0.7,0.9-1.3,1.4-1.9c0.4-0.5,0.7-1,1.1-1.5l1.3-1.9c0.2-0.3,0.4-0.5,0.6-0.8c0.2-0.4,0.2-0.8,0.1-1.1
						c-0.1-0.2-0.3-0.4-0.6-0.5c-0.5-0.1-1.3,0-1.7,0.4c-1,0.5-1.8,1.2-2.6,1.9l0,0c0.3-0.8,0.9-1.6,1.4-2.3
						c0.4-0.6,0.8-1.2,1.2-1.8c0.2-0.4,0.4-1.3,0.2-1.9c-0.2-0.3-0.5-0.5-0.9-0.5c-0.3,0-0.7,0.2-1.1,0.4l-0.2,0.1
						c-0.6,0.3-1.2,0.8-1.7,1.3c-1.3,1.2-2.5,2.6-3.7,3.9c-0.5,0.5-0.9,1-1.4,1.5c0.9-1.1,1.8-2.1,2.7-3l0.1-0.1l0-0.1
						c0.1-0.4,0.3-0.7,0.4-1.1c0.2-0.4,0.4-0.9,0.5-1.4c0.2-0.8-0.2-1-0.5-1.1c-0.8-0.2-2.4,0.9-2.4,0.9c-2.2,1.7-3.8,3.4-5.5,5.5
						c0-0.1,0.1-0.1,0.1-0.2c-0.1-1.2-0.9-3.3-2-3.6c-0.2-0.1-0.5,0-0.7,0.1c-0.5,0.3-0.8,0.9-1.1,2c-0.1,0.5-0.2,1.1-0.3,1.6
						c-0.2,1.1-0.5,1.9-0.8,2.8c-0.6,1.6-1.4,3.2-2.2,4.6l-0.1,0.1l0,0l-0.3,0.4l-0.1,0l-0.1,0.1c-0.6,0.7-1.1,1.2-1.6,1.8l0,0
						c-8,8.6-17.2,19-24.6,30.7c-3.6,5.6-6.7,12.2-2.8,18.7c1.3,2.2,3.5,3.8,6.2,4.5c0.7,0.2,1.5,0.3,2.2,0.4
						c3.6,0.4,6.7-0.8,9.7-3.6l-0.2-0.2c0,0,0,0,0,0l0.2,0.2l0.1-0.1l0-0.1c0.5-3.6,1.6-7.1,3.4-10l0.1-0.1l0-0.1
						c0-0.2-0.1-0.4-0.1-0.6l-0.2-0.6l-0.7,1.1c-0.2,0.3-0.4,0.7-0.6,1l-0.3,0.5c-1.5,2.4-2.9,4.6-5.5,6c-0.2,0.1-0.5-0.1-0.5-0.3
						c0-0.1,0-0.2,0.2-0.3c3.2-1.7,5.1-4.9,6.9-8l0.6-1c2.2-3.7,4.3-7.4,6.1-10.9l0.2-0.4c3.2-6,6.6-12.2,11.5-16.9l0.3-0.4l0,0
						l0.1-0.1c1.6-1.6,4.1-3.9,5.5-6.1c0,0,0.1-0.1,0.1-0.1c0.1-0.1,0.1-0.1,0.2-0.2c1-0.8,3.5-3.3,4.4-4.3c0.2-0.2,0.4-0.4,0.6-0.6
						c0.9-0.9,2.1-2.1,2.4-3.2c0.2-0.5,0.2-0.9,0-1.2C50,122.2,49.8,122,49.6,122z M42.6,120.5c-0.7,0.8-1.3,1.5-2,2.1
						c1.2-1.5,2.4-2.8,3.7-4C43.7,119.3,43.1,119.9,42.6,120.5z"/>
					<path fill="#DBA283" d="M124.6,194.7c-0.2-13.9-2.5-27.5-4.8-39l0,0l0-0.1c-0.2-0.7-0.3-1.5-0.4-2.4l0-0.2l-0.1,0l0-0.4l0-0.1
						l0,0l0-0.1c0.1-1.6,0.2-3.4,0.5-5.1c0.2-0.9,0.4-1.7,0.8-2.7c0.2-0.5,0.4-1,0.6-1.5c0.3-1.1,0.4-1.8,0.1-2.3
						c-0.1-0.2-0.3-0.4-0.6-0.5c-1.1-0.3-2.8,1-3.6,2c0,0,0,0.1,0,0.2c0,0,0,0,0,0c-0.4-2.7-0.8-4.9-1.8-7.6c0,0-0.8-1.8-1.6-2.1
						c-0.2-0.1-0.7-0.1-1,0.7c-0.2,0.5-0.2,1-0.3,1.4c0,0.4-0.1,0.8-0.2,1.1l0,0.1l0,0.1c0.3,1.3,0.5,2.6,0.7,4
						c-0.1-0.7-0.3-1.4-0.4-2.1c-0.3-1.7-0.6-3.5-1.1-5.2c-0.2-0.6-0.4-1.4-0.8-1.9l-0.1-0.2c-0.2-0.3-0.4-0.7-0.7-0.9
						c-0.3-0.2-0.7-0.3-1,0c-0.5,0.3-0.8,1.2-0.8,1.7c-0.1,0.7,0,1.4,0,2.1c0.1,0.9,0.1,1.8,0,2.7l0,0c-0.3-1.1-0.6-2.1-1.2-3
						c-0.2-0.6-0.8-1.1-1.3-1.3c-0.3-0.1-0.5,0-0.8,0.1c-0.3,0.2-0.4,0.5-0.5,1c0,0.3,0,0.6,0,1l0.1,2.2c0,0.6,0.1,1.2,0.1,1.8
						c0.1,0.8,0.1,1.6,0.1,2.3l0,0.1c0.1,0.5,0.3,0.9,0.4,1.3c-0.3-0.9-0.7-1.8-1-2.3c-0.3-0.6-1.4-2.6-2.4-2.9
						c-0.2-0.1-0.4,0-0.6,0.1c-0.3,0.2-0.5,0.5-0.7,1c-0.3,1.1,0.1,2.7,0.4,4c0.1,0.3,0.1,0.6,0.2,0.8c0.3,1.3,1.1,4.7,1.5,6
						c0,0.1,0,0.1,0,0.2c0,0.1,0,0.1,0,0.2c0.1,2.6,0.9,5.9,1.5,8.1l0,0.1l0,0l0.1,0.5c1.7,6.6,1.3,13.7,0.9,20.4l0,0.5
						c-0.2,3.9-0.5,8.2-0.5,12.4l0,1.1c-0.1,3.6-0.1,7.3,1.7,10.5c0.1,0.1,0.1,0.2,0,0.3c-0.1,0.2-0.4,0.2-0.6,0
						c-1.4-2.5-1.5-5.2-1.5-8l0-0.5c0-0.8,0-1.5,0-2.3l-0.1-0.5l-0.5,0.4c-0.1,0.1-0.3,0.2-0.4,0.3c-0.2,0.2-0.4,0.4-0.6,0.6
						l-0.1,0.1l0,0.1c-0.1,1.2-0.2,2.5-0.4,3.9c-0.3,2.2-0.9,4.3-1.7,6.2l-0.1,0.3l0.3,0.1c0.1,0,0.1,0.1,0.1,0.2
						c1.1,4,3.1,6.6,6.4,8.2c0.7,0.3,1.4,0.6,2.1,0.8c2.7,0.8,5.4,0.6,7.7-0.6C123.8,208.7,124.7,201.4,124.6,194.7z M109.2,142.3
						c-0.3-0.9-0.4-1.9-0.6-3c-0.1-0.8-0.3-1.6-0.4-2.4C108.7,138.5,109,140.4,109.2,142.3z"/>
				</g>
				<path fill="#D4987F" d="M106,137.7c-0.1-1.4-1.1-3.7,0.1-4.8c0.2-0.2,0-0.7-0.3-0.6c-1.2,0.4-1.3,1.5-1.2,2.6
					c0.3,2.4,0.7,4.7,0.6,7.1c0,0.5,0.7,0.5,0.7,0C106,140.6,106.1,139.2,106,137.7z"/>
				<path fill="#D4987F" d="M108,205.9c0.7-2.9,2.4-8.3,1.9-11.3c-1.7-12.5-2.9-22.2-3-34.8c0-4.6,0.1-9.4-1.9-13.6
					c-1.3-2.9-3.6-5.5-4-8.6c-0.1,0.2-0.2,0.4-0.3,0.6c-0.3,1.1,0.1,2.7,0.4,4c0.1,0.3,0.1,0.6,0.2,0.8c0.3,1.3,1.1,4.7,1.5,6
					c0,0.1,0,0.1,0,0.2c0,0.1,0,0.1,0,0.2c0.1,2.6,0.9,5.9,1.5,8.1l0,0.1l0,0l0.1,0.5c1.7,6.6,1.3,13.7,0.9,20.4l0,0.5
					c-0.2,3.9-0.5,8.2-0.5,12.4l0,1.1c-0.1,3.6-0.1,7.3,1.7,10.5c0.1,0.1,0.1,0.2,0,0.3c-0.1,0.2-0.4,0.2-0.6,0
					c-1.4-2.5-1.5-5.2-1.5-8l0-0.5c0-0.8,0-1.5,0-2.3l-0.1-0.5l-0.5,0.4c-0.1,0.1-0.3,0.2-0.4,0.3c-0.2,0.2-0.4,0.4-0.6,0.6
					l-0.1,0.1l0,0.1c-0.1,1.2-0.2,2.5-0.4,3.9c-0.3,2.2-0.9,4.3-1.7,6.2l-0.1,0.3l0.3,0.1c0.1,0,0.1,0.1,0.1,0.2
					c1.1,4,3.1,6.6,6.4,8.2C108.2,212.6,107.2,209.4,108,205.9z"/>
				<g>
					<path fill="#57B7D9" d="M3.2,224.9l0.7,0.2c0,0,0-0.1,0-0.1C3.9,224.6,3.3,224.5,3.2,224.9z"/>
					<path fill="#57B7D9" d="M3.9,225.1c-2.2,19.7-5.6,39.2-8.5,58.8c-3,20-7.3,41.5-13.5,60.7c0,0,0,0.1,0,0.1
						c8.7,6.3,17,9.6,27.7,8.5c0.5-3.8,2.1-8.4,3-11.7c1.1-4,2.2-7.9,3.3-11.9c2.1-7.8,4.3-15.5,6.4-23.3
						c4.3-15.7,8.5-31.5,14.2-46.8c-1.6-0.5-3-1.2-4.1-2.3c-0.1-0.1,0-0.4,0.2-0.3c1.6,0.5,3.1,1.4,4.7,1.8c1.9,0.5,3.8,0.6,5.7,0.6
						c0.7,0,0.7,1,0,1.1c-1.3,0.1-2.8,0-4.3-0.3c-0.3,7.8-2.2,15.5-4.1,23c-2,8-4.2,16-6.3,24c-4.3,15.9-8.2,31.8-14.7,47
						c0,0.1-0.2,0.7-0.2,0.8c6.7,5.3,17.7,6.5,25.9,6c2.3-10.2,6.9-20.3,11-29.9c3.9-9.1,7.2-18.7,11.2-27.7
						c8.5-18.9,16.2-37.5,25.7-55.9l0.5,0L3.9,225.1z"/>
				</g>
				<g>
					<path fill="#309FC1" d="M2.7,224.5l0.7,0.2c0,0,0-0.1,0-0.1C3.4,224.2,2.8,224.1,2.7,224.5z"/>
					<path fill="#309FC1" d="M78.3,244.6L3.4,224.7c-2.2,19.7-5.6,39.2-8.5,58.8c-3,20-7.3,41.5-13.5,60.7c0,0,0,0.1,0,0.1
						c4.2,3,8.2,5.3,12.6,6.8c1.5-13.9,3.3-27.9,7-41.4c2.1-7.9,4.8-15.7,7.2-23.6c3.7-12.5,6.3-25.4,7.8-38.4
						c0.1-0.7,0.2-1.4,0.7-2c0.5-0.5,1.2-0.6,1.9-0.8c3.4-0.6,6.8-1.2,10.2-0.8c4.4,0.4,8.8-1.4,14.4-1.6c4.7,2.1,6.1,4.3,10.2,3.9
						c4-0.4,7.7-0.8,11.6-0.7c4.3,0.1,6.6,0.5,12.1-0.1C77.5,245.5,77.9,245,78.3,244.6z"/>
				</g>
				<path fill="#9DB53B" d="M91.9,245.9c0-0.2,0-0.5,0-0.7l0-0.2l0,0c0-0.2,0.1-0.4,0.1-0.8c0.3-2.6,1.1-9.5,1.1-13.4l0-0.1
					l-0.1-0.2c-0.2-7,0.1-12.9,2.3-18.8l0.5-1.9c3.2-3.6,6-8.7,6.6-13.8c0.1-0.7,0.2-2.3,0.2-3.1l1.2-0.9c0.2-0.2,0.3,0.1,0.6-0.1
					l0.3-0.3l0-0.4c0-3.5,0.1-6.7,0.3-9.6l0.2-2.7c0.3-4.4,0.6-8.9,0.4-13.4l-0.1-1.8l-1.3,1.1c-3.4-0.7-6.4-2-8.7-3.9l-0.5-0.7
					l-0.7,0.5c-1,0.7-2.1,1.4-3.3,2l0,0c-1.6,0.4-5.7,2.3-7.9,3.7c-0.9,0.6-1.8,1.2-2.7,1.8c-1.2,0.8-2.4,1.6-3.6,2.3l-0.8,0.5
					l0.6,0.8c0.9,1.2,1.9,2,3.1,2.5c-0.6,0.2-1.3,0.2-2.1,0.3l-0.7,0c-1.3,0.1-3.3,0.5-4,0.7c-6.7,2.2-11.6,6.5-15.3,10.1
					c-0.1-0.5-0.3-1-0.4-1.6c-0.2-0.9-0.5-1.8-0.8-2.7c-0.5-1.4-1.1-2.6-1.7-3.7l-0.1-0.1c-0.5-0.6-1.3-1.7-2.1-2.7
					c-1.4-1.9-3-4.1-4.1-5.2c-1.1-1.1-2.3-2-3.4-2.9c-0.6-0.4-1.1-0.9-1.7-1.4c0.7,0,1.5,0,2.2,0l0.4,0c0.3,0,0.6,0,0.9,0.1l2.9,0.3
					l-2.3-1.8c-5.7-4.7-8.6-12.4-8.8-16.4l-0.1-1l-1,0.2c-2.9,0.6-5,0.5-7.1-0.4l-0.7-0.3l-0.4,0.6c-1.9,3.1-3.7,6.4-5.4,9.5
					l-1.3,2.3c-1.4,2.6-3.1,5.4-5,8.6l-0.1,0.3l0,0.2c0,0.2-0.1,0.4,0,0.8l0.7-0.1l0,0l-0.7,0.3l0.3,1.5c-2,3.9-3.1,8.2-3.1,12.5
					l0.2,4.5c-0.5,10.3-6.9,19.7-12.1,28.2c-1.1,1.8-2.2,3.7-3.3,5.5l-0.3,0.5l0.4,0.5c2.5,3,6.5,4.6,10.1,6c2.7,1.1,5.5,2,8.2,2.9
					l2.9,1c5.6,1.9,12,4,16.3,8.1l0.3,0.3l0.5-0.1c0.5-0.1,1-0.2,1.6-0.3c0.7-0.1,1.4-0.3,2.1-0.5l0.7-0.2c1-0.3,2-0.5,3-0.9l0.1,0
					c0.5,0.4,1.4,1.9,2,2.9c0.7,1.1,1.3,1.5,1.9,2.2l0.8,0.6l1.7-0.4c8.8-2.3,15.7,0.2,19.8,1.2c0.7,0.2,1.7,0.4,2.2,0.5l1.1,0.2
					c2.9,0.5,4.1,1.2,6.5,1.4c2.3,0.2,4.7,0.3,7,0.3l3.1,0.1L91.9,245.9z"/>
				<g>
					<g>
						<path fill="#8D9E33" d="M42.2,213.1c0.7-3.6-2-13.1-2.5-15.2c-1.1-5.4-5.4-5.8-7.9-20.8c-2.1-12.8,3.6-17.9,5.3-29.5
							c0-0.2-1.7-0.3-1.8-0.5c-1.7,0.3-3.2,0.4-4.6-0.2c0,0-4.4,6.2-6,8.9c-2.9,4.8-6.6,11.3-6.6,11.3l-0.8,6.6
							c-1.4,5.1-2,4.4-2.1,8.7l0.2,4.5C15,197.1,8.5,206.5,3.3,215c-1.1,1.8-1.9,3.5-3,5.3L0,220.9l0.4,0.5c2.5,3,6.5,4.4,10.1,5.8
							c2.7,1.1,5.2,2.3,7.9,3.2l2.9,1c5.6,1.9,12,4,16.3,8.1l0.6-0.3l0.4,0c0.3-0.1,0.2-0.2,0.5-0.2c-0.8-5.9-3.1-11.2-1.9-17
							c0.6-2.7,1.9-5.1,3.6-7.3c-2.5,0.6-5.1,0.9-7.5,1.1c-5.4,0.5-11.2,0.5-16.3-1.6c-0.1,0-0.1-0.2,0.1-0.2
							C25.6,216.1,34.1,215.5,42.2,213.1z"/>
					</g>
					<g>
						<path fill="#8D9E33" d="M42.7,213.2c0.8-5.2-1.3-11.1-2.6-16.1c-0.4-1.7-1.4-3.1-2.3-4.6c-1.6-2.5-2.8-5-3.6-7.8
							c-1.4-4.5-2.3-9.4-2.2-14.1c0.1-3.9,1.3-7.7,2.6-11.3c1.3-3.8,2.5-7.6,3.1-11.6c0.1-0.7-0.7-0.8-1.2-0.9
							c-1.9-0.3-3.7,0.2-5.6-0.4c-0.2-0.1-0.4,0.1-0.6,0.2c-3.8,5.4-7.2,10.9-10.5,16.6c-0.9,1.6-2,3-2.3,4.8
							c-0.4,2.9-0.6,5.6-1.6,8.3c-0.8,2.3-1.2,4.3-1.1,6.8c0.2,3.8,0,7.2-1.1,10.9c-2.7,9.5-9.2,18.1-14.1,26.6
							c-0.1,0.2-0.1,0.4,0.1,0.6c2.1,2.5,4.8,4.1,7.7,5.3c3.6,1.5,7.2,3.2,10.9,4.4c6.6,2.2,13.7,4.1,19,8.9
							c0.2,0.2,0.4,0.2,0.6,0.1c0.5-0.2,1-0.2,1.5-0.5c0.2-0.1,0.3-0.4,0.2-0.6c-0.6-3.9-1.8-7.8-2.2-11.8
							c-0.4-4.5,1.2-8.5,3.8-12.1c0.3-0.4-0.2-0.8-0.6-0.7c-3.8,0.9-7.8,1.3-11.7,1.4c-1.7,0.1-3.5,0-5.2-0.2
							c-1.1-0.1-2.2-0.3-3.3-0.6c-0.5-0.1-2.8-0.5-3.1-1c-0.1,0.2-0.1,0.5-0.2,0.7c0.3-0.1,2.2,0.5,2.5,0.6c1,0.2,2,0.3,2.9,0.4
							c2.2,0.2,4.4,0.3,6.6,0.2c4.4-0.1,8.8-1,13-2.2c0.6-0.2,0.4-1.1-0.3-1c-4.5,1.3-9,2-13.7,2.2c-2.5,0.1-4.9-0.1-7.4-0.4
							c-1.1-0.1-3.3-1.1-4.3-0.6c-0.2,0.1-0.3,0.4-0.2,0.7c0.5,1,2.7,1.2,3.7,1.4c2,0.5,4.1,0.7,6.1,0.8c4.8,0.2,9.9-0.4,14.6-1.4
							c-0.2-0.2-0.4-0.5-0.6-0.7c-4.1,5.6-4.5,11.2-3.1,17.8c0.4,1.7,0.8,3.4,1.1,5.1c0.3,1.4,0.4,1-0.4,1.4
							c-0.6,0.3-1.2-0.7-1.9-1.2c-1.5-1.1-3.1-2-4.8-2.9c-3.6-1.8-32.3-11.2-30.6-14.1c3.5-6.1,7.4-12.1,10.6-18.4
							c2.5-4.9,4.8-10.7,4.5-16.3c-0.1-1.7-0.2-3.3-0.2-5c0.1-2.5,1.3-4.8,2-7.2c0.7-2.4,0.2-5.5,1.3-7.3c2.2-3.9,4.5-7.8,6.9-11.6
							c1.2-1.8,2.4-3.6,3.6-5.4c0.4-0.6,0.8-1.2,1.2-1.8c0.5-0.8,0.3,0,1.4,0.1c0.6,0,4.6-0.5,4.4,0.5c-0.4,2.6-1.1,5.2-2,7.7
							c-1.4,4.4-3.1,8.6-3.6,13.2c-0.8,8.3,1.8,17.4,6.3,24.4c1.3,2.1,1.9,4.1,2.5,6.4c1,4,2.6,8.7,2,12.9
							C41.6,213.6,42.6,213.8,42.7,213.2z"/>
					</g>
				</g>
				<g>
					<path fill="#D4987F" d="M15.1,179.4l0.1-0.1l0-0.1c0.5-3.6,1.6-7.1,3.4-10l0.1-0.1l0-0.1c0-0.2-0.1-0.4-0.1-0.6l-0.2-0.6
						l-0.7,1.1c-0.2,0.3-0.4,0.7-0.6,1l-0.3,0.5c-1.5,2.4-2.9,4.6-5.5,6c-0.2,0.1-0.4,0-0.5-0.3c-1.6-0.5-2.6-2.3-2.7-3.9
						c-0.2-1.8,0.4-3.5,1-5.1c2.7-7.6,6.3-15,10.5-21.9c1.7-2.9,3.6-5.7,4.9-8.8c1.4-3.4,2-7,2.4-10.6c-0.1,0.2-0.2,0.4-0.3,0.5
						l-0.1,0.1l0,0l-0.3,0.4l-0.1,0l-0.1,0.1c-0.6,0.7-1.1,1.2-1.6,1.8l0,0c-8,8.6-17.2,19-24.6,30.7c-3.6,5.6-6.7,12.2-2.8,18.7
						c1.3,2.2,3.5,3.8,6.2,4.5c0.7,0.2,1.5,0.3,2.2,0.4C8.9,183.4,12,182.3,15.1,179.4l-0.2-0.2c0,0,0,0,0,0L15.1,179.4z"/>
					<path fill="#D4987F" d="M17.8,167.7l0.6-1c0.1-0.2,0.2-0.3,0.3-0.5c-2.4,3-4.8,6-7.2,9C14.3,173.6,16.1,170.6,17.8,167.7z"/>
				</g>
				<path fill="#D4987F" d="M32.9,119.6c0.2-0.3,0.4-0.7,0.5-1c0.1-0.4,0-0.8-0.1-1.2c-0.2-0.9-0.3-1.9-1.2-2.3
					c-0.2-0.1-0.3,0-0.4,0.1c-0.2,0-0.4,0.3-0.1,0.5c0.8,0.5,0.3,2.4,0.2,3.1c-0.1,0.8-0.3,1.6-0.3,2.4c0,0.2,0.3,0.3,0.4,0.1
					c0.2-0.4,0.5-0.8,0.8-1.2C32.8,119.8,32.8,119.7,32.9,119.6z"/>
				<path fill="#D4987F" d="M41.8,113.6c0.1-0.6-0.1-1.2-0.7-1.1c0,0,0,0-0.1,0c-0.4,0.1-0.4,0.1-0.9,0.3c-0.2,0.1-0.3,0.4-0.1,0.6
					c0.7,0.5-0.1,2.3-0.7,3.5c0,0-0.1,0.1-0.1,0.1c-0.6,0.9-1.2,1.7-1.6,2.7c0,0.1,0.1,0.1,0.1,0c0.4-0.5,0.8-1.1,1.2-1.6
					c0.1,0,0.1,0,0.2-0.1c0.6-0.7,1.2-1.4,1.7-2.2c0.1,0,0.1-0.1,0.2-0.2c0.2-0.4,0.4-1,0.6-1.5C41.7,114,41.8,113.8,41.8,113.6z"/>
				<path fill="#D4987F" d="M45.9,115.8c0.5-0.7,1.1-1.6,1.1-2.5c0.1-0.1,0.1-0.3,0.2-0.4c0.1-0.3-0.1-0.6-0.4-0.7
					c-0.1,0-0.3-0.1-0.4-0.1c-0.3-0.1-0.5,0.1-0.6,0.3c-0.2,0-0.4,0.1-0.6,0.2c-0.4,0.3,0.1,0.8,0.5,0.5c0.1,0.2,0.1,0.4,0.1,0.6
					c-0.2,0.5-0.3,0.9-0.5,1.4c-0.1,0.2-0.2,0.4-0.3,0.5c-0.6,1-1.3,1.9-1.5,2.1c-0.9,1.4-1.8,2.7-2.6,4.2c-0.1,0.1,0.1,0.3,0.2,0.2
					c1-1.1,1.9-2.3,2.8-3.6c0,0,0.1,0,0.1-0.1C44.5,117.9,45.3,116.9,45.9,115.8z"/>
				<path fill="#8D9E33" d="M45.9,237.3c0-1.8,0-3.7,0-5.6c0.1-2.3,0.5-4.6,0.9-6.9c0.1,0,0.2-0.1,0.2-0.3c0.6-2.3,1.2-4.5,1.8-6.8
					c0-0.1,0-0.2,0-0.3c0.4-1.2,0.8-2.4,1.3-3.6c0.1-0.1,0-0.2,0-0.3c0.3-0.6,0.5-1.3,0.8-1.9c2.9-7.9,5.1-16.5,5.9-24.9
					c0-0.2-0.3-0.2-0.3,0c-2.8,8.6-4.2,17.6-7.3,26.2c-1.4,3.8-3.1,7.3-3.7,11.3c-0.6,4.3-0.7,8.8-0.6,13.1
					C44.9,237.9,45.9,238,45.9,237.3z"/>
				<path fill="#D4987F" d="M49.2,117.1c0-0.1,0.1-0.2,0.1-0.2c0.2-0.4-0.2-0.7-0.5-0.5c0,0,0,0,0-0.1c-0.1-0.1-0.3-0.2-0.5-0.1
					c-0.6-0.2-1.2,0.2-1.6,0.6c-0.4,0.3,0,0.9,0.4,0.8c0.1,0.2,0.2,0.5,0.3,0.7c-0.3,0.6-0.5,1.4-0.7,1.7c-0.5,0.8-1.1,1.6-1.7,2.4
					c-0.9,1.1-2.1,2-2.6,3.4c-0.1,0.2,0.2,0.2,0.3,0.1c1.7-2.1,3.6-3.8,5.1-6.1c0.1-0.1,0.2-0.3,0.3-0.5c0.1,0,0.2-0.1,0.3-0.2
					C48.8,118.5,49.2,117.8,49.2,117.1z"/>
				<path fill="#D4987F" d="M49.6,122.2c-0.7,2.3-3.4,4.4-4.9,6.2c-1.3,1.5-2.7,3-4.1,4.5c-1.8,2-4.9,3.9-5.7,6.5
					c-0.1,0.2,0.2,0.3,0.3,0.1c1-1.9,3.1-3.1,4.6-4.6c1.4-1.4,2.6-2.9,3.9-4.3c2.2-2.5,5.6-5.1,6.8-8.2
					C50.8,121.9,49.8,121.6,49.6,122.2z"/>
				<path fill="#C4D38E" d="M84.9,216.8c-4.3,2.1-9.2,2.1-13.7,2.6c-0.1,0-0.1,0.1,0,0.2c1.9,1.1,4.1,0.6,6.2,0.3
					c2.6-0.5,5.4-0.9,7.9-2.1C85.8,217.4,85.4,216.5,84.9,216.8z"/>
				<path fill="#6C3506" d="M59.8,200.2c1.8,0.6,1.8,2.4,1.4,3.1c-0.4,0.7-1.1,1.8-2.7,1.4c-1.6-0.5-2-2.4-1.7-3
					S57.9,199.6,59.8,200.2z"/>
				<path fill="#6C3506" d="M57.9,211.8c1.9,0.6,1.9,2.6,1.5,3.3c-0.4,0.7-1.1,2-2.8,1.5c-1.7-0.5-2.1-2.5-1.8-3.2
					C55.1,212.7,55.9,211.2,57.9,211.8z"/>
				<path fill="#6C3506" d="M54.1,222.4c2.2,0.7,1.9,3.2,1.5,4c-0.5,0.8-1.3,2.1-3.3,1.7c-2.4-0.4-2.5-2.9-2.1-3.7
					S51.8,221.6,54.1,222.4z"/>
				<path fill="#8D9E33" d="M95.6,161.8c-1.5-0.9-2.9-1.9-4.4-2.7c-1.3-0.6-2.8-1-4-1.8c0.1,0.2,0.1,0.5-0.2,0.7
					c-0.5,0.2-1,0.4-1.5,0.7c-0.7,0.7-1.4,1.3-2.1,1.9c-0.1,0.1-0.2,0.1-0.3,0.1c-1.7,3.2-5.3,6.1-8.2,8.4l-0.1,0.1l-0.1,0.1
					c-1.9,1.8-3.9,3.4-5.9,5c-3.7,3-7.5,6-10.3,9.9c-0.1-1.5-0.7-6.5-3.7-11c-1.2-2.1-2.1-4.1-3.1-6.2c-0.4-0.9-0.9-1.9-1.3-2.8
					c-0.8-1.6-1.5-4-2.3-7c-0.7-2.5-0.6-5.2,0.2-7.3l0.9,0c0.1,0,0.1,0,0.2,0c0-0.1,0-0.2,0-0.3c0.8-2.1-0.2-2.1-2.3-2.2
					c-1.2-0.1-2.5,0-3.7,0.1c-2.5,0.2-4.9,0.6-7.4,0.6c0,0.3,0,0.5,0,0.6l0,0.2l0.1,0.1l-0.1,0.1l0.1,1c0.2,1.7,1.9,6.4,3.7,9.1
					c2.1,3.1,4.5,5.5,6.6,7.7l0.6,0.7c-0.5,0-1.1-0.1-1.7-0.2c-0.4-0.1-0.8-0.2-1.2-0.2c-1-0.1-2-0.2-2.9-0.2l-2.7-0.1l2.4,1.2
					c4.7,2.3,10.6,9,13.2,12.5c0.8,1.1,2,5.8,3.6,6.9c1.5-0.8,4-2.7,5.4-3.6c4.2-2.6,6.2-3.1,11.1-4.6c0.7-0.2,2.3-0.4,3.7-0.6
					c1.1-0.1,2.2-0.3,3.1-0.4l2.4-0.5l-2.4-0.7c-0.9-0.3-2.3-1.6-2.9-2.2l0,0c2-2,7.4-5,7.9-5.3c2.4-1.2,4.8-2.1,6.1-2.6
					c0.6-0.2,1.1-0.4,1.3-0.5l0.5-0.2c1.2-0.5,2.9-1.3,4.2-2.3C97.2,163.2,96.3,162.5,95.6,161.8z"/>
				<path fill="#9DB53B" d="M98,158l0-0.2l-0.1-0.2c-0.1-0.2-0.2-0.3-0.4-0.4c-0.3-0.3-0.9-0.5-2.1-0.9c-1.5-0.5-3.8-1.3-6-2.5
					l-0.2-0.1c-4-2.1-6.9-4.3-9.1-6.8l-0.6-0.7l-0.3,0.9c-1,2.6-1.9,5.5-0.6,7.4l0.2,0.2c0.4,0.3,0.8,0.6,1.2,0.9
					c0.2,0.2,0.4,0.4,0.7,0.5c0.3,0.2,0.6,0.4,0.8,0.6c0.2,0.2,0.4,0.3,0.7,0.5l0.4,0.3c-1.5,3.5-5.2,6.7-8.2,9.2l-0.1,0.1l-0.1,0.1
					c-1.8,1.8-3.7,3.5-5.6,5.1c-3.5,3-7.1,6.2-9.7,10c-0.1-1.5-0.5-6.4-3.2-10.9c-1.1-2-1.9-4-2.8-6.1c-0.4-0.9-0.8-1.8-1.2-2.8
					c-0.7-1.6-1.3-3.9-2-6.9c-0.6-2.5-0.4-5.1,0.3-7.3l0.9,0c0.4,0,0.7,0,1.1-0.1c0.3,0,0.6-0.1,0.8-0.1c0.5-0.1,1-0.1,1.5-0.1
					l0.2,0c2.2-1,2.9-4.5,3.4-6.9l0.2-1.1l-1,0.4c-4.4,1.8-9.5,2.8-14.4,2.7c-0.8,0.1-1.8,0.2-2.6,0.6c-1.7,0.9-1.6,2.9-1.6,3.6
					l0,0.2l0.1,0.1l-0.1,0.1l0.1,1c0.1,1.7,1.6,6.3,3.2,9c1.9,3,4,5.4,6,7.5l0.6,0.6c-0.5,0-1-0.1-1.6-0.2c-0.4-0.1-0.7-0.2-1.1-0.2
					c-0.9-0.1-1.9-0.1-2.7-0.1l-0.7,0.3l0.4,0.8c4.3,2.2,9.8,9.3,12.1,12.8c0.7,1.1,1.9,4.8,2.4,7.2l0.1,0.5l0.5,0l0.4,0.2l0.3-0.3
					c4.3-4.7,9.1-7.9,14.9-9.9c0.7-0.2,2.1-0.5,3.5-0.7c1-0.1,2.1-0.3,2.9-0.5l0-1.1c-0.9-0.2-2.1-1.5-2.6-2.2l0,0
					c1.9-2,7-5.1,7.5-5.4c2.3-1.2,4.5-2.2,5.8-2.7c0.6-0.3,1-0.4,1.2-0.6l0.5-0.2C94.2,162,97.6,160.3,98,158z"/>
				<g>
					<path d="M74.1,153.6c-1-0.3-2-0.6-3-0.9c-0.8-0.3-1.7-0.8-2.6-0.7c-0.1,0-0.1,0.1-0.1,0.2c0.5,0.7,1.4,0.9,2.2,1.3
						c1,0.4,2.1,0.8,3.2,1.1C74.4,154.6,74.7,153.8,74.1,153.6z"/>
					<path d="M64.2,150.3c-1.7,0.1-3.1,0-4.7-0.6c-0.4-0.1-0.6,0.4-0.3,0.6c1.4,0.9,3.4,1.3,5,0.7C64.7,150.9,64.6,150.3,64.2,150.3
						z"/>
					<path d="M42.1,212.8c-4.2,0.6-8.3,1.6-12.6,2c-4.2,0.4-8.9,0.8-12.9-1.1c-0.3-0.1-0.5,0.2-0.2,0.4c3.6,2.2,7.9,2,12,1.8
						c4.6-0.3,9.4-0.9,13.9-2.2C42.8,213.5,42.6,212.7,42.1,212.8z"/>
					<path d="M84.6,217.7c-4.4,1.1-9.2,2.6-13.7,1.5c-0.4-0.1-0.5,0.4-0.2,0.6c4.2,1.5,10,0.1,14.1-1.2
						C85.3,218.3,85.1,217.5,84.6,217.7z"/>
					<path d="M49.4,199c-0.8,0.4-1.6,0.7-2.4,1c-0.7,0.3-1.5,0.4-2.1,0.7c-0.4,0.2-0.2,0.9,0.2,0.8c0.8-0.1,1.5-0.5,2.2-0.8
						c0.8-0.4,1.6-0.8,2.3-1.3C50,199.3,49.8,198.8,49.4,199z"/>
					<path d="M102.4,193.9c0.4-0.4,0.8-0.9,1.2-1.2c0.4-0.3,0.8-0.6,1.2-1c0.2-0.2-0.1-0.6-0.3-0.5c-0.5,0.2-0.8,0.7-1.2,1.1
						c-0.4,0.4-0.8,0.9-1.2,1.4C101.9,193.9,102.2,194.1,102.4,193.9z"/>
					<path d="M18.7,170.1c-0.1-0.6-0.2-1.1-0.4-1.7c-0.1-0.5-0.1-0.2-0.2-0.6c-0.1-0.3,0.5-0.8,0.7-0.5c0.3,0.4,0,0.5,0.1,1
						c0.1,0.6,0.2,1.2,0.2,1.8C19.1,170.3,18.8,170.4,18.7,170.1z"/>
					<path d="M61.3,200.8c-0.9-1.3-3.2-1.6-4.2-0.2c-0.6,0.9-0.6,1.8-0.4,2.7c0.3,1.6,2.1,2.2,3.5,1.6
						C61.8,204.2,62.2,202.1,61.3,200.8z M59.7,204.2c-2.2,0.7-3.1-2-2-3.3c1-0.5,2.1-0.7,2.9,0.3C61.4,202.2,61,203.8,59.7,204.2z"
						/>
					<path d="M59.7,212.9c-0.6-1.3-2.5-2.3-3.7-1.4c-1.2,0.4-1.9,1.7-1.7,3c0.3,1.8,2,2.8,3.8,2.2C59.5,216.2,60.4,214.4,59.7,212.9
						z M57.8,216c-2.7,0.9-3.6-2.6-1.8-3.8c0.1,0,0.1,0,0.2-0.1c0.1-0.1,0.2-0.1,0.2-0.1c0.2-0.1,0.5-0.1,0.7-0.1
						c0.1,0,0.1,0,0.1-0.1c0.9,0,1.8,0.7,2,1.6C59.5,214.5,58.8,215.6,57.8,216z"/>
					<path d="M56.2,223.5c-0.8-1.8-3.4-2.3-4.9-1.1c-0.8,0.6-2,2.4-1.7,3.7c0.4,1.9,2.5,2.8,4.3,2.2C55.7,227.6,57,225.3,56.2,223.5
						z M53.6,227.4c-1.4,0.5-3-0.2-3.1-1.8c-0.1-0.9,0.8-2.2,1.2-2.4c1-0.6,2.5-0.7,3.4,0.3C56.1,224.8,54.9,226.9,53.6,227.4z"/>
					<path d="M92.3,244.9c0-0.1,0-0.3,0-0.4c1.3-5.8,1.1-13.5,1.1-13.7c-0.2-7,0.8-13.6,2.5-20.3c0.6-0.5,1.1-1,1.6-1.6
						c2.9-3.2,4.5-7.3,5.1-11.6c0.6-4.2,1.1-10.4-1.5-14.1c-0.2-0.4-0.8,0-0.6,0.3c2.1,3.4,1.6,8.9,1.2,12.7
						c-0.6,4.8-2.3,9-5.5,12.6c-0.1,0.1-0.1,0.2-0.1,0.2c0,0-0.1,0.1-0.1,0.1c-0.6,0.5-1.3,0.9-1.9,1.4c-0.5,0.4,0.1,1,0.6,0.8
						c0.2-0.1,0.4-0.2,0.6-0.3c-2.3,6.3-3.2,13.1-3,19.8c0,0.1,0,0.1,0,0.2c0,4.7-1.3,14.2-1.2,14.3c0,0.3-0.1,0.6,0,0.9
						c-3.1-0.1-6.1-0.2-9.2-0.4c-2.6-0.2-4.4-0.5-7.7-1.1c-3.2-0.7-13.1-4.1-23.6-1.3c0,0,0,0,0-0.1c-1.4-1.7-3.6-6-4.5-6.2
						c0.9-3.9,0.9-8.1,1.6-11.9c0.9-4.5,2.6-8.7,4.2-13c1.6-4.2,2.7-8.3,3.4-12.7c0.7-4.4,1.3-8.6,2.9-12.7
						c4.5-4.5,9.2-8.2,15.3-10.2c0.6-0.2,2.6-0.6,3.8-0.7c1.3-0.1,2.6-0.1,3.8-0.7c0.2-0.1,0.7-0.7,0.3-0.8
						c-1.7-0.5-2.9-1.4-3.9-2.7c2.2-1.3,4.2-2.8,6.3-4.2c3.3-2.1,7.8-3.7,7.8-3.7c1.2-0.6,2.3-1.3,3.4-2c0,0,0,0.1,0,0.1
						c2.6,2.3,5.9,3.6,9.3,4.2c0.8,0.1,1.1-1,0.3-1.2c-3.3-0.6-6.2-1.9-9.1-3.6c1.1-0.8,2.5-1.9,2.6-3.3c0-0.5,0-1-0.5-1.3
						c-0.6-0.5-5-1.9-6.3-2.4c-4.4-2.1-7.6-4.9-11.2-8.1c0,0-0.1,0-0.1-0.1c0.2-0.6,0.4-1.1,0.5-1.5c0.1-0.3-0.3-0.5-0.5-0.2
						c-1.4,2.5-4.4,8.5-1.2,10.7c0.1,0.1,2.1,1.7,3.1,2.3c-2.2,4-6.7,6.9-9.9,10.3c-2.2,1.8-4.2,3.8-6.3,5.7c-2.3,2.2-4.5,4.5-6.4,7
						c0-1-0.5-5-2.7-8.4c-2.9-6.1-5.3-11.3-6.4-17.3c-0.1-1.5-0.3-3-0.2-4.6c0-0.6,0.2-1.2,0.3-1.8c1.3-0.1,3.3-0.3,3.4-0.3
						c3.2-0.2,4.2-4.8,4.5-8c0-1,0.1-1.5,0.1-1.8c0-0.3-0.4-0.3-0.5-0.1c-0.1,0.3-0.1,0.6-0.2,0.9c-4.7,1.6-9.2,2.7-14.1,3.3
						c-1.6,0.1-3.4,0.3-4.3,1.3c-0.6,0.6-0.8,1.3-0.9,2c-0.1,0.3-0.1,0.7-0.1,1.1c-3,0.5-4.9,0.3-8-0.1c-0.2,0-0.3,0.3-0.1,0.4
						c2.7,1.2,5.2,1.2,8.1,0.6c0.2,4.5,3.4,12.3,9.1,17c-0.4,0-0.9-0.1-1.3-0.1c-1.2-0.1-2.5-0.1-3.7,0.1c-0.4,0-0.4,0.6,0,0.7
						c1.9,1.7,4.1,3.2,6,5c1.7,1.7,4.6,6,6.1,7.8c0.6,1.2,1.2,2.3,1.7,3.6c0.5,1.5,0.8,3,1.3,4.5c0,0.1,0.1,0.2,0.1,0.3
						c-1.8,3.8-2.3,7.9-2.9,12c-0.7,4.8-2,9.2-3.8,13.7c-1.7,4.4-3.4,8.8-4.2,13.5c-0.6,3.6-1.3,7.7-0.9,11.4
						c-1.1,0.5-2.3,0.8-3.5,1.1c-1.2,0.3-2.4,0.5-3.6,0.8c-4.6-4.5-11.5-6.6-17.5-8.6c-3.4-1.1-6.9-2.2-10.3-3.5
						c-3.4-1.3-7.4-2.9-9.7-5.7c6.1-10.6,13.9-20.8,14.5-33.6c0.2,1.1,0.4,2.1,0.7,3.1c0.2,0.8,1.4,0.5,1.2-0.3
						c-2.9-10.1,0.1-20,7.3-27.5c0.3-0.3-0.1-0.6-0.4-0.4c-7.2,5.7-10.3,15.7-8.9,24.6c-0.1,0-0.2,0-0.2,0.1
						c-1.4,6.3-2.8,12.2-5.7,18c-2.8,5.5-6.8,10.3-9.4,15.9c-0.2,0.4,3.2,3.5,7.2,5.2c3.2,1.4,6.4,2.8,9.7,3.9
						c3.4,1.2,6.9,2.2,10.3,3.6c4,1.6,7.4,3.5,10.9,6c0.6,0.4,5.7-0.9,7.9-1.9c0.7,1,1,1.9,1.6,2.7c0.8,1.1,1.6,2.2,2.5,3
						c0,0,0.1,0.1,0.1,0.1c0.1,0.1,0.2,0.1,0.3,0.1c3.9-0.6,7.5-1.2,11.4-0.7c3.9,0.4,17,3.3,19.6,3.6c1.5,0.1,3.7,0.4,5.8,0.5
						c-9.6,18.4-17.2,37-25.7,55.9c-4.1,9-7.4,18.6-11.2,27.7c-4.1,9.6-8.7,19.7-11,29.9c-8.2,0.5-18.8-0.9-25.5-6.2
						c0.1-0.1,0.1-0.1,0.1-0.2c6.4-15.2,10-31.6,14.3-47.4c2.1-8,4.3-16,6.3-24c1.9-7.5,3.7-15.2,4.1-23c1.5,0.2,3,0.3,4.3,0.3
						c0.7,0,0.7-1.1,0-1.1c-1.9,0.1-3.8,0-5.7-0.6c-1.7-0.5-3.1-1.3-4.7-1.8c-0.2-0.1-0.3,0.2-0.2,0.3c1.1,1.1,2.5,1.9,4.1,2.3
						c-5.7,15.2-9.9,31.1-14.2,46.8c-2.1,7.8-4.3,15.5-6.4,23.3c-1.1,4-2.2,7.9-3.3,11.9c-0.9,3.2-2.5,7.9-3,11.7
						c-10.9,1.2-19.4-2.3-28.2-8.8c-0.3-0.2-0.6,0.2-0.4,0.5c2,1.9,3.3,3.1,5.6,4.5c5.9,3,13.9,5.3,18.6,5.3c0,0,0,0,0,0
						c0,0,0,0,0,0c1.3-0.1,2.6-0.2,3.8-0.2c0.3,0,0.7-0.1,1-0.1c0.1,0,0.2,0,0.3,0c0.2,0,0.3-0.7,0.3-1.2c0.7-4,2.4-9.6,3.4-13.4
						c1-3.6,2-7.2,2.9-10.8c2.1-7.8,4.2-15.5,6.4-23.3c4.2-15.3,9.1-30.5,13.5-45.8c0.4,0.1,0.8,0.2,1.1,0.3c-1.3,8-2.7,16-4.7,23.9
						c-2,7.8-4.1,15.6-6.2,23.5c-4.1,15.8-8.2,31.6-14.2,46.9c-0.1,0.2,0,0.3,0,0.4c0,0.1,0,0.2,0.1,0.3c6.5,6.2,18,7.9,26.4,7.1
						c0.2,0,0.3-0.1,0.4-0.2c0.1,0,0.2-0.1,0.3-0.3c2.3-9.9,6.8-19.8,10.7-29.1c4.1-9.7,7.7-19.8,12.1-29.4
						c8.5-18.6,15.7-37.2,24.8-55.4c2.4,0.1,4.4,0.1,4.5-0.3C92.5,246.3,92.3,245.6,92.3,244.9z M57.9,185.8
						c-0.5-2.4-1.7-6.2-2.5-7.4c-2.6-3.9-8-10.8-12.3-13c0.9,0,1.7,0,2.6,0.1c1,0.1,2,0.5,3.1,0.4c0,0,0.1,0,0.1,0
						c0.3,0,0.5-0.3,0.3-0.6c-2.1-2.4-4.6-4.9-6.7-8.3c-1.5-2.5-3-7-3.2-8.7c0-0.2,0-0.5-0.1-0.8c0.1-0.2,0.1-0.4,0-0.5
						c0-1.2,0.1-2.5,1.3-3.1c0.7-0.4,1.5-0.5,2.3-0.5c4.8,0.1,10-0.8,14.5-2.7c-0.5,2.5-1.2,5.7-3.1,6.5c-0.8,0-1.6,0.2-2.4,0.2
						c-0.4,0-0.8,0.1-1.3,0.1c0.2-0.7,0.3-1.4,0.5-2.1c0-0.2-0.2-0.2-0.3-0.1c-1.9,2.6-2.5,6.7-1.7,10.3c0.7,2.9,1.3,5.3,2,7
						c1.3,3,2.5,6,4,8.9c2.9,4.9,3.1,10.2,3.1,10.8c0,0.1,0,0.1,0,0.2c0,0,0,0,0,0c0,0.3,0.3,0.4,0.5,0.3c0.1,0,0.3-0.1,0.4-0.2
						c4.2-6,10.3-10.1,15.4-15.2c0.1-0.1,0.1-0.1,0.1-0.2c4.4-3.8,9.9-8.6,8.9-13.9c0-0.2-0.3-0.1-0.3,0c-0.1,1.2-0.4,2.3-0.9,3.4
						c-0.5-0.4-1-0.7-1.5-1.1c-0.6-0.5-1.2-1-1.9-1.5c-1.1-1.6-0.2-4.5,0.7-6.8c2.5,2.9,5.8,5.1,9.3,6.9c0,0,0,0,0,0
						c3.8,2.2,7.6,2.9,8.2,3.4c0.1,0.1,0.2,0.2,0.2,0.3c-0.5,2.3-4.2,3.9-6,4.8c-0.8,0.4-3.7,1.6-7,3.3c-0.5,0.3-5.7,3.4-7.6,5.5
						c-0.1,0.1-0.3,0.3-0.3,0.4c-0.1,0.1,1.9,2.5,3.3,2.8c-2,0.4-5.2,0.7-6.5,1.2c-6.2,2.2-10.9,5.6-15.1,10.1
						C58.1,185.8,58,185.8,57.9,185.8z"/>
					<path d="M-4.7,283.8c2.9-19.6,6.3-39.2,8.5-58.9c0-0.4-0.6-0.5-0.7-0.1c-7.2,39-8.3,81.9-22.3,119.4c-0.2,0.6,0.8,0.9,1,0.3
						C-12,325.3-7.7,303.8-4.7,283.8z"/>
					<path d="M106.7,202.8c-1.9-3.4-1.7-7.6-1.6-11.4c0-4.2,0.3-8.3,0.5-12.4c0.4-7.1,1-14.5-1-21.4c-0.1-0.4-0.6-0.2-0.6,0.1
						c1.5,8.1,0.7,16.1,0.3,24.2c-0.2,4.3-0.3,8.5-0.2,12.8c0,3.1,0,6,1.5,8.7C106,204,107,203.5,106.7,202.8z"/>
					<path d="M125.2,192.8c-0.1-4.3-0.4-8.5-0.8-12.8c-0.8-7.5-1.9-14.9-3.8-22.2c0,0,0,0,0-0.1c-0.4-1.6-0.8-3.2-1.1-4.7
						c0.3-2.8,0.6-5.6,1.5-8.3c0.4-1.1,1.2-2.6,0.7-3.8c-1-2.4-3.8,0.2-4.5,1.5c-0.1-2.4-1.8-10.1-3.8-9.7c-0.6,0.1-0.9,0.7-1,1.2
						c-0.1,0.4-0.1,0.9-0.1,1.4c-0.1-0.5-1.1-4.6-2-5.4c-0.4-0.4-0.7-0.7-1.2-0.5c-0.9,0.4-1,1.6-1.1,2.4c0,1.1,0,2.5,0.1,3.7
						c0,0,0,0,0,0c-0.4-1.2-1.1-3.3-2.6-3.6c-1.2-0.2-1.3,0.8-1.3,1.7c0,1.9,0.1,3.8,0.4,5.7c-0.1-0.3-0.3-0.6-0.4-0.9
						c-0.3-0.5-0.8-1.3-1.3-1.8c0,0,0,0-0.1,0c-0.1-0.1-0.2-0.2-0.3-0.2c-0.4-0.3-0.9-0.4-1.4-0.1c-1.2,0.6-0.8,2.3-0.7,3.3
						c0.3,2.4,1.2,6.9,2,9.2c0,0,0.1,0.3,0.1,0.3c0.2,2.2,0.4,3.1,0.9,5.5c0.2,1.1,0.4,2.1,0.8,2.9c0.1,0,0.4,0.1,0.6,0.2
						c-0.6-2.2-1.5-5.8-1.6-8.6c0-0.1-0.1-0.3-0.1-0.4c0,0,0-0.1,0-0.1c-0.4-1.2-1.2-4.6-1.5-5.9c-0.3-1.3-1-3.4-0.6-4.7
						c0.7-2.6,2.7,1.1,3.1,1.9c0.6,1.2,1.8,4.5,2.1,5.8c0,0.1,0.2,0.1,0.2,0c0-1.1-0.9-4-1.2-5c0-1.4-0.2-2.8-0.3-4.1
						c0-0.7-0.1-1.5-0.1-2.2c0-0.3,0-0.6,0-1c0.2-1.5,1.6-0.7,2,0.3c1.6,2.6,1.5,6.1,2.4,9c0.1,0.3,0.6,0.3,0.5-0.1
						c-0.2-2-0.6-4.1-1.2-6c0.3-1.6-0.1-3.3,0-4.8c0.1-0.7,0.6-2,1.3-1.4c0.3,0.2,0.5,0.7,0.7,1c0.3,0.5,0.6,1.2,0.7,1.9
						c0.8,2.9,1.2,6.1,1.8,9.1c0,0.2,0.4,0.2,0.4,0c-0.1-1.9-0.4-3.9-0.9-5.9c0.3-0.8,0.2-1.7,0.5-2.6c0.6-1.7,1.9,1,2,1.4
						c1,2.6,1.4,4.8,1.8,7.5c0,0.1,0.1,0.6,0.1,0.6c0,0.3,0.4,2.4,0.6,3c0,0.1,0.2,0,0.2-0.1c-0.2-0.5-0.4-3.5-0.3-3.6
						c1.1-1.6,4.8-3.6,3.5,0.5c-0.2,0.5-0.4,1-0.6,1.5c-0.3,0.9-0.6,1.8-0.8,2.8c-0.3,1.7-0.5,3.4-0.5,5.1c0,0,0,0.1,0,0.1
						c0,0.1,0,0.1,0,0.2c0,0.2,0,0.3,0,0.5c0,0.1,0,0.1,0.1,0.2c0.1,0.8,0.3,1.6,0.4,2.4c0,0,0,0,0,0c2.5,12.9,4.6,25.8,4.8,39
						c0.1,6.6-0.8,13.7-7.3,17.1c-2.9,1.5-6.5,1.3-9.5-0.2c-3.5-1.7-5.3-4.5-6.2-8c-0.2-0.7-1.3-0.4-1.1,0.3
						c1.8,5.7,4.2,9,11.2,10.1c6.5,1.1,11.6-4.1,13.2-10.4C125.4,200.3,125.3,196.5,125.2,192.8z"/>
					<path d="M10.9,175.5c3.4-1.9,5.4-5.6,7.4-8.9c2.2-3.5,4.1-7.2,6.1-10.8c3.4-6.3,6.8-12.8,12.1-17.7c0.3-0.3,0.6,0.1,0.4,0.4
						c-5.5,6.1-9.1,13.3-13,20.5c-2,3.8-4.2,7.4-6.5,11c-1.6,2.6-3.1,5.1-5.9,6.6C10.8,177,10.2,175.9,10.9,175.5z"/>
					<path d="M0.4,157.3c2.4-3.6,4.8-7,7.4-10.4c4.6-6,9.5-11.6,14.9-16.8c0,0,0,0,0,0c1.2-1.1,2.3-2.3,3.5-3.4
						c1.2-2.5,2.4-5.1,3.1-7.8c0.3-1.1,0.3-2.9,1.4-3.6c2.1-1.5,3.1,2.2,3,3.7c1.4-2,6.9-7.6,8.3-6.2c0.4,0.4,0.4,1.1,0.2,1.6
						c-0.2,0.4-0.4,0.8-0.6,1.2c0.4-0.4,3.4-3.3,4.6-3.5c0.5-0.1,0.9-0.2,1.3,0.3c0.5,0.8,0.1,1.9-0.4,2.6c-0.6,1-1.3,2.1-2,3
						c0,0,0,0,0,0c1-0.8,2.7-2.3,4.1-1.7c1.1,0.4,0.7,1.4,0.2,2.2c-1,1.6-2.1,3.2-3.4,4.6c0.3-0.2,0.5-0.4,0.8-0.5
						c0.5-0.3,1.3-0.7,2.1-0.8c0,0,0.1,0,0.1,0c0.1,0,0.3,0,0.4,0c0.5,0,1,0.1,1.3,0.6c0.7,1.1-0.5,2.4-1.2,3.2
						c-1.5,1.9-4.7,5.2-6.6,6.8c0,0-0.2,0.2-0.2,0.3c-1.3,1.8-2,2.4-3.6,4.2c-0.8,0.8-1.5,1.6-2.2,2.1c-0.1,0-0.4-0.1-0.6-0.2
						c1.6-1.6,4.3-4.1,5.9-6.5c0.1-0.1,0.2-0.2,0.3-0.3c0,0,0-0.1,0.1-0.1c1-0.8,3.5-3.3,4.4-4.2c0.9-1,2.6-2.4,3-3.6
						c0.8-2.6-2.9-0.5-3.6-0.1c-1.2,0.7-3.9,2.8-4.9,3.8c-0.1,0.1-0.2,0-0.2-0.1c0.6-0.9,2.9-2.9,3.7-3.6c0.8-1.2,1.6-2.2,2.4-3.4
						c0.4-0.6,0.9-1.2,1.3-1.9c0.2-0.3,0.4-0.5,0.5-0.8c0.6-1.4-1-1.4-1.8-0.8c-2.7,1.4-4.5,4.4-6.7,6.4c-0.2,0.2-0.6-0.1-0.4-0.3
						c1.2-1.6,2.6-3.1,4.2-4.5c0.6-1.5,1.8-2.7,2.5-4.1c0.3-0.6,0.5-2-0.4-1.9c-0.3,0-0.8,0.3-1.1,0.5c-0.6,0.3-1.1,0.8-1.6,1.2
						c-2.2,2.1-4.2,4.6-6.3,6.7c-0.1,0.1-0.4-0.1-0.3-0.2c1.1-1.6,2.4-3.1,3.9-4.5c0.2-0.8,0.8-1.6,0.9-2.4c0.3-1.7-2.1-0.2-2.4,0.1
						c-2.2,1.7-3.8,3.3-5.5,5.4c-0.1,0.1-0.4,0.4-0.4,0.5c-0.2,0.3-1.6,1.8-2.1,2.2c-0.1,0.1-0.2-0.1-0.1-0.1
						c0.4-0.4,2.2-2.8,2.1-2.9c-0.1-1.9-2.2-5.6-3.2-1.4c-0.1,0.5-0.2,1-0.3,1.6c-0.2,0.9-0.5,1.9-0.8,2.8c-0.6,1.6-1.4,3.1-2.3,4.6
						c0,0,0,0.1,0,0.1c0,0-0.1,0.1-0.1,0.1c-0.1,0.1-0.2,0.3-0.2,0.4c0,0.1-0.1,0.1-0.2,0.1c-0.5,0.6-1.1,1.2-1.6,1.8c0,0,0,0,0,0
						c-8.9,9.6-17.5,19.5-24.6,30.7c-3.6,5.6-6.6,12.1-2.8,18.4c1.7,2.8,4.8,4.5,8.2,4.8c3.9,0.4,6.9-1,9.5-3.5
						c0.5-0.5,1.3,0.3,0.8,0.8c-4.5,3.9-8.3,5.4-14.8,2.7c-6.1-2.5-7.7-9.5-5.7-15.7C-3.7,163.5-1.6,160.4,0.4,157.3z"/>
				</g>
				<path fill="none" d="M97,145.7c-0.3-1.9-0.7-3.9-0.2-5.7c0.5-1.9,2.1-3.6,4-3.6c-0.1,3.5,2.5,6.3,4,9.5c2,4.2,1.8,9,1.9,13.6
					c0.1,12.6,1.9,25.1,3.6,37.5c0.4,3,0.8,6,1.2,9c0.3,2.2,0.6,4.4,1.4,6.5c0.3,0.8,0.7,1.7,0.6,2.6c-0.2,1.3-1.6,2.2-2.9,2.2
					c-1.3,0-2.6-0.6-3.8-1.2c-8.2-4.5-14.9-13.4-13.8-22.7c0.3-2.3,1-4.4,1.6-6.6C98.3,173.5,99.2,159.3,97,145.7z"/>
				<path fill="#EAC7B5" d="M38.8,131.5c-0.7,0.8-1.2,1.7-1.8,2.6c-0.7,0.9-1.4,1.7-2.1,2.6c-0.2,0.3,0.2,0.7,0.5,0.5
					c0.9-0.6,1.7-1.4,2.4-2.2c0.7-0.8,1.6-1.7,2-2.6C40.1,131.7,39.4,130.9,38.8,131.5z"/>
				<path fill="#EAC7B5" d="M19.4,160.3c0-0.3-0.3-0.4-0.4-0.2c-1.2,2-2,4.1-3.2,6.1c-1.2,2-2.7,3.7-3.9,5.7
					c-0.3,0.5,0.4,1.1,0.9,0.7C15.8,169.5,18.6,164.6,19.4,160.3z"/>
				<path fill="#EAC7B5" d="M106.4,134.1c-0.1-0.1-0.3-0.1-0.3,0.1c0.4,1.1,0.6,2.3,0.8,3.4c0,0.3,0.5,0.2,0.5-0.1
					C107.5,136.4,107.1,135.1,106.4,134.1z"/>
				<path fill="#EAC7B5" d="M102.2,138.2c-0.1-0.1-0.3,0-0.2,0.2c0.3,0.4,0.5,0.8,0.7,1.3c0.2,0.4,0.3,0.9,0.5,1.4
					c0.1,0.2,0.4,0.1,0.4-0.1C103.5,139.9,102.8,138.9,102.2,138.2z"/>
				<path fill="#C4D38E" d="M78,169.2c3.2-2,7.9-5,12.1-7c2-0.9,4-2.1,5.2-3.9c0.3-0.4-0.3-0.9-0.7-0.5c-1.9,1.6-3.9,2.8-6.1,4
					c-2.3,1.2-7.9,4.9-10.6,7.2C77.7,169.1,77.9,169.3,78,169.2z"/>
				<path fill="#C4D38E" d="M76.8,173.6c-2.3,0-5,0.6-6.8,2c-0.4,0.3,0,0.9,0.5,0.7c1-0.5,1.9-1,2.9-1.4c1.1-0.4,2.3-0.6,3.4-0.8
					C77.2,174.1,77.1,173.6,76.8,173.6z"/>
				<path fill="#C4D38E" d="M49,159.6c-0.9-3.3-1.8-6.3-1.9-9.8c0-0.4-0.6-0.4-0.6,0c-0.4,3.3-0.1,7.2,1.5,10.2
					C48.3,160.5,49.2,160.2,49,159.6z"/>
				<path fill="#8B603E" d="M58.1,212.5c-0.2-0.1-0.4,0.1-0.4,0.3c0.2,0.8,0.4,1.3,0.1,2.1c-0.2,0.5,0.6,0.7,0.8,0.2
					C59,214.2,58.9,213.1,58.1,212.5z"/>
				<path fill="#8B603E" d="M54.2,223.3c-0.2-0.1-0.4,0.1-0.4,0.3c0.2,0.8,0.4,1.3,0.1,2.1c-0.2,0.5,0.6,0.7,0.8,0.2
					C55.1,225.1,55,223.9,54.2,223.3z"/>
				<path fill="#8B603E" d="M60.7,202.7c0-0.7-0.4-1.3-0.9-1.8c-0.2-0.2-0.6,0.1-0.4,0.3c0.4,0.4,0.5,0.9,0.6,1.4
					C60,203.1,60.7,203.2,60.7,202.7z"/>
			</g>
		</g>
	</g>
	<g>
		<path fill="#1B1B1B" d="M257.2,107.9c0,0.2,0,0.4-0.1,0.7s-0.1,0.5-0.2,0.8s-0.2,0.5-0.4,0.6s-0.4,0.3-0.7,0.3
			c-0.4,0-0.6-0.1-0.8-0.4c-0.2-0.3-0.3-0.6-0.4-0.9s-0.1-0.7-0.1-1.1c0-0.4,0-0.7,0-0.9c-0.7,0.1-1.4,0.2-2.1,0.3
			c0,0.2-0.1,0.5-0.1,0.8s-0.2,0.7-0.3,1c-0.1,0.3-0.3,0.6-0.5,0.8c-0.2,0.2-0.5,0.3-0.8,0.3c-0.2,0-0.4-0.1-0.5-0.3
			c-0.1-0.2-0.2-0.4-0.3-0.6s-0.1-0.5-0.1-0.7c0-0.2,0-0.5,0-0.6c0-0.6,0-1.1,0.1-1.6s0.2-1.1,0.3-1.6c0.1-0.3,0.1-0.6,0.2-1
			s0.2-0.8,0.4-1.2c0.1-0.4,0.3-0.8,0.5-1.2c0.2-0.4,0.4-0.7,0.7-1.1s0.5-0.6,0.8-0.8s0.7-0.3,1-0.3c0.4,0,0.7,0.1,1,0.2
			s0.5,0.4,0.7,0.7s0.4,0.6,0.5,0.9s0.3,0.7,0.3,1.1c0.1,0.4,0.2,0.7,0.2,1c0.1,0.3,0.1,0.6,0.2,0.9c0.1,0.6,0.2,1.3,0.3,1.9
			S257.2,107.2,257.2,107.9z M254.4,104.3c0-0.1,0-0.3,0-0.6c0-0.3,0-0.5-0.1-0.8s-0.1-0.5-0.2-0.7c-0.1-0.2-0.2-0.3-0.4-0.3
			c-0.1,0-0.2,0.1-0.3,0.2s-0.2,0.3-0.2,0.5s-0.1,0.4-0.2,0.7c-0.1,0.2-0.1,0.5-0.1,0.7s-0.1,0.4-0.1,0.6s0,0.3,0,0.4
			c0.6,0,1.2-0.1,1.7-0.2V104.3z"/>
		<path fill="#1B1B1B" d="M260.9,101.2c0,0.5,0,1.1-0.1,1.6c0,0.5-0.1,1.1-0.1,1.6c0,0.7,0,1.4,0.1,2.1c0,0.7,0.1,1.4,0.1,2.1
			c0,0.2,0,0.4,0,0.6s-0.1,0.4-0.1,0.6c-0.1,0.2-0.2,0.3-0.3,0.5s-0.3,0.2-0.6,0.2c-0.2,0-0.4-0.1-0.6-0.3s-0.3-0.5-0.4-0.9
			c-0.1-0.4-0.2-0.8-0.3-1.2c-0.1-0.4-0.1-0.9-0.2-1.3c0-0.4-0.1-0.8-0.1-1.1c0-0.3,0-0.6,0-0.8c0-0.2,0-0.5,0-0.8
			c0-0.4,0-0.7,0.1-1.1s0.1-0.8,0.2-1.3s0.2-0.8,0.3-1.2s0.3-0.6,0.5-0.8c0.2-0.2,0.4-0.3,0.7-0.3c0.2,0,0.4,0.1,0.5,0.2
			s0.2,0.3,0.2,0.5s0.1,0.4,0.1,0.6S260.9,101,260.9,101.2z"/>
		<path fill="#1B1B1B" d="M268.7,105.1c0,0.5,0,1,0,1.5c0,0.5,0,1-0.1,1.5c0,0.4-0.1,0.9-0.1,1.4s-0.1,1-0.2,1.5s-0.2,0.9-0.4,1.4
			s-0.4,0.8-0.7,1.2s-0.6,0.6-1,0.8s-0.9,0.3-1.5,0.3c-0.3,0-0.6,0-0.9-0.1s-0.6-0.2-0.9-0.4c-0.3-0.2-0.5-0.3-0.7-0.6
			c-0.2-0.2-0.3-0.5-0.3-0.8c0-0.2,0.1-0.4,0.2-0.6c0.2-0.2,0.4-0.3,0.6-0.3c0.2,0,0.3,0,0.4,0.1s0.3,0.1,0.4,0.2
			c0.1,0.1,0.3,0.1,0.4,0.2c0.1,0.1,0.3,0.1,0.4,0.1c0.4,0,0.7-0.1,0.9-0.3s0.4-0.4,0.6-0.7s0.3-0.6,0.3-0.9
			c0.1-0.3,0.1-0.6,0.2-0.9c-0.2,0.2-0.4,0.4-0.7,0.5c-0.3,0.1-0.5,0.1-0.8,0.1c-0.5,0-1-0.1-1.3-0.3s-0.7-0.4-0.9-0.7
			s-0.4-0.7-0.5-1.1s-0.2-0.9-0.2-1.4c0-0.3,0-0.6,0.1-1c0.1-0.4,0.2-0.8,0.3-1.2s0.3-0.8,0.5-1.1c0.2-0.4,0.4-0.7,0.7-1
			s0.5-0.5,0.9-0.7c0.3-0.2,0.7-0.3,1-0.3c0.4,0,0.7,0.1,1,0.3s0.5,0.5,0.5,0.9c0.1-0.2,0.2-0.4,0.4-0.6s0.4-0.3,0.6-0.3
			c0.1,0,0.3,0.1,0.3,0.2c0.1,0.1,0.2,0.3,0.2,0.5s0.1,0.5,0.1,0.7s0,0.5,0.1,0.8s0,0.5,0,0.7S268.7,105,268.7,105.1z M266.5,106
			c0-0.1,0-0.3-0.1-0.6c0-0.2-0.1-0.5-0.2-0.7s-0.2-0.4-0.3-0.6s-0.3-0.2-0.5-0.2c-0.2,0-0.4,0.1-0.6,0.2c-0.2,0.2-0.3,0.3-0.4,0.6
			s-0.2,0.5-0.3,0.7c-0.1,0.2-0.1,0.5-0.1,0.6c0,0.1,0,0.3,0,0.5s0.1,0.4,0.1,0.6c0.1,0.2,0.1,0.4,0.3,0.5s0.2,0.2,0.4,0.2
			c0.3,0,0.5-0.1,0.7-0.2s0.4-0.3,0.5-0.5c0.1-0.2,0.2-0.4,0.3-0.6S266.5,106.2,266.5,106z"/>
		<path fill="#1B1B1B" d="M272.5,110.5c-0.5,0-0.9-0.1-1.3-0.4s-0.7-0.6-0.9-1s-0.4-0.9-0.6-1.4s-0.2-1-0.2-1.5
			c0-0.5,0.1-1.1,0.2-1.6s0.3-1.1,0.6-1.5s0.6-0.8,1-1.1s0.9-0.4,1.5-0.4c0.5,0,1,0.1,1.4,0.4c0.4,0.3,0.7,0.7,0.9,1.1
			s0.4,0.9,0.5,1.5s0.1,1,0.1,1.5c0,0.5-0.1,1-0.2,1.6c-0.1,0.5-0.3,1-0.6,1.4s-0.6,0.8-1,1S273,110.5,272.5,110.5z M272.6,103.9
			c-0.1,0-0.3,0.1-0.4,0.2s-0.2,0.3-0.3,0.6c-0.1,0.2-0.1,0.5-0.2,0.7s-0.1,0.5-0.1,0.7c0,0.2,0,0.5,0.1,0.8c0,0.3,0.1,0.5,0.2,0.8
			s0.2,0.4,0.3,0.6s0.2,0.2,0.4,0.2c0.2,0,0.3-0.1,0.4-0.2s0.2-0.3,0.3-0.6s0.1-0.5,0.1-0.7s0-0.5,0-0.8c0-0.2,0-0.5-0.1-0.7
			s-0.1-0.5-0.2-0.7c-0.1-0.2-0.2-0.4-0.3-0.6C272.9,103.9,272.8,103.9,272.6,103.9z"/>
		<path fill="#1B1B1B" d="M286.1,107.5c0,0.3-0.1,0.7-0.3,1s-0.5,0.6-0.8,0.8s-0.7,0.4-1,0.6s-0.7,0.2-1,0.2c-0.5,0-1-0.1-1.4-0.4
			s-0.7-0.6-1-1s-0.5-0.8-0.6-1.3s-0.2-1-0.2-1.4c0-0.5,0.1-1,0.2-1.6s0.3-1.1,0.6-1.5c0.3-0.5,0.6-0.9,1.1-1.2
			c0.4-0.3,0.9-0.5,1.5-0.5c0.3,0,0.6,0.1,1,0.2s0.6,0.3,0.8,0.5s0.4,0.4,0.5,0.7s0.2,0.6,0.2,1c0,0.5-0.1,0.9-0.3,1.3
			s-0.5,0.7-0.8,1s-0.7,0.5-1.1,0.7s-0.8,0.3-1.3,0.3c0,0.3,0.2,0.5,0.3,0.6c0.2,0.1,0.4,0.2,0.7,0.2c0.2,0,0.4,0,0.6-0.1
			s0.4-0.2,0.5-0.3s0.3-0.2,0.5-0.3s0.3-0.1,0.5-0.1c0.2,0,0.4,0.1,0.5,0.2S286.1,107.3,286.1,107.5z M283.7,103.9
			c0-0.1,0-0.3-0.1-0.4s-0.2-0.2-0.3-0.2c-0.2,0-0.4,0.1-0.5,0.2s-0.3,0.3-0.4,0.4s-0.2,0.4-0.2,0.5c-0.1,0.2-0.1,0.4-0.1,0.5
			c0.1,0,0.3-0.1,0.5-0.1c0.2,0,0.4-0.1,0.5-0.2c0.2-0.1,0.3-0.2,0.4-0.3C283.7,104.2,283.7,104.1,283.7,103.9z"/>
		<path fill="#1B1B1B" d="M291,102c0,0.3-0.1,0.5-0.3,0.6c-0.2,0.1-0.4,0.3-0.6,0.4s-0.4,0.3-0.6,0.4c-0.2,0.2-0.3,0.4-0.3,0.7
			c0,0.2,0,0.3,0.1,0.5s0.2,0.2,0.3,0.3c0.1,0.1,0.3,0.2,0.4,0.3s0.3,0.2,0.4,0.4s0.2,0.3,0.3,0.5c0.1,0.2,0.1,0.4,0.1,0.7
			c0,0.4-0.1,0.8-0.3,1.2s-0.5,0.7-0.8,1.1c-0.3,0.3-0.7,0.6-1.1,0.7s-0.8,0.3-1.2,0.3c-0.2,0-0.3,0-0.5,0s-0.3-0.1-0.4-0.1
			c-0.1-0.1-0.2-0.2-0.3-0.3s-0.1-0.3-0.1-0.5c0-0.3,0.1-0.5,0.2-0.6s0.2-0.3,0.4-0.4s0.3-0.2,0.5-0.2c0.2,0,0.4-0.1,0.5-0.2
			s0.3-0.2,0.4-0.3s0.2-0.3,0.2-0.5c0-0.2-0.1-0.4-0.2-0.6c-0.2-0.2-0.3-0.5-0.5-0.7s-0.4-0.5-0.5-0.8c-0.2-0.3-0.2-0.6-0.2-0.9
			c0-0.4,0.1-0.8,0.3-1.2c0.2-0.4,0.4-0.7,0.7-0.9s0.6-0.5,1-0.6s0.8-0.2,1.2-0.2c0.2,0,0.3,0,0.5,0c0.2,0,0.3,0.1,0.4,0.2
			s0.2,0.2,0.3,0.3C290.9,101.7,291,101.8,291,102z"/>
		<path fill="#1B1B1B" d="M295,110.6c-0.7,0-1.2-0.1-1.6-0.3c-0.4-0.2-0.7-0.4-0.9-0.8c-0.2-0.3-0.3-0.7-0.3-1.2s-0.1-1-0.1-1.6
			c0-0.5,0-0.9,0-1.4s0.1-1,0.1-1.5c-0.1,0-0.2,0-0.3,0s-0.1,0-0.2,0c-0.3,0-0.6-0.1-0.8-0.2c-0.2-0.1-0.3-0.3-0.3-0.6
			c0-0.2,0.1-0.3,0.2-0.5c0.1-0.1,0.3-0.3,0.5-0.4s0.4-0.2,0.7-0.2s0.5-0.1,0.7-0.1c0-0.3,0-0.6,0.1-0.9s0.1-0.6,0.2-0.9
			c0.1-0.3,0.2-0.5,0.4-0.7s0.4-0.3,0.7-0.3c0.2,0,0.3,0,0.4,0.1s0.2,0.2,0.3,0.4s0.1,0.3,0.2,0.5s0.1,0.3,0.1,0.5
			c0,0.2,0,0.4,0,0.6s-0.1,0.5-0.2,0.8c0.2,0,0.3,0,0.3,0s0.1,0,0.2,0c0.2,0,0.3,0,0.5,0s0.3,0.1,0.5,0.1s0.3,0.2,0.4,0.3
			s0.1,0.2,0.1,0.4c0,0.2-0.1,0.3-0.2,0.5c-0.1,0.1-0.3,0.3-0.5,0.4s-0.4,0.2-0.7,0.2s-0.5,0.1-0.7,0.1c-0.1,0.4-0.1,0.8-0.1,1.1
			s-0.1,0.7-0.1,1c0,0.2,0,0.3-0.1,0.5c0,0.2,0,0.3,0,0.5c0,0.1,0,0.3,0,0.4s0,0.3,0.1,0.5s0.2,0.3,0.3,0.4s0.3,0.2,0.5,0.2
			c0.1,0,0.3,0,0.4,0s0.3,0,0.4,0c0.3,0,0.4,0.1,0.5,0.3c0.1,0.2,0.2,0.4,0.2,0.7c0,0.2-0.1,0.4-0.2,0.5s-0.3,0.3-0.5,0.4
			s-0.4,0.2-0.6,0.2S295.2,110.6,295,110.6z"/>
		<path fill="#1B1B1B" d="M303.4,108c0,0.2,0,0.4,0,0.7c0,0.3-0.1,0.6-0.1,0.8s-0.2,0.5-0.3,0.7s-0.4,0.3-0.6,0.3
			c-0.4,0-0.6-0.1-0.8-0.4s-0.3-0.5-0.3-0.9c-0.3,0.3-0.7,0.5-1.1,0.6c-0.4,0.2-0.8,0.2-1.2,0.2c-0.3,0-0.6-0.1-0.8-0.2
			s-0.5-0.3-0.7-0.5s-0.4-0.5-0.5-0.7s-0.2-0.5-0.2-0.8c0-0.5,0.1-0.9,0.4-1.2c0.3-0.4,0.6-0.7,1.1-0.9s0.9-0.4,1.3-0.6
			c0.5-0.1,0.9-0.2,1.3-0.3c0,0,0-0.1,0-0.1s0-0.1,0-0.1c0-0.3-0.1-0.5-0.2-0.7s-0.4-0.3-0.7-0.3c-0.2,0-0.5,0-0.6,0.1
			s-0.3,0.2-0.5,0.3s-0.3,0.2-0.5,0.3s-0.3,0.1-0.5,0.1c-0.2,0-0.4-0.1-0.5-0.2c-0.2-0.1-0.2-0.3-0.2-0.5c0-0.3,0.1-0.6,0.3-0.9
			c0.2-0.3,0.4-0.5,0.7-0.7s0.6-0.3,0.9-0.4c0.3-0.1,0.6-0.2,0.9-0.2c0.3,0,0.5,0,0.8,0.1s0.5,0.2,0.7,0.3s0.4,0.3,0.6,0.5
			c0.2,0.2,0.3,0.4,0.5,0.7c0.2,0.4,0.3,0.7,0.4,1.1s0.2,0.8,0.2,1.2s0.1,0.8,0.1,1.3S303.4,107.6,303.4,108z M301.1,107.5l0-1
			c0,0,0,0-0.1,0s0,0-0.1,0c-0.1,0-0.3,0-0.5,0.1c-0.2,0.1-0.4,0.2-0.5,0.3s-0.3,0.2-0.4,0.4s-0.2,0.3-0.2,0.4c0,0.1,0,0.2,0.1,0.3
			s0.2,0.1,0.3,0.1c0.2,0,0.4-0.1,0.7-0.2S300.9,107.6,301.1,107.5z M301.8,99c0,0.1,0,0.2-0.1,0.3s-0.1,0.2-0.2,0.3
			c-0.1,0.1-0.2,0.2-0.3,0.2s-0.2,0.1-0.3,0.2c-0.1,0-0.1,0.1-0.2,0.2c-0.1,0.1-0.2,0.1-0.3,0.2c-0.1,0.1-0.2,0.1-0.3,0.1
			s-0.2,0.1-0.3,0.1c-0.1,0-0.1,0-0.2-0.1s-0.1-0.1-0.1-0.2c0-0.1,0.1-0.3,0.2-0.5c0.1-0.2,0.3-0.4,0.4-0.6s0.3-0.4,0.5-0.5
			s0.4-0.2,0.5-0.2c0.1,0,0.3,0.1,0.4,0.2S301.8,98.8,301.8,99z"/>
		<path fill="#1B1B1B" d="M316.7,105.2c0,0.2,0,0.4,0,0.8s0,0.7,0,1c0,0.4,0,0.7-0.1,1.1s-0.1,0.7-0.2,1c-0.1,0.3-0.2,0.6-0.4,0.7
			s-0.4,0.3-0.6,0.3c-0.2,0-0.4-0.1-0.5-0.3c-0.1-0.2-0.2-0.4-0.2-0.6s-0.1-0.5-0.1-0.7c0-0.3,0-0.5,0-0.6c0-0.4,0-0.9,0-1.3
			s0-0.8,0-1.3c0,0,0-0.1,0-0.3s0-0.3,0-0.4s-0.1-0.2-0.1-0.3c0-0.1-0.1-0.1-0.2-0.1c-0.2,0-0.3,0.1-0.4,0.3s-0.2,0.4-0.3,0.6
			s-0.1,0.5-0.1,0.7s0,0.4-0.1,0.5c0,0.1,0,0.3-0.1,0.6c0,0.3,0,0.5-0.1,0.8s-0.1,0.6-0.1,0.9s-0.1,0.6-0.2,0.9s-0.2,0.5-0.3,0.6
			s-0.3,0.2-0.5,0.2c-0.2,0-0.4-0.1-0.5-0.3s-0.2-0.4-0.3-0.7s-0.1-0.6-0.1-0.8c0-0.3,0-0.5,0-0.7c0-0.2,0-0.3,0-0.5s0-0.3,0-0.5
			c0-0.1,0-0.2,0-0.3s0-0.3,0-0.5s0-0.4,0-0.6c0-0.2,0-0.4-0.1-0.6s-0.1-0.3-0.1-0.4s-0.1-0.2-0.2-0.2c-0.1,0-0.2,0.1-0.4,0.2
			s-0.2,0.4-0.3,0.6s-0.1,0.4-0.2,0.7c0,0.2-0.1,0.4-0.1,0.5v0.1c0,0.5,0,0.9,0.1,1.4s0.1,0.9,0.1,1.4c0,0.3-0.1,0.5-0.3,0.8
			s-0.4,0.3-0.7,0.3c-0.2,0-0.4-0.1-0.6-0.3s-0.3-0.4-0.4-0.7s-0.2-0.6-0.2-0.9s-0.1-0.6-0.1-1s0-0.6,0-0.9s0-0.5,0-0.6
			c0-0.1,0-0.4,0-0.6c0-0.3,0-0.6,0-0.9c0-0.3,0-0.7,0.1-1s0.1-0.7,0.2-0.9s0.2-0.5,0.3-0.7s0.3-0.3,0.5-0.3c0.3,0,0.5,0.1,0.6,0.2
			c0.2,0.1,0.2,0.3,0.2,0.6c0,0.1,0,0.1,0,0.2s0,0.1,0,0.2c0.1-0.2,0.2-0.3,0.4-0.5s0.3-0.3,0.5-0.4s0.4-0.2,0.6-0.3
			s0.4-0.1,0.6-0.1c0.2,0,0.4,0.1,0.5,0.2s0.3,0.2,0.4,0.4s0.2,0.3,0.3,0.5s0.1,0.4,0.2,0.5c0.1-0.2,0.2-0.4,0.4-0.5
			c0.1-0.2,0.3-0.3,0.5-0.5s0.3-0.2,0.5-0.3s0.4-0.1,0.6-0.1c0.2,0,0.4,0.1,0.5,0.2s0.3,0.3,0.4,0.6s0.2,0.5,0.2,0.8
			s0.1,0.6,0.1,0.8s0.1,0.5,0.1,0.8S316.7,105.1,316.7,105.2z"/>
		<path fill="#1B1B1B" d="M323.9,108c0,0.2,0,0.4,0,0.7c0,0.3-0.1,0.6-0.1,0.8s-0.2,0.5-0.3,0.7s-0.4,0.3-0.6,0.3
			c-0.4,0-0.6-0.1-0.8-0.4s-0.3-0.5-0.3-0.9c-0.3,0.3-0.7,0.5-1.1,0.6c-0.4,0.2-0.8,0.2-1.2,0.2c-0.3,0-0.6-0.1-0.8-0.2
			s-0.5-0.3-0.7-0.5s-0.4-0.5-0.5-0.7s-0.2-0.5-0.2-0.8c0-0.5,0.1-0.9,0.4-1.2c0.3-0.4,0.6-0.7,1.1-0.9s0.9-0.4,1.3-0.6
			c0.5-0.1,0.9-0.2,1.3-0.3c0,0,0-0.1,0-0.1s0-0.1,0-0.1c0-0.3-0.1-0.5-0.2-0.7s-0.4-0.3-0.7-0.3c-0.2,0-0.5,0-0.6,0.1
			s-0.3,0.2-0.5,0.3s-0.3,0.2-0.5,0.3s-0.3,0.1-0.5,0.1c-0.2,0-0.4-0.1-0.5-0.2c-0.2-0.1-0.2-0.3-0.2-0.5c0-0.3,0.1-0.6,0.3-0.9
			c0.2-0.3,0.4-0.5,0.7-0.7s0.6-0.3,0.9-0.4c0.3-0.1,0.6-0.2,0.9-0.2c0.3,0,0.5,0,0.8,0.1s0.5,0.2,0.7,0.3s0.4,0.3,0.6,0.5
			c0.2,0.2,0.3,0.4,0.5,0.7c0.2,0.4,0.3,0.7,0.4,1.1s0.2,0.8,0.2,1.2s0.1,0.8,0.1,1.3S323.9,107.6,323.9,108z M321.6,107.5l0-1
			c0,0,0,0-0.1,0s0,0-0.1,0c-0.1,0-0.3,0-0.5,0.1c-0.2,0.1-0.4,0.2-0.5,0.3s-0.3,0.2-0.4,0.4s-0.2,0.3-0.2,0.4c0,0.1,0,0.2,0.1,0.3
			s0.2,0.1,0.3,0.1c0.2,0,0.4-0.1,0.7-0.2S321.4,107.6,321.6,107.5z"/>
		<path fill="#1B1B1B" d="M327.5,101.2c0,0.5,0,1.1-0.1,1.6c0,0.5-0.1,1.1-0.1,1.6c0,0.7,0,1.4,0.1,2.1c0,0.7,0.1,1.4,0.1,2.1
			c0,0.2,0,0.4,0,0.6s-0.1,0.4-0.1,0.6c-0.1,0.2-0.2,0.3-0.3,0.5s-0.3,0.2-0.6,0.2c-0.2,0-0.4-0.1-0.6-0.3s-0.3-0.5-0.4-0.9
			c-0.1-0.4-0.2-0.8-0.3-1.2c-0.1-0.4-0.1-0.9-0.2-1.3c0-0.4-0.1-0.8-0.1-1.1c0-0.3,0-0.6,0-0.8c0-0.2,0-0.5,0-0.8
			c0-0.4,0-0.7,0.1-1.1s0.1-0.8,0.2-1.3s0.2-0.8,0.3-1.2s0.3-0.6,0.5-0.8c0.2-0.2,0.4-0.3,0.7-0.3c0.2,0,0.4,0.1,0.5,0.2
			s0.2,0.3,0.2,0.5s0.1,0.4,0.1,0.6S327.5,101,327.5,101.2z"/>
		<path fill="#1B1B1B" d="M330.8,109.4c0,0.1,0,0.2-0.1,0.3s-0.1,0.2-0.2,0.3s-0.2,0.1-0.3,0.2c-0.1,0-0.2,0.1-0.3,0.1
			c-0.1,0-0.3,0-0.5-0.1c-0.2-0.1-0.3-0.1-0.5-0.2c-0.1-0.1-0.3-0.2-0.4-0.3s-0.1-0.3-0.1-0.4c0-0.3,0.1-0.5,0.3-0.6
			s0.5-0.2,0.7-0.2c0.1,0,0.3,0,0.5,0.1c0.2,0,0.3,0.1,0.5,0.2c0.1,0.1,0.3,0.2,0.3,0.3S330.8,109.2,330.8,109.4z"/>
		<path fill="#1B1B1B" d="M333.5,109.4c0,0.1,0,0.2-0.1,0.3s-0.1,0.2-0.2,0.3s-0.2,0.1-0.3,0.2c-0.1,0-0.2,0.1-0.3,0.1
			c-0.1,0-0.3,0-0.5-0.1c-0.2-0.1-0.3-0.1-0.5-0.2c-0.1-0.1-0.3-0.2-0.4-0.3s-0.1-0.3-0.1-0.4c0-0.3,0.1-0.5,0.3-0.6
			s0.5-0.2,0.7-0.2c0.1,0,0.3,0,0.5,0.1c0.2,0,0.3,0.1,0.5,0.2c0.1,0.1,0.3,0.2,0.3,0.3S333.5,109.2,333.5,109.4z"/>
		<path fill="#1B1B1B" d="M336.2,109.4c0,0.1,0,0.2-0.1,0.3s-0.1,0.2-0.2,0.3s-0.2,0.1-0.3,0.2c-0.1,0-0.2,0.1-0.3,0.1
			c-0.1,0-0.3,0-0.5-0.1c-0.2-0.1-0.3-0.1-0.5-0.2c-0.1-0.1-0.3-0.2-0.4-0.3s-0.1-0.3-0.1-0.4c0-0.3,0.1-0.5,0.3-0.6
			s0.5-0.2,0.7-0.2c0.1,0,0.3,0,0.5,0.1c0.2,0,0.3,0.1,0.5,0.2c0.1,0.1,0.3,0.2,0.3,0.3S336.2,109.2,336.2,109.4z"/>
		<path fill="#E53835" d="M238.4,121.6c0,0.7-0.2,1.3-0.5,1.8s-0.7,1-1.2,1.4c0.2,0.2,0.3,0.5,0.5,0.8s0.3,0.6,0.4,1
			c0.1,0.3,0.2,0.7,0.3,1c0.1,0.3,0.1,0.7,0.1,1c0,0.3-0.1,0.6-0.2,0.8s-0.4,0.4-0.8,0.4c-0.3,0-0.6-0.1-0.8-0.4
			c-0.2-0.3-0.4-0.6-0.6-1s-0.3-0.8-0.5-1.2s-0.3-0.8-0.4-1c-0.2,0.1-0.3,0.1-0.5,0.2s-0.3,0.1-0.5,0.2c0,0.2,0,0.5-0.1,0.9
			c0,0.4-0.1,0.7-0.2,1.1s-0.2,0.7-0.4,1s-0.4,0.4-0.7,0.4c-0.3,0-0.6-0.1-0.7-0.4s-0.3-0.6-0.4-0.9c-0.1-0.4-0.1-0.7-0.1-1.1
			s0-0.7,0-0.9c0-0.5,0-0.9,0-1.4s0-0.9,0-1.4c0-0.4,0-0.8,0-1.3c0-0.4,0-0.8,0-1.3c0-0.1,0-0.2,0-0.4s0-0.3,0-0.5
			c0-0.2,0-0.3,0.1-0.5s0.1-0.3,0.1-0.4c0.1-0.2,0.3-0.4,0.7-0.6s0.7-0.3,1.1-0.5s0.8-0.3,1.2-0.3c0.4-0.1,0.7-0.1,0.9-0.1
			c0.5,0,0.9,0.1,1.3,0.3s0.7,0.4,1,0.8s0.4,0.7,0.6,1.1S238.4,121.1,238.4,121.6z M235.7,121.8c0-0.3-0.1-0.4-0.2-0.6
			s-0.3-0.2-0.6-0.2c-0.2,0-0.4,0-0.6,0.1s-0.4,0.1-0.5,0.2c0,0.8,0.1,1.5,0,2.3c0.2-0.1,0.4-0.2,0.6-0.3s0.4-0.2,0.6-0.4
			c0.2-0.2,0.3-0.3,0.4-0.5S235.7,122,235.7,121.8z"/>
		<path fill="#E53835" d="M245,126.7c0,0.3-0.1,0.7-0.3,1s-0.5,0.6-0.8,0.8s-0.7,0.4-1,0.6s-0.7,0.2-1,0.2c-0.5,0-1-0.1-1.4-0.4
			s-0.7-0.6-1-1s-0.5-0.8-0.6-1.3s-0.2-1-0.2-1.4c0-0.5,0.1-1,0.2-1.6s0.3-1.1,0.6-1.5c0.3-0.5,0.6-0.9,1.1-1.2
			c0.4-0.3,0.9-0.5,1.5-0.5c0.3,0,0.6,0.1,1,0.2s0.6,0.3,0.8,0.5s0.4,0.4,0.5,0.7s0.2,0.6,0.2,1c0,0.5-0.1,0.9-0.3,1.3
			s-0.5,0.7-0.8,1s-0.7,0.5-1.1,0.7s-0.8,0.3-1.3,0.3c0,0.3,0.2,0.5,0.3,0.6c0.2,0.1,0.4,0.2,0.7,0.2c0.2,0,0.4,0,0.6-0.1
			s0.4-0.2,0.5-0.3s0.3-0.2,0.5-0.3s0.3-0.1,0.5-0.1c0.2,0,0.4,0.1,0.5,0.2S245,126.5,245,126.7z M242.6,123.1c0-0.1,0-0.3-0.1-0.4
			s-0.2-0.2-0.3-0.2c-0.2,0-0.4,0.1-0.5,0.2s-0.3,0.3-0.4,0.4s-0.2,0.4-0.2,0.5c-0.1,0.2-0.1,0.4-0.1,0.5c0.1,0,0.3-0.1,0.5-0.1
			c0.2,0,0.4-0.1,0.5-0.2c0.2-0.1,0.3-0.2,0.4-0.3C242.6,123.4,242.6,123.3,242.6,123.1z"/>
		<path fill="#E53835" d="M251.9,124c-0.3,0.7-0.5,1.4-0.8,2.1s-0.6,1.4-1,2.1c-0.2,0.4-0.5,0.7-0.7,1s-0.6,0.4-0.9,0.4
			c-0.3,0-0.5-0.1-0.8-0.4s-0.5-0.6-0.7-1c-0.2-0.4-0.4-0.8-0.6-1.2c-0.2-0.4-0.3-0.7-0.4-0.9c-0.1-0.3-0.2-0.5-0.3-0.8
			s-0.2-0.6-0.3-0.9s-0.1-0.6-0.2-0.9s-0.1-0.6-0.1-0.9c0-0.4,0.1-0.7,0.2-0.9s0.4-0.4,0.8-0.4c0.2,0,0.3,0,0.4,0.1s0.2,0.2,0.4,0.4
			s0.2,0.4,0.3,0.6s0.2,0.5,0.3,0.7c0.1,0.3,0.2,0.5,0.2,0.8s0.2,0.5,0.2,0.8s0.2,0.5,0.2,0.7c0.1,0.2,0.2,0.5,0.3,0.7
			c0.1-0.2,0.1-0.4,0.2-0.6s0.2-0.5,0.3-0.7c0.1-0.3,0.2-0.5,0.3-0.8s0.2-0.5,0.4-0.8c0.3-0.5,0.5-1,0.8-1.3
			c0.3-0.4,0.6-0.6,0.9-0.6c0.3,0,0.5,0.1,0.6,0.2s0.2,0.4,0.2,0.6s0,0.6-0.1,0.9S252.1,123.7,251.9,124z"/>
		<path fill="#E53835" d="M255.4,124c0,0.1,0,0.3,0,0.4s0,0.3,0,0.4c0,0.2,0,0.4,0,0.7s0,0.6,0,0.9s-0.1,0.6-0.1,1
			c0,0.3-0.1,0.6-0.2,0.9s-0.2,0.5-0.4,0.7c-0.2,0.2-0.4,0.3-0.6,0.3c-0.2,0-0.3-0.1-0.5-0.2s-0.2-0.4-0.3-0.6
			c-0.1-0.2-0.1-0.5-0.2-0.8s-0.1-0.6-0.1-0.9s0-0.6,0-0.8s0-0.4,0-0.5c0-0.2,0-0.4,0-0.7s0-0.6,0-0.9s0.1-0.7,0.1-1
			s0.1-0.7,0.2-0.9c0.1-0.3,0.2-0.5,0.4-0.7s0.4-0.3,0.6-0.3c0.3,0,0.5,0.1,0.6,0.4s0.2,0.6,0.3,0.9s0.1,0.7,0.1,1
			S255.4,123.9,255.4,124z M255.3,119c0,0.1,0,0.3-0.1,0.4c-0.1,0.1-0.2,0.2-0.3,0.3s-0.2,0.1-0.4,0.2s-0.3,0.1-0.4,0.1
			c-0.2,0-0.4,0-0.5-0.1s-0.2-0.2-0.2-0.5c0-0.1,0-0.3,0.1-0.4c0.1-0.1,0.2-0.2,0.3-0.3s0.2-0.1,0.4-0.2s0.3-0.1,0.4-0.1
			c0.2,0,0.4,0,0.5,0.1S255.3,118.8,255.3,119z"/>
		<path fill="#E53835" d="M260.8,121.2c0,0.3-0.1,0.5-0.3,0.6c-0.2,0.1-0.4,0.3-0.6,0.4s-0.4,0.3-0.6,0.4c-0.2,0.2-0.3,0.4-0.3,0.7
			c0,0.2,0,0.3,0.1,0.5s0.2,0.2,0.3,0.3c0.1,0.1,0.3,0.2,0.4,0.3s0.3,0.2,0.4,0.4s0.2,0.3,0.3,0.5c0.1,0.2,0.1,0.4,0.1,0.7
			c0,0.4-0.1,0.8-0.3,1.2s-0.5,0.7-0.8,1.1c-0.3,0.3-0.7,0.6-1.1,0.7s-0.8,0.3-1.2,0.3c-0.2,0-0.3,0-0.5,0s-0.3-0.1-0.4-0.1
			c-0.1-0.1-0.2-0.2-0.3-0.3s-0.1-0.3-0.1-0.5c0-0.3,0.1-0.5,0.2-0.6s0.2-0.3,0.4-0.4s0.3-0.2,0.5-0.2c0.2,0,0.4-0.1,0.5-0.2
			s0.3-0.2,0.4-0.3s0.2-0.3,0.2-0.5c0-0.2-0.1-0.4-0.2-0.6c-0.2-0.2-0.3-0.5-0.5-0.7s-0.4-0.5-0.5-0.8c-0.2-0.3-0.2-0.6-0.2-0.9
			c0-0.4,0.1-0.8,0.3-1.2c0.2-0.4,0.4-0.7,0.7-0.9s0.6-0.5,1-0.6s0.8-0.2,1.2-0.2c0.2,0,0.3,0,0.5,0c0.2,0,0.3,0.1,0.4,0.2
			s0.2,0.2,0.3,0.3C260.7,120.9,260.8,121,260.8,121.2z"/>
		<path fill="#E53835" d="M267.6,127.2c0,0.2,0,0.4,0,0.7c0,0.3-0.1,0.6-0.1,0.8s-0.2,0.5-0.3,0.7s-0.4,0.3-0.6,0.3
			c-0.4,0-0.6-0.1-0.8-0.4s-0.3-0.5-0.3-0.9c-0.3,0.3-0.7,0.5-1.1,0.6c-0.4,0.2-0.8,0.2-1.2,0.2c-0.3,0-0.6-0.1-0.8-0.2
			s-0.5-0.3-0.7-0.5s-0.4-0.5-0.5-0.7s-0.2-0.5-0.2-0.8c0-0.5,0.1-0.9,0.4-1.2c0.3-0.4,0.6-0.7,1.1-0.9s0.9-0.4,1.3-0.6
			c0.5-0.1,0.9-0.2,1.3-0.3c0,0,0-0.1,0-0.1s0-0.1,0-0.1c0-0.3-0.1-0.5-0.2-0.7s-0.4-0.3-0.7-0.3c-0.2,0-0.5,0-0.6,0.1
			s-0.3,0.2-0.5,0.3s-0.3,0.2-0.5,0.3s-0.3,0.1-0.5,0.1c-0.2,0-0.4-0.1-0.5-0.2c-0.2-0.1-0.2-0.3-0.2-0.5c0-0.3,0.1-0.6,0.3-0.9
			c0.2-0.3,0.4-0.5,0.7-0.7s0.6-0.3,0.9-0.4c0.3-0.1,0.6-0.2,0.9-0.2c0.3,0,0.5,0,0.8,0.1s0.5,0.2,0.7,0.3s0.4,0.3,0.6,0.5
			c0.2,0.2,0.3,0.4,0.5,0.7c0.2,0.4,0.3,0.7,0.4,1.1s0.2,0.8,0.2,1.2s0.1,0.8,0.1,1.3S267.6,126.8,267.6,127.2z M265.2,126.7l0-1
			c0,0,0,0-0.1,0s0,0-0.1,0c-0.1,0-0.3,0-0.5,0.1c-0.2,0.1-0.4,0.2-0.5,0.3s-0.3,0.2-0.4,0.4s-0.2,0.3-0.2,0.4c0,0.1,0,0.2,0.1,0.3
			s0.2,0.1,0.3,0.1c0.2,0,0.4-0.1,0.7-0.2S265.1,126.8,265.2,126.7z"/>
		<path fill="#E53835" d="M275.4,129.8c-0.7,0-1.2-0.1-1.6-0.3c-0.4-0.2-0.7-0.4-0.9-0.8c-0.2-0.3-0.3-0.7-0.3-1.2s-0.1-1-0.1-1.6
			c0-0.5,0-0.9,0-1.4s0.1-1,0.1-1.5c-0.1,0-0.2,0-0.3,0s-0.1,0-0.2,0c-0.3,0-0.6-0.1-0.8-0.2c-0.2-0.1-0.3-0.3-0.3-0.6
			c0-0.2,0.1-0.3,0.2-0.5c0.1-0.1,0.3-0.3,0.5-0.4s0.4-0.2,0.7-0.2s0.5-0.1,0.7-0.1c0-0.3,0-0.6,0.1-0.9s0.1-0.6,0.2-0.9
			c0.1-0.3,0.2-0.5,0.4-0.7s0.4-0.3,0.7-0.3c0.2,0,0.3,0,0.4,0.1s0.2,0.2,0.3,0.4s0.1,0.3,0.2,0.5s0.1,0.3,0.1,0.5
			c0,0.2,0,0.4,0,0.6s-0.1,0.5-0.2,0.8c0.2,0,0.3,0,0.3,0s0.1,0,0.2,0c0.2,0,0.3,0,0.5,0s0.3,0.1,0.5,0.1s0.3,0.2,0.4,0.3
			s0.1,0.2,0.1,0.4c0,0.2-0.1,0.3-0.2,0.5c-0.1,0.1-0.3,0.3-0.5,0.4s-0.4,0.2-0.7,0.2s-0.5,0.1-0.7,0.1c-0.1,0.4-0.1,0.8-0.1,1.1
			s-0.1,0.7-0.1,1c0,0.2,0,0.3-0.1,0.5c0,0.2,0,0.3,0,0.5c0,0.1,0,0.3,0,0.4s0,0.3,0.1,0.5s0.2,0.3,0.3,0.4s0.3,0.2,0.5,0.2
			c0.1,0,0.3,0,0.4,0s0.3,0,0.4,0c0.3,0,0.4,0.1,0.5,0.3c0.1,0.2,0.2,0.4,0.2,0.7c0,0.2-0.1,0.4-0.2,0.5s-0.3,0.3-0.5,0.4
			s-0.4,0.2-0.6,0.2S275.6,129.8,275.4,129.8z"/>
		<path fill="#E53835" d="M284,125.1c0,0.5-0.1,1.1-0.2,1.6s-0.3,1-0.5,1.4s-0.6,0.7-1,1c-0.4,0.3-1,0.4-1.6,0.4
			c-0.6,0-1.1-0.1-1.6-0.4s-0.8-0.6-1-1c-0.3-0.4-0.4-0.9-0.5-1.4c-0.1-0.5-0.2-1-0.2-1.6c0-0.6,0.1-1.2,0.2-1.7
			c0-0.2,0.1-0.4,0.2-0.7s0.2-0.6,0.3-0.8c0.1-0.3,0.3-0.5,0.5-0.7c0.2-0.2,0.4-0.3,0.6-0.3c0.2,0,0.4,0.1,0.5,0.2s0.2,0.2,0.3,0.4
			s0.1,0.3,0.1,0.5s0,0.3,0,0.5c0,0.2,0,0.4-0.1,0.7s-0.1,0.4-0.1,0.6c0,0.3-0.1,0.6-0.1,0.9c0,0.3-0.1,0.6-0.1,0.9
			c0,0.1,0,0.3,0,0.5c0,0.2,0.1,0.4,0.1,0.5s0.1,0.3,0.2,0.4s0.3,0.2,0.5,0.2c0.3,0,0.5-0.1,0.6-0.2s0.3-0.3,0.3-0.5
			c0.1-0.2,0.1-0.4,0.1-0.7s0-0.4,0-0.6c0-0.4,0-0.9-0.1-1.3s-0.1-0.8-0.2-1.3c0,0,0-0.1,0-0.2c0-0.1,0-0.3,0.1-0.4s0.1-0.3,0.2-0.4
			s0.2-0.2,0.3-0.3s0.3-0.1,0.4-0.1c0.2,0,0.4,0.1,0.6,0.2s0.3,0.3,0.4,0.6s0.2,0.5,0.3,0.8c0.1,0.3,0.1,0.6,0.2,0.9
			c0,0.3,0.1,0.6,0.1,0.8C284,124.7,284,124.9,284,125.1z"/>
		<path fill="#E53835" d="M289.2,121.2c0,0.3-0.1,0.5-0.3,0.6c-0.2,0.1-0.4,0.3-0.6,0.4s-0.4,0.3-0.6,0.4c-0.2,0.2-0.3,0.4-0.3,0.7
			c0,0.2,0,0.3,0.1,0.5s0.2,0.2,0.3,0.3c0.1,0.1,0.3,0.2,0.4,0.3s0.3,0.2,0.4,0.4s0.2,0.3,0.3,0.5c0.1,0.2,0.1,0.4,0.1,0.7
			c0,0.4-0.1,0.8-0.3,1.2s-0.5,0.7-0.8,1.1c-0.3,0.3-0.7,0.6-1.1,0.7s-0.8,0.3-1.2,0.3c-0.2,0-0.3,0-0.5,0s-0.3-0.1-0.4-0.1
			c-0.1-0.1-0.2-0.2-0.3-0.3s-0.1-0.3-0.1-0.5c0-0.3,0.1-0.5,0.2-0.6s0.2-0.3,0.4-0.4s0.3-0.2,0.5-0.2c0.2,0,0.4-0.1,0.5-0.2
			s0.3-0.2,0.4-0.3s0.2-0.3,0.2-0.5c0-0.2-0.1-0.4-0.2-0.6c-0.2-0.2-0.3-0.5-0.5-0.7s-0.4-0.5-0.5-0.8c-0.2-0.3-0.2-0.6-0.2-0.9
			c0-0.4,0.1-0.8,0.3-1.2c0.2-0.4,0.4-0.7,0.7-0.9s0.6-0.5,1-0.6s0.8-0.2,1.2-0.2c0.2,0,0.3,0,0.5,0c0.2,0,0.3,0.1,0.4,0.2
			s0.2,0.2,0.3,0.3C289.2,120.9,289.2,121,289.2,121.2z"/>
		<path fill="#E53835" d="M298.4,123.8c-0.1,0-0.3,0-0.4,0s-0.2-0.1-0.3-0.1c-0.1,0-0.2-0.1-0.3-0.1s-0.2,0-0.3,0
			c-0.2,0-0.4,0.1-0.5,0.2s-0.3,0.2-0.4,0.4s-0.2,0.3-0.3,0.5s-0.2,0.4-0.2,0.5c0,0.1-0.1,0.3-0.1,0.5c0,0.2,0,0.5,0,0.8
			c0,0.3,0,0.6,0,0.8s0,0.5,0,0.6c0,0.2,0,0.3-0.1,0.5s-0.1,0.4-0.2,0.6s-0.2,0.3-0.3,0.5s-0.3,0.2-0.5,0.2c-0.2,0-0.3,0-0.4-0.1
			s-0.2-0.2-0.3-0.4c-0.1-0.2-0.2-0.3-0.2-0.6c-0.1-0.2-0.1-0.4-0.1-0.7c0-0.2-0.1-0.5-0.1-0.7c0-0.2,0-0.5,0-0.7s0-0.4,0-0.6
			s0-0.3,0-0.4c0-0.3,0-0.7-0.1-1c0-0.3,0-0.7,0-1c0-0.2,0-0.5,0-0.7s0.1-0.5,0.2-0.7s0.2-0.4,0.4-0.6s0.4-0.2,0.7-0.2
			c0.2,0,0.3,0.1,0.4,0.2s0.2,0.2,0.3,0.4c0.1,0.2,0.1,0.3,0.2,0.5s0.1,0.3,0.1,0.5c0.2-0.4,0.5-0.7,0.8-0.9s0.7-0.4,1.1-0.4
			c0.2,0,0.5,0,0.7,0.1c0.2,0.1,0.4,0.1,0.6,0.3c0.2,0.1,0.3,0.3,0.5,0.5s0.2,0.4,0.2,0.7c0,0.3-0.1,0.6-0.3,0.7
			S298.7,123.8,298.4,123.8z"/>
		<path fill="#E53835" d="M305.8,126.7c0,0.3-0.1,0.7-0.3,1s-0.5,0.6-0.8,0.8s-0.7,0.4-1,0.6s-0.7,0.2-1,0.2c-0.5,0-1-0.1-1.4-0.4
			s-0.7-0.6-1-1s-0.5-0.8-0.6-1.3s-0.2-1-0.2-1.4c0-0.5,0.1-1,0.2-1.6s0.3-1.1,0.6-1.5c0.3-0.5,0.6-0.9,1.1-1.2
			c0.4-0.3,0.9-0.5,1.5-0.5c0.3,0,0.6,0.1,1,0.2s0.6,0.3,0.8,0.5s0.4,0.4,0.5,0.7s0.2,0.6,0.2,1c0,0.5-0.1,0.9-0.3,1.3
			s-0.5,0.7-0.8,1s-0.7,0.5-1.1,0.7s-0.8,0.3-1.3,0.3c0,0.3,0.2,0.5,0.3,0.6c0.2,0.1,0.4,0.2,0.7,0.2c0.2,0,0.4,0,0.6-0.1
			s0.4-0.2,0.5-0.3s0.3-0.2,0.5-0.3s0.3-0.1,0.5-0.1c0.2,0,0.4,0.1,0.5,0.2S305.8,126.5,305.8,126.7z M303.4,123.1
			c0-0.1,0-0.3-0.1-0.4s-0.2-0.2-0.3-0.2c-0.2,0-0.4,0.1-0.5,0.2s-0.3,0.3-0.4,0.4s-0.2,0.4-0.2,0.5c-0.1,0.2-0.1,0.4-0.1,0.5
			c0.1,0,0.3-0.1,0.5-0.1c0.2,0,0.4-0.1,0.5-0.2c0.2-0.1,0.3-0.2,0.4-0.3C303.4,123.4,303.4,123.3,303.4,123.1z"/>
		<path fill="#E53835" d="M310.7,121.2c0,0.3-0.1,0.5-0.3,0.6c-0.2,0.1-0.4,0.3-0.6,0.4s-0.4,0.3-0.6,0.4c-0.2,0.2-0.3,0.4-0.3,0.7
			c0,0.2,0,0.3,0.1,0.5s0.2,0.2,0.3,0.3c0.1,0.1,0.3,0.2,0.4,0.3s0.3,0.2,0.4,0.4s0.2,0.3,0.3,0.5c0.1,0.2,0.1,0.4,0.1,0.7
			c0,0.4-0.1,0.8-0.3,1.2s-0.5,0.7-0.8,1.1c-0.3,0.3-0.7,0.6-1.1,0.7s-0.8,0.3-1.2,0.3c-0.2,0-0.3,0-0.5,0s-0.3-0.1-0.4-0.1
			c-0.1-0.1-0.2-0.2-0.3-0.3s-0.1-0.3-0.1-0.5c0-0.3,0.1-0.5,0.2-0.6s0.2-0.3,0.4-0.4s0.3-0.2,0.5-0.2c0.2,0,0.4-0.1,0.5-0.2
			s0.3-0.2,0.4-0.3s0.2-0.3,0.2-0.5c0-0.2-0.1-0.4-0.2-0.6c-0.2-0.2-0.3-0.5-0.5-0.7s-0.4-0.5-0.5-0.8c-0.2-0.3-0.2-0.6-0.2-0.9
			c0-0.4,0.1-0.8,0.3-1.2c0.2-0.4,0.4-0.7,0.7-0.9s0.6-0.5,1-0.6s0.8-0.2,1.2-0.2c0.2,0,0.3,0,0.5,0c0.2,0,0.3,0.1,0.4,0.2
			s0.2,0.2,0.3,0.3C310.6,120.9,310.7,121,310.7,121.2z"/>
		<path fill="#E53835" d="M318,124.9c0,0.4,0,0.9-0.1,1.4c-0.1,0.5-0.3,1-0.5,1.4c-0.2,0.4-0.5,0.8-0.9,1.1s-0.8,0.4-1.3,0.4
			c-0.1,0-0.3,0-0.4,0s-0.3-0.1-0.4-0.1c-0.1,0-0.3-0.1-0.4-0.2s-0.2-0.2-0.2-0.3l-0.1,2.1c0,0.2,0,0.5,0,0.8c0,0.3,0,0.6-0.1,0.9
			c-0.1,0.3-0.2,0.5-0.4,0.7s-0.4,0.3-0.7,0.3c-0.2,0-0.3-0.1-0.5-0.3s-0.2-0.4-0.3-0.7c-0.1-0.3-0.1-0.6-0.2-1s-0.1-0.7-0.1-1
			s0-0.6,0-0.9s0-0.5,0-0.6c0-0.7,0-1.3,0-2s0-1.3,0-2c0-0.1,0-0.3,0-0.5s0-0.5,0-0.8s0.1-0.6,0.1-0.9c0-0.3,0.1-0.6,0.2-0.9
			s0.2-0.5,0.3-0.6s0.3-0.2,0.5-0.2c0.1,0,0.2,0,0.3,0.1c0.1,0.1,0.2,0.2,0.3,0.3c0.1,0.1,0.1,0.2,0.2,0.4s0.1,0.2,0.1,0.4
			c0.3-0.3,0.7-0.6,1-0.8c0.4-0.2,0.8-0.3,1.3-0.3c0.5,0,0.9,0.1,1.2,0.4c0.3,0.3,0.5,0.6,0.7,1c0.2,0.4,0.3,0.8,0.4,1.3
			S318,124.5,318,124.9z M315.9,124.8c0-0.1,0-0.3,0-0.4c0-0.2-0.1-0.3-0.1-0.4s-0.2-0.2-0.3-0.3s-0.3-0.1-0.4-0.1
			c-0.2,0-0.5,0.1-0.7,0.2c-0.3,0.2-0.5,0.3-0.6,0.5c0,0.1-0.1,0.2-0.1,0.4s0,0.3,0,0.4c0,0.1,0,0.2,0,0.3c0,0.1,0,0.2,0,0.3
			s0,0.2,0,0.3c0,0.1,0,0.2,0.1,0.2c0,0.1,0.1,0.2,0.2,0.2s0.2,0.1,0.3,0.2s0.2,0.1,0.4,0.1c0.1,0,0.2,0,0.3,0
			c0.2,0,0.4-0.1,0.5-0.2s0.2-0.3,0.3-0.6c0.1-0.2,0.1-0.4,0.1-0.7C315.9,125.1,315.9,124.9,315.9,124.8z"/>
		<path fill="#E53835" d="M325.3,125.1c0,0.5-0.1,1.1-0.2,1.6s-0.3,1-0.5,1.4s-0.6,0.7-1,1c-0.4,0.3-1,0.4-1.6,0.4
			c-0.6,0-1.1-0.1-1.6-0.4s-0.8-0.6-1-1c-0.3-0.4-0.4-0.9-0.5-1.4c-0.1-0.5-0.2-1-0.2-1.6c0-0.6,0.1-1.2,0.2-1.7
			c0-0.2,0.1-0.4,0.2-0.7s0.2-0.6,0.3-0.8c0.1-0.3,0.3-0.5,0.5-0.7c0.2-0.2,0.4-0.3,0.6-0.3c0.2,0,0.4,0.1,0.5,0.2s0.2,0.2,0.3,0.4
			s0.1,0.3,0.1,0.5s0,0.3,0,0.5c0,0.2,0,0.4-0.1,0.7s-0.1,0.4-0.1,0.6c0,0.3-0.1,0.6-0.1,0.9c0,0.3-0.1,0.6-0.1,0.9
			c0,0.1,0,0.3,0,0.5c0,0.2,0.1,0.4,0.1,0.5s0.1,0.3,0.2,0.4s0.3,0.2,0.5,0.2c0.3,0,0.5-0.1,0.6-0.2s0.3-0.3,0.3-0.5
			c0.1-0.2,0.1-0.4,0.1-0.7s0-0.4,0-0.6c0-0.4,0-0.9-0.1-1.3s-0.1-0.8-0.2-1.3c0,0,0-0.1,0-0.2c0-0.1,0-0.3,0.1-0.4s0.1-0.3,0.2-0.4
			s0.2-0.2,0.3-0.3s0.3-0.1,0.4-0.1c0.2,0,0.4,0.1,0.6,0.2s0.3,0.3,0.4,0.6s0.2,0.5,0.3,0.8c0.1,0.3,0.1,0.6,0.2,0.9
			c0,0.3,0.1,0.6,0.1,0.8C325.3,124.7,325.3,124.9,325.3,125.1z"/>
		<path fill="#E53835" d="M332.3,126.7c0,0.3-0.1,0.7-0.3,1s-0.5,0.6-0.8,0.8s-0.7,0.4-1,0.6s-0.7,0.2-1,0.2c-0.5,0-1-0.1-1.4-0.4
			s-0.7-0.6-1-1s-0.5-0.8-0.6-1.3s-0.2-1-0.2-1.4c0-0.5,0.1-1,0.2-1.6s0.3-1.1,0.6-1.5c0.3-0.5,0.6-0.9,1.1-1.2
			c0.4-0.3,0.9-0.5,1.5-0.5c0.3,0,0.6,0.1,1,0.2s0.6,0.3,0.8,0.5s0.4,0.4,0.5,0.7s0.2,0.6,0.2,1c0,0.5-0.1,0.9-0.3,1.3
			s-0.5,0.7-0.8,1s-0.7,0.5-1.1,0.7s-0.8,0.3-1.3,0.3c0,0.3,0.2,0.5,0.3,0.6c0.2,0.1,0.4,0.2,0.7,0.2c0.2,0,0.4,0,0.6-0.1
			s0.4-0.2,0.5-0.3s0.3-0.2,0.5-0.3s0.3-0.1,0.5-0.1c0.2,0,0.4,0.1,0.5,0.2S332.3,126.5,332.3,126.7z M329.9,123.1
			c0-0.1,0-0.3-0.1-0.4s-0.2-0.2-0.3-0.2c-0.2,0-0.4,0.1-0.5,0.2s-0.3,0.3-0.4,0.4s-0.2,0.4-0.2,0.5c-0.1,0.2-0.1,0.4-0.1,0.5
			c0.1,0,0.3-0.1,0.5-0.1c0.2,0,0.4-0.1,0.5-0.2c0.2-0.1,0.3-0.2,0.4-0.3C329.9,123.4,329.9,123.3,329.9,123.1z"/>
		<path fill="#E53835" d="M337.2,121.2c0,0.3-0.1,0.5-0.3,0.6c-0.2,0.1-0.4,0.3-0.6,0.4s-0.4,0.3-0.6,0.4c-0.2,0.2-0.3,0.4-0.3,0.7
			c0,0.2,0,0.3,0.1,0.5s0.2,0.2,0.3,0.3c0.1,0.1,0.3,0.2,0.4,0.3s0.3,0.2,0.4,0.4s0.2,0.3,0.3,0.5c0.1,0.2,0.1,0.4,0.1,0.7
			c0,0.4-0.1,0.8-0.3,1.2s-0.5,0.7-0.8,1.1c-0.3,0.3-0.7,0.6-1.1,0.7s-0.8,0.3-1.2,0.3c-0.2,0-0.3,0-0.5,0s-0.3-0.1-0.4-0.1
			c-0.1-0.1-0.2-0.2-0.3-0.3s-0.1-0.3-0.1-0.5c0-0.3,0.1-0.5,0.2-0.6s0.2-0.3,0.4-0.4s0.3-0.2,0.5-0.2c0.2,0,0.4-0.1,0.5-0.2
			s0.3-0.2,0.4-0.3s0.2-0.3,0.2-0.5c0-0.2-0.1-0.4-0.2-0.6c-0.2-0.2-0.3-0.5-0.5-0.7s-0.4-0.5-0.5-0.8c-0.2-0.3-0.2-0.6-0.2-0.9
			c0-0.4,0.1-0.8,0.3-1.2c0.2-0.4,0.4-0.7,0.7-0.9s0.6-0.5,1-0.6s0.8-0.2,1.2-0.2c0.2,0,0.3,0,0.5,0c0.2,0,0.3,0.1,0.4,0.2
			s0.2,0.2,0.3,0.3C337.2,120.9,337.2,121,337.2,121.2z"/>
		<path fill="#E53835" d="M341.2,129.8c-0.7,0-1.2-0.1-1.6-0.3c-0.4-0.2-0.7-0.4-0.9-0.8c-0.2-0.3-0.3-0.7-0.3-1.2s-0.1-1-0.1-1.6
			c0-0.5,0-0.9,0-1.4s0.1-1,0.1-1.5c-0.1,0-0.2,0-0.3,0s-0.1,0-0.2,0c-0.3,0-0.6-0.1-0.8-0.2c-0.2-0.1-0.3-0.3-0.3-0.6
			c0-0.2,0.1-0.3,0.2-0.5c0.1-0.1,0.3-0.3,0.5-0.4s0.4-0.2,0.7-0.2s0.5-0.1,0.7-0.1c0-0.3,0-0.6,0.1-0.9s0.1-0.6,0.2-0.9
			c0.1-0.3,0.2-0.5,0.4-0.7s0.4-0.3,0.7-0.3c0.2,0,0.3,0,0.4,0.1s0.2,0.2,0.3,0.4s0.1,0.3,0.2,0.5s0.1,0.3,0.1,0.5
			c0,0.2,0,0.4,0,0.6s-0.1,0.5-0.2,0.8c0.2,0,0.3,0,0.3,0s0.1,0,0.2,0c0.2,0,0.3,0,0.5,0s0.3,0.1,0.5,0.1s0.3,0.2,0.4,0.3
			s0.1,0.2,0.1,0.4c0,0.2-0.1,0.3-0.2,0.5c-0.1,0.1-0.3,0.3-0.5,0.4s-0.4,0.2-0.7,0.2s-0.5,0.1-0.7,0.1c-0.1,0.4-0.1,0.8-0.1,1.1
			s-0.1,0.7-0.1,1c0,0.2,0,0.3-0.1,0.5c0,0.2,0,0.3,0,0.5c0,0.1,0,0.3,0,0.4s0,0.3,0.1,0.5s0.2,0.3,0.3,0.4s0.3,0.2,0.5,0.2
			c0.1,0,0.3,0,0.4,0s0.3,0,0.4,0c0.3,0,0.4,0.1,0.5,0.3c0.1,0.2,0.2,0.4,0.2,0.7c0,0.2-0.1,0.4-0.2,0.5s-0.3,0.3-0.5,0.4
			s-0.4,0.2-0.6,0.2S341.4,129.8,341.2,129.8z"/>
		<path fill="#E53835" d="M349.6,127.2c0,0.2,0,0.4,0,0.7c0,0.3-0.1,0.6-0.1,0.8s-0.2,0.5-0.3,0.7s-0.4,0.3-0.6,0.3
			c-0.4,0-0.6-0.1-0.8-0.4s-0.3-0.5-0.3-0.9c-0.3,0.3-0.7,0.5-1.1,0.6c-0.4,0.2-0.8,0.2-1.2,0.2c-0.3,0-0.6-0.1-0.8-0.2
			s-0.5-0.3-0.7-0.5s-0.4-0.5-0.5-0.7s-0.2-0.5-0.2-0.8c0-0.5,0.1-0.9,0.4-1.2c0.3-0.4,0.6-0.7,1.1-0.9s0.9-0.4,1.3-0.6
			c0.5-0.1,0.9-0.2,1.3-0.3c0,0,0-0.1,0-0.1s0-0.1,0-0.1c0-0.3-0.1-0.5-0.2-0.7s-0.4-0.3-0.7-0.3c-0.2,0-0.5,0-0.6,0.1
			s-0.3,0.2-0.5,0.3s-0.3,0.2-0.5,0.3s-0.3,0.1-0.5,0.1c-0.2,0-0.4-0.1-0.5-0.2c-0.2-0.1-0.2-0.3-0.2-0.5c0-0.3,0.1-0.6,0.3-0.9
			c0.2-0.3,0.4-0.5,0.7-0.7s0.6-0.3,0.9-0.4c0.3-0.1,0.6-0.2,0.9-0.2c0.3,0,0.5,0,0.8,0.1s0.5,0.2,0.7,0.3s0.4,0.3,0.6,0.5
			c0.2,0.2,0.3,0.4,0.5,0.7c0.2,0.4,0.3,0.7,0.4,1.1s0.2,0.8,0.2,1.2s0.1,0.8,0.1,1.3S349.6,126.8,349.6,127.2z M347.3,126.7l0-1
			c0,0,0,0-0.1,0s0,0-0.1,0c-0.1,0-0.3,0-0.5,0.1c-0.2,0.1-0.4,0.2-0.5,0.3s-0.3,0.2-0.4,0.4s-0.2,0.3-0.2,0.4c0,0.1,0,0.2,0.1,0.3
			s0.2,0.1,0.3,0.1c0.2,0,0.4-0.1,0.7-0.2S347.1,126.8,347.3,126.7z"/>
		<path fill="#E53835" d="M354.8,121.2c0,0.3-0.1,0.5-0.3,0.6c-0.2,0.1-0.4,0.3-0.6,0.4s-0.4,0.3-0.6,0.4c-0.2,0.2-0.3,0.4-0.3,0.7
			c0,0.2,0,0.3,0.1,0.5s0.2,0.2,0.3,0.3c0.1,0.1,0.3,0.2,0.4,0.3s0.3,0.2,0.4,0.4s0.2,0.3,0.3,0.5c0.1,0.2,0.1,0.4,0.1,0.7
			c0,0.4-0.1,0.8-0.3,1.2s-0.5,0.7-0.8,1.1c-0.3,0.3-0.7,0.6-1.1,0.7s-0.8,0.3-1.2,0.3c-0.2,0-0.3,0-0.5,0s-0.3-0.1-0.4-0.1
			c-0.1-0.1-0.2-0.2-0.3-0.3s-0.1-0.3-0.1-0.5c0-0.3,0.1-0.5,0.2-0.6s0.2-0.3,0.4-0.4s0.3-0.2,0.5-0.2c0.2,0,0.4-0.1,0.5-0.2
			s0.3-0.2,0.4-0.3s0.2-0.3,0.2-0.5c0-0.2-0.1-0.4-0.2-0.6c-0.2-0.2-0.3-0.5-0.5-0.7s-0.4-0.5-0.5-0.8c-0.2-0.3-0.2-0.6-0.2-0.9
			c0-0.4,0.1-0.8,0.3-1.2c0.2-0.4,0.4-0.7,0.7-0.9s0.6-0.5,1-0.6s0.8-0.2,1.2-0.2c0.2,0,0.3,0,0.5,0c0.2,0,0.3,0.1,0.4,0.2
			s0.2,0.2,0.3,0.3C354.8,120.9,354.8,121,354.8,121.2z"/>
	</g>
	<g>
		<g>
			
				<ellipse transform="matrix(0.3844 -0.9231 0.9231 0.3844 297.823 508.2031)" fill="#D3302F" cx="530" cy="30.8" rx="17.8" ry="17.1"/>
			<g>
				<path fill="#1D1E1C" d="M536.6,14.8c8.4,3.8,12,13,9.1,21.6c-3,8.9-12.9,13.5-21.6,10.6c-9-3-12.6-13.4-9.8-21.9
					c3.1-9.2,13.5-13.7,22.4-10.3c0.6,0.2,0.8-0.7,0.2-0.9c-9.3-3.6-19.2,1.1-23.1,10c-4,9,0.3,19.6,9.1,23.6
					c9.1,4.1,19.4-1.3,23.2-10c4-9-0.3-19.6-9.1-23.6C536.5,13.7,536.1,14.5,536.6,14.8z"/>
			</g>
		</g>
		<g>
			
				<ellipse transform="matrix(0.3844 -0.9231 0.9231 0.3844 297.823 508.2031)" fill="#EA5351" cx="530" cy="30.8" rx="14.9" ry="14.4"/>
			<g>
				<path fill="#1D1E1C" d="M535.5,17.3c7.1,3.2,10,10.9,7.6,18.2c-2.5,7.4-10.8,11.3-18.1,8.9c-7.6-2.5-10.6-11.3-8.2-18.4
					C519.4,18.3,528.2,14.5,535.5,17.3c0.6,0.2,0.7-0.5,0.3-0.7c-7.8-3-16.1,0.9-19.4,8.4c-3.3,7.5,0.2,16.5,7.7,19.8
					c7.7,3.4,16.3-1.1,19.5-8.4c3.3-7.5-0.2-16.5-7.7-19.8C535.5,16.5,535.1,17.1,535.5,17.3z"/>
			</g>
		</g>
		<path opacity="0.15" fill="#1D1E1C" d="M536.3,42.3c-10.4-4.3-16.6-14.6-16.5-25.6c-2.4,1.9-4.4,4.4-5.7,7.4
			c-3.8,9.1,0.2,19.3,9,23c6.3,2.6,13.2,1.1,18.1-3.3C539.6,43.5,538,43,536.3,42.3z"/>
		<g>
			<path fill="#E53935" d="M538.6,34.8c-0.1,0-1.9-1.8-4.2-3.9c2.1-2.2,3.8-4,3.8-4c1.9-1.9,1.7-3.7,0.4-4.9c-1.3-1.2-3.1-1.4-5,0.5
				c0,0-1.7,1.7-3.9,3.9c-2.3-2.2-4.1-3.9-4.1-3.9c-1.9-1.9-3.7-1.7-4.9-0.4c-1.2,1.3-1.4,3.1,0.5,5c0,0,1.7,1.7,4,3.9
				c-1.9,1.9-3.6,3.7-4.4,4.6c-1.8,1.9-0.6,3.2,0.5,4.2c1.7,1.6,3.3,1.4,4.7,0c0-0.1,1.8-1.9,4-4.2c1.9,1.8,3.4,3.6,4.5,4.3
				c1.5,1,3.5,1.4,4.5,0.4C540.6,38.6,540,36.2,538.6,34.8z"/>
			<g>
				<path fill="#1D1E1C" d="M538.9,34.5c-0.5-0.5-1.1-1-1.6-1.5c-0.9-0.9-2.1-2.2-2.1-2.2s0.9-1.1,1.9-2.2c1.3-1.4,2.2-2.3,2.6-4.2
					c0.6-2.9-2.9-4.9-5.4-3.1c-1.4,1-4.4,4.4-4.4,4.4s-1-0.8-1.6-1.4c-1.1-1-2.9-3.1-4.5-3.4c-3.5-0.7-5.1,2.4-3.6,5.4
					c0.5,1,4.5,4.6,4.5,4.6s-0.4,0.5-0.6,0.7c-1.6,1.6-3.1,2.5-4,4.7c-1.7,3.9,3.1,6.5,6.1,3.8c1.4-1.3,4-3.9,4-3.9
					c0.6,0.5,0.9,1,1.4,1.4c0.9,0.9,3,3.5,5.3,3.6C540.6,41.6,541.8,37.3,538.9,34.5c-0.4-0.4-0.9,0.2-0.6,0.6
					c1.9,2,1.3,3.8,0.6,4.6c-1.1,1.3-3.3,1.1-5-0.7c-1.1-1.1-2.6-2.5-3.7-3.6c-0.2-0.2-0.4-0.2-0.6,0c-1.3,1.4-1.9,2-3.2,3.4
					c-1.1,1.4-3.2,2.4-4.9,1c-2-1.5-0.6-4,0.6-5c1.1-1.1,2.2-2.3,3.3-3.4c0.2-0.2,0.2-0.4,0-0.6c-1.3-1.3-2.7-2.6-4-3.9
					c-1.9-2.1-0.8-4-0.4-4.4c1.1-1.1,3.1-0.8,4.4,0.4c0.3,0.3,0.5,0.5,0.8,0.8c1.1,1,2.2,2,3.2,3.1c0.2,0.2,0.4,0.2,0.6,0
					c1.3-1.3,2.6-2.6,3.9-3.9c1.7-1.7,3.1-1.3,3.8-0.8c1.7,1.1,1.5,3.3,0.1,4.7c-0.2,0.3-0.5,0.5-0.7,0.8c-1,1-2,2.1-3,3.1
					c-0.1,0.2-0.2,0.4,0,0.6c1.4,1.3,2.8,2.6,4.2,3.9C538.7,35.5,539.3,34.9,538.9,34.5z"/>
			</g>
		</g>
	</g>
</g>
<g id="crucigrama">
</g>
</svg>
