<?xml version="1.0" encoding="utf-8"?>
<!-- Generator: Adobe Illustrator 18.0.0, SVG Export Plug-In . SVG Version: 6.00 Build 0)  -->
<!DOCTYPE svg PUBLIC "-//W3C//DTD SVG 1.1//EN" "http://www.w3.org/Graphics/SVG/1.1/DTD/svg11.dtd">
<svg version="1.1" xmlns="http://www.w3.org/2000/svg" xmlns:xlink="http://www.w3.org/1999/xlink" x="0px" y="0px"
	 viewBox="0 0 560.8 224.2" enable-background="new 0 0 560.8 224.2" xml:space="preserve">
<g id="fondo">
</g>
<g id="Capa_2">
	<g>
		<path fill="#FAFAFA" d="M546.3,222.3H16.7c-6.6,0-12-5.4-12-12V14.4c0-6.6,5.4-12,12-12h529.7c6.6,0,12,5.4,12,12v195.9
			C558.3,216.9,552.9,222.3,546.3,222.3z"/>
		<g>
			<defs>
				<path id="SVGID_281_" d="M546.3,222.4H16.7c-6.6,0-12-5.4-12-12V14c0-6.6,5.4-12,12-12h529.7c6.6,0,12,5.4,12,12v196.4
					C558.3,217,552.9,222.4,546.3,222.4z"/>
			</defs>
			<clipPath id="SVGID_2_">
				<use xlink:href="#SVGID_281_"  overflow="visible"/>
			</clipPath>
			<g clip-path="url(#SVGID_2_)">
				<g>
					<g>
						<path fill="#DBA283" d="M126.8,257c0.3-1.3,0.5-2.6,0.8-3.8c0-0.1-0.1-0.1,0-0.2c2-8,3.7-15.7,4-24c0.4-10.6-2.6-19.3-6-29
							c0,0,1-6,3.7-11.8c3.4-7.1,8.6-14.2,8.7-14.1c3.7,6.5,7.3,12.3,9.8,19.4c2.4,6.9,4.2,13.6,4.9,20.8c1.3,14.5-2.6,29-6.7,42.7
							c0,0.1-0.1,0.2-0.2,0.2c-0.9,4.8-0.4,12-6.1,13.2c-1.2,1.6-2.7,2.4-4.4,1.4c0,0,0,0,0,0c-0.9,0.6-2,0.9-3,0.8
							c-0.2,0-0.2-0.2-0.2-0.3c-1,1.1-2.3,1.8-3.9,1.1c-0.1,0-0.1-0.1-0.2-0.2c-0.6-0.5-0.6-1.4-0.4-2.3c0.3-1.1,0.7-2,1.2-3
							c0.6-1.3,0.7-2.7,0.8-4.1c-0.1,0.1-0.1,0.2-0.2,0.3c-0.4,0.5-1,1-1.5,1.4c-0.5,0.3-1,0.5-1.5,0.3c-0.2,0-0.5-0.3-0.6-0.3
							c-1.3-0.9-0.6-2.7-0.3-4C125.8,259.8,126.5,258.5,126.8,257z"/>
						<path fill="#D4987F" d="M137.8,174.1c3.7,6.5,7.3,12.3,9.8,19.4c2.4,6.9,4.2,13.6,4.9,20.8c1.3,14.5-2.6,29-6.7,42.7
							c0,0.1-0.1,0.2-0.2,0.2c-0.9,4.8-0.4,12-6.1,13.2c0,0,7.7-27.5,7.9-50C147.5,202.6,137.8,174.1,137.8,174.1z"/>
						<g>
							<path d="M137.9,174c3.7,6.5,7.3,12.3,9.8,19.4c2.4,6.9,4.2,13.6,4.9,20.8c1.3,14.5-2.6,29-6.7,42.7c-0.2,0.5-1,0.2-0.8-0.3
								c4.4-14.4,7.9-29.1,6.5-44.3c-0.6-7.1-3-13.8-5.3-20.5c-2.2-6.3-6.5-11.4-8.7-17.6C137.5,173.9,137.8,173.8,137.9,174
								L137.9,174z"/>
						</g>
						<g>
							<path d="M125.6,199.9c10.4,14,7.8,37.8,2.6,53.2c-0.1,0.4-0.8,0.2-0.7-0.2c2-8,3.7-15.7,4-24
								C131.9,218.4,128.9,209.7,125.6,199.9C125.5,199.9,125.6,199.9,125.6,199.9L125.6,199.9z"/>
						</g>
						<path fill="#DBA283" d="M133.3,109.9c0-0.1,0-0.2,0-0.3c0-0.5,0.1-0.9,0.2-1.3c1.4-6.5,2.3-12.8,2.6-20.2c0.1-1,0.1-2,0.3-2.9
							c-4.9-1.9-12-4.7-15.4-7.9c-4.3-4-8.1-7.1-11.4-12c-2.5-3.7-3.4-5.2-6.6-5.4c-3-1.4-6.7-1-9.2,1.9c-0.5,0.4-1,0.8-1.5,1.2
							c-0.4-0.9-1-1.8-1.7-2.5c-0.5-0.7-1.1-1.4-1.7-1.9c-2.6-2.1-6.3-1.1-8.1,1.4c-4.4,2.5-7.6,7.5-11.8,10.3
							c-3.4,2.3-7.1,4.2-10.7,6.2c-0.8,0.4-1.6,0.8-2.4,1.1C48,79,44.7,76.4,42.4,76.3c-1.3-0.4-2.8,0.3-4.4,0.6c-4.7,1-6,5.7-6,9.9
							c0,4.7,2.4,8.6,7.2,9.5c0.7,0.1,1.5,0,2.3-0.2c-0.1,0.9-0.2,1.9-0.2,2.9c-0.6,3.6,0.2,7.7,1.1,11.5c-0.1,2,0.2,3.7,0.8,5.4
							c0.9,4.7,2.5,9.4,5.3,13.2c3.8,5.2,8,10.5,14.2,12.9c0.6,0.2,1.2,0.4,1.8,0.6c0.5,0.4,1.1,0.8,1.9,1.2
							c6.9,3.6,13.5,5.1,21.3,4.9c1.8,0,3.6-0.2,5.4-0.5c2.4,0.1,4.6,0.3,7-0.6c2.1-0.8,4.2-2.1,6.1-3.4c5.4-1.9,10.2-5,14-9.3
							c0.9-0.9,1.6-1.7,2.3-2.6c1-1.1,2-2.3,2.7-3.6c0,0,0,0,0,0c0,0,2.5-4.2,3-4.8c0.5-0.6,0.8-1.3,0.9-1.9c0-0.1,0.1-0.1,0.1-0.2
							c0.9-1.1,2.6-5.6,3.1-6.8c0.3-0.7,0.8-1.5,0.8-2.2C133.3,111.8,133,110.9,133.3,109.9z"/>
						<path fill="#DBA283" d="M144.2,100.4C144.2,100.4,144.2,100.4,144.2,100.4c0.1-0.5,0-0.9,0-1.2c-0.2-1.8-1-3.5-2.3-4.9
							c-0.2-0.2-0.1-0.5-0.3-0.5c-0.1-0.1-1.2-1.4-1.4-1.3c-0.7-0.5-1.4-0.5-2.3-0.7c0,0-1.2,0.1-2.1,0.1
							c-1.5,6.3-1.9,12.4-2.3,18.8c0.1,0,0.2,0,0.3,0c0.5-0.1,1,0,1.5-0.2c0.9,0,1.8-0.6,2.6-1c0.2,0.2,3.3-2.3,4.2-3.8
							c0.1,0,0.1-0.1,0.2-0.1C143.4,104.1,144.1,102.2,144.2,100.4z"/>
						<path fill="#DBA283" d="M6.6,245.9c0-1.3,0.2-2.6,0.3-3.9c0.1,0,0.1-0.1,0.1-0.2c0.2-8.2,0.7-16.1,2.6-24.2
							c2.4-10.3,7.7-17.8,13.6-26.4c0,0,0.7-6.1-0.4-12.4c-1.3-7.7-4.5-16-4.5-15.9c-5.3,5.3-10.4,9.9-14.7,16.1
							c-4.1,6-7.7,11.9-10.3,18.7c-5.1,13.6-5.3,28.6-5,42.9c0,0.1,0.1,0.2,0.1,0.3c-0.4,4.9-2.8,11.6,2.3,14.4
							c0.7,1.9,1.9,3.1,3.9,2.5c0,0,0,0,0,0c0.7,0.8,1.6,1.4,2.7,1.5c0.2,0,0.3-0.1,0.3-0.3c0.7,1.4,1.8,2.4,3.5,2.1
							c0.1,0,0.2-0.1,0.2-0.2c0.7-0.3,1-1.2,1-2.1c0-1.1-0.2-2.2-0.3-3.2c-0.2-1.4,0-2.8,0.3-4.2c0,0.1,0.1,0.2,0.1,0.3
							c0.2,0.6,0.7,1.2,1.1,1.7c0.4,0.4,0.8,0.7,1.4,0.7c0.2,0,0.6-0.1,0.7-0.2c1.5-0.5,1.4-2.5,1.4-3.7
							C6.8,248.9,6.5,247.4,6.6,245.9z"/>
						<path fill="#D4987F" d="M18.3,163.1C13.1,168.4,8,173,3.6,179.2c-4.1,6-7.7,11.9-10.3,18.7c-5.1,13.6-5.3,28.6-5,42.9
							c0,0.1,0.1,0.2,0.1,0.3c-0.4,4.9-2.8,11.6,2.3,14.4c0,0-0.1-28.6,5.8-50.3C1.3,188,18.3,163.1,18.3,163.1z"/>
						<path fill="#D4987F" d="M138.5,107.6c-0.3-0.2-0.5-0.4-0.7-0.6c0-0.6,0-1.3,0.1-1.9c0.1-0.6,0.2-1.1,0.4-1.7
							c0.2-0.3,0.3-0.6,0.4-0.9c0.7-1,0.8-2.3,0.8-3.5l0,0c0-0.2-0.1-0.3-0.3-0.4c0,0,0,0,0,0c-0.3-0.6-1.4-0.6-1.4,0.2
							c-0.1,1.8-0.7,3.4-1.6,4.8c-0.1-0.1-0.1-0.3-0.2-0.4c-0.2-0.8-0.4-1.5-0.6-2.3c-0.1-0.3-0.5-0.3-0.6,0
							c-0.5,1.2-0.6,2.2-0.5,3.5c0.1,1.7-0.3,3.2-0.3,4.9c0,0.5,0.4,0.9,0.8,1c0.1,0.1,0.3,0.2,0.6,0.1c1-0.2,1.8-0.4,2.6-1
							c0.1-0.1,0.2-0.3,0.2-0.4c0.1,0,0.1,0,0.2,0C138.8,108.8,138.9,108,138.5,107.6z"/>
						<path fill="#D4987F" d="M66.8,143.7c-0.7-0.4-1.3-0.8-1.9-1.2c-0.6-0.1-1.2-0.3-1.8-0.6c-6.2-2.4-10.4-7.7-14.2-12.9
							c-2.8-3.8-4.3-8.4-5.3-13.2c-0.7-1.6-1-3.4-0.8-5.4c-0.9-3.7-1.7-7.8-1.1-11.5c0-1,0-2,0.2-2.9c-0.7,0.2-1.5,0.3-2.3,0.2
							c-4.8-0.9-7.2-4.8-7.2-9.5c0-4.2,1.3-8.9,6-9.9c1.6-0.3,2.9-0.5,4.2-0.2c2.3,0.1,6,1.9,13.8,0.6c0.8-0.3,1.6-0.4,2.3-0.8
							c3.6-2,7.2-3.7,10.7-6c4.2-2.8,7.5-7.9,11.8-10.3c1.8-2.5,5.5-3.5,8.1-1.4c0.7,0.6,1.2,1.2,1.7,1.9c0.7,0.7,1.3,1.6,1.7,2.5
							c0.5-0.4,1-0.8,1.5-1.2c2.4-3,6.1-3.3,9.2-1.9c3.2,0.2,4,1.7,6.6,5.4c0,0-4.4-1.5-8.6-1.1c-3,0.3-5.4,2.5-8.4,2.4
							c-3.1,0-4.3-2.8-7-2.5c-6.8,0.8-9.8,8.4-20.7,13.5c-8.6,4.1-16.5,5.1-18.4,8.5c-2.5,4.5-3.3,20.4,2.1,33.1
							C54.8,133.2,66.8,143.7,66.8,143.7z"/>
						<g>
							<path fill="#D89084" d="M53.3,96.3c-0.3,0-0.6-0.1-0.9-0.1c-2.5-0.6-5.3-0.6-7.4,0.2c-0.8,0.3-1.4,0.8-1.7,1.5
								c-0.7,0.5-0.6,1.5-0.1,2.1c0,0.1,0.1,0.2,0.2,0.4c1.1,1.9,3.6,2.7,5.7,3.2c0.7,0.2,1.6,0.3,2.7,0.4c0.2,0.2,0.5,0.4,0.9,0.5
								c3.1,0.8,8.1,0.9,9-3.1C62.2,98.1,56.2,96.2,53.3,96.3z"/>
							<path fill="#D89084" d="M130.7,111c-0.4-0.7-0.9-1.3-1.5-1.8c0,0,0.1,0,0.1,0c0.2,0.1,0.3-0.4,0.1-0.5
								c-2.8-2-6.3-2.7-9.5-2.5c-0.2,0-0.4,0-0.6,0.1c-1.5,0.2-2.9,0.6-4.1,1.2c-0.8,0.4-1.3,2.1-0.7,3c0.2,0.3,0.5,0.5,0.7,0.8
								c1,2.8,4.1,3.3,6.3,3.7c2.7,0.5,6.5,0.6,8.9-1.9C130.9,112.7,131.1,111.7,130.7,111z"/>
						</g>
						<path fill="#9DB53B" d="M141.9,174.5c-1.2-1.8-13-8.8-17.7-10.5c-4.1-1.5-9.1-2.8-9.1-2.9c0.3-0.4,0.3,0.4-0.1-1.7
							c-0.1,0-0.8-1.5-0.9-1.5c-1.2-2.3-3.1-4.4-4.9-5.3c-2.1-1.1-4.4-2.1-6.8-2c-3.5,0.1-7.2,0.9-10.5-0.5
							c0.1-0.7-24.5-2.3-24.6-1.4c0,0.1,0,0.2-0.1,0.3c-6.6-0.6-18.8-6.9-23.1,1.4c0,0.1,0,0.2,0.1,0.2c0,0.1,0,0.2,0.1,0.3
							c0.4,0.3,0.9,0.6,1.3,0.9c-4.6-0.9-9.6,0.9-14,1.9c-4.7,1-10.5,1.9-14.3,5c-0.2-0.2-0.6,0-0.5,0.3c1.5,5.2,3.5,9.9,4.5,15.4
							c1.1,6.2,2.3,11.8,1.7,18.2c0,0.2,0.2,0.4,0.3,0.4c0,0,0,0,0.1,0c0.7,0.1,1.5-0.3,2.2-0.5c0.3-0.1,0.6-0.1,1-0.2
							c-0.3,2-0.3,4.1,0.3,6.2c-0.9,2.8-1.2,5.7-2.1,8.5c-1.3,3.9-3.4,7.4-4.7,11.2c-3,8.5-5.1,17.1-8.7,25.4
							c-0.1,0.1-0.2,0.2-0.1,0.4c0,0.2,0.1,0.3,0.3,0.3c12.3,13.4,30.2,9,46,14.4c0.2,0.1,0.3,0,0.4-0.2c1,0.1,2.7-1.4,3.2-1.8
							c1.7-1.3,3.1-3,4.6-4.6c0.8-0.1,2.3,3,3.2,4.4c1.1,1.7,2.4,3.4,4,4.6c0.1,0.1,0.2,0.1,0.3,0c2.5,1.5,6.9,0.7,9.6,0.8
							c5.3,0.2,10.7,0.2,16,0.1c7.5-0.2,15.6-1.3,20.9-7.1c0.2-0.2,0.1-0.7,0-0.8c-2.7-6.7-1.2-14.5-1.6-21.7
							c-0.4-7.2,2.2-14.7,0.5-21.7c2.8-1.8,3.5-4.9,5.5-7.4c0.1-0.2,2,1.3,4.1,1.7C129.9,190.3,141.9,175,141.9,174.5z"/>
						<path fill="#8D9E33" d="M115.5,159.6c0,0.3,0,0.6-0.2,0.7c-1.6,1.2-5.5,2.7-7.1,3.6c-2.1,1.2-4,2.5-5.9,4.1
							c-3.2,2.7-5.9,5.8-8.2,9.3c-0.1,0.1-0.2,0.3-0.3,0.4c-0.2,0.3-0.2,0.6,0,0.9c0,0,0,0,0,0c0,0,0,0,0,0c0.1,0.1,0.3,0.3,0.4,0.3
							c1.7,0.9,2.9,2.2,3.8,3.9c-0.7,0.2-1.3,0.5-2,0.8c-9.3,2.6-16.2,9.8-22.4,17c0-0.1,0-0.1,0-0.2c-0.2-2.9-1.4-5.6-3-8.1
							c-2.7-6.4-7.8-11.6-13.3-15.7c0.2-0.3,0.4-0.6,0.6-0.9c0.6-0.6,1.2-1.1,1.9-1.6c0.3-0.2,0.2-0.6-0.1-0.7
							c0.5-0.5,0.4-1.3,0.2-2.2c-0.6-3-2.5-6.2-4-8.9c-2.2-4-6.8-10-11.7-10.5c-0.1,0-0.2,0-0.3,0c-0.2-0.1-0.4-0.1-0.6-0.2
							c-0.6-0.1-0.9,0.5-0.7,0.9c-0.2,0.2-0.2,0.5,0.1,0.7c3.7,1.9,6.2,5.6,8.5,8.9c2.5,3.6,4.7,7.3,6.7,11.2c0,0,0,0.1,0.1,0.1
							c-0.3,0.4-0.5,0.8-0.7,1.1c-0.2,0.3-0.4,0.6-0.6,0.9c-0.4,0.4-0.7,0.8-1,1.3c-0.3,0.5,0.1,1,0.6,0.8c1.3,1.4,2.9,2.4,4.2,3.7
							c1.9,1.8,3.4,3.8,5,5.9c0.4,0.6,0.8,1.1,1.2,1.7c0.4,0.8,1.7,2.7,1.9,2.6c1.8,2.7,3.4,5.7,3.7,8.9c0.1,0.6,0.6,0.7,1,0.5
							c0,0.2,0.3,0.3,0.4,0.2c6.4-6.4,13.2-13.2,22-15.9c0.1,0,0.2,0,0.4,0l2.2-0.6c0.3-0.1,0.4-0.3,0.5-0.5
							c0.2-0.1,0.4-0.1,0.6-0.2c0.4-0.1,0.6-0.6,0.4-1c-0.9-2.2-2.3-3.8-4.2-5c4-5.1,9-9.2,14.7-12.1c1.8-0.9,5.3-2.3,6.2-4.3
							C116.2,161,115.9,160.3,115.5,159.6z"/>
						<g>
							<path fill="#1C1C1B" d="M56.8,79.7c1.1,0.1,2.2-0.5,3.3-0.9c1.4-0.5,2.9-1.2,4.3-1.7c0.6-0.2,0.3-1.1-0.3-1
								c-1.7,0.1-3.1,0.3-4.7,1c-1,0.5-2.3,1.1-2.8,2.2C56.5,79.5,56.6,79.7,56.8,79.7L56.8,79.7z"/>
						</g>
						<path fill="#8D9E33" d="M70.8,224c0.2-4.4-1.7-8.8-0.3-13.1c1.4-4.3,3.3-7.4,2.3-12c-0.1-0.3-0.5-0.3-0.6,0
							c-0.5,2.7-0.5,5.1-1.6,7.7c-0.7,1.6-1.7,3.2-2.1,4.9c-1,4.3,0.8,8.5,0.6,12.8c-0.2,4.2-1.4,8.6-2.5,12.6
							c-1.4,4.8-2,9.7-2.2,14.7c0,0.8,1.3,1,1.3,0.2c0.2-5.2,0.9-10.4,2.5-15.4C69.4,232.5,70.6,228.1,70.8,224z"/>
						<path fill="#8D9E33" d="M118.1,238.4c-0.4-1.5-0.2-1.8-0.2-3.3c0.2,0,0.1-1.2,0.1-1.5c0-1.5-0.2-2.3-0.1-3.7
							c0-0.2,0.1-1.1,0-1.2c0.4-3.9,1.3-8.1,1-12.1c-0.1-1.3-0.3-4.8-0.8-5.5c-0.3-0.4-2.7,1.1-3.6,1.5c-0.6,0.3-0.3,1,0.3,1
							c0.8,0.4,1.7,0.8,2.5,1.2c0,0.1,0.1,0.1,0.2,0.1c0.7,3.3,0.3,6.7-0.1,10.1c-0.4,1.9-0.7,3.8-0.7,5.8c-0.1,0.8-0.1,1.7-0.1,2.5
							c0,0.3,0,0.6,0,0.9c0,0.5,0.1,1,0.1,1.6c0,0.1,0,0.3,0.1,0.4c0.1,0.7,0.2,1.4,0.4,2c0,0,0,0.1,0,0.1c0,0,0,0,0,0
							c0,0,0,0.1,0,0.1C117.4,239,118.2,238.9,118.1,238.4z"/>
						<path fill="#DBA283" d="M95.2,157.6c-0.1-0.1-0.2-0.1-0.2-0.2c0,0,0,0,0,0c0,0-0.1,0-0.1-0.1c-0.1-0.1-0.2-0.1-0.2-0.2
							c-0.6-0.5-1.2-0.9-1.9-1.1c-0.6-0.6-1.2-1.2-1.6-1.8c0.2-1.7,0.2-3.4,0.7-5c0.3-1.1,0.1-2.5-1.6-1.4
							c-1.2,0.7-13.1-0.1-17.2-0.7c-0.1-0.1-0.1-0.1-0.2-0.2c-0.5-0.3-0.9-0.5-1.5-0.6c-0.2-0.1-0.5,0-0.7,0.1
							c-0.2-0.1-0.3-0.1-0.5-0.2c-0.1-0.3-0.3-0.6-0.6-0.8c0,0,0,0-0.1,0c-0.6-0.3-1.4,0.1-1.7,0.7c-0.3,0.3-0.3,0.8-0.1,1.2
							c-0.4,1.4-0.5,3.4-0.9,4.9c-0.7,0.5-1.5,0.9-2.2,1.3c-1.5,0.1-2,0.9-2,2.1c-0.2,0.2-0.3,0.5-0.2,0.8c0,1.6,0.5,3,1.2,4.4
							c0.2,1.4,0.5,2.7,1,4c0.3,1,1,1.9,1.6,2.7c0.9,2.8,2,5.7,3.3,8.4c0,0.1,0,0.1,0,0.2c0.1,0.2,0.2,0.4,0.3,0.5
							c0.1,0.2,0.2,0.5,0.3,0.7c0.7,1.3,1.2,2.6,1.7,3.9c-0.6,2.1,0.6,4.5,1.6,6.3c0,0,0,0,0,0c0,0.3,0.1,0.5,0.1,0.8
							c0,0.2,0.1,0.4,0.2,0.5c-0.1,0.8-0.1,1.6-0.3,2.4c-0.2,0.9,1.2,1.5,1.6,0.7c0.4-0.6,0.6-1.3,0.8-2.1c0.1-0.1,0.3-0.2,0.4-0.3
							c1-1.1,1.4-2.4,2.2-3.7c1-1.7,2.2-3.3,3.3-4.9c0.4-0.5,0.7-1,1.1-1.6c0.8-0.8,1.5-1.7,2.2-2.6c0.3,0,0.5-0.2,0.7-0.5
							c1.4-2.2,2.7-4.3,4-6.6c0.8-1,1.4-2.1,2.1-3.3c0.1-0.1,0.1-0.1,0.2-0.2c1.1-1.6,1.8-3.3,2.5-5.2c0.1-0.3,0.1-0.5,0-0.7
							c0.1-0.4,0.2-0.8,0.1-1.1C95.4,159.1,95.8,158.3,95.2,157.6z"/>
						<path fill="#8D9E33" d="M66.2,149.4C66.1,149.4,66.1,149.4,66.2,149.4c-0.1,0-0.2-0.1-0.3-0.1c-1.6-0.4-3.3-0.8-4.9-1.2
							c-0.1,0-0.2,0-0.3,0c-0.6-0.2-1.2-0.4-1.8-0.7c-0.4-0.2-0.7,0.1-0.8,0.3c-1-0.5-1.9-0.9-2.1-1c-0.5-0.2-0.3,0.5,0.2,0.7
							c1.2,0.5,3.8,1.1,5.9,2.1c2.2,1,1.2,2.2,1.9,2.1c0,0.1,0,0.1,0,0.2c0,0-0.1,0.1-0.1,0.1c-0.1,0.1-0.3,0.2-0.4,0.2
							c-0.1,0-0.1,0-0.2,0.1c-0.5,0.2-0.3,0.9,0.2,0.8c0.4-0.1,0.8-0.2,1.1-0.4c0.4-0.2,0.9-0.4,1.2-0.6c0.4-0.2,0.8-0.5,1-1
							c0.1-0.1,0.1-0.1,0.2-0.2c0.2-0.4,0.2-0.5,0.3-1C67.3,149.5,66.6,149,66.2,149.4z"/>
						<path fill="#8D9E33" d="M97.8,151.5c-0.4,0-0.8-0.2-1.2-0.3c-0.5-0.1-1,0-1.5-0.1c-1-0.1-2-0.2-2.9-0.6
							c-0.3-0.1-0.9,0.1-0.8,0.6c0.3,1.2-0.2,2.3,0.4,3.5c0.6,1.1,1.7,1.5,2.5,2.3c0.1,0.1,0.1,0.2,0.3,0.2c0.3,0.1,0.5-0.1,0.5-0.3
							c0.1-0.1,0.1-0.3,0-0.5c-0.1-0.1-0.2-0.3-0.3-0.4c0-0.4-0.2-0.7-0.3-1.1c-0.1-0.5-0.1-0.9,0-1.2c0.2-0.2,0.4-0.4,0.6-0.5
							c0.3-0.2,0.7-0.3,1.1-0.4c0.3-0.1,0.5-0.2,0.8-0.4c0.2-0.1,0.4-0.1,0.6-0.2C98.1,152,98.2,151.5,97.8,151.5z"/>
						<path fill="#8D9E33" d="M95.1,223.7c-3.5,1.7-6.8,3.8-10.2,5.7c-0.8,0.4-0.3,1.7,0.5,1.3c3.5-1.7,7.1-3.8,10-6.4
							C95.7,224,95.5,223.5,95.1,223.7z"/>
						<path fill="#8D9E33" d="M76.5,213.6c-0.9,0-1.3,0.7-2.1,0.9c-0.7,0.2-1.5-0.2-2.1-0.7c-0.2-0.2-0.5,0.1-0.4,0.3
							c0.2,0.6,0.2,1.2,0.6,1.7c0.4,0.5,1,0.7,1.6,0.8c1.1,0,3-0.8,3-2.1C77.2,214.2,77,213.6,76.5,213.6z"/>
						<path fill="#D4987F" d="M90.4,148.4c-1,0-1.9,0-2.9,0c-6.1-0.1-12.5-0.9-18.3-2.7c-0.6-0.2-1.1,0.2-1.1,0.8
							c0,4.1-2.7,5.3-4.3,7.5c-0.5-0.1-1.1,0.3-1.1,0.9l0,1.3c0,0,0,0.1,0,0.1c-0.1,0.6-0.1,1.2,0,2c0.6,5.2,3.3,10.7,5.3,15.4
							c0.3,0.7,1.2,0.3,1-0.4c-0.5-1.7-1.4-3.7-2.2-5.9c0.2-0.2,0.4-0.4,0.4-0.8c-0.1-2.2-0.1-5.1,0.7-7.3c1-2.6,1.6-2.5,4.1-2.5
							c1.6,0,2.5,0.4,4.1-0.4c1.1-0.5,1.8-1.5,2.7-2.3c2.8-2.6,5.2-3.6,8.4-3.9c1.1,0,2.2,0,3.3-0.1
							C91.9,150.2,91.6,148.4,90.4,148.4z"/>
						<path fill="#6C3506" d="M76.7,212.7c0.1-0.9-0.4-1.6-1.3-1.8c-0.1,0-0.2,0-0.3,0c-0.2,0-0.4,0-0.5,0c-0.2,0-0.4,0.1-0.6,0.2
							c-0.8,0.2-1.4,0.6-1.7,1.5c-0.1,0.2-0.1,0.5,0,0.7c0,0,0,0.1,0,0.1c0,0,0,0.1,0,0.1c-0.2,0.6,0.2,1.3,0.8,1.5
							c0.4,0.2,0.9,0.1,1.3,0c0.3,0,0.5,0,0.8-0.1c0.6-0.3,1.1-0.9,1.4-1.5c0.1-0.2,0.1-0.3,0.1-0.5
							C76.7,212.9,76.7,212.8,76.7,212.7z"/>
						<path fill="#8D9E33" d="M56.3,229.4c-3.9,1.8-8.1,2.8-12.4,2.6c-2.3-0.1-5-0.2-6.3-2.5c-0.1-0.2-0.2-0.5-0.3-0.8
							c1-4.1,2.2-8.6,2.8-13.5c0.4-1.7,1-3.4,2.4-4.3c0,0,0.1-0.1,0.1-0.1c0,0,0.1-0.1,0.1-0.1c0.3-0.3,0.6-0.6,0.9-0.9
							c0.1-0.1,0.2-0.2,0.3-0.3c-0.1-0.3-0.3-0.5-0.6-0.5c-0.3,0-0.7-0.1-1-0.1c0.7-2.3,1.1-4.7,1-7.2c-0.1-6-3-12.1-1.9-18.1
							c0.9-4.9,4.6-8.4,1.1-13.2c-0.3-0.4-0.6-0.9-0.9-1.3c0.4-4.6,3.9-9,6.4-12.7c0.5-0.8-0.5-2.2-1.3-1.4
							c-0.2,0.2-0.4,0.4-0.6,0.6c0,0,0.1-0.1,0.1-0.1c0.5-0.7-0.2-1.7-1-1.4c-0.1,0-0.1,0.1-0.2,0.1c0-0.2,0-0.4-0.1-0.6
							c0-0.4-0.2-0.8-0.7-1c-3.5-0.8-6.8-0.4-10.1,1.2c-0.7,0.1-1.5,0.2-2.2,0.3c-1.7,0.5-3.5,1-5.2,1.5c-1.1,0.3-2.2,0.5-3.4,0.8
							c-0.2,0.3-0.4,0.5-0.8,0.7c-1,0.4-2,0.6-3,0.9c0,0,0,0,0,0c-0.4,0.3-0.8,0.4-1.1,0.3c-0.3,0.1-0.6,0.2-0.9,0.3
							c-0.2,0.4-0.4,0.8-0.4,1.3c-0.1,1.3,0.7,2.5,1.3,3.6c0.2,0.6,0.4,1.1,0.6,1.6c1.2,5.1,2.6,10.1,4.4,15c0,0.6,0.1,1.2,0.2,1.7
							c0,0,0,0.1,0,0.1c0.1,1,0.2,2,0.3,3c0,0-0.1,0-0.1,0.1c-0.3,0.1-0.5,0.6-0.2,0.8c0.1,0.2,0.3,0.4,0.4,0.6
							c0.1,1.9-0.1,3.7-0.5,5.6c-0.1,0.4,0.3,0.6,0.6,0.6c0.4,0,0.8-0.1,1.1-0.2c0,0,0,0,0,0c0.6,0.1,1.2,0,1.6-0.4
							c-0.1,0.3-0.1,0.5-0.1,0.5c-0.3,2-0.3,4.1,0.3,6.2c-0.9,2.8-1.2,5.7-2.1,8.5c-1.3,3.9-3.4,7.4-4.7,11.2
							c-3,8.5-5.1,17.1-8.7,25.4c-0.1,0.1-0.2,0.2-0.1,0.4c0,0.2,0.1,0.3,0.3,0.3c1.7,1.8,3.8,3.2,6.1,4.4c2.3,1.9,5.6,2.9,8.1,4
							c1,0.4,2.7,0.5,3.7-0.2c2-0.7,4.7-4,6.7-17.1c2.1,0.1,4.7-0.6,6.3-1c0.9-0.3,1.8-0.5,2.7-0.7c0.5-0.2,1-0.4,1.5-0.5
							c1-0.2,2-0.4,3-0.6c0.3-0.1,0.5-0.2,0.8-0.4c0.4-0.2,0.8-0.3,1.2-0.4c0.7-0.5,1.4-0.9,2.3-1.3c0.9-0.3,2.6-0.8,3-1
							c0.1-0.1,0.3-0.1,0.4-0.2C56.9,229.4,56.6,229.3,56.3,229.4z"/>
						<g>
							<path fill="#1C1C1B" d="M122.6,87.4c-0.1-1.2-1.1-2.3-2-3c-1.3-1.2-2.5-1.9-4.1-2.5c-0.6-0.2-1,0.5-0.6,0.9
								c1.2,1,2.3,2.1,3.5,3.1c0.8,0.7,1.7,1.6,2.8,1.9C122.4,87.8,122.6,87.6,122.6,87.4L122.6,87.4z"/>
						</g>
						<g>
							<path fill="#1C1C1B" d="M134,100.7c-0.5,5.9-0.7,11.3-3.2,17.3c-3.5,8.3-10,17.5-17.8,22.3c-12.9,7.8-28.7,9.6-43,4.4
								c-10.8-3.9-20.4-11.6-24.7-22.5c-3.7-9.6-4.3-21.5-3.2-31.7c0.1-0.5-0.7-0.6-0.8-0.1c-1.8,10.8-0.4,23.3,3.5,33.5
								c4.1,10.6,13.6,17.6,23.8,21.8c17.9,7.4,41.6,3.3,54-12.2c4.1-5.1,7.5-10.6,9.8-16.7c1.9-5.1,2.4-10.6,2.7-16
								C134.7,100.5,134.4,100.5,134,100.7z"/>
						</g>
						<g>
							<path fill="#1C1C1B" d="M42.6,76.6c-3.3-2.7-7.1,0.1-9.2,3c-2.8,3.9-2.9,9.3-0.1,13.1c0.3,0.4,0.9,0,0.7-0.4
								c-1.7-3.7-2.4-7.1-0.6-10.8c1.7-3.5,4.9-5.8,8.8-4.4C42.6,77.2,42.8,76.8,42.6,76.6L42.6,76.6z"/>
						</g>
						<g>
							<path fill="#1C1C1B" d="M38.1,82.7c-1.3-0.3-2,1.2-2.2,2.2c-0.2,1,0.3,3,1.6,3.1c0.2,0,0.3-0.1,0.3-0.3
								c-0.3-0.8-0.9-1.4-0.9-2.3c-0.1-1.1,0.6-1.6,1.4-2.1C38.5,83.1,38.3,82.7,38.1,82.7L38.1,82.7z"/>
						</g>
						<g>
							<path fill="#1C1C1B" d="M139.2,98.6c0.7,1.2-0.5,2.7-1,3.8c-0.2,0.4,0.3,0.7,0.6,0.5c0.9-0.6,2.6-4.6,0.6-4.7
								C139.3,98.1,139.1,98.3,139.2,98.6L139.2,98.6z"/>
						</g>
						<g>
							<path fill="#1C1C1B" d="M34.7,93.8c0.4,2.1,4.1,3.3,5.9,2.9c0.3-0.1,0.4-0.6,0-0.6c-2.2-0.2-4.2-0.6-5.5-2.4
								C34.9,93.4,34.6,93.5,34.7,93.8L34.7,93.8z"/>
						</g>
						<g>
							<path fill="#D6A31A" d="M138.2,104.9c-0.1,0-0.5-0.1-0.6,0.6c-0.1,0.7,0.3,0.6,0.4,0.6c1.3,0.2,2.4,0.5,3.3,1.6
								c0.7,1,0.7,2.7-0.1,3.6c-0.6,0.7-1.8,0.8-2.6,0.6c-1.5-0.4-1.5-2.2-1.5-2.2c-0.1,0-0.2-0.1-0.3,0c0,0,0,0,0,0l-1.1,0.2
								c0,0,0,0,0,0l-0.5,0.1l0.2,1.1l0,0c0.6,3.3,5.1,4.3,7.5,1.9C146.1,109.8,142.8,103.4,138.2,104.9z"/>
							<g>
								<path fill="#1C1C1B" d="M137.8,106.3c1.3,0.2,2.4,0.4,3.3,1.6c0.7,1,0.7,2.6-0.1,3.5c-0.6,0.7-1.6,0.7-2.4,0.5
									c-1-0.4-1.1-1.2-1.5-2c-0.1-0.1-0.3-0.2-0.4-0.1c-0.7,1,0.3,2.2,1.2,2.7c1.1,0.6,2.6,0.4,3.5-0.4c2.6-2.3-0.4-7.2-3.6-5.9
									C137.7,106.1,137.7,106.2,137.8,106.3L137.8,106.3z"/>
							</g>
							<path fill="#1C1C1B" d="M138,104.8C138,104.8,138,104.8,138,104.8c-0.6,0.1-1,1.5-0.1,1.4c0.1,0,0.1-0.1,0.1-0.1
								c-0.1-0.2-0.2-0.4-0.1-0.7c0.1-0.2,0.2-0.3,0.4-0.4c2,0.3,3.7,1,4.8,2.9c0.9,1.6,0.4,3.6-0.9,4.8c-1,0.9-2.5,1.2-3.8,0.8
								c-1.6-0.5-2-1.9-2.5-3.3c-0.1-0.3-0.6-0.3-0.6,0.1c-0.2,4.1,5.2,5.6,7.8,2.9C146.2,109.8,142.7,103.2,138,104.8z"/>
						</g>
						<g>
							<path fill="#1C1C1B" d="M140.3,107.2c-0.7,1.1-2,1.7-3.1,2.2c-0.6,0.3-1.2,0.5-1.8,0.6c-0.7,0.1-1.5,0-2.2,0.1
								c-0.2,0-0.2,0.3-0.1,0.4c1.3,0.8,3.1,0.1,4.4-0.4c1.3-0.6,2.9-1.1,3.8-2.4C141.3,107.4,140.4,107,140.3,107.2L140.3,107.2z"
								/>
						</g>
						<path fill="#1C1C1B" d="M144.4,96.4c-1.2-3.2-4.9-6-8.4-4.9c0-0.6,0.4-2.2,0.4-2.9c-0.3-0.1-0.5-0.1-0.8-0.2
							c-0.2,0.7-0.6,2.4-0.7,3.1c-0.1,0.6,0.7,0.7,0.9,0.3c3.4,0.4,5.9,1.5,7.3,4.9c0.6,1.5,0.7,3.2,0.5,4.8
							c-0.2,1.8-1.4,2.8-2.1,4.3c-0.2,0.4,0.2,0.8,0.6,0.6C145.8,104.8,145.5,99.4,144.4,96.4z"/>
						<g>
							<path fill="#1C1C1B" d="M87.8,101c3,0.6,4.8,4,3.6,6.7c-1,2.3-3.8,2-5.8,2.7c-0.3,0.1-0.2,0.5,0.1,0.5c2.8,0.8,6-1.3,6.8-3.9
								c0.8-2.8-1.8-6.1-4.6-6.4C87.6,100.6,87.5,101,87.8,101L87.8,101z"/>
						</g>
						<g>
							<path fill="#1C1C1B" d="M80.4,74.4c8-2.4,14.8,3,22.6,3.5c0.1,0,0.2-0.2,0-0.2c-7.1-1.4-15.5-6.6-22.7-3.4
								C80.3,74.3,80.3,74.4,80.4,74.4L80.4,74.4z"/>
						</g>
						<g>
							<path d="M92,148.1c-0.9,0.2-0.9,1.9-1,2.5c-0.2,1.2-0.5,2.9,0.1,4c0.1,0.1,0.3,0.2,0.4,0c0.4-1.1,0.1-2.4,0.2-3.6
								c0-0.6,0.2-1.3,0.3-1.9c0.1-0.3,0.3-0.6,0.1-1C92.2,148.1,92.1,148.1,92,148.1L92,148.1z"/>
						</g>
						<g>
							<path d="M91.2,153.9c-0.1,0.6,0.4,1,0.7,1.4c0.5,0.6,1.1,1.1,1.7,1.4c0.1,0.1,0.3,0,0.4,0c0.7-0.4-0.5-1.1-0.8-1.3
								c-0.4-0.3-0.7-0.6-1.1-0.9C92,154.2,91.7,153.9,91.2,153.9C91.3,153.8,91.2,153.8,91.2,153.9L91.2,153.9z"/>
						</g>
						<g>
							<path d="M68,144.3c-0.4,1.1-0.5,2.3-0.6,3.4c-0.2,1.3-0.8,2.8-0.7,4.1c0,0.3,0.2,0.3,0.4,0.1c0.7-0.9,0.8-2.4,0.9-3.6
								c0.2-1.3,0.5-2.8,0.3-4C68.3,144.1,68.1,144.1,68,144.3L68,144.3z"/>
						</g>
						<g>
							<path d="M66.9,151.1c-0.5,0.6-1.2,0.9-1.9,1.2c-0.7,0.3-1.6,0.5-2.1,1.1c-0.1,0.2,0,0.4,0.2,0.4c0.8,0.1,5.1-1.7,4-2.8
								C67,151,66.9,151,66.9,151.1L66.9,151.1z"/>
						</g>
						<g>
							<path d="M93.4,154.6c4.9,5.4-4.8,17.3-8,21.4c-5,6.5-10.8,12.8-12.1,21.1c-0.1,0.4,0.5,0.6,0.6,0.2
								c3.6-11.6,12.5-19.4,18.4-29.7c1.5-2.6,6.6-11.8,1.1-13.2C93.4,154.4,93.3,154.5,93.4,154.6L93.4,154.6z"/>
						</g>
						<g>
							<path d="M64.9,150.8c-5.5,0.2-2.1,9.2-1.1,11.9c4.1,11.2,9.6,22,9.5,34.1c0,0.4,0.6,0.4,0.7,0c1.3-8.2-2.1-16-5.1-23.5
								c-1.9-4.6-9.3-18.7-4-22.4C65.1,151,65,150.8,64.9,150.8L64.9,150.8z"/>
						</g>
						<g>
							<path d="M73.2,201.8c0.4-1.2,0.5-2.5,0.7-3.7c0.2-1.5,0.8-2.9,0.9-4.3c0-0.2-0.2-0.3-0.3-0.1c-0.7,1.1-1,2.4-1.2,3.7
								c-0.3,1.4-0.5,3-0.3,4.4C73,201.9,73.2,202,73.2,201.8L73.2,201.8z"/>
						</g>
						<g>
							<path d="M73.2,201.6c6.1-7.8,14.7-15.6,24.5-18.1c0.4-0.1,0.4-0.8-0.1-0.7c-9.4,2.3-20,10.1-24.7,18.7
								C72.9,201.6,73.1,201.7,73.2,201.6L73.2,201.6z"/>
						</g>
						<g>
							<path d="M93,178.8c0.2,0.3,0.6,0.3,0.9,0.4c0.6,0.3,1.1,0.7,1.6,1.1c0.5,0.5,1,1,1.4,1.5c0.3,0.4,0.5,1,0.9,1.3
								c0.2,0.1,0.5,0.1,0.5-0.2c0.2-1.3-4.3-5.7-5.3-4.4C92.9,178.7,92.9,178.8,93,178.8L93,178.8z"/>
						</g>
						<g>
							<path d="M92.9,179.3c6.2-8,12.5-14.5,22.3-18c0.5-0.2,0.2-1-0.3-0.8c-9.2,3.3-17.9,9.7-22.3,18.6
								C92.5,179.3,92.7,179.5,92.9,179.3L92.9,179.3z"/>
						</g>
						<g>
							<path d="M91.2,150.1c2.3,2.1,5.7,1.6,8.6,1.5c6-0.3,12.6,2.9,14.7,8.9c0.2,0.6,1,0.3,1-0.3c0-2.9-4.1-6.4-6.4-7.7
								c-2.1-1.1-4.4-2.1-6.8-2c-3.7,0.1-7.6,1-11-0.7C91.2,149.8,91.1,150,91.2,150.1L91.2,150.1z"/>
						</g>
						<g>
							<path d="M72,155.9c0.9,0.3,1.9,0.4,2.9,0.6c1.1,0.2,2.2,0.6,3.3,0.7c0.1,0,0.2-0.1,0.1-0.2c-1.8-0.9-4.3-1.3-6.2-1.3
								C71.9,155.7,71.9,155.8,72,155.9L72,155.9z"/>
						</g>
						<g>
							<path d="M77.6,157c0.2,0.4,0.7,0.8,1.1,0.9c0.1,0,0.2-0.1,0.1-0.2C78.5,157.4,78,157.1,77.6,157C77.6,157,77.6,157,77.6,157
								L77.6,157z"/>
						</g>
						<g>
							<path d="M79.4,157.9c0.4,0,0.7-0.2,0.9-0.4c0.1-0.1,0-0.2-0.1-0.2c-0.3,0.1-0.6,0.2-0.9,0.4C79.2,157.8,79.3,158,79.4,157.9
								L79.4,157.9z"/>
						</g>
						<g>
							<path d="M80.5,157.4c1.8-0.5,3.5,0.4,5.2,0.4c0.1,0,0.2-0.2,0.1-0.2c-1.6-0.5-3.7-0.9-5.4-0.4
								C80.4,157.3,80.5,157.5,80.5,157.4L80.5,157.4z"/>
						</g>
						<g>
							<path d="M44.2,151c4,2.8,7.6,5.7,10.4,9.8c2.8,4.1,4,8.9,6,13.3c0.1,0.3,0.6,0.2,0.5-0.1c-2-9.6-7.6-19.1-16.6-23.5
								C44.2,150.3,43.9,150.8,44.2,151L44.2,151z"/>
						</g>
						<g>
							<path d="M60.3,172.9c-0.9,0.2-1.6,0.9-2.3,1.5c-0.6,0.6-1.3,1.3-1.6,2.1c-0.1,0.2,0.1,0.4,0.3,0.3c0.6-0.4,1.1-1.1,1.6-1.6
								c0.7-0.7,1.5-1.2,2.1-1.8C60.8,173.2,60.6,172.9,60.3,172.9L60.3,172.9z"/>
						</g>
						<g>
							<path d="M56.6,176.9c9.1,5,14.3,14.4,16.1,24.3c0,0.2,0.3,0.2,0.4,0c0.8-4.6-2-9.7-4.3-13.4c-2.7-4.5-6.9-9.4-11.9-11.3
								C56.5,176.3,56.3,176.7,56.6,176.9L56.6,176.9z"/>
						</g>
						<g>
							<path d="M44.3,150.6c5.9-8,15.4-0.3,23-1.1c0.3,0,0.3-0.5,0-0.5c-6.6-0.5-19-7-23.3,1.4C44,150.6,44.2,150.8,44.3,150.6
								L44.3,150.6z"/>
						</g>
						<g>
							<path d="M74.1,195.4c0.6-5.6,3-11.3,2.6-17c0-0.2-0.3-0.2-0.4,0c-0.9,3.5-1.1,7.4-1.7,11c-0.3,1.8-1.1,4.1-0.6,6
								C74,195.5,74.1,195.5,74.1,195.4L74.1,195.4z"/>
						</g>
						<g>
							<path d="M76.6,178.9c0.1-0.4,0-0.9-0.1-1.3c-0.1-0.3-0.1-0.9-0.5-1c-0.1,0-0.2,0-0.2,0.1c-0.2,0.3-0.1,0.5,0,0.8
								c0.2,0.5,0.3,1,0.4,1.5C76.3,179.1,76.6,179.1,76.6,178.9L76.6,178.9z"/>
						</g>
						<g>
							<path d="M76.5,178.9c0.5-0.1,0.7-0.7,1.1-1c0.2-0.2,0.9-0.2,0.8-0.6c-0.1-0.1-0.2-0.2-0.3-0.2c-0.8,0.1-1.6,1-1.7,1.7
								C76.3,178.9,76.4,178.9,76.5,178.9L76.5,178.9z"/>
						</g>
						<g>
							<path d="M46.6,152.2c-4.8-1.4-10.3,0.6-15,1.6c-4.7,1-10.6,1.9-14.4,5.1c-0.3,0.2,0,0.8,0.3,0.6c8.3-4.1,19.7-7,29-6.8
								C46.8,152.7,46.9,152.3,46.6,152.2L46.6,152.2z"/>
						</g>
						<g>
							<path d="M16.7,159.2c1.5,5.2,3.5,9.9,4.5,15.4c1.1,6.2,2.3,11.8,1.7,18.2c0,0.5,0.6,0.6,0.7,0.1c1.7-11.5-2.5-23.3-6.3-33.9
								C17.2,158.5,16.6,158.7,16.7,159.2L16.7,159.2z"/>
						</g>
						<g>
							<path d="M23.4,193.2c0.7,0.1,1.5-0.3,2.2-0.5c0.4-0.1,0.9-0.2,1.4-0.3c0.4,0,0.7,0.1,1-0.2c0.1-0.1,0.1-0.2,0-0.3
								c-0.4-0.6-1.6-0.2-2.2,0c-0.8,0.2-1.9,0.4-2.5,1C23.2,193,23.2,193.2,23.4,193.2L23.4,193.2z"/>
						</g>
						<g>
							<g>
								<path d="M114.7,160.8c5-0.3,9.8,2.9,14.2,5c4.4,2.1,9.9,4.3,12.9,8.3c0.2,0.3-0.1,0.7-0.4,0.5c-7.1-5.9-17.6-11.3-26.7-13.3
									C114.4,161.3,114.4,160.9,114.7,160.8L114.7,160.8z"/>
							</g>
							<g>
								<path d="M142.2,174.5c-2.7,4.7-5.7,8.9-7.9,13.9c-2.5,5.8-4.9,11-5.8,17.3c-0.1,0.5-0.8,0.4-0.7-0.1
									c1-11.6,7.8-22.1,13.9-31.6C141.9,173.7,142.4,174.1,142.2,174.5L142.2,174.5z"/>
							</g>
							<g>
								<path d="M128,206.1c-0.7-0.1-1.4-0.7-2-1c-0.4-0.2-0.8-0.4-1.3-0.6c-0.4-0.1-0.7-0.1-0.9-0.4c-0.1-0.1-0.1-0.2,0-0.3
									c0.5-0.5,1.6,0.2,2.1,0.4c0.8,0.4,1.7,0.8,2.2,1.6C128.2,205.9,128.1,206.1,128,206.1L128,206.1z"/>
							</g>
						</g>
						<g>
							<path d="M38.8,172.9c-3.8,1-6.6,5.7-8.3,8.9c-3,5.5-5.6,11.9-3.4,18.1c0.1,0.3,0.5,0.1,0.5-0.1c-1-9.5,3.1-20.9,11.3-26.6
								C39,173.1,39,172.9,38.8,172.9L38.8,172.9z"/>
						</g>
						<g>
							<path d="M34,177.2c0.6-0.9,1.1-1.9,1.6-2.8c0.5-0.7,1.1-1.4,1.4-2.2c0.1-0.2-0.1-0.3-0.3-0.2c-1.6,1.1-2.4,3.4-3,5.1
								C33.8,177.2,34,177.3,34,177.2L34,177.2z"/>
						</g>
						<g>
							<path d="M31.1,202.4c0.9,1,2,1.7,3.1,2.3c0.1,0.1,0.3-0.1,0.1-0.2c-1-0.8-2.1-1.4-3.1-2.2C31.2,202.1,31,202.3,31.1,202.4
								L31.1,202.4z"/>
						</g>
						<g>
							<path d="M27,198.1c-1.1,3-1.3,6-2.3,9c-1.3,3.9-3.4,7.4-4.7,11.2c-3,8.6-5.2,17.2-8.8,25.6c-0.2,0.4,0.5,0.7,0.7,0.3
								c3.7-8.5,6-16.8,8.8-25.6c1.2-3.9,3.2-7.5,4.7-11.3c1.1-2.9,1.3-6.1,2-9.2C27.3,198,27,197.9,27,198.1L27,198.1z"/>
						</g>
						<g>
							<path d="M72.7,200.6c-0.2,1.8-0.4,3.5-0.6,5.3c-0.3,2.5-2.1,4.3-2.6,6.7c-0.9,4.2,1,8.3,0.7,12.7c-0.6,9.1-5.4,17.7-5.1,26.8
								c0,0.6,0.9,0.5,0.9-0.1c-0.3-9.6,4.5-19,5.2-28.6c0.3-5.2-1.9-8.2,0.6-13.7c1.3-2.9,1.5-5.8,1.3-8.9
								C73.1,200.4,72.7,200.4,72.7,200.6L72.7,200.6z"/>
						</g>
						<g>
							<path d="M76.2,211.4c-0.6-2.4-5.9,0.4-4.1,3.2c0.9,1.4,2.9,1.4,4,0.2c0.9-0.9,1.6-3.3-0.2-3.9c-0.2-0.1-0.4,0.1-0.3,0.3
								c0.3,0.4,0.6,0.8,0.7,1.3c0.1,0.6-0.2,1.1-0.6,1.5c-0.8,1.1-2.3,1.1-3.1,0.1c-1.3-1.6,2-4.2,3.4-2.7
								C76.1,211.5,76.2,211.5,76.2,211.4L76.2,211.4z"/>
						</g>
						<g>
							<path d="M85.6,230.7c3.4-2,6.8-4,9.9-6.5c0.2-0.1,0-0.4-0.2-0.3C92.1,226.3,88.8,228.4,85.6,230.7
								C85.5,230.7,85.6,230.7,85.6,230.7L85.6,230.7z"/>
						</g>
						<g>
							<path d="M120.3,182.4c4.7,9.3,6.7,22.8-3.4,29c-0.3,0.2,0,0.8,0.3,0.6c10.9-5.2,8.6-21.2,3.4-29.7
								C120.4,182.1,120.2,182.2,120.3,182.4L120.3,182.4z"/>
						</g>
						<g>
							<path d="M122.5,186.5c0.7-1.2,0.5-3.2,0-4.4c-0.1-0.2-0.4-0.1-0.4,0.1c0.1,0.7,0.2,1.4,0.2,2.1c0,0.7-0.1,1.4-0.1,2.2
								C122.3,186.6,122.4,186.6,122.5,186.5L122.5,186.5z"/>
						</g>
						<g>
							<path d="M118.1,211.1c1.6,7.6-0.9,16-0.5,23.8c0.3,6.6-1.4,13.7,1.5,19.9c0.2,0.3,0.6,0.1,0.5-0.2
								c-2.7-6.7-1.2-14.5-1.6-21.7c-0.4-7.2,2.2-14.8,0.4-21.8C118.5,210.8,118.1,210.8,118.1,211.1L118.1,211.1z"/>
						</g>
						<g>
							<path d="M18.2,163c-5.3,5.3-10.4,9.9-14.7,16.1c-4.1,6-7.7,11.9-10.3,18.7c-5.1,13.6-5.3,28.6-5,42.9c0,0.6,0.9,0.5,0.9-0.1
								c-0.4-15.1,0.2-30.2,5.6-44.4c2.5-6.7,6.6-12.5,10.6-18.3c3.8-5.5,9.4-9.3,13.1-14.6C18.6,163,18.3,162.8,18.2,163L18.2,163z
								"/>
						</g>
						<g>
							<path d="M23.1,191.2C9.3,201.9,5.5,225.5,6.3,241.8c0,0.4,0.7,0.4,0.7,0c0.2-8.2,0.7-16.1,2.6-24.2
								C12,207.4,17.3,199.8,23.1,191.2C23.2,191.3,23.1,191.2,23.1,191.2L23.1,191.2z"/>
						</g>
						<g>
							<path opacity="0.7" fill="#FFFFFF" d="M74.3,100.3c1.7-1.4,4-11.7,4-13.1c0-0.3-4.2-2.7-4.4-2.7c-4.2-2-11.9-3.1-16.5-3.7
								c-2.8-0.3-7.1,0.6-7.1,0.6c-0.1,0-1.9,11.1-2.4,15.7c0,0.1,0.2,0.2,0.2,0.1c3.7,3.2,8,5,12.4,5.8c3.5,0.7,7.1,0.3,10.7,0
								C71.5,103,74.4,100.5,74.3,100.3z"/>
							<path opacity="0.7" fill="#FFFFFF" d="M128.1,92.9c0-0.1,0-0.1-0.1-0.2c0,0,0.1-0.1,0-0.1c0,0,0,0-0.1,0c0,0,0,0,0,0
								c-2.4-1.9-7-1.7-9.9-2.2c-4.7-0.9-9.5-2-14.3-1.3c-0.5,0.1-3.3,1.4-2.9,1.5c-1.4,4.6,0.5,11.7-1,16.3
								c-0.1,0.3,8.1,3.9,11.8,4.1c4.6,0.3,12.9,1,14.5-3.6C126.2,107.4,127.6,97.6,128.1,92.9z"/>
							<g>
								<path fill="#1C1C1B" d="M63.1,87.4c-1.3,0-2.3,0-3.3,1c-1.6,1.5-1.8,4.1,0.4,5.3c1.7,0.9,4.7,0.7,5.7-1.1
									c0.9-1.8-0.6-4.4-2.3-5.1c-0.7-0.3-1.6-0.2-2.4,0"/>
								<path fill="#FFFFFF" d="M63.9,88.1c-0.8,0.1-2.4,0.9-1.2,2c2,1.9,3.4-1.2,1.3-2"/>
							</g>
							<g>
								<path fill="#1C1C1B" d="M114.8,95.3c-1.3,0-2.3,0-3.3,1c-1.6,1.5-1.8,4.1,0.4,5.3c1.7,0.9,4.7,0.7,5.7-1.1
									c0.9-1.8-0.6-4.4-2.3-5.1c-0.7-0.3-1.6-0.2-2.4,0"/>
								<path fill="#FFFFFF" d="M115.7,96.5c-0.8,0.1-2.6,1-1.3,2.2c2.2,2.1,3.8-1.4,1.4-2.3"/>
							</g>
							<path fill="#57B7D9" d="M130.2,97.6c0,0,5.2-6.7,6.8-7.1c0,0-4.3-0.5-5.9,1.5L130.2,97.6z"/>
							<path fill="#1C1C1B" d="M130.6,98.2c0,0,3.4-5.9,6.5-6.8c3.1-0.8-0.6-1.1-0.6-1.1s-4.9,3.3-5.8,6.4
								C129.9,99.9,130.6,98.2,130.6,98.2z"/>
							<path fill="#1C1C1B" d="M130.6,91.9c1.2-1.1,2.3-1.8,2.3-1.8s3.6,0.3,0.6,1.1c-1,0.3-1.9,1-2.9,2
								C130.7,92.7,130.6,92.3,130.6,91.9z"/>
							<path fill="#57B7D9" d="M47.2,85c0,0-3-8-4.3-8.8c0,0,4.2,0.8,5.2,3.2L47.2,85z"/>
							<path fill="#57B7D9" d="M79.2,85.8c-1.8-4.3-25.9-8.1-30.7-6.7c0,0-4.5,16.7-1,20.5c3.5,3.8,12.9,5.1,16.9,5.5
								c4,0.3,7.7,0.2,9.5-0.9C75.9,103,81,90,79.2,85.8z M75.6,91.2c-0.8,2.9-1.6,5.6-2.6,8.5c-0.3,0.8-0.8,1.6-1.5,2
								c-0.5,0.3-1.1,0.4-1.6,0.5c-0.6,0.1-1.3,0.2-1.9,0.2c-0.7,0-1.4,0.1-2.1,0.1c-0.7,0-2,0-2.7-0.1c-1.6-0.2-2.4-0.4-3.9-0.7
								c-2.4-0.6-5.6-1.2-7.6-2.8c-1.7-1.3-1.8-3.7-1.8-5.7c0.1-3,0.9-9.7,1.9-10.9c0.5-0.7,1.4-0.8,2.4-0.7c2.5,0.1,5,0.7,7.5,1
								c2.8,0.4,5.6,0.9,8.4,1.5c1.9,0.4,3.6,0.9,5,2.2l0,0c0,0,0,0,0,0c0.1,0.1,0.2,0.1,0.2,0.2c0,0,0,0,0,0
								c0.6,0.6,0.9,1.3,0.8,2.1C76,89.3,75.9,90.3,75.6,91.2z"/>
							<path fill="#57B7D9" d="M99.2,107.9c1.4,1.6,4.9,2.8,8.8,3.7c4,0.9,13.3,2.4,17.8-0.2c4.5-2.6,5.2-19.8,5.2-19.8
								c-4.1-2.8-28.3-6.3-31.3-2.7C96.7,92.4,97.8,106.3,99.2,107.9z M101.9,92.5c0.2-0.8,0.7-1.4,1.4-1.8c0,0,0,0,0,0
								c0.1,0,0.2-0.1,0.3-0.1c0,0,0,0,0,0h0c1.7-0.8,3.5-0.8,5.4-0.6c2.8,0.3,5.6,0.7,8.4,1.1c2.5,0.4,5.1,0.6,7.4,1.2
								c1,0.3,1.8,0.6,2.1,1.4c0.6,1.5-0.6,8.1-1.5,11c-0.6,1.9-1.4,4.1-3.4,4.9c-2.4,0.9-5.6,0.6-8.1,0.4c-1.6-0.1-2.4-0.2-4-0.5
								c-0.7-0.1-1.9-0.5-2.6-0.7c-0.7-0.2-1.3-0.5-2-0.7c-0.6-0.2-1.2-0.5-1.8-0.8c-0.5-0.3-1-0.5-1.4-0.9
								c-0.6-0.7-0.8-1.5-0.9-2.4c-0.1-3-0.1-5.9,0.1-8.9C101.5,94.2,101.7,93.2,101.9,92.5z"/>
							<path fill="#57B7D9" d="M78.5,90c0,0,12.3-1.7,20.5,3.3l1.8-4.6c0,0-2.8-2.3-10.7-3.6s-11.9,0.2-11.9,0.2L78.5,90z"/>
							<path fill="#1C1C1B" d="M79.8,90.4c0.1-0.6-1-0.6-1.1,0c-0.6,3-3.1,10.5-3.7,11.7c-0.3,0.6-0.7,1-1.2,1.5
								c-0.5,0.5-1.3,0.6-2,0.6c-0.7,0.1-5.4,0.3-8.9,0c-2-0.1-5.9-1.2-6.8-1.4c-1.7-0.5-3.4-1.1-5-1.8c-0.3-0.1-0.6-0.3-0.9-0.4
								c-3.9-1.9-3.3-6.8-2.9-10.4c0.5-3.5,1.1-10.2,1.7-10.7c0.4-0.4,4.8-0.2,6.9,0.1c2.6,0.4,5.2,0.9,7.7,1.4
								c4.7,0.9,11.3,1,14.8,4.5c0.6,0.6,1.5-0.4,0.8-1c-1.9-1.9-4.3-2.6-6.9-3.1c-3.6-0.7-7.3-1.4-11-1.9c-3.2-0.5-6.6-1.3-9.8-1.4
								c-1.3,0-2.5,0.1-3.2,1c-1.3,1.6-2.4,10.4-2.4,14.4c-0.1,2.6,0.1,5.7,2.3,7.4c2.6,2.1,6.8,2.9,10,3.7c2,0.5,3.1,0.7,5.2,1
								c0.9,0.1,2.6,0.1,3.5,0.1c0.9,0,1.9-0.1,2.8-0.1c0.9,0,1.7-0.2,2.5-0.3c0.8-0.1,1.5-0.2,2.2-0.6c1-0.6,1.6-1.6,2-2.7
								C77.7,98.1,79.2,94.5,79.8,90.4z"/>
							<path fill="#1C1C1B" d="M76.3,88.5c0-0.8-0.3-1.6-0.8-2.2c0,0,0,0,0,0c-0.1-0.1-0.2-0.1-0.2-0.2c0,0,0,0,0,0c0,0,0,0,0,0
								c-1.4-1.3-3.2-1.8-5.1-2.2c-2.8-0.6-5.7-1-8.5-1.5c-2.5-0.4-5.1-1-7.6-1.1c-1,0-1.9,0.1-2.5,0.7c-1,1.2-1.8,8-1.9,11.1
								c0,2,0.1,4.4,1.8,5.7c2,1.6,5.2,2.3,7.7,2.9c1.6,0.4,2.4,0.6,4,0.7c0.7,0.1,2,0.1,2.7,0.1c0.7,0,1.4-0.1,2.1-0.1
								c0.7,0,1.3-0.1,1.9-0.2c0.6-0.1,1.1-0.2,1.7-0.5c0.8-0.5,1.3-1.2,1.6-2c1-2.9,1.8-5.7,2.6-8.6C76,90.3,76.2,89.3,76.3,88.5z
								 M72.1,99.9c-0.2,0.5-0.6,0.8-0.9,1.2c-0.4,0.4-1,0.4-1.6,0.5c-0.6,0-4.2,0.2-6.9,0c-1.5-0.1-4.6-0.9-5.2-1.1
								c-1.3-0.4-2.6-0.9-3.9-1.4c-0.2-0.1-0.5-0.2-0.7-0.3c-3-1.5-2.6-5.2-2.2-8c0.4-2.7,0.8-7.8,1.3-8.3c0.3-0.3,3.7-0.2,5.3,0.1
								c2,0.3,4,0.7,6,1.1c3.5,0.6,8.2,0.8,11.1,3.2c1.4,1.2,0.7,4,0.7,4.1C74.6,93.2,72.6,99,72.1,99.9z"/>
							<path fill="#1C1C1B" d="M97.7,93.2c0.1-0.6,1.1-0.3,1.1,0.3c-0.4,3.1-0.2,11,0.1,12.3c0.1,0.7,0.4,1.2,0.7,1.8
								c0.3,0.6,1.1,0.9,1.7,1.2c0.7,0.3,5.1,1.9,8.5,2.7c1.9,0.4,6,0.6,6.9,0.7c1.8,0,3.6,0,5.3-0.2c0.3,0,0.7-0.1,1-0.1
								c4.3-0.6,5.2-5.5,5.8-9.1c0.6-3.5,2-10,1.6-10.7c-0.3-0.5-4.5-1.6-6.6-1.9c-2.6-0.4-5.2-0.7-7.8-1c-4.8-0.6-11-2.4-15.5-0.1
								c-0.8,0.4-1.3-0.9-0.5-1.2c2.4-1.2,4.9-1.2,7.5-0.9c3.7,0.4,7.4,0.9,11.1,1.4c3.2,0.5,6.6,0.7,9.8,1.6
								c1.3,0.4,2.4,0.8,2.8,1.9c0.8,1.9-0.9,10.6-1.9,14.5c-0.7,2.5-1.8,5.4-4.4,6.4c-3.1,1.2-7.4,0.8-10.7,0.6
								c-2.1-0.1-3.2-0.2-5.2-0.6c-0.9-0.2-2.5-0.7-3.4-0.9c-0.9-0.3-1.7-0.6-2.6-0.9c-0.8-0.3-1.6-0.6-2.3-1
								c-0.7-0.3-1.3-0.6-1.9-1.2c-0.8-0.9-1.1-2-1.1-3.1C97.5,101.1,97.1,97.2,97.7,93.2z"/>
							<path fill="#1C1C1B" d="M101.3,95c-0.1,3-0.2,6-0.1,9c0,0.9,0.3,1.8,0.9,2.4c0.4,0.5,0.9,0.7,1.5,0.9
								c0.6,0.3,1.2,0.6,1.8,0.8c0.7,0.2,1.3,0.5,2,0.7c0.7,0.2,1.9,0.6,2.6,0.7c1.6,0.3,2.4,0.4,4,0.5c2.5,0.2,5.8,0.5,8.2-0.4
								c2-0.8,2.9-3,3.4-4.9c0.8-2.9,2.1-9.7,1.5-11.1c-0.3-0.8-1.2-1.2-2.2-1.4c-2.4-0.7-5.1-0.9-7.6-1.2c-2.8-0.4-5.7-0.8-8.6-1.1
								c-1.9-0.2-3.7-0.2-5.5,0.6h0c0,0,0,0,0,0c-0.1,0-0.2,0.1-0.3,0.1c0,0,0,0,0,0c-0.7,0.4-1.2,1-1.4,1.8
								C101.5,93.1,101.3,94.1,101.3,95z M102.2,95c0-0.1,0.1-3,1.9-3.7c3.4-1.4,8-0.1,11.5,0.3c2,0.2,4,0.5,6,0.8
								c1.6,0.2,4.9,1.1,5.1,1.5c0.3,0.6-0.8,5.6-1.2,8.3c-0.5,2.8-1.2,6.5-4.5,7c-0.3,0-0.5,0.1-0.8,0.1c-1.4,0.2-2.7,0.2-4.1,0.2
								c-0.7,0-3.9-0.2-5.3-0.5c-2.6-0.6-6-1.8-6.6-2.1c-0.5-0.2-1.1-0.4-1.3-0.9c-0.2-0.4-0.5-0.9-0.6-1.4
								C102,103.5,101.9,97.4,102.2,95z"/>
							<path fill="#1C1C1B" d="M78.8,90.4c0,0,12.9-0.9,19.9,3.3c0,0,0.7-1.2-0.7-1.9c-1.8-0.9-5.1-2.5-10.1-2.8
								C82.8,88.7,78.7,88.6,78.8,90.4z"/>
							<path fill="#1C1C1B" d="M78.6,85.7c0,0,14.5-1,21.5,3.3c0,0,0.9-0.9-0.4-1.6c-1.8-0.9-6.1-2.9-11.1-3.2
								C83.6,83.9,77.5,83.8,78.6,85.7z"/>
							<path fill="#1C1C1B" d="M46.6,85.4c0,0-1.5-6.7-4.2-8.4c-2.7-1.7,0.9-0.9,0.9-0.9s3.7,4.6,3.6,7.8
								C46.8,87.2,46.6,85.4,46.6,85.4z"/>
							<path fill="#1C1C1B" d="M48.6,79.4c-0.9-1.4-1.7-2.5-1.7-2.5s-3.6-0.8-0.9,0.9c0.8,0.5,1.6,1.6,2.1,2.7
								C48.2,80.1,48.4,79.7,48.6,79.4z"/>
						</g>
						<path opacity="0.3" fill="#FFFFFF" d="M125.3,121.5c-5,8.8-12.7,13.5-21.2,19c-0.3,0.2-0.1,0.7,0.3,0.5
							c9.2-3,18.9-10.6,21.2-19.5C125.7,121.5,125.4,121.4,125.3,121.5z"/>
						<path opacity="0.3" fill="#FFFFFF" d="M115.1,227.9c0.4-4.1,0.8-7.6,0-11.7c-0.2-1.1-0.9-1.5-0.9-0.3
							c0.2,4.1-0.6,8.4-1.1,12.4c-0.6,4.9-1.2,9.8-1.6,14.7c-0.1,1.4,1.8-1.9,2.2-4.7C114.5,233.4,114.6,232.8,115.1,227.9z"/>
						<path opacity="0.3" fill="#FFFFFF" d="M119.7,199.2c-0.4,2.7-2.2,4.8-4,6.7c-1,1,1,1.2,1.9,0.2c2.1-2.2,2.7-2.7,3-5.9
							C120.7,198.9,119.9,197.9,119.7,199.2z"/>
						<g>
							<path fill="#D6A31A" d="M40.1,96.7c0,0-0.1,0-0.2,0c-0.1,0-0.1,0-0.1,0c-0.1,0-0.3,0-0.4,0c-0.1,0-0.2-0.1-0.2-0.1
								c-0.1,0-0.2,0-0.4-0.1c0,0-0.1,0-0.1-0.1c-0.1,0-0.2,0.1-0.2,0.1c-0.3,0.5-0.9,1.1-1.8,1c-0.8,0-1.9-0.5-2.3-1.3
								c-0.5-1.1,0.1-2.8,1-3.5c1.1-0.8,2.3-0.7,3.6-0.6c0.1,0,0.4,0.3,0.6-0.4c0.1-0.7-0.3-0.7-0.4-0.8c-3.9-2.8-9,2.3-7,6.4
								c1.5,3,6.1,3.4,7.7,0.4l0,0l0.5-1L40.1,96.7z"/>
							<g>
								<path fill="#1C1C1B" d="M39.3,96.3C39.2,96.3,39.2,96.3,39.3,96.3c-0.3,0.1-0.5,0.3-0.8,0.3c-0.4,0.5-0.8,0.9-1.6,0.9
									c-0.8,0-1.8-0.3-2.2-1.2c-0.5-1.1,0-2.7,0.9-3.4c1.1-0.9,2.3-0.7,3.6-0.5c0.1,0,0.1-0.1,0.1-0.2c-2.7-2.2-7,1.6-5.2,4.6
									c0.6,1.1,2,1.7,3.2,1.4C38.3,98.1,39.4,97.4,39.3,96.3C39.3,96.3,39.3,96.3,39.3,96.3z"/>
							</g>
							<path fill="#1C1C1B" d="M40.1,96.7C40.1,96.7,40.1,96.7,40.1,96.7c-0.1,0.1-0.2,0.1-0.2,0.1c-0.9,1.2-1.7,2.4-3.3,2.4
								c-1.3,0-2.7-0.7-3.4-1.9c-0.9-1.5-0.7-3.6,0.6-4.8c1.5-1.5,3.4-1.6,5.4-1.4c0.2,0.1,0.3,0.3,0.3,0.5c0,0.3-0.2,0.4-0.3,0.6
								c0,0.1,0,0.1,0,0.2c0.8,0.3,0.9-1.1,0.3-1.4c0,0,0,0,0,0c-4-2.9-9.3,2.4-7.2,6.5c1.7,3.4,7.3,3.5,8.3-0.4
								C40.6,96.8,40.3,96.6,40.1,96.7z"/>
						</g>
						<g>
							<path fill="#4C2602" d="M141.3,89.4c-0.5-0.3-0.9-0.7-1.3-1.1c-0.1-0.1-0.3-0.2-0.4-0.3c-0.1-0.1-0.3-0.2-0.4-0.2
								c-0.1-0.1-0.2-0.2-0.2-0.3c-0.1,0-0.2-0.1-0.1-0.3c0.1-0.5,0.4-1,0.6-1.5c0,0,0-0.1,0-0.1c0,0,0-0.1-0.1-0.1
								c0.9-2.6,0.7-6.3,0.9-8.4c0.6-6.7,0.8-14.8-1.8-21.3c-2.1-5.5-4.3-11.3-8.7-15.2c-1.9-1.6-4-3.5-6.3-4.7
								c-0.4-0.3-0.9-0.6-1.5-0.7c-0.2-0.1-0.5-0.2-0.7-0.2c-1.7-1.2-3.9-2-5.4-2.4c-1.7-0.5-3.5-1.2-5.3-1.9
								c-1.3-4.8-6.5-8.1-8.9-12.4c-0.4-0.7-1-1.1-1.7-1.1c-0.5-0.2-1-0.2-1.5,0c-1.5-1.9-3-3.9-5.4-4.8c-0.6-0.5-0.7-1.1-1.4-1.4
								c-0.3-0.5-1.4-0.6-2-0.8c-1.1-0.3-2.2-0.4-3.3-0.2c-2.5-0.7-5.1-0.1-7.5,2.4c-2.9,1.7-5.5,5.5-7.1,7.7
								c-1,1.4-1.8,2.9-2.6,4.4c-1.9,2.8-3.7,5.7-5.6,8.5c-0.1,0.2-0.2,0.3-0.2,0.5c-0.2,0.3-0.4,0.7-0.6,1
								c-0.9,0.6-1.8,1.2-2.7,1.7c-4.1,2.7-9.7,8.8-11.9,14.7c-0.6,0.1-1.1,0.4-1.6,1.1c-1.6,2.5-4,4-6.5,5.4
								c-0.6,0.2-1.2,0.4-1.8,0.6c-3.3,1-6.2,2.8-9.4,4.1c-2.3,1-4.9,1.8-7.1,3.1c-1.9,0.4-3.8,0.6-5.8,0.6c-0.5,0-0.9,0.2-1.2,0.4
								c-0.4-0.1-0.9,0-1.4,0.3c0,0-0.1,0.1-0.1,0.1c-0.1,0.1-0.3,0.2-0.4,0.3c-1.3-0.2-2.6-0.3-3.9-0.4c-1-0.1-1.2,1.5-0.3,1.9
								c0,0.2,0.1,0.3,0.3,0.5c1.6,1.3,4,1.7,6,2.1c0.4,0.1,0.9,0.2,1.4,0.3c0.5,0.1,1,0.2,1.5,0.3c1.4,0.7,2.9,0.6,4.4,0.9
								c1.6,0.3,2.6,0.8,4.2,0.9c-2.9,3.3-6.5,6.3-10.6,6.9c0,0,0,0-0.1,0c-0.9,0.3-1.9,0.6-2.9,0.7c-0.1,0.1-0.1,0.2-0.2,0.2
								c-0.3,0.1-0.7,0.2-1,0.2c0,0-0.1,0-0.1,0.1c-0.4,0-0.8,0-1.2,0c-0.1,0-0.1,0-0.2,0c-0.3,0-0.6,0-0.9,0.2
								c-0.3,0.2-0.5,0.7-0.4,1.1c0.3,0.1,0.6,0.3,0.9,0.5c0.2,0.1,0.5,0.2,0.7,0.3c0.5,0.2,1,0.5,1.4,0.9c0,0,0,0,0,0
								c0.1,0,0.3,0.1,0.4,0.1c0.3,0.1,0.6,0.2,0.9,0.2c0.1,0.1,0.2,0.3,0.3,0.4c0.8-0.1,1.7,0.3,2.1,0.9c0,0,0,0,0,0
								c0.8,0.2,1.7,0.4,2.7,0.5c0.7,0.6,1.7,0.7,2.7,0.8c0.2,0,0.8,0,1.6,0c0.1,0.2,0.3,0.3,0.4,0.4c0.5,0,1,0.1,1.5,0.3
								c0,0,0,0,0,0c0.2,0,0.5,0,0.7,0c2-0.1-0.4,3.6-0.8,4.2c-0.2,0.2-0.3,0.4-0.5,0.6c-0.1-0.1-0.3-0.1-0.5,0
								c-1.3,0.8-2.5,1.9-3.9,2.5c0,0,0,0,0,0c-1.4,0.3-2.9,0.6-4.1,1.2c-0.5,0.3-0.5,0.8-0.2,1.2c1.3,0,2.7,0,4,0.3
								c0.4-0.1,0.8-0.2,1.2-0.3c0.1,0.1,0.3,0.1,0.5,0.1c1.7,0,3.3,0.1,5-0.1c0.2,0,2.4-0.5,2.5-0.4c0.1,0.1,0.2,0.1,0.2,0.2
								c0.7-0.3,1.4-0.6,2.1-0.8c0.2-0.1,0.3-0.2,0.5-0.3l0,0c0,0,0.1,0,0.1-0.1c0,0,0.1-0.1,0-0.2c0-0.1,0-0.1-0.1-0.2
								c0-0.2,0-0.3,0-0.5c0.1-0.5,0.2-1.1,0.3-1.6c0.2-0.5,0.3-1,0.6-1.4c0,0,0,0,0-0.1c0.1-0.1,0.2-0.2,0.3-0.4c0,0,0-0.1,0-0.1
								c0,0,0,0,0,0c0,0,0.1,0,0.1-0.1c-0.2-0.5-0.5-1.1-0.7-1.6c-0.7-2.7-1.4-4.8-0.7-7.5c0.4-1.4,1.6-3.2,2.5-4.5
								c1-0.9,2-1.6,3.2-2.4c1.3-0.3,2.6-0.3,4-0.2c0.1,0.1,0.3,0.1,0.4,0.2c0.4,0.2,0.9,0.3,1.5,0.2c0.1,0,0.1,0,0.2,0
								c0.2,0,0.3,0.1,0.5,0.1c0.4,0.6,1,1,1.9,1.1c14,2,24.5-7.8,34.2-16.9c2-0.7,4.4-1.5,6.5-1.5c0.5,0.1,1.1,0.2,1.7,0.3
								c0.9,0.3,1.6,0.9,2.1,1.8c-0.1,1,1.3,3.8,1.7,3.7c0.3-0.1,0.6-0.3,0.8-0.6c0.3-0.1,0.5-0.3,0.8-0.4c0.9-0.5,1.6-1.1,2.2-1.9
								c0.5-0.3,1-0.4,1.6-0.6c2.2-0.3,6.2,1.4,8.5,2.6c0.3,0.4,0.6,0.7,0.9,1.1c0.1,0.4,0.3,0.7,0.6,1c2.6,2.2,4.6,5.6,6.5,8.4
								c0.2,0.2,0.4,0.5,0.5,0.7c0.3,0.6,0.6,1.2,1,1.7c0.2,0.3,0.4,0.6,0.6,0.9c1.3,2.2,2.6,3.8,5,5.2c0.1,0,0.2,0.1,0.3,0.1
								c1.6,2.5,5,3.9,7.4,5.3c1.2,0.7,2.8,1.5,4.1,2c1,0.5,2,0.7,3,0.8c1.2,0.2,2.2,0.7,3.5,0.6c0,0,0,0,0.1,0c0.1,0,0.2,0,0.2,0
								c1.1,0,3.4,0.5,4.1-0.3c0.1-0.1,0.4-0.3,0.5-0.4C143.7,90.5,141.9,89.7,141.3,89.4z"/>
							<path fill="#859717" d="M109.6,27.6c-0.7-1.2-1.5-2.5-2.4-3.6c-0.2-0.2-2.1-3-2.8-2.6c-0.1-1.1-1.3-2.4-2-3.2
								c-0.8-0.9-2.1-2-3.4-1.5c0,0,0,0,0,0c-3.4-0.5-6.5,1.2-9.8,2c-2.3,0.6-5.7,0.9-7.3,3c0,0-0.1,0-0.1,0
								c-0.5,0.1-0.6,0.7-0.8,1.1c-0.3,0.7-0.5,1.4-0.7,2.1c0,0,0,0,0,0.1c-0.2,0.1-0.5,0.2-0.7,0.4c0,0,0,0,0,0
								c-0.1,0-0.2-0.1-0.2,0c-0.5,0.5-0.8,1.2-1,1.9c-0.2,0.7-0.6,1.5-0.2,2.2c0.1,0.1,0.2,0.1,0.3,0c0.4-0.5,32,0.7,32,0.5
								C110.6,29.1,110,28.3,109.6,27.6z"/>
							<g>
								<path fill="#1C1C1B" d="M92.4,65.2c-0.8-3.6-2.3-6.4-6.1-7.2c-3.3-0.7-7.8,3.6-10.2,5.2c-5.2,3.5-9.2,8.1-14.7,11.2
									c-4.3,2.4-8.7,3-13.5,2.5c-4.9-0.5-8.2-3.2-12.1-5.9c-0.2-0.2-0.5,0.1-0.3,0.3c6.8,6.9,15.8,8.4,24.7,4.7
									c4-1.7,7.7-4.4,11-7.2c4.3-3.7,16.5-16.3,20.7-3.5C91.9,65.7,92.5,65.5,92.4,65.2L92.4,65.2z"/>
							</g>
							<g>
								<path fill="#1C1C1B" d="M35.5,71.4c3.8,1.8,8.7-0.1,12.5-1.2c5.2-1.5,9.8-4.7,13.3-8.8c0.2-0.2-0.1-0.5-0.3-0.3
									c-6.6,5.8-16.1,11.7-25.4,10.1C35.5,71.2,35.4,71.3,35.5,71.4L35.5,71.4z"/>
							</g>
							<g>
								<path fill="#1C1C1B" d="M95.2,52.2c0.4-9-12.9-6.9-17.6-3.8c-0.2,0.1,0,0.4,0.1,0.3c6.2-2.5,14.9-4.8,17.3,3.5
									C95.1,52.3,95.2,52.3,95.2,52.2L95.2,52.2z"/>
							</g>
							<g>
								<path fill="#1C1C1B" d="M95.4,51.9c5.3-5.7,16-2.7,18.5,4.2c0.1,0.3,0.5,0.1,0.4-0.1c-1.6-7.4-14.8-11-19.1-4.2
									C95.2,51.9,95.3,52,95.4,51.9L95.4,51.9z"/>
							</g>
							<g>
								<path fill="#1C1C1B" d="M40.5,71.7c1.4-7.1,6.5-11.9,8.7-18.5c1.5-4.8,4.4-8.7,7.6-12.6c10.7-12.9,26.7-11.6,41.8-10.4
									c3.5,0.3,6.8-0.3,10.4,0.3c3.6,0.7,8.2,2.8,11.6,4.3c6.1,2.7,13.1,9,15.6,15.2c1.8,4.4,2.7,9.3,3.6,14
									c0.6,2.9-0.2,23.6-1.3,23.4c-0.5-0.1-0.6,0.6-0.1,0.7c0,0,0.1,0,0.1,0c0.1,0,0.3,0,0.4-0.2c4.6-11.9,2.3-26.5-1.8-38.2
									c-4.3-12.2-22-21-34.1-20.5C93.5,29.7,85,27.6,75.6,29c-6.8,1.1-12.4,3.7-17.3,8.5c-3.6,3.6-6.9,8.1-9.1,12.8
									c-1.9,4.1-3.3,7.9-5.7,11.8c-1.9,3.1-3.2,5.9-3.2,9.6C40.2,71.9,40.5,71.9,40.5,71.7L40.5,71.7z"/>
							</g>
							<g>
								<path fill="#1C1C1B" d="M104.5,21.7c0,0,2.3,3.1,2.5,3.5c1.1,1.6,2,3.3,3.1,4.8c0.2,0.2,0.5,0.1,0.5-0.2
									c0-0.9-0.5-1.6-0.9-2.3c-0.7-1.2-1.5-2.5-2.4-3.6c-0.2-0.3-2.4-3.4-2.9-2.4C104.3,21.7,104.4,21.8,104.5,21.7L104.5,21.7z"
									/>
							</g>
							<g>
								<path fill="#1C1C1B" d="M104.5,21.6c-4.6-1.5-9.6-0.2-14.2,0.6c-3.7,0.6-7.5,1.3-10.7,3.3c-0.3,0.2-0.1,0.7,0.3,0.6
									c7.9-3.2,16.2-3.9,24.6-4.2C104.6,21.7,104.6,21.6,104.5,21.6L104.5,21.6z"/>
							</g>
							<g>
								<path fill="#1C1C1B" d="M79.4,25.4c-0.5,0.5-0.8,1.2-1,1.9c-0.2,0.7-0.6,1.5-0.2,2.2c0.1,0.1,0.2,0.1,0.3,0
									c0.4-0.5,0.4-1.2,0.6-1.8c0.2-0.7,0.6-1.4,0.6-2.2C79.7,25.3,79.5,25.3,79.4,25.4L79.4,25.4z"/>
							</g>
							<g>
								<path fill="#1C1C1B" d="M80.8,25.1c0.2-0.6,0.5-1.2,0.7-1.7c0.2-0.4,0.7-1,0.5-1.5c0-0.1-0.1-0.2-0.2-0.1
									c-0.5,0.1-0.6,0.7-0.8,1.1c-0.3,0.7-0.5,1.4-0.7,2.1C80.2,25.2,80.7,25.4,80.8,25.1L80.8,25.1z"/>
							</g>
							<g>
								<path fill="#1C1C1B" d="M81.8,22.1c2.4-1.4,4.9-2,7.6-2.6c3.4-0.8,6.2-2.2,9.8-2.1c0.3,0,0.4-0.5,0-0.6
									c-3.5-0.6-6.7,1.1-10.1,2c-2.4,0.6-6,0.9-7.5,3.2C81.7,22.1,81.8,22.2,81.8,22.1L81.8,22.1z"/>
							</g>
							<g>
								<path fill="#1C1C1B" d="M99.3,17c-3-2.8-4.8-6.3-9.1-7.6c-4-1.2-7-0.3-10.5,2c-9.1,6.1-12.6,17.6-20,25.2
									c-0.1,0.1,0.1,0.3,0.2,0.2c6.4-4.5,9.6-13.2,14.6-19.2c4.2-5.1,10.1-9.8,16.9-6.5c2.9,1.4,4.9,5.2,7.8,6.1
									C99.3,17.3,99.4,17.1,99.3,17L99.3,17z"/>
							</g>
							<g>
								<path fill="#1C1C1B" d="M50.1,49.2c-5.1,6.1-13,9.3-20.1,12.4c-7.6,3.3-15.3,4.9-23.5,5.4c-0.4,0-0.4,0.6,0,0.7
									c8.9,0.5,17.5-2.7,25.5-6.2c6.1-2.7,15-5.9,18.2-12.1C50.4,49.2,50.2,49,50.1,49.2L50.1,49.2z"/>
							</g>
							<g>
								<path fill="#1C1C1B" d="M6.4,67.4c7.9,4.4,19,8.1,28.1,5.5c0.2-0.1,0.1-0.4-0.1-0.4c-4.8,0.4-9.4,0.1-14.1-0.8
									c-4.8-0.9-9.1-3.8-13.8-4.5C6.4,67.2,6.4,67.3,6.4,67.4L6.4,67.4z"/>
							</g>
							<g>
								<path fill="#1C1C1B" d="M26.6,73.5c-2.7,2.6-5.2,4.4-8.7,5.9c-3.1,1.3-6.4,1.8-9.6,2.7c-0.4,0.1-0.3,0.8,0.1,0.8
									c5.8-0.2,16-3.1,18.4-9.1C27,73.5,26.8,73.3,26.6,73.5L26.6,73.5z"/>
							</g>
							<g>
								<path fill="#1C1C1B" d="M8.1,82.3c5.9,3.7,12.3,6.4,19.4,5.9c0.2,0,0.2-0.3,0-0.3c-3.5-0.4-6.9-0.8-10.2-1.8
									c-3.3-0.9-5.8-3-9-4.2C8.1,81.8,7.9,82.2,8.1,82.3L8.1,82.3z"/>
							</g>
							<g>
								<path fill="#1C1C1B" d="M26.7,88c-0.7,1.1-1.1,2.2-1.9,3.3c-0.9,1.1-2.2,1.9-3.4,2.7c-2.2,1.4-4.7,2.2-7.1,3.2
									c-0.4,0.2-0.3,0.9,0.2,0.8c2.9-0.5,5.7-1.9,8.1-3.5c2-1.3,5-3.8,4.6-6.5C27.1,87.9,26.8,87.8,26.7,88L26.7,88z"/>
							</g>
							<g>
								<path fill="#1C1C1B" d="M14.5,97.4C14.5,97.4,14.5,97.4,14.5,97.4c-0.2,0-0.2,0.1-0.2,0.2c0,0,0,0.1,0,0.1
									c0,0.1,0.1,0.2,0.2,0.3c1.6,0.7,3.9,0.5,5.6,0.5c3.3,0.1,7.7,0.8,10.6-1.3c0.1-0.1,0-0.2-0.1-0.2c-1.9,0.2-3.8,0.7-5.7,0.8
									c-1.9,0.1-3.9-0.1-5.8-0.2c-0.9,0-1.8-0.1-2.7-0.1C16,97.5,14.5,97.2,14.5,97.4C14.6,97.4,14.5,97.4,14.5,97.4L14.5,97.4z"
									/>
							</g>
							<g>
								<path fill="#1C1C1B" d="M71.1,40.2c-3.5,0.4-5.4,2.9-7.5,5.5c-2.4,3-4.6,6.4-5.9,10.1c-0.1,0.2,0.2,0.3,0.3,0.1
									c3-5.6,6.5-13.3,13-15.5C71.2,40.4,71.2,40.2,71.1,40.2L71.1,40.2z"/>
							</g>
							<g>
								<path fill="#1C1C1B" d="M121,46.4c6.3,2.4,8.1,9,9.4,14.9c0.1,0.2,0.4,0.2,0.4-0.1c-0.2-3.9-1.4-7.8-3.8-10.9
									C126.3,49.2,122.6,45.1,121,46.4C121,46.3,121,46.4,121,46.4L121,46.4z"/>
							</g>
							<g>
								<path fill="#1C1C1B" d="M90.2,38.5c-4.6-2.2-11.1,1.3-14.6,4.1c-0.2,0.1,0,0.4,0.2,0.3c2.3-1.2,4.5-2.5,7-3.4
									C85.2,38.7,87.7,39.1,90.2,38.5C90.2,38.6,90.2,38.5,90.2,38.5L90.2,38.5z"/>
							</g>
							<path opacity="0.2" fill="#FFFFFF" d="M138.1,73.5c0-3.8-0.1-6.9-1-10.6c-0.9-4.1-2.3-7.9-4.1-11.7c-1.5-3.2-3.7-5.9-6-8.5
								c-1.3-1.5-2.7-3-4.1-4.4c-1.1-1.1-2.4-1.8-3.9-2.3c-0.7-0.2,2.9,3.1,4,4c2.7,2.4,7.9,9.7,9.5,13c1.5,3.1,4.2,13.2,4.5,14.8
								C137.4,70,138.1,74.6,138.1,73.5z"/>
							<path fill="#1C1C1B" d="M145.2,91.1c-0.7-0.5-1.6-0.8-2.3-1.3c0,0-0.1,0-0.1,0c-4-2.1-7.5-4.4-10.7-7.7
								c-3.4-3.6-5.6-7.9-8.6-11.7c-0.1-0.2-0.4,0-0.3,0.2c4.9,8.5,10.5,16.2,19.9,20c0,0,0.4,0.3,0.5,0.4
								c-8.4-0.2-14.8-2.9-21.7-7.8c-5.9-4.3-9.4-14-14.1-19.4c-4.2-4.8-12.5-5-15.7,1.2c-0.1,0.3,0.3,0.5,0.5,0.3
								c5.8-7.5,13.4-2.5,17.7,3.7c2.7,4,5.6,10.9,9.3,14c4.8,4,10.4,7.3,16.4,8.6c0,0,0.3,0.1,0.5,0.1c0.1,0,0.2,0,0.2,0.1
								c0,0,5.3,0.6,8,0.2c0.1,0,0.1,0,0.1-0.1c0.1,0,0.2,0,0.2-0.1c0,0,0,0,0,0C145.3,91.6,145.4,91.2,145.2,91.1z"/>
							<g>
								<g>
									<path fill="none" stroke="#1C1C1B" stroke-miterlimit="10" d="M144.4,91.4"/>
								</g>
							</g>
							<g>
								<path fill="#1C1C1B" d="M99,17c1.4,0.2,2.5,1,3.4,2c0.7,0.7,1.1,2,2,2.5c0.1,0.1,0.3,0,0.3-0.1c0-1.2-1.4-2.6-2.2-3.4
									c-0.8-0.9-2.3-1.9-3.5-1.3C98.9,16.9,98.9,17,99,17L99,17z"/>
							</g>
						</g>
						<g>
							<path fill="#9E3C50" d="M102.6,118.9l0-0.2l-0.2,0c-9.3,1.2-18,1-26.8-0.8c-0.1,0-0.2,0-0.5-0.1c-1.5-0.2-6.1-1-7.6-2.1
								l-0.3-0.2l0,0.3c0.4,9.9,2.3,19.2,14.3,21.1l0.1,0c5.6,0.8,10.8-0.6,14.7-4C100.4,129.6,102.6,124.6,102.6,118.9z"/>
							<g>
								<path fill="#C86272" d="M77.5,136c5.8,2.3,14.2,0.8,14.2,0.6c-0.4-5-4.7-8.2-9.3-9.3c-3.1-0.8-10.2-2.3-13.1,0.5
									C69.2,127.7,71.9,133.8,77.5,136z"/>
							</g>
							<g>
								<path fill="#1C1C1B" d="M66.9,115c0.1,1.7,8,2.8,8.7,2.9c9.1,1.8,17.9,2,27.1,0.8c0.4,0,0.4-0.6,0-0.6
									c-3-0.5-5.8,0.1-8.8,0.3c-4.4,0.3-8.8-0.2-13.1-0.8c-3.8-0.5-7.7-1.1-11.4-2.2c-0.6-0.2-1.7-0.7-2.3-0.5
									C66.9,114.9,66.9,115,66.9,115L66.9,115z"/>
							</g>
							<g>
								<path fill="#1C1C1B" d="M66.9,115c-0.6,12.4,3.5,20.7,16.6,22.8c11.4,1.8,19.7-8.8,19.6-19.2c0-0.5-0.8-0.4-0.7,0.1
									c0.1,11.6-9.2,19.8-20.8,18c-12-1.9-13.9-11.5-14.2-21.7C67.4,114.7,66.9,114.7,66.9,115L66.9,115z"/>
							</g>
							<g>
								<path fill="#1C1C1B" d="M69.1,127.8c3.3-2.2,8.4-1.1,12-0.3c5.2,1.1,8.4,4.2,10,9.1c0.2,0.5,0.9,0.3,0.9-0.2
									c-0.4-5-4.8-8.6-9.4-9.7C79.4,125.8,71,123.9,69.1,127.8C69,127.8,69,127.8,69.1,127.8L69.1,127.8z"/>
							</g>
						</g>
					</g>
				</g>
			</g>
		</g>
		<g>
			<path fill="#1B1B1B" d="M265.1,104.4c0,0.2,0,0.4,0,0.7c0,0.3,0,0.6,0,1s-0.1,0.7-0.1,1.1s-0.1,0.7-0.2,1s-0.3,0.5-0.5,0.7
				c-0.2,0.2-0.4,0.3-0.7,0.3c-0.2,0-0.4-0.1-0.6-0.3s-0.3-0.4-0.4-0.7s-0.2-0.6-0.2-1s-0.1-0.7-0.1-1.1c0-0.4,0-0.7,0-1
				c0-0.3,0-0.6,0-0.7c0-0.2,0-0.4,0-0.7s0.1-0.6,0.1-0.9c0-0.3,0.1-0.6,0.2-1c0.1-0.3,0.2-0.6,0.3-0.9s0.2-0.5,0.4-0.7
				s0.3-0.2,0.5-0.2c0.2,0,0.4,0.1,0.5,0.3s0.3,0.4,0.4,0.7s0.2,0.6,0.2,0.9c0.1,0.3,0.1,0.7,0.1,1c0,0.3,0.1,0.6,0.1,0.9
				S265.1,104.2,265.1,104.4z M264.9,98.3c0,0.2,0,0.3-0.1,0.4c-0.1,0.1-0.2,0.2-0.3,0.3s-0.3,0.2-0.4,0.2c-0.2,0-0.3,0.1-0.4,0.1
				c-0.2,0-0.4-0.1-0.6-0.2s-0.3-0.3-0.3-0.5c0-0.2,0-0.3,0.1-0.4s0.2-0.2,0.3-0.3s0.3-0.1,0.4-0.2s0.3-0.1,0.4-0.1
				c0.2,0,0.4,0.1,0.6,0.2C264.8,97.9,264.9,98,264.9,98.3z"/>
			<path fill="#1B1B1B" d="M272.4,106.4c0,0.2,0,0.4-0.1,0.5c-0.1,0.2-0.3,0.4-0.7,0.6s-0.8,0.4-1.2,0.6s-0.9,0.4-1.3,0.5
				s-0.7,0.2-0.9,0.2c-0.1,0-0.3,0-0.5-0.1s-0.4-0.1-0.6-0.2s-0.4-0.2-0.5-0.3c-0.2-0.1-0.3-0.2-0.3-0.4c0-0.1-0.1-0.2-0.1-0.4
				c0-0.2-0.1-0.4-0.1-0.7c0-0.3,0-0.6-0.1-0.9s0-0.6-0.1-0.9c0-0.3,0-0.5,0-0.7c0-0.2,0-0.4,0-0.5c0-0.4,0-0.8,0-1.2
				c0-0.5,0.1-0.9,0.1-1.4s0.2-0.9,0.3-1.4c0.1-0.4,0.3-0.8,0.5-1.1c0.1-0.1,0.2-0.2,0.4-0.3s0.4-0.2,0.7-0.3
				c0.3-0.1,0.6-0.2,0.9-0.2s0.6-0.1,0.9-0.2s0.6-0.1,0.8-0.1s0.4-0.1,0.6-0.1c0.1,0,0.3,0,0.4,0.1c0.1,0.1,0.2,0.1,0.3,0.3
				c0.1,0.1,0.2,0.2,0.2,0.4s0.1,0.3,0.1,0.4c0,0.1,0,0.2-0.1,0.3s-0.1,0.2-0.2,0.3c-0.1,0.1-0.3,0.3-0.6,0.5s-0.7,0.3-1,0.5
				c-0.4,0.2-0.7,0.3-1.1,0.5c-0.3,0.1-0.6,0.2-0.7,0.3c0,0.2-0.1,0.5-0.1,0.7c0,0.2-0.1,0.5-0.1,0.7c0.3-0.2,0.6-0.3,1-0.4
				s0.7-0.2,1.1-0.2c0.7,0,1,0.3,1,1c0,0.2,0,0.3-0.1,0.4c-0.1,0.1-0.1,0.2-0.3,0.3c-0.1,0.1-0.2,0.2-0.4,0.3
				c-0.1,0.1-0.3,0.1-0.4,0.2c-0.3,0.2-0.6,0.3-1,0.4s-0.7,0.2-1,0.4c0,0.1,0,0.2-0.1,0.3s0,0.2,0,0.3c0,0.1,0,0.3,0,0.4
				s0,0.3,0.1,0.4c0.1,0,0.3-0.1,0.6-0.2c0.3-0.1,0.5-0.2,0.8-0.3s0.6-0.2,0.8-0.2s0.5-0.1,0.6-0.1c0.1,0,0.3,0,0.4,0.1
				s0.2,0.1,0.3,0.2s0.2,0.2,0.2,0.4C272.4,106.2,272.4,106.3,272.4,106.4z"/>
			<path fill="#1B1B1B" d="M279.3,101.2c0,0.2,0,0.3-0.1,0.5s-0.1,0.3-0.2,0.5s-0.2,0.3-0.3,0.5s-0.2,0.3-0.3,0.4
				c-0.2,0.3-0.4,0.6-0.6,1c-0.2,0.3-0.4,0.6-0.6,1c0.1,0.1,0.2,0.3,0.4,0.6s0.3,0.5,0.5,0.8s0.3,0.5,0.4,0.8s0.2,0.5,0.2,0.7
				c0,0.2-0.1,0.3-0.2,0.5s-0.3,0.2-0.5,0.2c-0.2,0-0.4-0.1-0.6-0.2c-0.2-0.1-0.4-0.3-0.6-0.5c-0.2-0.2-0.4-0.4-0.5-0.6
				s-0.3-0.4-0.4-0.5c-0.1,0.1-0.3,0.3-0.5,0.6c-0.2,0.2-0.4,0.5-0.6,0.7c-0.2,0.2-0.5,0.4-0.7,0.6s-0.4,0.2-0.6,0.2
				c-0.2,0-0.4-0.1-0.5-0.2s-0.2-0.3-0.2-0.5s0.1-0.4,0.2-0.7c0.1-0.3,0.3-0.6,0.5-0.9s0.4-0.6,0.5-0.9c0.2-0.3,0.3-0.5,0.4-0.7
				c-0.1-0.2-0.2-0.4-0.4-0.7s-0.3-0.6-0.4-0.9c-0.1-0.3-0.2-0.6-0.3-0.9c-0.1-0.3-0.1-0.6-0.1-0.8c0-0.2,0.1-0.4,0.2-0.5
				s0.3-0.2,0.5-0.2c0.2,0,0.5,0.1,0.7,0.3s0.4,0.4,0.6,0.7s0.3,0.5,0.5,0.8s0.3,0.5,0.3,0.7c0.1-0.2,0.3-0.4,0.5-0.7
				c0.2-0.3,0.4-0.6,0.7-0.9s0.5-0.5,0.8-0.8s0.6-0.3,0.8-0.3c0.2,0,0.3,0.1,0.4,0.2C279.2,100.9,279.3,101,279.3,101.2z"/>
			<path fill="#1B1B1B" d="M285.1,103.1c0,0,0,0.1,0,0.2s0,0.1,0,0.2c-0.1,0.2-0.2,0.4-0.4,0.6s-0.4,0.2-0.7,0.2
				c-0.4,0-0.6-0.2-0.8-0.6c0,0,0-0.1,0-0.2s0-0.1,0-0.2v-0.4c0-0.1-0.1-0.2-0.1-0.3s-0.1-0.1-0.2-0.1c-0.2,0-0.3,0.1-0.5,0.3
				s-0.3,0.5-0.4,0.7c-0.1,0.3-0.2,0.6-0.3,0.9s-0.1,0.5-0.1,0.7c0,0.1,0,0.3,0,0.5s0.1,0.4,0.1,0.6s0.1,0.4,0.2,0.5
				c0.1,0.1,0.2,0.2,0.4,0.2s0.3-0.1,0.5-0.2c0.1-0.1,0.3-0.2,0.4-0.4c0.1-0.1,0.3-0.2,0.4-0.4s0.3-0.2,0.5-0.2
				c0.2,0,0.4,0.1,0.6,0.3c0.1,0.2,0.2,0.4,0.2,0.6c0,0.3-0.1,0.6-0.3,0.9s-0.4,0.5-0.7,0.7s-0.6,0.4-0.9,0.5s-0.6,0.2-0.9,0.2
				c-0.5,0-1-0.1-1.3-0.4c-0.4-0.3-0.7-0.6-0.9-1s-0.4-0.8-0.5-1.3s-0.1-0.9-0.1-1.4c0-0.5,0.1-1,0.2-1.6s0.3-1.1,0.6-1.6
				s0.6-0.9,1.1-1.2s1-0.5,1.6-0.5c0.4,0,0.7,0.1,1,0.2c0.3,0.2,0.5,0.4,0.7,0.7c0.2,0.3,0.3,0.6,0.4,0.9c0.1,0.3,0.1,0.7,0.1,1
				c0,0,0,0.1,0,0.1S285.1,103.1,285.1,103.1z"/>
			<path fill="#1B1B1B" d="M292.1,106.1c0,0.3-0.1,0.7-0.3,1s-0.5,0.6-0.8,0.8s-0.7,0.4-1,0.6s-0.7,0.2-1,0.2c-0.5,0-1-0.1-1.4-0.4
				s-0.7-0.6-1-1s-0.5-0.8-0.6-1.3s-0.2-1-0.2-1.4c0-0.5,0.1-1,0.2-1.6s0.3-1.1,0.6-1.5c0.3-0.5,0.6-0.9,1.1-1.2
				c0.4-0.3,0.9-0.5,1.5-0.5c0.3,0,0.6,0.1,1,0.2s0.6,0.3,0.8,0.5s0.4,0.4,0.5,0.7s0.2,0.6,0.2,1c0,0.5-0.1,0.9-0.3,1.3
				s-0.5,0.7-0.8,1s-0.7,0.5-1.1,0.7s-0.8,0.3-1.3,0.3c0,0.3,0.2,0.5,0.3,0.6c0.2,0.1,0.4,0.2,0.7,0.2c0.2,0,0.4,0,0.6-0.1
				s0.4-0.2,0.5-0.3s0.3-0.2,0.5-0.3s0.3-0.1,0.5-0.1c0.2,0,0.4,0.1,0.5,0.2S292.1,105.9,292.1,106.1z M289.7,102.5
				c0-0.1,0-0.3-0.1-0.4s-0.2-0.2-0.3-0.2c-0.2,0-0.4,0.1-0.5,0.2s-0.3,0.3-0.4,0.4s-0.2,0.4-0.2,0.5c-0.1,0.2-0.1,0.4-0.1,0.5
				c0.1,0,0.3-0.1,0.5-0.1c0.2,0,0.4-0.1,0.5-0.2c0.2-0.1,0.3-0.2,0.4-0.3C289.6,102.9,289.7,102.7,289.7,102.5z"/>
			<path fill="#1B1B1B" d="M295.4,99.9c0,0.5,0,1.1-0.1,1.6c0,0.5-0.1,1.1-0.1,1.6c0,0.7,0,1.4,0.1,2.1c0,0.7,0.1,1.4,0.1,2.1
				c0,0.2,0,0.4,0,0.6s-0.1,0.4-0.1,0.6c-0.1,0.2-0.2,0.3-0.3,0.5s-0.3,0.2-0.6,0.2c-0.2,0-0.4-0.1-0.6-0.3s-0.3-0.5-0.4-0.9
				c-0.1-0.4-0.2-0.8-0.3-1.2c-0.1-0.4-0.1-0.9-0.2-1.3c0-0.4-0.1-0.8-0.1-1.1c0-0.3,0-0.6,0-0.8c0-0.2,0-0.5,0-0.8
				c0-0.4,0-0.7,0.1-1.1s0.1-0.8,0.2-1.3s0.2-0.8,0.3-1.2s0.3-0.6,0.5-0.8c0.2-0.2,0.4-0.3,0.7-0.3c0.2,0,0.4,0.1,0.5,0.2
				s0.2,0.3,0.2,0.5s0.1,0.4,0.1,0.6S295.4,99.7,295.4,99.9z"/>
			<path fill="#1B1B1B" d="M302.7,106.1c0,0.3-0.1,0.7-0.3,1s-0.5,0.6-0.8,0.8s-0.7,0.4-1,0.6s-0.7,0.2-1,0.2c-0.5,0-1-0.1-1.4-0.4
				s-0.7-0.6-1-1s-0.5-0.8-0.6-1.3s-0.2-1-0.2-1.4c0-0.5,0.1-1,0.2-1.6s0.3-1.1,0.6-1.5c0.3-0.5,0.6-0.9,1.1-1.2
				c0.4-0.3,0.9-0.5,1.5-0.5c0.3,0,0.6,0.1,1,0.2s0.6,0.3,0.8,0.5s0.4,0.4,0.5,0.7s0.2,0.6,0.2,1c0,0.5-0.1,0.9-0.3,1.3
				s-0.5,0.7-0.8,1s-0.7,0.5-1.1,0.7s-0.8,0.3-1.3,0.3c0,0.3,0.2,0.5,0.3,0.6c0.2,0.1,0.4,0.2,0.7,0.2c0.2,0,0.4,0,0.6-0.1
				s0.4-0.2,0.5-0.3s0.3-0.2,0.5-0.3s0.3-0.1,0.5-0.1c0.2,0,0.4,0.1,0.5,0.2S302.7,105.9,302.7,106.1z M300.3,102.5
				c0-0.1,0-0.3-0.1-0.4s-0.2-0.2-0.3-0.2c-0.2,0-0.4,0.1-0.5,0.2s-0.3,0.3-0.4,0.4s-0.2,0.4-0.2,0.5c-0.1,0.2-0.1,0.4-0.1,0.5
				c0.1,0,0.3-0.1,0.5-0.1c0.2,0,0.4-0.1,0.5-0.2c0.2-0.1,0.3-0.2,0.4-0.3C300.2,102.9,300.3,102.7,300.3,102.5z"/>
			<path fill="#1B1B1B" d="M307.4,109.1c-0.2,0-0.3-0.1-0.4-0.2s-0.2-0.3-0.2-0.5s-0.1-0.4-0.1-0.6c0-0.2,0-0.4,0-0.5
				c0-0.3,0-0.6,0.1-0.9s0.1-0.6,0.1-0.9c0-0.3,0.1-0.6,0.1-0.9s0.1-0.6,0.1-0.9c0-0.1,0-0.2,0-0.4s0-0.3-0.1-0.4s-0.1-0.2-0.2-0.3
				s-0.2-0.1-0.3-0.1c-0.1,0-0.2,0.1-0.3,0.2s-0.2,0.3-0.3,0.5c-0.1,0.2-0.2,0.4-0.2,0.5c-0.1,0.2-0.1,0.3-0.1,0.4
				c0,0.2,0,0.4,0,0.7c0,0.2,0,0.4,0,0.7v0.8c0,0.2,0,0.4,0,0.5s0,0.4-0.1,0.5c0,0.2-0.1,0.3-0.1,0.5s-0.1,0.3-0.2,0.4
				s-0.2,0.2-0.3,0.3s-0.3,0.1-0.5,0.1c-0.2,0-0.4-0.1-0.5-0.2s-0.2-0.3-0.3-0.5s-0.1-0.4-0.2-0.7c0-0.2-0.1-0.5-0.1-0.7
				c0-0.2,0-0.5,0-0.7c0-0.2,0-0.4,0-0.5V105c0-0.4,0-0.7,0-1.1c0-0.4,0-0.7,0-1.1c0-0.2,0-0.4,0-0.7c0-0.3,0-0.6,0.1-0.9
				s0.2-0.5,0.3-0.7s0.4-0.3,0.7-0.3c0.1,0,0.3,0,0.4,0.1s0.2,0.2,0.3,0.3c0.1,0.1,0.2,0.3,0.2,0.4c0.1,0.1,0.1,0.3,0.1,0.4
				c0.1-0.1,0.2-0.3,0.3-0.4c0.1-0.1,0.3-0.2,0.4-0.3s0.4-0.2,0.6-0.2s0.4-0.1,0.7-0.1c0.5,0,0.9,0.1,1.2,0.4
				c0.3,0.2,0.5,0.5,0.6,0.9c0.1,0.4,0.2,0.7,0.2,1.1s0,0.8,0,1.1c0,0.2,0,0.4,0,0.7s-0.1,0.7-0.1,1.1s-0.1,0.8-0.3,1.2
				s-0.2,0.8-0.4,1.1s-0.3,0.6-0.5,0.8C307.9,109,307.7,109.1,307.4,109.1z"/>
			<path fill="#1B1B1B" d="M313.7,109.3c-0.7,0-1.2-0.1-1.6-0.3c-0.4-0.2-0.7-0.4-0.9-0.8c-0.2-0.3-0.3-0.7-0.3-1.2s-0.1-1-0.1-1.6
				c0-0.5,0-0.9,0-1.4s0.1-1,0.1-1.5c-0.1,0-0.2,0-0.3,0s-0.1,0-0.2,0c-0.3,0-0.6-0.1-0.8-0.2c-0.2-0.1-0.3-0.3-0.3-0.6
				c0-0.2,0.1-0.3,0.2-0.5c0.1-0.1,0.3-0.3,0.5-0.4s0.4-0.2,0.7-0.2s0.5-0.1,0.7-0.1c0-0.3,0-0.6,0.1-0.9s0.1-0.6,0.2-0.9
				c0.1-0.3,0.2-0.5,0.4-0.7s0.4-0.3,0.7-0.3c0.2,0,0.3,0,0.4,0.1s0.2,0.2,0.3,0.4s0.1,0.3,0.2,0.5s0.1,0.3,0.1,0.5
				c0,0.2,0,0.4,0,0.6s-0.1,0.5-0.2,0.8c0.2,0,0.3,0,0.3,0s0.1,0,0.2,0c0.2,0,0.3,0,0.5,0s0.3,0.1,0.5,0.1s0.3,0.2,0.4,0.3
				s0.1,0.2,0.1,0.4c0,0.2-0.1,0.3-0.2,0.5c-0.1,0.1-0.3,0.3-0.5,0.4s-0.4,0.2-0.7,0.2s-0.5,0.1-0.7,0.1c-0.1,0.4-0.1,0.8-0.1,1.1
				s-0.1,0.7-0.1,1c0,0.2,0,0.3-0.1,0.5c0,0.2,0,0.3,0,0.5c0,0.1,0,0.3,0,0.4s0,0.3,0.1,0.5s0.2,0.3,0.3,0.4s0.3,0.2,0.5,0.2
				c0.1,0,0.3,0,0.4,0s0.3,0,0.4,0c0.3,0,0.4,0.1,0.5,0.3c0.1,0.2,0.2,0.4,0.2,0.7c0,0.2-0.1,0.4-0.2,0.5s-0.3,0.3-0.5,0.4
				s-0.4,0.2-0.6,0.2S313.9,109.3,313.7,109.3z"/>
			<path fill="#1B1B1B" d="M322,106.1c0,0.3-0.1,0.7-0.3,1s-0.5,0.6-0.8,0.8s-0.7,0.4-1,0.6s-0.7,0.2-1,0.2c-0.5,0-1-0.1-1.4-0.4
				s-0.7-0.6-1-1s-0.5-0.8-0.6-1.3s-0.2-1-0.2-1.4c0-0.5,0.1-1,0.2-1.6s0.3-1.1,0.6-1.5c0.3-0.5,0.6-0.9,1.1-1.2
				c0.4-0.3,0.9-0.5,1.5-0.5c0.3,0,0.6,0.1,1,0.2s0.6,0.3,0.8,0.5s0.4,0.4,0.5,0.7s0.2,0.6,0.2,1c0,0.5-0.1,0.9-0.3,1.3
				s-0.5,0.7-0.8,1s-0.7,0.5-1.1,0.7s-0.8,0.3-1.3,0.3c0,0.3,0.2,0.5,0.3,0.6c0.2,0.1,0.4,0.2,0.7,0.2c0.2,0,0.4,0,0.6-0.1
				s0.4-0.2,0.5-0.3s0.3-0.2,0.5-0.3s0.3-0.1,0.5-0.1c0.2,0,0.4,0.1,0.5,0.2S322,105.9,322,106.1z M319.6,102.5c0-0.1,0-0.3-0.1-0.4
				s-0.2-0.2-0.3-0.2c-0.2,0-0.4,0.1-0.5,0.2s-0.3,0.3-0.4,0.4s-0.2,0.4-0.2,0.5c-0.1,0.2-0.1,0.4-0.1,0.5c0.1,0,0.3-0.1,0.5-0.1
				c0.2,0,0.4-0.1,0.5-0.2c0.2-0.1,0.3-0.2,0.4-0.3C319.6,102.9,319.6,102.7,319.6,102.5z"/>
			<path fill="#1B1B1B" d="M325.3,102.6c0,0.2,0,0.4,0,0.6s0,0.6-0.1,0.9s-0.1,0.6-0.2,0.9c-0.1,0.3-0.2,0.6-0.3,0.9
				s-0.2,0.5-0.4,0.6s-0.3,0.2-0.5,0.2c-0.2,0-0.4-0.1-0.5-0.3c-0.2-0.2-0.3-0.5-0.4-0.8c-0.1-0.3-0.2-0.7-0.2-1.1s-0.1-0.8-0.1-1.2
				s0-0.7-0.1-1.1s0-0.6,0-0.8s0-0.4,0-0.7s0-0.6,0-0.9s0.1-0.6,0.1-0.9s0.1-0.6,0.2-0.8s0.2-0.4,0.4-0.6s0.4-0.2,0.7-0.2
				c0.2,0,0.4,0.1,0.6,0.3s0.3,0.5,0.4,0.8c0.1,0.3,0.2,0.7,0.2,1.1c0,0.4,0.1,0.8,0.1,1.1c0,0.4,0,0.7,0,1S325.3,102.4,325.3,102.6
				z M325.1,108.2c0,0.2,0,0.3-0.1,0.4s-0.2,0.2-0.3,0.3s-0.3,0.1-0.4,0.2s-0.3,0.1-0.4,0.1c-0.2,0-0.4-0.1-0.6-0.2
				s-0.3-0.3-0.3-0.5c0-0.1,0-0.3,0.1-0.4s0.2-0.2,0.3-0.3s0.3-0.2,0.4-0.2s0.3-0.1,0.4-0.1c0.2,0,0.4,0.1,0.6,0.2
				S325.1,107.9,325.1,108.2z"/>
			<path fill="#1B1B1B" d="M228.3,120.5c0,0.2,0,0.4-0.1,0.6c0,0.2-0.1,0.4-0.2,0.6s-0.2,0.3-0.4,0.4s-0.3,0.2-0.6,0.2
				c-0.3,0-0.6-0.1-0.8-0.2s-0.3-0.3-0.4-0.5s-0.1-0.4-0.1-0.6c0-0.2,0-0.4,0-0.6s0-0.3-0.1-0.5c-0.1-0.1-0.2-0.2-0.3-0.2
				c-0.2,0-0.4,0.1-0.5,0.2s-0.3,0.3-0.4,0.5s-0.2,0.5-0.3,0.8c-0.1,0.3-0.1,0.6-0.2,0.8c0,0.3-0.1,0.5-0.1,0.8s0,0.5,0,0.6
				c0,0.2,0,0.4,0,0.7c0,0.3,0.1,0.6,0.1,0.8s0.2,0.5,0.4,0.7s0.4,0.3,0.7,0.3c0.2,0,0.4,0,0.6-0.1s0.4-0.1,0.6-0.2s0.4-0.1,0.6-0.2
				c0.2,0,0.4-0.1,0.6-0.1c0.2,0,0.4,0.1,0.6,0.3s0.2,0.4,0.2,0.6c0,0.3-0.1,0.6-0.3,0.9s-0.4,0.5-0.7,0.7c-0.3,0.2-0.6,0.4-0.9,0.5
				c-0.3,0.1-0.6,0.2-0.9,0.2c-0.7,0-1.3-0.2-1.8-0.5c-0.5-0.3-0.9-0.7-1.2-1.2s-0.5-1.1-0.7-1.7c-0.1-0.6-0.2-1.2-0.2-1.9
				c0-0.4,0-0.9,0.1-1.3s0.2-1,0.4-1.5s0.4-1,0.6-1.4s0.5-0.9,0.8-1.2s0.7-0.6,1.1-0.8s0.9-0.3,1.3-0.3c0.5,0,0.9,0.1,1.2,0.4
				s0.6,0.5,0.8,0.9s0.3,0.8,0.4,1.2S228.3,120.1,228.3,120.5z"/>
			<path fill="#1B1B1B" d="M231.7,128.4c-0.5,0-0.9-0.1-1.3-0.4c-0.4-0.3-0.7-0.6-0.9-1s-0.4-0.9-0.6-1.4s-0.2-1-0.2-1.5
				c0-0.5,0.1-1.1,0.2-1.6s0.3-1.1,0.6-1.5s0.6-0.8,1-1.1s0.9-0.4,1.5-0.4c0.5,0,1,0.1,1.4,0.4c0.4,0.3,0.7,0.7,0.9,1.1
				s0.4,0.9,0.5,1.5s0.1,1,0.1,1.5c0,0.5-0.1,1-0.2,1.6c-0.1,0.5-0.3,1-0.6,1.4s-0.6,0.8-1,1C232.7,128.2,232.2,128.4,231.7,128.4z
				 M231.9,121.7c-0.1,0-0.3,0.1-0.4,0.2s-0.2,0.3-0.3,0.6c-0.1,0.2-0.1,0.5-0.2,0.7s-0.1,0.5-0.1,0.7c0,0.2,0,0.5,0.1,0.8
				c0,0.3,0.1,0.5,0.2,0.8s0.2,0.4,0.3,0.6s0.2,0.2,0.4,0.2c0.2,0,0.3-0.1,0.4-0.2s0.2-0.3,0.3-0.6s0.1-0.5,0.1-0.7s0-0.5,0-0.8
				c0-0.2,0-0.5-0.1-0.7s-0.1-0.5-0.2-0.7c-0.1-0.2-0.2-0.4-0.3-0.6C232.1,121.8,232,121.7,231.9,121.7z"/>
			<path fill="#1B1B1B" d="M244.5,123.1c0,0.2,0,0.4,0,0.8s0,0.7,0,1c0,0.4,0,0.7-0.1,1.1s-0.1,0.7-0.2,1c-0.1,0.3-0.2,0.6-0.4,0.7
				s-0.4,0.3-0.6,0.3c-0.2,0-0.4-0.1-0.5-0.3c-0.1-0.2-0.2-0.4-0.2-0.6s-0.1-0.5-0.1-0.7c0-0.3,0-0.5,0-0.6c0-0.4,0-0.9,0-1.3
				s0-0.8,0-1.3c0,0,0-0.1,0-0.3s0-0.3,0-0.4s-0.1-0.2-0.1-0.3c0-0.1-0.1-0.1-0.2-0.1c-0.2,0-0.3,0.1-0.4,0.3s-0.2,0.4-0.3,0.6
				s-0.1,0.5-0.1,0.7s0,0.4-0.1,0.5c0,0.1,0,0.3-0.1,0.6c0,0.3,0,0.5-0.1,0.8s-0.1,0.6-0.1,0.9s-0.1,0.6-0.2,0.9s-0.2,0.5-0.3,0.6
				c-0.1,0.2-0.3,0.2-0.5,0.2c-0.2,0-0.4-0.1-0.5-0.3c-0.1-0.2-0.2-0.4-0.3-0.7s-0.1-0.6-0.1-0.8c0-0.3,0-0.5,0-0.7
				c0-0.2,0-0.3,0-0.5s0-0.3,0-0.5c0-0.1,0-0.2,0-0.3s0-0.3,0-0.5s0-0.4,0-0.6c0-0.2,0-0.4-0.1-0.6s-0.1-0.3-0.1-0.4
				s-0.1-0.2-0.2-0.2c-0.1,0-0.2,0.1-0.4,0.2s-0.2,0.4-0.3,0.6s-0.1,0.4-0.2,0.7c0,0.2-0.1,0.4-0.1,0.5v0.1c0,0.5,0,0.9,0.1,1.4
				s0.1,0.9,0.1,1.4c0,0.3-0.1,0.5-0.3,0.8c-0.2,0.2-0.4,0.3-0.7,0.3c-0.2,0-0.4-0.1-0.6-0.3c-0.1-0.2-0.3-0.4-0.4-0.7
				s-0.2-0.6-0.2-0.9s-0.1-0.6-0.1-1s0-0.6,0-0.9s0-0.5,0-0.6c0-0.1,0-0.4,0-0.6c0-0.3,0-0.6,0-0.9c0-0.3,0-0.7,0.1-1
				s0.1-0.7,0.2-0.9s0.2-0.5,0.3-0.7s0.3-0.3,0.5-0.3c0.3,0,0.5,0.1,0.6,0.2c0.2,0.1,0.2,0.3,0.2,0.6c0,0.1,0,0.1,0,0.2s0,0.1,0,0.2
				c0.1-0.2,0.2-0.3,0.4-0.5s0.3-0.3,0.5-0.4s0.4-0.2,0.6-0.3s0.4-0.1,0.6-0.1c0.2,0,0.4,0.1,0.5,0.2s0.3,0.2,0.4,0.4
				s0.2,0.3,0.3,0.5s0.1,0.4,0.2,0.5c0.1-0.2,0.2-0.4,0.4-0.5c0.1-0.2,0.3-0.3,0.5-0.5s0.3-0.2,0.5-0.3s0.4-0.1,0.6-0.1
				c0.2,0,0.4,0.1,0.5,0.2s0.3,0.3,0.4,0.6s0.2,0.5,0.2,0.8s0.1,0.6,0.1,0.8s0.1,0.5,0.1,0.8S244.5,123,244.5,123.1z"/>
			<path fill="#1B1B1B" d="M252.2,123.6c0,0.4,0,0.9-0.1,1.4c-0.1,0.5-0.3,1-0.5,1.4c-0.2,0.4-0.5,0.8-0.9,1.1s-0.8,0.4-1.3,0.4
				c-0.1,0-0.3,0-0.4,0s-0.3-0.1-0.4-0.1c-0.1,0-0.3-0.1-0.4-0.2s-0.2-0.2-0.2-0.3l-0.1,2.1c0,0.2,0,0.5,0,0.8c0,0.3,0,0.6-0.1,0.9
				c-0.1,0.3-0.2,0.5-0.4,0.7s-0.4,0.3-0.7,0.3c-0.2,0-0.3-0.1-0.5-0.3s-0.2-0.4-0.3-0.7c-0.1-0.3-0.1-0.6-0.2-1s-0.1-0.7-0.1-1
				s0-0.6,0-0.9c0-0.3,0-0.5,0-0.6c0-0.7,0-1.3,0-2s0-1.3,0-2c0-0.1,0-0.3,0-0.5s0-0.5,0-0.8s0.1-0.6,0.1-0.9c0-0.3,0.1-0.6,0.2-0.9
				s0.2-0.5,0.3-0.6s0.3-0.2,0.5-0.2c0.1,0,0.2,0,0.3,0.1c0.1,0.1,0.2,0.2,0.3,0.3c0.1,0.1,0.1,0.2,0.2,0.4s0.1,0.2,0.1,0.4
				c0.3-0.3,0.7-0.6,1-0.8c0.4-0.2,0.8-0.3,1.3-0.3c0.5,0,0.9,0.1,1.2,0.4c0.3,0.3,0.5,0.6,0.7,1c0.2,0.4,0.3,0.8,0.4,1.3
				S252.2,123.2,252.2,123.6z M250.1,123.5c0-0.1,0-0.3,0-0.4c0-0.2-0.1-0.3-0.1-0.4s-0.2-0.2-0.3-0.3s-0.3-0.1-0.4-0.1
				c-0.2,0-0.5,0.1-0.7,0.2c-0.3,0.2-0.5,0.3-0.6,0.5c0,0.1-0.1,0.2-0.1,0.4s0,0.3,0,0.4c0,0.1,0,0.2,0,0.3c0,0.1,0,0.2,0,0.3
				s0,0.2,0,0.3c0,0.1,0,0.2,0.1,0.2c0,0.1,0.1,0.2,0.2,0.2s0.2,0.1,0.3,0.2s0.2,0.1,0.4,0.1c0.1,0,0.2,0,0.3,0
				c0.2,0,0.4-0.1,0.5-0.2s0.2-0.3,0.3-0.6c0.1-0.2,0.1-0.4,0.1-0.7C250.1,123.8,250.1,123.6,250.1,123.5z"/>
			<path fill="#1B1B1B" d="M255.8,119.1c0,0.5,0,1.1-0.1,1.6c0,0.5-0.1,1.1-0.1,1.6c0,0.7,0,1.4,0.1,2.1c0,0.7,0.1,1.4,0.1,2.1
				c0,0.2,0,0.4,0,0.6s-0.1,0.4-0.1,0.6c-0.1,0.2-0.2,0.3-0.3,0.5c-0.1,0.1-0.3,0.2-0.6,0.2c-0.2,0-0.4-0.1-0.6-0.3
				c-0.2-0.2-0.3-0.5-0.4-0.9c-0.1-0.4-0.2-0.8-0.3-1.2c-0.1-0.4-0.1-0.9-0.2-1.3c0-0.4-0.1-0.8-0.1-1.1c0-0.3,0-0.6,0-0.8
				c0-0.2,0-0.5,0-0.8c0-0.4,0-0.7,0.1-1.1s0.1-0.8,0.2-1.3s0.2-0.8,0.3-1.2s0.3-0.6,0.5-0.8c0.2-0.2,0.4-0.3,0.7-0.3
				c0.2,0,0.4,0.1,0.5,0.2s0.2,0.3,0.2,0.5s0.1,0.4,0.1,0.6S255.8,118.9,255.8,119.1z"/>
			<path fill="#1B1B1B" d="M263.1,125.3c0,0.3-0.1,0.7-0.3,1s-0.5,0.6-0.8,0.8s-0.7,0.4-1,0.6s-0.7,0.2-1,0.2c-0.5,0-1-0.1-1.4-0.4
				s-0.7-0.6-1-1s-0.5-0.8-0.6-1.3s-0.2-1-0.2-1.4c0-0.5,0.1-1,0.2-1.6s0.3-1.1,0.6-1.5c0.3-0.5,0.6-0.9,1.1-1.2
				c0.4-0.3,0.9-0.5,1.5-0.5c0.3,0,0.6,0.1,1,0.2s0.6,0.3,0.8,0.5s0.4,0.4,0.5,0.7s0.2,0.6,0.2,1c0,0.5-0.1,0.9-0.3,1.3
				s-0.5,0.7-0.8,1s-0.7,0.5-1.1,0.7s-0.8,0.3-1.3,0.3c0,0.3,0.2,0.5,0.3,0.6c0.2,0.1,0.4,0.2,0.7,0.2c0.2,0,0.4,0,0.6-0.1
				s0.4-0.2,0.5-0.3s0.3-0.2,0.5-0.3s0.3-0.1,0.5-0.1c0.2,0,0.4,0.1,0.5,0.2S263.1,125.1,263.1,125.3z M260.7,121.7
				c0-0.1,0-0.3-0.1-0.4s-0.2-0.2-0.3-0.2c-0.2,0-0.4,0.1-0.5,0.2s-0.3,0.3-0.4,0.4s-0.2,0.4-0.2,0.5c-0.1,0.2-0.1,0.4-0.1,0.5
				c0.1,0,0.3-0.1,0.5-0.1c0.2,0,0.4-0.1,0.5-0.2c0.2-0.1,0.3-0.2,0.4-0.3C260.7,122.1,260.7,121.9,260.7,121.7z"/>
			<path fill="#1B1B1B" d="M267.1,128.5c-0.7,0-1.2-0.1-1.6-0.3c-0.4-0.2-0.7-0.4-0.9-0.8c-0.2-0.3-0.3-0.7-0.3-1.2s-0.1-1-0.1-1.6
				c0-0.5,0-0.9,0-1.4s0.1-1,0.1-1.5c-0.1,0-0.2,0-0.3,0s-0.1,0-0.2,0c-0.3,0-0.6-0.1-0.8-0.2c-0.2-0.1-0.3-0.3-0.3-0.6
				c0-0.2,0.1-0.3,0.2-0.5c0.1-0.1,0.3-0.3,0.5-0.4s0.4-0.2,0.7-0.2s0.5-0.1,0.7-0.1c0-0.3,0-0.6,0.1-0.9s0.1-0.6,0.2-0.9
				c0.1-0.3,0.2-0.5,0.4-0.7s0.4-0.3,0.7-0.3c0.2,0,0.3,0,0.4,0.1s0.2,0.2,0.3,0.4s0.1,0.3,0.2,0.5s0.1,0.3,0.1,0.5
				c0,0.2,0,0.4,0,0.6s-0.1,0.5-0.2,0.8c0.2,0,0.3,0,0.3,0s0.1,0,0.2,0c0.2,0,0.3,0,0.5,0s0.3,0.1,0.5,0.1s0.3,0.2,0.4,0.3
				s0.1,0.2,0.1,0.4c0,0.2-0.1,0.3-0.2,0.5c-0.1,0.1-0.3,0.3-0.5,0.4s-0.4,0.2-0.7,0.2s-0.5,0.1-0.7,0.1c-0.1,0.4-0.1,0.8-0.1,1.1
				s-0.1,0.7-0.1,1c0,0.2,0,0.3-0.1,0.5c0,0.2,0,0.3,0,0.5c0,0.1,0,0.3,0,0.4s0,0.3,0.1,0.5s0.2,0.3,0.3,0.4s0.3,0.2,0.5,0.2
				c0.1,0,0.3,0,0.4,0s0.3,0,0.4,0c0.3,0,0.4,0.1,0.5,0.3c0.1,0.2,0.2,0.4,0.2,0.7c0,0.2-0.1,0.4-0.2,0.5s-0.3,0.3-0.5,0.4
				s-0.4,0.2-0.6,0.2S267.3,128.5,267.1,128.5z"/>
			<path fill="#1B1B1B" d="M275.5,125.9c0,0.2,0,0.4,0,0.7c0,0.3-0.1,0.6-0.1,0.8s-0.2,0.5-0.3,0.7c-0.1,0.2-0.4,0.3-0.6,0.3
				c-0.4,0-0.6-0.1-0.8-0.4c-0.2-0.2-0.3-0.5-0.3-0.9c-0.3,0.3-0.7,0.5-1.1,0.6c-0.4,0.2-0.8,0.2-1.2,0.2c-0.3,0-0.6-0.1-0.8-0.2
				s-0.5-0.3-0.7-0.5s-0.4-0.5-0.5-0.7s-0.2-0.5-0.2-0.8c0-0.5,0.1-0.9,0.4-1.2c0.3-0.4,0.6-0.7,1.1-0.9s0.9-0.4,1.3-0.6
				c0.5-0.1,0.9-0.2,1.3-0.3c0,0,0-0.1,0-0.1s0-0.1,0-0.1c0-0.3-0.1-0.5-0.2-0.7s-0.4-0.3-0.7-0.3c-0.2,0-0.5,0-0.6,0.1
				s-0.3,0.2-0.5,0.3s-0.3,0.2-0.5,0.3s-0.3,0.1-0.5,0.1c-0.2,0-0.4-0.1-0.5-0.2c-0.2-0.1-0.2-0.3-0.2-0.5c0-0.3,0.1-0.6,0.3-0.9
				c0.2-0.3,0.4-0.5,0.7-0.7s0.6-0.3,0.9-0.4c0.3-0.1,0.6-0.2,0.9-0.2c0.3,0,0.5,0,0.8,0.1s0.5,0.2,0.7,0.3s0.4,0.3,0.6,0.5
				c0.2,0.2,0.3,0.4,0.5,0.7c0.2,0.4,0.3,0.7,0.4,1.1s0.2,0.8,0.2,1.2s0.1,0.8,0.1,1.3S275.5,125.5,275.5,125.9z M273.2,125.4l0-1
				c0,0,0,0-0.1,0s0,0-0.1,0c-0.1,0-0.3,0-0.5,0.1c-0.2,0.1-0.4,0.2-0.5,0.3s-0.3,0.2-0.4,0.4s-0.2,0.3-0.2,0.4c0,0.1,0,0.2,0.1,0.3
				s0.2,0.1,0.3,0.1c0.2,0,0.4-0.1,0.7-0.2S273,125.5,273.2,125.4z"/>
			<path fill="#1B1B1B" d="M280.7,119.9c0,0.3-0.1,0.5-0.3,0.6c-0.2,0.1-0.4,0.3-0.6,0.4s-0.4,0.3-0.6,0.4c-0.2,0.2-0.3,0.4-0.3,0.7
				c0,0.2,0,0.3,0.1,0.5s0.2,0.2,0.3,0.3c0.1,0.1,0.3,0.2,0.4,0.3s0.3,0.2,0.4,0.4s0.2,0.3,0.3,0.5c0.1,0.2,0.1,0.4,0.1,0.7
				c0,0.4-0.1,0.8-0.3,1.2s-0.5,0.7-0.8,1.1c-0.3,0.3-0.7,0.6-1.1,0.7s-0.8,0.3-1.2,0.3c-0.2,0-0.3,0-0.5,0c-0.2,0-0.3-0.1-0.4-0.1
				c-0.1-0.1-0.2-0.2-0.3-0.3s-0.1-0.3-0.1-0.5c0-0.3,0.1-0.5,0.2-0.6s0.2-0.3,0.4-0.4s0.3-0.2,0.5-0.2c0.2,0,0.4-0.1,0.5-0.2
				s0.3-0.2,0.4-0.3s0.2-0.3,0.2-0.5c0-0.2-0.1-0.4-0.2-0.6c-0.2-0.2-0.3-0.5-0.5-0.7s-0.4-0.5-0.5-0.8c-0.2-0.3-0.2-0.6-0.2-0.9
				c0-0.4,0.1-0.8,0.3-1.2c0.2-0.4,0.4-0.7,0.7-0.9s0.6-0.5,1-0.6s0.8-0.2,1.2-0.2c0.2,0,0.3,0,0.5,0c0.2,0,0.3,0.1,0.4,0.2
				s0.2,0.2,0.3,0.3C280.7,119.5,280.7,119.7,280.7,119.9z"/>
			<path fill="#1B1B1B" d="M284.7,128.5c-0.7,0-1.2-0.1-1.6-0.3c-0.4-0.2-0.7-0.4-0.9-0.8c-0.2-0.3-0.3-0.7-0.3-1.2s-0.1-1-0.1-1.6
				c0-0.5,0-0.9,0-1.4s0.1-1,0.1-1.5c-0.1,0-0.2,0-0.3,0s-0.1,0-0.2,0c-0.3,0-0.6-0.1-0.8-0.2c-0.2-0.1-0.3-0.3-0.3-0.6
				c0-0.2,0.1-0.3,0.2-0.5c0.1-0.1,0.3-0.3,0.5-0.4s0.4-0.2,0.7-0.2s0.5-0.1,0.7-0.1c0-0.3,0-0.6,0.1-0.9s0.1-0.6,0.2-0.9
				c0.1-0.3,0.2-0.5,0.4-0.7s0.4-0.3,0.7-0.3c0.2,0,0.3,0,0.4,0.1s0.2,0.2,0.3,0.4s0.1,0.3,0.2,0.5s0.1,0.3,0.1,0.5
				c0,0.2,0,0.4,0,0.6s-0.1,0.5-0.2,0.8c0.2,0,0.3,0,0.3,0s0.1,0,0.2,0c0.2,0,0.3,0,0.5,0s0.3,0.1,0.5,0.1s0.3,0.2,0.4,0.3
				s0.1,0.2,0.1,0.4c0,0.2-0.1,0.3-0.2,0.5c-0.1,0.1-0.3,0.3-0.5,0.4s-0.4,0.2-0.7,0.2s-0.5,0.1-0.7,0.1c-0.1,0.4-0.1,0.8-0.1,1.1
				s-0.1,0.7-0.1,1c0,0.2,0,0.3-0.1,0.5c0,0.2,0,0.3,0,0.5c0,0.1,0,0.3,0,0.4s0,0.3,0.1,0.5s0.2,0.3,0.3,0.4s0.3,0.2,0.5,0.2
				c0.1,0,0.3,0,0.4,0s0.3,0,0.4,0c0.3,0,0.4,0.1,0.5,0.3c0.1,0.2,0.2,0.4,0.2,0.7c0,0.2-0.1,0.4-0.2,0.5s-0.3,0.3-0.5,0.4
				s-0.4,0.2-0.6,0.2S284.9,128.5,284.7,128.5z"/>
			<path fill="#1B1B1B" d="M293,125.3c0,0.3-0.1,0.7-0.3,1s-0.5,0.6-0.8,0.8s-0.7,0.4-1,0.6s-0.7,0.2-1,0.2c-0.5,0-1-0.1-1.4-0.4
				s-0.7-0.6-1-1s-0.5-0.8-0.6-1.3s-0.2-1-0.2-1.4c0-0.5,0.1-1,0.2-1.6s0.3-1.1,0.6-1.5c0.3-0.5,0.6-0.9,1.1-1.2
				c0.4-0.3,0.9-0.5,1.5-0.5c0.3,0,0.6,0.1,1,0.2s0.6,0.3,0.8,0.5s0.4,0.4,0.5,0.7s0.2,0.6,0.2,1c0,0.5-0.1,0.9-0.3,1.3
				s-0.5,0.7-0.8,1s-0.7,0.5-1.1,0.7s-0.8,0.3-1.3,0.3c0,0.3,0.2,0.5,0.3,0.6c0.2,0.1,0.4,0.2,0.7,0.2c0.2,0,0.4,0,0.6-0.1
				s0.4-0.2,0.5-0.3s0.3-0.2,0.5-0.3s0.3-0.1,0.5-0.1c0.2,0,0.4,0.1,0.5,0.2S293,125.1,293,125.3z M290.7,121.7c0-0.1,0-0.3-0.1-0.4
				s-0.2-0.2-0.3-0.2c-0.2,0-0.4,0.1-0.5,0.2s-0.3,0.3-0.4,0.4s-0.2,0.4-0.2,0.5c-0.1,0.2-0.1,0.4-0.1,0.5c0.1,0,0.3-0.1,0.5-0.1
				c0.2,0,0.4-0.1,0.5-0.2c0.2-0.1,0.3-0.2,0.4-0.3C290.6,122.1,290.7,121.9,290.7,121.7z"/>
			<path fill="#1B1B1B" d="M299.9,119.1c0,0.5,0,1.1-0.1,1.6c0,0.5-0.1,1.1-0.1,1.6c0,0.7,0,1.4,0.1,2.1c0,0.7,0.1,1.4,0.1,2.1
				c0,0.2,0,0.4,0,0.6s-0.1,0.4-0.1,0.6c-0.1,0.2-0.2,0.3-0.3,0.5c-0.1,0.1-0.3,0.2-0.6,0.2c-0.2,0-0.4-0.1-0.6-0.3
				c-0.2-0.2-0.3-0.5-0.4-0.9c-0.1-0.4-0.2-0.8-0.3-1.2c-0.1-0.4-0.1-0.9-0.2-1.3c0-0.4-0.1-0.8-0.1-1.1c0-0.3,0-0.6,0-0.8
				c0-0.2,0-0.5,0-0.8c0-0.4,0-0.7,0.1-1.1s0.1-0.8,0.2-1.3s0.2-0.8,0.3-1.2s0.3-0.6,0.5-0.8c0.2-0.2,0.4-0.3,0.7-0.3
				c0.2,0,0.4,0.1,0.5,0.2s0.2,0.3,0.2,0.5s0.1,0.4,0.1,0.6S299.9,118.9,299.9,119.1z"/>
			<path fill="#1B1B1B" d="M307.2,125.9c0,0.2,0,0.4,0,0.7c0,0.3-0.1,0.6-0.1,0.8s-0.2,0.5-0.3,0.7c-0.1,0.2-0.4,0.3-0.6,0.3
				c-0.4,0-0.6-0.1-0.8-0.4c-0.2-0.2-0.3-0.5-0.3-0.9c-0.3,0.3-0.7,0.5-1.1,0.6c-0.4,0.2-0.8,0.2-1.2,0.2c-0.3,0-0.6-0.1-0.8-0.2
				s-0.5-0.3-0.7-0.5s-0.4-0.5-0.5-0.7s-0.2-0.5-0.2-0.8c0-0.5,0.1-0.9,0.4-1.2c0.3-0.4,0.6-0.7,1.1-0.9s0.9-0.4,1.3-0.6
				c0.5-0.1,0.9-0.2,1.3-0.3c0,0,0-0.1,0-0.1s0-0.1,0-0.1c0-0.3-0.1-0.5-0.2-0.7s-0.4-0.3-0.7-0.3c-0.2,0-0.5,0-0.6,0.1
				s-0.3,0.2-0.5,0.3s-0.3,0.2-0.5,0.3s-0.3,0.1-0.5,0.1c-0.2,0-0.4-0.1-0.5-0.2c-0.2-0.1-0.2-0.3-0.2-0.5c0-0.3,0.1-0.6,0.3-0.9
				c0.2-0.3,0.4-0.5,0.7-0.7s0.6-0.3,0.9-0.4c0.3-0.1,0.6-0.2,0.9-0.2c0.3,0,0.5,0,0.8,0.1s0.5,0.2,0.7,0.3s0.4,0.3,0.6,0.5
				c0.2,0.2,0.3,0.4,0.5,0.7c0.2,0.4,0.3,0.7,0.4,1.1s0.2,0.8,0.2,1.2s0.1,0.8,0.1,1.3S307.2,125.5,307.2,125.9z M304.9,125.4l0-1
				c0,0,0,0-0.1,0s0,0-0.1,0c-0.1,0-0.3,0-0.5,0.1c-0.2,0.1-0.4,0.2-0.5,0.3s-0.3,0.2-0.4,0.4s-0.2,0.3-0.2,0.4c0,0.1,0,0.2,0.1,0.3
				s0.2,0.1,0.3,0.1c0.2,0,0.4-0.1,0.7-0.2S304.7,125.5,304.9,125.4z"/>
			<path fill="#1B1B1B" d="M317.9,125.9c0,0.2,0,0.4,0,0.7c0,0.3-0.1,0.6-0.1,0.8s-0.2,0.5-0.3,0.7c-0.1,0.2-0.4,0.3-0.6,0.3
				c-0.4,0-0.6-0.1-0.8-0.4c-0.2-0.2-0.3-0.5-0.3-0.9c-0.3,0.3-0.7,0.5-1.1,0.6c-0.4,0.2-0.8,0.2-1.2,0.2c-0.3,0-0.6-0.1-0.8-0.2
				s-0.5-0.3-0.7-0.5s-0.4-0.5-0.5-0.7s-0.2-0.5-0.2-0.8c0-0.5,0.1-0.9,0.4-1.2c0.3-0.4,0.6-0.7,1.1-0.9s0.9-0.4,1.3-0.6
				c0.5-0.1,0.9-0.2,1.3-0.3c0,0,0-0.1,0-0.1s0-0.1,0-0.1c0-0.3-0.1-0.5-0.2-0.7s-0.4-0.3-0.7-0.3c-0.2,0-0.5,0-0.6,0.1
				s-0.3,0.2-0.5,0.3s-0.3,0.2-0.5,0.3s-0.3,0.1-0.5,0.1c-0.2,0-0.4-0.1-0.5-0.2c-0.2-0.1-0.2-0.3-0.2-0.5c0-0.3,0.1-0.6,0.3-0.9
				c0.2-0.3,0.4-0.5,0.7-0.7s0.6-0.3,0.9-0.4c0.3-0.1,0.6-0.2,0.9-0.2c0.3,0,0.5,0,0.8,0.1s0.5,0.2,0.7,0.3s0.4,0.3,0.6,0.5
				c0.2,0.2,0.3,0.4,0.5,0.7c0.2,0.4,0.3,0.7,0.4,1.1s0.2,0.8,0.2,1.2s0.1,0.8,0.1,1.3S317.9,125.5,317.9,125.9z M315.5,125.4l0-1
				c0,0,0,0-0.1,0s0,0-0.1,0c-0.1,0-0.3,0-0.5,0.1c-0.2,0.1-0.4,0.2-0.5,0.3s-0.3,0.2-0.4,0.4s-0.2,0.3-0.2,0.4c0,0.1,0,0.2,0.1,0.3
				s0.2,0.1,0.3,0.1c0.2,0,0.4-0.1,0.7-0.2S315.3,125.5,315.5,125.4z"/>
			<path fill="#1B1B1B" d="M324.2,122.3c0,0,0,0.1,0,0.2s0,0.1,0,0.2c-0.1,0.2-0.2,0.4-0.4,0.6s-0.4,0.2-0.7,0.2
				c-0.4,0-0.6-0.2-0.8-0.6c0,0,0-0.1,0-0.2s0-0.1,0-0.2V122c0-0.1-0.1-0.2-0.1-0.3s-0.1-0.1-0.2-0.1c-0.2,0-0.3,0.1-0.5,0.3
				s-0.3,0.5-0.4,0.7c-0.1,0.3-0.2,0.6-0.3,0.9s-0.1,0.5-0.1,0.7c0,0.1,0,0.3,0,0.5s0.1,0.4,0.1,0.6s0.1,0.4,0.2,0.5
				c0.1,0.1,0.2,0.2,0.4,0.2s0.3-0.1,0.5-0.2c0.1-0.1,0.3-0.2,0.4-0.4c0.1-0.1,0.3-0.2,0.4-0.4s0.3-0.2,0.5-0.2
				c0.2,0,0.4,0.1,0.6,0.3c0.1,0.2,0.2,0.4,0.2,0.6c0,0.3-0.1,0.6-0.3,0.9s-0.4,0.5-0.7,0.7s-0.6,0.4-0.9,0.5
				c-0.3,0.1-0.6,0.2-0.9,0.2c-0.5,0-1-0.1-1.3-0.4c-0.4-0.3-0.7-0.6-0.9-1s-0.4-0.8-0.5-1.3s-0.1-0.9-0.1-1.4c0-0.5,0.1-1,0.2-1.6
				s0.3-1.1,0.6-1.6s0.6-0.9,1.1-1.2s1-0.5,1.6-0.5c0.4,0,0.7,0.1,1,0.2c0.3,0.2,0.5,0.4,0.7,0.7c0.2,0.3,0.3,0.6,0.4,0.9
				c0.1,0.3,0.1,0.7,0.1,1c0,0,0,0.1,0,0.1S324.2,122.3,324.2,122.3z"/>
			<path fill="#1B1B1B" d="M328.4,128.5c-0.7,0-1.2-0.1-1.6-0.3c-0.4-0.2-0.7-0.4-0.9-0.8c-0.2-0.3-0.3-0.7-0.3-1.2s-0.1-1-0.1-1.6
				c0-0.5,0-0.9,0-1.4s0.1-1,0.1-1.5c-0.1,0-0.2,0-0.3,0s-0.1,0-0.2,0c-0.3,0-0.6-0.1-0.8-0.2c-0.2-0.1-0.3-0.3-0.3-0.6
				c0-0.2,0.1-0.3,0.2-0.5c0.1-0.1,0.3-0.3,0.5-0.4s0.4-0.2,0.7-0.2s0.5-0.1,0.7-0.1c0-0.3,0-0.6,0.1-0.9s0.1-0.6,0.2-0.9
				c0.1-0.3,0.2-0.5,0.4-0.7s0.4-0.3,0.7-0.3c0.2,0,0.3,0,0.4,0.1s0.2,0.2,0.3,0.4s0.1,0.3,0.2,0.5s0.1,0.3,0.1,0.5
				c0,0.2,0,0.4,0,0.6s-0.1,0.5-0.2,0.8c0.2,0,0.3,0,0.3,0s0.1,0,0.2,0c0.2,0,0.3,0,0.5,0s0.3,0.1,0.5,0.1s0.3,0.2,0.4,0.3
				s0.1,0.2,0.1,0.4c0,0.2-0.1,0.3-0.2,0.5c-0.1,0.1-0.3,0.3-0.5,0.4s-0.4,0.2-0.7,0.2s-0.5,0.1-0.7,0.1c-0.1,0.4-0.1,0.8-0.1,1.1
				s-0.1,0.7-0.1,1c0,0.2,0,0.3-0.1,0.5c0,0.2,0,0.3,0,0.5c0,0.1,0,0.3,0,0.4s0,0.3,0.1,0.5s0.2,0.3,0.3,0.4s0.3,0.2,0.5,0.2
				c0.1,0,0.3,0,0.4,0s0.3,0,0.4,0c0.3,0,0.4,0.1,0.5,0.3c0.1,0.2,0.2,0.4,0.2,0.7c0,0.2-0.1,0.4-0.2,0.5s-0.3,0.3-0.5,0.4
				s-0.4,0.2-0.6,0.2S328.6,128.5,328.4,128.5z"/>
			<path fill="#1B1B1B" d="M333.2,122.7c0,0.1,0,0.3,0,0.4s0,0.3,0,0.4c0,0.2,0,0.4,0,0.7s0,0.6,0,0.9s-0.1,0.6-0.1,1
				c0,0.3-0.1,0.6-0.2,0.9s-0.2,0.5-0.4,0.7c-0.2,0.2-0.4,0.3-0.6,0.3c-0.2,0-0.3-0.1-0.5-0.2s-0.2-0.4-0.3-0.6
				c-0.1-0.2-0.1-0.5-0.2-0.8s-0.1-0.6-0.1-0.9s0-0.6,0-0.8s0-0.4,0-0.5c0-0.2,0-0.4,0-0.7s0-0.6,0-0.9s0.1-0.7,0.1-1
				s0.1-0.7,0.2-0.9c0.1-0.3,0.2-0.5,0.4-0.7s0.4-0.3,0.6-0.3c0.3,0,0.5,0.1,0.6,0.4s0.2,0.6,0.3,0.9s0.1,0.7,0.1,1
				S333.2,122.5,333.2,122.7z M333,117.7c0,0.1,0,0.3-0.1,0.4c-0.1,0.1-0.2,0.2-0.3,0.3s-0.2,0.1-0.4,0.2s-0.3,0.1-0.4,0.1
				c-0.2,0-0.4,0-0.5-0.1s-0.2-0.2-0.2-0.5c0-0.1,0-0.3,0.1-0.4c0.1-0.1,0.2-0.2,0.3-0.3s0.2-0.1,0.4-0.2s0.3-0.1,0.4-0.1
				c0.2,0,0.4,0,0.5,0.1S333,117.5,333,117.7z"/>
			<path fill="#1B1B1B" d="M340.5,122.7c-0.3,0.7-0.5,1.4-0.8,2.1s-0.6,1.4-1,2.1c-0.2,0.4-0.5,0.7-0.7,1c-0.3,0.3-0.6,0.4-0.9,0.4
				c-0.3,0-0.5-0.1-0.8-0.4c-0.3-0.3-0.5-0.6-0.7-1c-0.2-0.4-0.4-0.8-0.6-1.2c-0.2-0.4-0.3-0.7-0.4-0.9c-0.1-0.3-0.2-0.5-0.3-0.8
				s-0.2-0.6-0.3-0.9s-0.1-0.6-0.2-0.9s-0.1-0.6-0.1-0.9c0-0.4,0.1-0.7,0.2-0.9s0.4-0.4,0.8-0.4c0.2,0,0.3,0,0.4,0.1
				s0.2,0.2,0.4,0.4s0.2,0.4,0.3,0.6s0.2,0.5,0.3,0.7c0.1,0.3,0.2,0.5,0.2,0.8s0.2,0.5,0.2,0.8s0.2,0.5,0.2,0.7
				c0.1,0.2,0.2,0.5,0.3,0.7c0.1-0.2,0.1-0.4,0.2-0.6s0.2-0.5,0.3-0.7c0.1-0.3,0.2-0.5,0.3-0.8s0.2-0.5,0.4-0.8
				c0.3-0.5,0.5-1,0.8-1.3c0.3-0.4,0.6-0.6,0.9-0.6c0.3,0,0.5,0.1,0.6,0.2s0.2,0.4,0.2,0.6s0,0.6-0.1,0.9S340.7,122.3,340.5,122.7z"
				/>
			<path fill="#1B1B1B" d="M344,122.7c0,0.1,0,0.3,0,0.4s0,0.3,0,0.4c0,0.2,0,0.4,0,0.7s0,0.6,0,0.9s-0.1,0.6-0.1,1
				c0,0.3-0.1,0.6-0.2,0.9s-0.2,0.5-0.4,0.7c-0.2,0.2-0.4,0.3-0.6,0.3c-0.2,0-0.3-0.1-0.5-0.2s-0.2-0.4-0.3-0.6
				c-0.1-0.2-0.1-0.5-0.2-0.8s-0.1-0.6-0.1-0.9s0-0.6,0-0.8s0-0.4,0-0.5c0-0.2,0-0.4,0-0.7s0-0.6,0-0.9s0.1-0.7,0.1-1
				s0.1-0.7,0.2-0.9c0.1-0.3,0.2-0.5,0.4-0.7s0.4-0.3,0.6-0.3c0.3,0,0.5,0.1,0.6,0.4s0.2,0.6,0.3,0.9s0.1,0.7,0.1,1
				S344,122.5,344,122.7z M343.9,117.7c0,0.1,0,0.3-0.1,0.4c-0.1,0.1-0.2,0.2-0.3,0.3s-0.2,0.1-0.4,0.2s-0.3,0.1-0.4,0.1
				c-0.2,0-0.4,0-0.5-0.1s-0.2-0.2-0.2-0.5c0-0.1,0-0.3,0.1-0.4c0.1-0.1,0.2-0.2,0.3-0.3s0.2-0.1,0.4-0.2s0.3-0.1,0.4-0.1
				c0.2,0,0.4,0,0.5,0.1S343.9,117.5,343.9,117.7z"/>
			<path fill="#1B1B1B" d="M351.4,118.3c0,0.7,0,1.4-0.1,2.1s-0.1,1.4-0.1,2.1c0,0.6,0,1.1,0.1,1.7s0.1,1.1,0.1,1.7
				c0,0.2,0,0.3,0,0.6s0,0.4-0.1,0.6s-0.1,0.4-0.3,0.5s-0.3,0.2-0.5,0.2c-0.3,0-0.5-0.1-0.7-0.3c-0.2-0.2-0.3-0.5-0.4-0.7
				c-0.2,0.4-0.5,0.6-0.8,0.9s-0.7,0.4-1.1,0.4c-0.4,0-0.8-0.2-1.1-0.5s-0.6-0.7-0.8-1.1s-0.4-0.9-0.5-1.3c-0.1-0.5-0.2-0.9-0.2-1.2
				c0-0.2,0-0.5,0-0.8s0.1-0.6,0.2-1c0.1-0.3,0.2-0.6,0.3-0.9s0.3-0.6,0.4-0.8c0.2-0.2,0.4-0.4,0.6-0.6c0.2-0.1,0.5-0.2,0.9-0.2
				c0.4,0,0.7,0.1,1,0.3s0.6,0.5,0.7,0.8l0.1-2.3c0-0.2,0-0.4,0-0.7s0.1-0.5,0.1-0.7c0.1-0.2,0.2-0.4,0.3-0.6s0.3-0.2,0.6-0.2
				c0.3,0,0.5,0.1,0.7,0.2s0.3,0.3,0.3,0.5c0.1,0.2,0.1,0.4,0.1,0.7C351.4,117.9,351.4,118.1,351.4,118.3z M349,124.8
				c0-0.2,0-0.4,0-0.7s0-0.4,0-0.7c-0.1-0.1-0.1-0.3-0.2-0.4s-0.2-0.3-0.3-0.4s-0.2-0.2-0.4-0.3s-0.3-0.1-0.4-0.1
				c-0.2,0-0.3,0.1-0.4,0.2s-0.2,0.2-0.2,0.4s-0.1,0.3-0.1,0.5c0,0.2,0,0.3,0,0.5c0,0.1,0,0.3,0,0.5s0.1,0.5,0.1,0.7
				c0.1,0.2,0.1,0.4,0.2,0.6s0.2,0.3,0.4,0.3c0.1,0,0.3,0,0.4-0.1s0.2-0.1,0.4-0.2s0.2-0.2,0.3-0.3c0.1-0.1,0.2-0.2,0.3-0.3V124.8z"
				/>
			<path fill="#1B1B1B" d="M358.6,125.9c0,0.2,0,0.4,0,0.7c0,0.3-0.1,0.6-0.1,0.8s-0.2,0.5-0.3,0.7c-0.1,0.2-0.4,0.3-0.6,0.3
				c-0.4,0-0.6-0.1-0.8-0.4c-0.2-0.2-0.3-0.5-0.3-0.9c-0.3,0.3-0.7,0.5-1.1,0.6c-0.4,0.2-0.8,0.2-1.2,0.2c-0.3,0-0.6-0.1-0.8-0.2
				s-0.5-0.3-0.7-0.5s-0.4-0.5-0.5-0.7s-0.2-0.5-0.2-0.8c0-0.5,0.1-0.9,0.4-1.2c0.3-0.4,0.6-0.7,1.1-0.9s0.9-0.4,1.3-0.6
				c0.5-0.1,0.9-0.2,1.3-0.3c0,0,0-0.1,0-0.1s0-0.1,0-0.1c0-0.3-0.1-0.5-0.2-0.7s-0.4-0.3-0.7-0.3c-0.2,0-0.5,0-0.6,0.1
				s-0.3,0.2-0.5,0.3s-0.3,0.2-0.5,0.3s-0.3,0.1-0.5,0.1c-0.2,0-0.4-0.1-0.5-0.2c-0.2-0.1-0.2-0.3-0.2-0.5c0-0.3,0.1-0.6,0.3-0.9
				c0.2-0.3,0.4-0.5,0.7-0.7s0.6-0.3,0.9-0.4c0.3-0.1,0.6-0.2,0.9-0.2c0.3,0,0.5,0,0.8,0.1s0.5,0.2,0.7,0.3s0.4,0.3,0.6,0.5
				c0.2,0.2,0.3,0.4,0.5,0.7c0.2,0.4,0.3,0.7,0.4,1.1s0.2,0.8,0.2,1.2s0.1,0.8,0.1,1.3S358.6,125.5,358.6,125.9z M356.2,125.4l0-1
				c0,0,0,0-0.1,0s0,0-0.1,0c-0.1,0-0.3,0-0.5,0.1c-0.2,0.1-0.4,0.2-0.5,0.3s-0.3,0.2-0.4,0.4s-0.2,0.3-0.2,0.4c0,0.1,0,0.2,0.1,0.3
				s0.2,0.1,0.3,0.1c0.2,0,0.4-0.1,0.7-0.2S356.1,125.5,356.2,125.4z"/>
			<path fill="#1B1B1B" d="M365.8,118.3c0,0.7,0,1.4-0.1,2.1s-0.1,1.4-0.1,2.1c0,0.6,0,1.1,0.1,1.7s0.1,1.1,0.1,1.7
				c0,0.2,0,0.3,0,0.6s0,0.4-0.1,0.6s-0.1,0.4-0.3,0.5s-0.3,0.2-0.5,0.2c-0.3,0-0.5-0.1-0.7-0.3c-0.2-0.2-0.3-0.5-0.4-0.7
				c-0.2,0.4-0.5,0.6-0.8,0.9s-0.7,0.4-1.1,0.4c-0.4,0-0.8-0.2-1.1-0.5s-0.6-0.7-0.8-1.1s-0.4-0.9-0.5-1.3c-0.1-0.5-0.2-0.9-0.2-1.2
				c0-0.2,0-0.5,0-0.8s0.1-0.6,0.2-1c0.1-0.3,0.2-0.6,0.3-0.9s0.3-0.6,0.4-0.8c0.2-0.2,0.4-0.4,0.6-0.6c0.2-0.1,0.5-0.2,0.9-0.2
				c0.4,0,0.7,0.1,1,0.3s0.6,0.5,0.7,0.8l0.1-2.3c0-0.2,0-0.4,0-0.7s0.1-0.5,0.1-0.7c0.1-0.2,0.2-0.4,0.3-0.6s0.3-0.2,0.6-0.2
				c0.3,0,0.5,0.1,0.7,0.2s0.3,0.3,0.3,0.5c0.1,0.2,0.1,0.4,0.1,0.7C365.8,117.9,365.8,118.1,365.8,118.3z M363.4,124.8
				c0-0.2,0-0.4,0-0.7s0-0.4,0-0.7c-0.1-0.1-0.1-0.3-0.2-0.4s-0.2-0.3-0.3-0.4s-0.2-0.2-0.4-0.3s-0.3-0.1-0.4-0.1
				c-0.2,0-0.3,0.1-0.4,0.2s-0.2,0.2-0.2,0.4s-0.1,0.3-0.1,0.5c0,0.2,0,0.3,0,0.5c0,0.1,0,0.3,0,0.5s0.1,0.5,0.1,0.7
				c0.1,0.2,0.1,0.4,0.2,0.6s0.2,0.3,0.4,0.3c0.1,0,0.3,0,0.4-0.1s0.2-0.1,0.4-0.2s0.2-0.2,0.3-0.3c0.1-0.1,0.2-0.2,0.3-0.3V124.8z"
				/>
			<path fill="#E53835" d="M236.1,136.9c0,0.2-0.1,0.4-0.2,0.6c-0.1,0.2-0.3,0.3-0.5,0.4c-0.2,0.1-0.4,0.2-0.5,0.3s-0.4,0.3-0.5,0.4
				s-0.3,0.3-0.4,0.5s-0.1,0.4-0.1,0.6c0,0.2,0,0.4,0.1,0.6s0.2,0.3,0.4,0.5c0.1,0.2,0.3,0.3,0.5,0.5c0.2,0.2,0.3,0.4,0.5,0.6
				c0.1,0.2,0.3,0.4,0.4,0.7s0.1,0.6,0.1,0.9c0,0.2-0.1,0.5-0.2,0.8c-0.1,0.3-0.2,0.6-0.4,0.9s-0.4,0.6-0.6,0.9s-0.5,0.6-0.8,0.8
				s-0.5,0.4-0.8,0.6s-0.6,0.2-0.8,0.2c-0.3,0-0.6-0.1-0.8-0.2s-0.4-0.4-0.4-0.7c0-0.2,0.1-0.4,0.2-0.6s0.2-0.4,0.4-0.5
				s0.3-0.3,0.5-0.5c0.2-0.2,0.4-0.3,0.5-0.5s0.3-0.3,0.4-0.5s0.2-0.4,0.2-0.6c0-0.3-0.1-0.6-0.3-0.9s-0.4-0.6-0.7-0.9
				s-0.5-0.6-0.7-1c-0.2-0.3-0.3-0.7-0.3-1c0-0.4,0.1-0.9,0.3-1.3s0.5-0.9,0.9-1.3s0.7-0.7,1.2-1s0.9-0.4,1.3-0.4
				c0.3,0,0.6,0.1,0.9,0.3S236.1,136.5,236.1,136.9z"/>
			<path fill="#E53835" d="M243.9,145c0,0.2,0,0.4-0.1,0.7s-0.1,0.5-0.2,0.8s-0.2,0.5-0.4,0.6s-0.4,0.3-0.7,0.3
				c-0.4,0-0.6-0.1-0.8-0.4c-0.2-0.3-0.3-0.6-0.4-0.9s-0.1-0.7-0.1-1.1c0-0.4,0-0.7,0-0.9c-0.7,0.1-1.4,0.2-2.1,0.3
				c0,0.2-0.1,0.5-0.1,0.8s-0.2,0.7-0.3,1c-0.1,0.3-0.3,0.6-0.5,0.8c-0.2,0.2-0.5,0.3-0.8,0.3c-0.2,0-0.4-0.1-0.5-0.3
				c-0.1-0.2-0.2-0.4-0.3-0.6s-0.1-0.5-0.1-0.7c0-0.2,0-0.5,0-0.6c0-0.6,0-1.1,0.1-1.6s0.2-1.1,0.3-1.6c0.1-0.3,0.1-0.6,0.2-1
				s0.2-0.8,0.4-1.2c0.1-0.4,0.3-0.8,0.5-1.2c0.2-0.4,0.4-0.7,0.7-1.1s0.5-0.6,0.8-0.8s0.7-0.3,1-0.3c0.4,0,0.7,0.1,1,0.2
				s0.5,0.4,0.7,0.7s0.4,0.6,0.5,0.9s0.3,0.7,0.3,1.1c0.1,0.4,0.2,0.7,0.2,1c0.1,0.3,0.1,0.6,0.2,0.9c0.1,0.6,0.2,1.3,0.3,1.9
				S243.9,144.3,243.9,145z M241.1,141.4c0-0.1,0-0.3,0-0.6c0-0.3,0-0.5-0.1-0.8s-0.1-0.5-0.2-0.7c-0.1-0.2-0.2-0.3-0.4-0.3
				c-0.1,0-0.2,0.1-0.3,0.2s-0.2,0.3-0.2,0.5s-0.1,0.4-0.2,0.7c-0.1,0.2-0.1,0.5-0.1,0.7s-0.1,0.4-0.1,0.6s0,0.3,0,0.4
				c0.6,0,1.2-0.1,1.7-0.2V141.4z"/>
			<path fill="#E53835" d="M251,137.1c0,0.2-0.1,0.5-0.3,0.7c-0.2,0.2-0.4,0.4-0.7,0.5c-0.3,0.2-0.5,0.3-0.8,0.4s-0.5,0.2-0.7,0.2
				c-0.1,0.8-0.1,1.5-0.2,2.2c0,0.7-0.1,1.5-0.1,2.2c0,0.4,0,0.8,0,1.2s0,0.8,0,1.2c0,0.2,0,0.4-0.1,0.6s-0.1,0.4-0.2,0.6
				s-0.2,0.3-0.3,0.5s-0.3,0.2-0.5,0.2c-0.3,0-0.5-0.1-0.6-0.2s-0.3-0.3-0.4-0.5s-0.1-0.4-0.2-0.7s0-0.4,0-0.6c0-0.6,0-1.2,0-1.8
				s0-1.2,0-1.8c0-0.5,0-1,0-1.5s0-1,0-1.5c-0.1,0-0.3,0-0.4,0s-0.3,0-0.4,0c-0.1,0-0.3,0-0.5,0c-0.2,0-0.4-0.1-0.5-0.1
				s-0.3-0.2-0.5-0.3s-0.2-0.3-0.2-0.4c0-0.3,0.1-0.5,0.3-0.8s0.5-0.4,0.9-0.6c0.4-0.2,0.8-0.3,1.2-0.4s0.9-0.2,1.3-0.3
				c0.4-0.1,0.8-0.1,1.2-0.1s0.6,0,0.8,0c0.2,0,0.4,0,0.6,0c0.2,0,0.4,0.1,0.6,0.1s0.3,0.2,0.5,0.3C251,136.7,251,136.9,251,137.1z"
				/>
			<path fill="#E53835" d="M255.4,137.2c0,0.2,0,0.4-0.1,0.5s-0.2,0.3-0.3,0.4s-0.3,0.2-0.5,0.3s-0.3,0.1-0.5,0.1
				c0,1.1-0.1,2.2-0.1,3.2c-0.1,1-0.2,2.1-0.3,3.2h0.1c0.2,0,0.3,0,0.5,0.1s0.3,0.1,0.4,0.2s0.2,0.2,0.3,0.3
				c0.1,0.1,0.1,0.3,0.1,0.4c0,0.2-0.1,0.4-0.2,0.6c-0.1,0.2-0.3,0.3-0.6,0.4c-0.2,0.1-0.5,0.2-0.8,0.3s-0.6,0.1-0.8,0.2
				s-0.6,0.1-0.8,0.1s-0.5,0-0.6,0c-0.1,0-0.3,0-0.4,0s-0.3,0-0.5-0.1c-0.2,0-0.3-0.1-0.4-0.2s-0.2-0.2-0.2-0.4c0-0.2,0-0.4,0.1-0.5
				c0.1-0.2,0.2-0.3,0.3-0.4s0.3-0.2,0.5-0.3s0.3-0.1,0.5-0.2c0.1-0.5,0.1-1.1,0.2-1.6s0.1-1.1,0.1-1.6c0-0.6,0-1.1,0.1-1.6
				s0-1.1,0.1-1.6c-0.1,0-0.1,0-0.2,0s-0.1,0-0.2,0c-0.1,0-0.3,0-0.4,0s-0.3-0.1-0.4-0.2s-0.3-0.2-0.3-0.3c-0.1-0.1-0.1-0.2-0.1-0.4
				c0-0.3,0.1-0.6,0.4-0.8c0.3-0.2,0.6-0.4,1-0.5s0.8-0.2,1.2-0.2s0.7-0.1,1-0.1c0.1,0,0.3,0,0.5,0s0.4,0.1,0.7,0.1
				c0.2,0.1,0.4,0.2,0.6,0.3C255.3,136.8,255.4,137,255.4,137.2z"/>
			<path fill="#E53835" d="M260.3,136.9c0,0.2-0.1,0.4-0.2,0.6c-0.1,0.2-0.3,0.3-0.5,0.4c-0.2,0.1-0.4,0.2-0.5,0.3s-0.4,0.3-0.5,0.4
				s-0.3,0.3-0.4,0.5s-0.1,0.4-0.1,0.6c0,0.2,0,0.4,0.1,0.6s0.2,0.3,0.4,0.5c0.1,0.2,0.3,0.3,0.5,0.5c0.2,0.2,0.3,0.4,0.5,0.6
				c0.1,0.2,0.3,0.4,0.4,0.7s0.1,0.6,0.1,0.9c0,0.2-0.1,0.5-0.2,0.8c-0.1,0.3-0.2,0.6-0.4,0.9s-0.4,0.6-0.6,0.9s-0.5,0.6-0.8,0.8
				s-0.5,0.4-0.8,0.6s-0.6,0.2-0.8,0.2c-0.3,0-0.6-0.1-0.8-0.2s-0.4-0.4-0.4-0.7c0-0.2,0.1-0.4,0.2-0.6s0.2-0.4,0.4-0.5
				s0.3-0.3,0.5-0.5c0.2-0.2,0.4-0.3,0.5-0.5s0.3-0.3,0.4-0.5s0.2-0.4,0.2-0.6c0-0.3-0.1-0.6-0.3-0.9s-0.4-0.6-0.7-0.9
				s-0.5-0.6-0.7-1c-0.2-0.3-0.3-0.7-0.3-1c0-0.4,0.1-0.9,0.3-1.3s0.5-0.9,0.9-1.3s0.7-0.7,1.2-1s0.9-0.4,1.3-0.4
				c0.3,0,0.6,0.1,0.9,0.3S260.3,136.5,260.3,136.9z"/>
			<path fill="#E53835" d="M266.8,136.6c0,0.4-0.1,0.7-0.4,1s-0.6,0.6-0.9,0.8c-0.4,0.2-0.8,0.4-1.2,0.6s-0.7,0.3-1,0.4
				c0,0.2,0,0.4,0,0.6s0,0.4,0,0.6c0.3-0.2,0.7-0.3,1.1-0.4s0.8-0.2,1.1-0.2c0.3,0,0.5,0.1,0.7,0.2c0.2,0.1,0.3,0.3,0.3,0.6
				c0,0.3-0.1,0.6-0.3,0.9s-0.5,0.5-0.8,0.7s-0.7,0.4-1,0.5s-0.6,0.2-0.9,0.3c0,0.3,0,0.6,0,1s0,0.6,0,0.9c0,0.2,0,0.4-0.1,0.6
				s-0.1,0.5-0.1,0.7c-0.1,0.2-0.2,0.4-0.3,0.6s-0.3,0.2-0.5,0.2c-0.2,0-0.4-0.1-0.5-0.3s-0.3-0.5-0.4-0.8c-0.1-0.3-0.2-0.7-0.3-1
				s-0.1-0.8-0.1-1.1s-0.1-0.7-0.1-1s0-0.6,0-0.7c0-0.1,0-0.3,0-0.6s0-0.5,0-0.8c0-0.3,0-0.6,0-1c0-0.3,0-0.6,0.1-0.9s0-0.6,0.1-0.8
				s0.1-0.4,0.1-0.5c0.1-0.2,0.4-0.4,0.8-0.6c0.4-0.2,0.9-0.4,1.4-0.6s1-0.3,1.5-0.4c0.5-0.1,0.8-0.2,1.1-0.2c0.1,0,0.2,0,0.3,0
				c0.1,0,0.2,0,0.3,0.1s0.2,0.1,0.2,0.2S266.8,136.4,266.8,136.6z"/>
			<path fill="#E53835" d="M274.2,145c0,0.2,0,0.4-0.1,0.7s-0.1,0.5-0.2,0.8s-0.2,0.5-0.4,0.6s-0.4,0.3-0.7,0.3
				c-0.4,0-0.6-0.1-0.8-0.4c-0.2-0.3-0.3-0.6-0.4-0.9s-0.1-0.7-0.1-1.1c0-0.4,0-0.7,0-0.9c-0.7,0.1-1.4,0.2-2.1,0.3
				c0,0.2-0.1,0.5-0.1,0.8s-0.2,0.7-0.3,1c-0.1,0.3-0.3,0.6-0.5,0.8c-0.2,0.2-0.5,0.3-0.8,0.3c-0.2,0-0.4-0.1-0.5-0.3
				c-0.1-0.2-0.2-0.4-0.3-0.6s-0.1-0.5-0.1-0.7c0-0.2,0-0.5,0-0.6c0-0.6,0-1.1,0.1-1.6s0.2-1.1,0.3-1.6c0.1-0.3,0.1-0.6,0.2-1
				s0.2-0.8,0.4-1.2c0.1-0.4,0.3-0.8,0.5-1.2c0.2-0.4,0.4-0.7,0.7-1.1s0.5-0.6,0.8-0.8s0.7-0.3,1-0.3c0.4,0,0.7,0.1,1,0.2
				s0.5,0.4,0.7,0.7s0.4,0.6,0.5,0.9s0.3,0.7,0.3,1.1c0.1,0.4,0.2,0.7,0.2,1c0.1,0.3,0.1,0.6,0.2,0.9c0.1,0.6,0.2,1.3,0.3,1.9
				S274.2,144.3,274.2,145z M271.3,141.4c0-0.1,0-0.3,0-0.6c0-0.3,0-0.5-0.1-0.8s-0.1-0.5-0.2-0.7c-0.1-0.2-0.2-0.3-0.4-0.3
				c-0.1,0-0.2,0.1-0.3,0.2s-0.2,0.3-0.2,0.5s-0.1,0.4-0.2,0.7c-0.1,0.2-0.1,0.5-0.1,0.7s-0.1,0.4-0.1,0.6s0,0.3,0,0.4
				c0.6,0,1.2-0.1,1.7-0.2V141.4z"/>
			<path fill="#E53835" d="M281.6,139.7c0,0.2,0,0.4-0.1,0.6c0,0.2-0.1,0.4-0.2,0.6s-0.2,0.3-0.4,0.4s-0.3,0.2-0.6,0.2
				c-0.3,0-0.6-0.1-0.8-0.2s-0.3-0.3-0.4-0.5s-0.1-0.4-0.1-0.6c0-0.2,0-0.4,0-0.6s0-0.3-0.1-0.5c-0.1-0.1-0.2-0.2-0.3-0.2
				c-0.2,0-0.4,0.1-0.5,0.2s-0.3,0.3-0.4,0.5s-0.2,0.5-0.3,0.8c-0.1,0.3-0.1,0.6-0.2,0.8c0,0.3-0.1,0.5-0.1,0.8s0,0.5,0,0.6
				c0,0.2,0,0.4,0,0.7c0,0.3,0.1,0.6,0.1,0.8s0.2,0.5,0.4,0.7s0.4,0.3,0.7,0.3c0.2,0,0.4,0,0.6-0.1s0.4-0.1,0.6-0.2s0.4-0.1,0.6-0.2
				c0.2,0,0.4-0.1,0.6-0.1c0.2,0,0.4,0.1,0.6,0.3s0.2,0.4,0.2,0.6c0,0.3-0.1,0.6-0.3,0.9s-0.4,0.5-0.7,0.7c-0.3,0.2-0.6,0.4-0.9,0.5
				c-0.3,0.1-0.6,0.2-0.9,0.2c-0.7,0-1.3-0.2-1.8-0.5s-0.9-0.7-1.2-1.2s-0.5-1.1-0.7-1.7c-0.1-0.6-0.2-1.2-0.2-1.9
				c0-0.4,0-0.9,0.1-1.3s0.2-1,0.4-1.5s0.4-1,0.6-1.4s0.5-0.9,0.8-1.2s0.7-0.6,1.1-0.8s0.9-0.3,1.3-0.3c0.5,0,0.9,0.1,1.2,0.4
				s0.6,0.5,0.8,0.9s0.3,0.8,0.4,1.2S281.6,139.3,281.6,139.7z"/>
			<path fill="#E53835" d="M288.5,137.1c0,0.2-0.1,0.5-0.3,0.7c-0.2,0.2-0.4,0.4-0.7,0.5c-0.3,0.2-0.5,0.3-0.8,0.4s-0.5,0.2-0.7,0.2
				c-0.1,0.8-0.1,1.5-0.2,2.2c0,0.7-0.1,1.5-0.1,2.2c0,0.4,0,0.8,0,1.2s0,0.8,0,1.2c0,0.2,0,0.4-0.1,0.6s-0.1,0.4-0.2,0.6
				s-0.2,0.3-0.3,0.5s-0.3,0.2-0.5,0.2c-0.3,0-0.5-0.1-0.6-0.2s-0.3-0.3-0.4-0.5s-0.1-0.4-0.2-0.7s0-0.4,0-0.6c0-0.6,0-1.2,0-1.8
				s0-1.2,0-1.8c0-0.5,0-1,0-1.5s0-1,0-1.5c-0.1,0-0.3,0-0.4,0s-0.3,0-0.4,0c-0.1,0-0.3,0-0.5,0c-0.2,0-0.4-0.1-0.5-0.1
				s-0.3-0.2-0.5-0.3s-0.2-0.3-0.2-0.4c0-0.3,0.1-0.5,0.3-0.8s0.5-0.4,0.9-0.6c0.4-0.2,0.8-0.3,1.2-0.4s0.9-0.2,1.3-0.3
				c0.4-0.1,0.8-0.1,1.2-0.1s0.6,0,0.8,0c0.2,0,0.4,0,0.6,0c0.2,0,0.4,0.1,0.6,0.1s0.3,0.2,0.5,0.3
				C288.5,136.7,288.5,136.9,288.5,137.1z"/>
			<path fill="#E53835" d="M291.1,147.6c-0.6,0-1.1-0.1-1.6-0.4s-0.8-0.7-1.1-1.2c-0.3-0.5-0.5-1.1-0.6-1.8
				c-0.1-0.7-0.2-1.4-0.2-2.1c0-0.7,0.1-1.4,0.2-2.1s0.4-1.3,0.7-1.9s0.7-1,1.2-1.4s1-0.5,1.7-0.5c0.6,0,1.2,0.2,1.6,0.5
				s0.8,0.8,1,1.3c0.3,0.6,0.4,1.2,0.6,1.9c0.1,0.7,0.2,1.4,0.2,2.1c0,0.8-0.1,1.5-0.2,2.2c-0.2,0.7-0.4,1.3-0.7,1.8
				c-0.3,0.5-0.7,0.9-1.2,1.2C292.3,147.5,291.7,147.6,291.1,147.6z M291.3,139.4c-0.2,0-0.3,0.1-0.5,0.2c-0.1,0.1-0.2,0.3-0.3,0.6
				s-0.2,0.5-0.2,0.8s-0.1,0.6-0.1,0.9c0,0.3,0,0.7,0.1,1c0,0.3,0.1,0.6,0.2,0.9s0.2,0.5,0.3,0.7c0.1,0.2,0.3,0.2,0.5,0.2
				c0.2,0,0.4-0.1,0.5-0.3s0.2-0.5,0.3-0.8c0.1-0.3,0.1-0.6,0.1-0.9s0-0.6,0-0.8c0-0.3,0-0.5-0.1-0.8c0-0.3-0.1-0.6-0.2-0.8
				s-0.2-0.5-0.3-0.6S291.5,139.4,291.3,139.4z"/>
			<path fill="#E53835" d="M302.8,139.4c0,0.7-0.2,1.3-0.5,1.8s-0.7,1-1.2,1.4c0.2,0.2,0.3,0.5,0.5,0.8s0.3,0.6,0.4,1
				c0.1,0.3,0.2,0.7,0.3,1c0.1,0.3,0.1,0.7,0.1,1c0,0.3-0.1,0.6-0.2,0.8s-0.4,0.4-0.8,0.4c-0.3,0-0.6-0.1-0.8-0.4
				c-0.2-0.3-0.4-0.6-0.6-1s-0.3-0.8-0.5-1.2s-0.3-0.8-0.4-1c-0.2,0.1-0.3,0.1-0.5,0.2s-0.3,0.1-0.5,0.2c0,0.2,0,0.5-0.1,0.9
				c0,0.4-0.1,0.7-0.2,1.1s-0.2,0.7-0.4,1s-0.4,0.4-0.7,0.4c-0.3,0-0.6-0.1-0.7-0.4s-0.3-0.6-0.4-0.9c-0.1-0.4-0.1-0.7-0.1-1.1
				s0-0.7,0-0.9c0-0.5,0-0.9,0-1.4s0-0.9,0-1.4c0-0.4,0-0.8,0-1.3c0-0.4,0-0.8,0-1.3c0-0.1,0-0.2,0-0.4s0-0.3,0-0.5
				c0-0.2,0-0.3,0.1-0.5s0.1-0.3,0.1-0.4c0.1-0.2,0.3-0.4,0.7-0.6s0.7-0.3,1.1-0.5s0.8-0.3,1.2-0.3c0.4-0.1,0.7-0.1,0.9-0.1
				c0.5,0,0.9,0.1,1.3,0.3s0.7,0.4,1,0.8s0.4,0.7,0.6,1.1S302.8,139,302.8,139.4z M300.1,139.6c0-0.3-0.1-0.4-0.2-0.6
				s-0.3-0.2-0.6-0.2c-0.2,0-0.4,0-0.6,0.1s-0.4,0.1-0.5,0.2c0,0.8,0.1,1.5,0,2.3c0.2-0.1,0.4-0.2,0.6-0.3s0.4-0.2,0.6-0.4
				c0.2-0.2,0.3-0.3,0.4-0.5S300.1,139.9,300.1,139.6z"/>
			<path fill="#E53835" d="M308.4,137.2c0,0.2,0,0.4-0.1,0.5s-0.2,0.3-0.3,0.4s-0.3,0.2-0.5,0.3s-0.3,0.1-0.5,0.1
				c0,1.1-0.1,2.2-0.1,3.2c-0.1,1-0.2,2.1-0.3,3.2h0.1c0.2,0,0.3,0,0.5,0.1s0.3,0.1,0.4,0.2s0.2,0.2,0.3,0.3
				c0.1,0.1,0.1,0.3,0.1,0.4c0,0.2-0.1,0.4-0.2,0.6c-0.1,0.2-0.3,0.3-0.6,0.4c-0.2,0.1-0.5,0.2-0.8,0.3s-0.6,0.1-0.8,0.2
				s-0.6,0.1-0.8,0.1s-0.5,0-0.6,0c-0.1,0-0.3,0-0.4,0s-0.3,0-0.5-0.1c-0.2,0-0.3-0.1-0.4-0.2s-0.2-0.2-0.2-0.4c0-0.2,0-0.4,0.1-0.5
				c0.1-0.2,0.2-0.3,0.3-0.4s0.3-0.2,0.5-0.3s0.3-0.1,0.5-0.2c0.1-0.5,0.1-1.1,0.2-1.6s0.1-1.1,0.1-1.6c0-0.6,0-1.1,0.1-1.6
				s0-1.1,0.1-1.6c-0.1,0-0.1,0-0.2,0s-0.1,0-0.2,0c-0.1,0-0.3,0-0.4,0s-0.3-0.1-0.4-0.2s-0.3-0.2-0.3-0.3c-0.1-0.1-0.1-0.2-0.1-0.4
				c0-0.3,0.1-0.6,0.4-0.8c0.3-0.2,0.6-0.4,1-0.5s0.8-0.2,1.2-0.2s0.7-0.1,1-0.1c0.1,0,0.3,0,0.5,0s0.4,0.1,0.7,0.1
				c0.2,0.1,0.4,0.2,0.6,0.3C308.3,136.8,308.4,137,308.4,137.2z"/>
			<path fill="#E53835" d="M316,145c0,0.2,0,0.4-0.1,0.7s-0.1,0.5-0.2,0.8s-0.2,0.5-0.4,0.6s-0.4,0.3-0.7,0.3
				c-0.4,0-0.6-0.1-0.8-0.4c-0.2-0.3-0.3-0.6-0.4-0.9s-0.1-0.7-0.1-1.1c0-0.4,0-0.7,0-0.9c-0.7,0.1-1.4,0.2-2.1,0.3
				c0,0.2-0.1,0.5-0.1,0.8s-0.2,0.7-0.3,1c-0.1,0.3-0.3,0.6-0.5,0.8c-0.2,0.2-0.5,0.3-0.8,0.3c-0.2,0-0.4-0.1-0.5-0.3
				c-0.1-0.2-0.2-0.4-0.3-0.6s-0.1-0.5-0.1-0.7c0-0.2,0-0.5,0-0.6c0-0.6,0-1.1,0.1-1.6s0.2-1.1,0.3-1.6c0.1-0.3,0.1-0.6,0.2-1
				s0.2-0.8,0.4-1.2c0.1-0.4,0.3-0.8,0.5-1.2c0.2-0.4,0.4-0.7,0.7-1.1s0.5-0.6,0.8-0.8s0.7-0.3,1-0.3c0.4,0,0.7,0.1,1,0.2
				s0.5,0.4,0.7,0.7s0.4,0.6,0.5,0.9s0.3,0.7,0.3,1.1c0.1,0.4,0.2,0.7,0.2,1c0.1,0.3,0.1,0.6,0.2,0.9c0.1,0.6,0.2,1.3,0.3,1.9
				S316,144.3,316,145z M313.1,141.4c0-0.1,0-0.3,0-0.6c0-0.3,0-0.5-0.1-0.8s-0.1-0.5-0.2-0.7c-0.1-0.2-0.2-0.3-0.4-0.3
				c-0.1,0-0.2,0.1-0.3,0.2s-0.2,0.3-0.2,0.5s-0.1,0.4-0.2,0.7c-0.1,0.2-0.1,0.5-0.1,0.7s-0.1,0.4-0.1,0.6s0,0.3,0,0.4
				c0.6,0,1.2-0.1,1.7-0.2V141.4z"/>
			<path fill="#E53835" d="M326.9,145.5c0,0.3-0.1,0.5-0.1,0.7s-0.1,0.5-0.2,0.7s-0.2,0.3-0.3,0.5s-0.3,0.2-0.4,0.2
				s-0.3-0.1-0.4-0.4s-0.2-0.6-0.4-1s-0.2-0.8-0.3-1.3c-0.1-0.5-0.2-1-0.3-1.5c-0.1-0.5-0.1-1-0.2-1.5s-0.1-0.9-0.1-1.3
				c-0.1,0.4-0.1,0.8-0.2,1.2s-0.2,0.9-0.3,1.4s-0.2,0.9-0.4,1.4s-0.3,0.9-0.4,1.2s-0.3,0.6-0.5,0.9s-0.3,0.3-0.5,0.3
				c-0.2,0-0.3-0.1-0.5-0.3s-0.3-0.5-0.5-0.9s-0.3-0.8-0.4-1.2s-0.3-0.9-0.4-1.4s-0.2-0.9-0.3-1.3s-0.2-0.7-0.2-1c0,0.2,0,0.4,0,0.7
				s0,0.4,0,0.5c0,0,0,0.2,0,0.5c0,0.3,0,0.6-0.1,1s-0.1,0.8-0.1,1.2s-0.1,0.8-0.3,1.2c-0.1,0.4-0.3,0.7-0.4,0.9s-0.4,0.4-0.6,0.4
				c-0.2-0.1-0.4-0.2-0.5-0.4c-0.1-0.2-0.2-0.5-0.3-0.7s-0.2-0.6-0.2-0.9s-0.1-0.6-0.1-0.9s0-0.6-0.1-0.9c0-0.3,0-0.5,0-0.6
				c0-0.3,0-0.7,0.1-1.1s0.1-0.9,0.2-1.4s0.2-1,0.3-1.5s0.3-0.9,0.5-1.3s0.4-0.7,0.6-0.9c0.2-0.2,0.5-0.4,0.8-0.4
				c0.1,0,0.3,0.1,0.5,0.2s0.3,0.4,0.5,0.7s0.3,0.6,0.5,0.9s0.3,0.7,0.4,1c0.1,0.3,0.3,0.7,0.4,1s0.2,0.6,0.3,0.8
				c0.1-0.2,0.2-0.5,0.3-0.8s0.2-0.6,0.4-1c0.1-0.3,0.3-0.7,0.5-1c0.2-0.3,0.3-0.6,0.5-0.9s0.4-0.5,0.6-0.6c0.2-0.2,0.4-0.2,0.6-0.2
				c0.3,0,0.6,0.1,0.9,0.4s0.4,0.6,0.6,1s0.3,0.9,0.4,1.4s0.2,1,0.2,1.5s0.1,1,0.1,1.4c0,0.4,0,0.8,0,1c0,0.1,0,0.3,0,0.4
				s0,0.4,0,0.6s0,0.5,0,0.7S327,145.3,326.9,145.5z"/>
			<path fill="#E53835" d="M334.5,144.8c0,0.2,0,0.4-0.1,0.5c-0.1,0.2-0.3,0.4-0.7,0.6s-0.8,0.4-1.2,0.6s-0.9,0.4-1.3,0.5
				s-0.7,0.2-0.9,0.2c-0.1,0-0.3,0-0.5-0.1s-0.4-0.1-0.6-0.2s-0.4-0.2-0.5-0.3c-0.2-0.1-0.3-0.2-0.3-0.4c0-0.1-0.1-0.2-0.1-0.4
				c0-0.2-0.1-0.4-0.1-0.7c0-0.3,0-0.6-0.1-0.9s0-0.6-0.1-0.9c0-0.3,0-0.5,0-0.7c0-0.2,0-0.4,0-0.5c0-0.4,0-0.8,0-1.2
				c0-0.5,0.1-0.9,0.1-1.4s0.2-0.9,0.3-1.4c0.1-0.4,0.3-0.8,0.5-1.1c0.1-0.1,0.2-0.2,0.4-0.3s0.4-0.2,0.7-0.3
				c0.3-0.1,0.6-0.2,0.9-0.2s0.6-0.1,0.9-0.2s0.6-0.1,0.8-0.1s0.4-0.1,0.6-0.1c0.1,0,0.3,0,0.4,0.1c0.1,0.1,0.2,0.1,0.3,0.3
				c0.1,0.1,0.2,0.2,0.2,0.4s0.1,0.3,0.1,0.4c0,0.1,0,0.2-0.1,0.3s-0.1,0.2-0.2,0.3c-0.1,0.1-0.3,0.3-0.6,0.5s-0.7,0.3-1,0.5
				c-0.4,0.2-0.7,0.3-1.1,0.5c-0.3,0.1-0.6,0.2-0.7,0.3c0,0.2-0.1,0.5-0.1,0.7c0,0.2-0.1,0.5-0.1,0.7c0.3-0.2,0.6-0.3,1-0.4
				s0.7-0.2,1.1-0.2c0.7,0,1,0.3,1,1c0,0.2,0,0.3-0.1,0.4c-0.1,0.1-0.1,0.2-0.3,0.3c-0.1,0.1-0.2,0.2-0.4,0.3
				c-0.1,0.1-0.3,0.1-0.4,0.2c-0.3,0.2-0.6,0.3-1,0.4s-0.7,0.2-1,0.4c0,0.1,0,0.2-0.1,0.3s0,0.2,0,0.3c0,0.1,0,0.3,0,0.4
				s0,0.3,0.1,0.4c0.1,0,0.3-0.1,0.6-0.2c0.3-0.1,0.5-0.2,0.8-0.3s0.6-0.2,0.8-0.2s0.5-0.1,0.6-0.1c0.1,0,0.3,0,0.4,0.1
				s0.2,0.1,0.3,0.2s0.2,0.2,0.2,0.4C334.5,144.6,334.5,144.7,334.5,144.8z"/>
			<path fill="#E53835" d="M343.7,140.9c0,0.2,0,0.5,0,0.9s-0.1,0.8-0.1,1.3c-0.1,0.5-0.1,1-0.2,1.5s-0.2,0.9-0.4,1.3
				s-0.3,0.7-0.6,1s-0.5,0.4-0.8,0.4c-0.3,0-0.6-0.1-0.8-0.3s-0.5-0.4-0.7-0.6s-0.4-0.5-0.5-0.8s-0.3-0.5-0.4-0.8
				c-0.2-0.5-0.4-1-0.6-1.5s-0.4-1-0.6-1.5v0.4c0,0.4,0,0.8,0,1.3c0,0.4,0,0.8-0.1,1.2c0,0.2,0,0.4-0.1,0.6s-0.1,0.4-0.1,0.7
				s-0.1,0.4-0.2,0.6s-0.2,0.3-0.4,0.4c-0.1,0-0.2,0.1-0.2,0.1c-0.1,0-0.2,0-0.2,0h0c-0.2,0-0.4-0.1-0.6-0.2s-0.3-0.3-0.4-0.6
				s-0.2-0.5-0.3-0.8c-0.1-0.3-0.1-0.6-0.1-0.9c0-0.3-0.1-0.6-0.1-0.8s0-0.4,0-0.6c0-0.2,0-0.6,0-1s0.1-0.9,0.1-1.4s0.1-1.1,0.3-1.6
				c0.1-0.6,0.2-1.1,0.4-1.5s0.4-0.8,0.6-1.1s0.5-0.4,0.8-0.4c0.3,0,0.6,0.1,0.8,0.4c0.2,0.2,0.5,0.5,0.6,0.8s0.3,0.7,0.5,1
				s0.2,0.6,0.3,0.9c0.2,0.5,0.3,0.9,0.5,1.4s0.3,0.9,0.5,1.4c0,0,0,0.1,0.1,0.2s0.1,0.2,0.1,0.3c0,0.1,0.1,0.2,0.1,0.4
				c0-0.1,0-0.2,0-0.3c0-0.1,0-0.1,0-0.1s0-0.1,0-0.2s0-0.2,0-0.3c0-0.3,0-0.6,0-1c0-0.3,0-0.6,0-1c0-0.1,0-0.3,0-0.6
				c0-0.2,0-0.5,0-0.8s0.1-0.6,0.1-0.8s0.1-0.5,0.2-0.8s0.2-0.4,0.4-0.6s0.3-0.2,0.5-0.2c0.2,0,0.5,0.1,0.6,0.3s0.3,0.4,0.4,0.7
				s0.2,0.6,0.3,1s0.1,0.7,0.2,1s0.1,0.7,0.1,1S343.7,140.7,343.7,140.9z"/>
			<path fill="#E53835" d="M351,137.1c0,0.2-0.1,0.5-0.3,0.7c-0.2,0.2-0.4,0.4-0.7,0.5c-0.3,0.2-0.5,0.3-0.8,0.4s-0.5,0.2-0.7,0.2
				c-0.1,0.8-0.1,1.5-0.2,2.2c0,0.7-0.1,1.5-0.1,2.2c0,0.4,0,0.8,0,1.2s0,0.8,0,1.2c0,0.2,0,0.4-0.1,0.6s-0.1,0.4-0.2,0.6
				s-0.2,0.3-0.3,0.5s-0.3,0.2-0.5,0.2c-0.3,0-0.5-0.1-0.6-0.2s-0.3-0.3-0.4-0.5s-0.1-0.4-0.2-0.7s0-0.4,0-0.6c0-0.6,0-1.2,0-1.8
				s0-1.2,0-1.8c0-0.5,0-1,0-1.5s0-1,0-1.5c-0.1,0-0.3,0-0.4,0s-0.3,0-0.4,0c-0.1,0-0.3,0-0.5,0c-0.2,0-0.4-0.1-0.5-0.1
				s-0.3-0.2-0.5-0.3s-0.2-0.3-0.2-0.4c0-0.3,0.1-0.5,0.3-0.8s0.5-0.4,0.9-0.6c0.4-0.2,0.8-0.3,1.2-0.4s0.9-0.2,1.3-0.3
				c0.4-0.1,0.8-0.1,1.2-0.1s0.6,0,0.8,0c0.2,0,0.4,0,0.6,0c0.2,0,0.4,0.1,0.6,0.1s0.3,0.2,0.5,0.3C350.9,136.7,351,136.9,351,137.1
				z"/>
			<path fill="#E53835" d="M356.6,144.8c0,0.2,0,0.4-0.1,0.5c-0.1,0.2-0.3,0.4-0.7,0.6s-0.8,0.4-1.2,0.6s-0.9,0.4-1.3,0.5
				s-0.7,0.2-0.9,0.2c-0.1,0-0.3,0-0.5-0.1s-0.4-0.1-0.6-0.2s-0.4-0.2-0.5-0.3c-0.2-0.1-0.3-0.2-0.3-0.4c0-0.1-0.1-0.2-0.1-0.4
				c0-0.2-0.1-0.4-0.1-0.7c0-0.3,0-0.6-0.1-0.9s0-0.6-0.1-0.9c0-0.3,0-0.5,0-0.7c0-0.2,0-0.4,0-0.5c0-0.4,0-0.8,0-1.2
				c0-0.5,0.1-0.9,0.1-1.4s0.2-0.9,0.3-1.4c0.1-0.4,0.3-0.8,0.5-1.1c0.1-0.1,0.2-0.2,0.4-0.3s0.4-0.2,0.7-0.3
				c0.3-0.1,0.6-0.2,0.9-0.2s0.6-0.1,0.9-0.2s0.6-0.1,0.8-0.1s0.4-0.1,0.6-0.1c0.1,0,0.3,0,0.4,0.1c0.1,0.1,0.2,0.1,0.3,0.3
				c0.1,0.1,0.2,0.2,0.2,0.4s0.1,0.3,0.1,0.4c0,0.1,0,0.2-0.1,0.3s-0.1,0.2-0.2,0.3c-0.1,0.1-0.3,0.3-0.6,0.5s-0.7,0.3-1,0.5
				c-0.4,0.2-0.7,0.3-1.1,0.5c-0.3,0.1-0.6,0.2-0.7,0.3c0,0.2-0.1,0.5-0.1,0.7c0,0.2-0.1,0.5-0.1,0.7c0.3-0.2,0.6-0.3,1-0.4
				s0.7-0.2,1.1-0.2c0.7,0,1,0.3,1,1c0,0.2,0,0.3-0.1,0.4c-0.1,0.1-0.1,0.2-0.3,0.3c-0.1,0.1-0.2,0.2-0.4,0.3
				c-0.1,0.1-0.3,0.1-0.4,0.2c-0.3,0.2-0.6,0.3-1,0.4s-0.7,0.2-1,0.4c0,0.1,0,0.2-0.1,0.3s0,0.2,0,0.3c0,0.1,0,0.3,0,0.4
				s0,0.3,0.1,0.4c0.1,0,0.3-0.1,0.6-0.2c0.3-0.1,0.5-0.2,0.8-0.3s0.6-0.2,0.8-0.2s0.5-0.1,0.6-0.1c0.1,0,0.3,0,0.4,0.1
				s0.2,0.1,0.3,0.2s0.2,0.2,0.2,0.4C356.6,144.6,356.6,144.7,356.6,144.8z"/>
		</g>
		<g>
			<g>
				
					<ellipse transform="matrix(0.3844 -0.9231 0.9231 0.3844 299.6694 508.3055)" fill="#D3302F" cx="531" cy="29.4" rx="17.8" ry="17.1"/>
				<g>
					<path fill="#1D1E1C" d="M537.6,13.4c8.4,3.8,12,13,9.1,21.6c-3,8.9-12.9,13.5-21.6,10.6c-9-3-12.6-13.4-9.8-21.9
						c3.1-9.2,13.5-13.7,22.4-10.3c0.6,0.2,0.8-0.7,0.2-0.9c-9.3-3.6-19.2,1.1-23.1,10c-4,9,0.3,19.6,9.1,23.6
						c9.1,4.1,19.4-1.3,23.2-10c4-9-0.3-19.6-9.1-23.6C537.5,12.4,537.1,13.2,537.6,13.4z"/>
				</g>
			</g>
			<g>
				
					<ellipse transform="matrix(0.3844 -0.9231 0.9231 0.3844 299.6694 508.3055)" fill="#EA5351" cx="531" cy="29.4" rx="14.9" ry="14.4"/>
				<g>
					<path fill="#1D1E1C" d="M536.5,16c7.1,3.2,10,10.9,7.6,18.2c-2.5,7.4-10.8,11.3-18.1,8.9c-7.6-2.5-10.6-11.3-8.2-18.4
						C520.4,17,529.2,13.2,536.5,16c0.6,0.2,0.7-0.5,0.3-0.7c-7.8-3-16.1,0.9-19.4,8.4c-3.3,7.5,0.2,16.5,7.7,19.8
						c7.7,3.4,16.3-1.1,19.5-8.4c3.3-7.5-0.2-16.5-7.7-19.8C536.5,15.1,536.1,15.8,536.5,16z"/>
				</g>
			</g>
			<path opacity="0.15" fill="#1D1E1C" d="M537.3,41c-10.4-4.3-16.6-14.6-16.5-25.6c-2.4,1.9-4.4,4.4-5.7,7.4
				c-3.8,9.1,0.2,19.3,9,23c6.3,2.6,13.2,1.1,18.1-3.3C540.6,42.2,539,41.7,537.3,41z"/>
			<g>
				<path fill="#E53935" d="M539.6,33.5c-0.1,0-1.9-1.8-4.2-3.9c2.1-2.2,3.8-4,3.8-4c1.9-1.9,1.7-3.7,0.4-4.9
					c-1.3-1.2-3.1-1.4-5,0.5c0,0-1.7,1.7-3.9,3.9c-2.3-2.2-4.1-3.9-4.1-3.9c-1.9-1.9-3.7-1.7-4.9-0.4c-1.2,1.3-1.4,3.1,0.5,5
					c0,0,1.7,1.7,4,3.9c-1.9,1.9-3.6,3.7-4.4,4.6c-1.8,1.9-0.6,3.2,0.5,4.2c1.7,1.6,3.3,1.4,4.7,0c0-0.1,1.8-1.9,4-4.2
					c1.9,1.8,3.4,3.6,4.5,4.3c1.5,1,3.5,1.4,4.5,0.4C541.6,37.3,541,34.9,539.6,33.5z"/>
				<g>
					<path fill="#1D1E1C" d="M539.9,33.2c-0.5-0.5-1.1-1-1.6-1.5c-0.9-0.9-2.1-2.2-2.1-2.2s0.9-1.1,1.9-2.2c1.3-1.4,2.2-2.3,2.6-4.2
						c0.6-2.9-2.9-4.9-5.4-3.1c-1.4,1-4.4,4.4-4.4,4.4s-1-0.8-1.6-1.4c-1.1-1-2.9-3.1-4.5-3.4c-3.5-0.7-5.1,2.4-3.6,5.4
						c0.5,1,4.5,4.6,4.5,4.6s-0.4,0.5-0.6,0.7c-1.6,1.6-3.1,2.5-4,4.7c-1.7,3.9,3.1,6.5,6.1,3.8c1.4-1.3,4-3.9,4-3.9
						c0.6,0.5,0.9,1,1.4,1.4c0.9,0.9,3,3.5,5.3,3.6C541.6,40.2,542.8,36,539.9,33.2c-0.4-0.4-0.9,0.2-0.6,0.6c1.9,2,1.3,3.8,0.6,4.6
						c-1.1,1.3-3.3,1.1-5-0.7c-1.1-1.1-2.6-2.5-3.7-3.6c-0.2-0.2-0.4-0.2-0.6,0c-1.3,1.4-1.9,2-3.2,3.4c-1.1,1.4-3.2,2.4-4.9,1
						c-2-1.5-0.6-4,0.6-5c1.1-1.1,2.2-2.3,3.3-3.4c0.2-0.2,0.2-0.4,0-0.6c-1.3-1.3-2.7-2.6-4-3.9c-1.9-2.1-0.8-4-0.4-4.4
						c1.1-1.1,3.1-0.8,4.4,0.4c0.3,0.3,0.5,0.5,0.8,0.8c1.1,1,2.2,2,3.2,3.1c0.2,0.2,0.4,0.2,0.6,0c1.3-1.3,2.6-2.6,3.9-3.9
						c1.7-1.7,3.1-1.3,3.8-0.8c1.7,1.1,1.5,3.3,0.1,4.7c-0.2,0.3-0.5,0.5-0.7,0.8c-1,1-2,2.1-3,3.1c-0.1,0.2-0.2,0.4,0,0.6
						c1.4,1.3,2.8,2.6,4.2,3.9C539.7,34.1,540.3,33.6,539.9,33.2z"/>
				</g>
			</g>
		</g>
	</g>
</g>
<g id="crucigrama">
</g>
</svg>
