<?xml version="1.0" encoding="utf-8"?>
<!-- Generator: Adobe Illustrator 18.0.0, SVG Export Plug-In . SVG Version: 6.00 Build 0)  -->
<!DOCTYPE svg PUBLIC "-//W3C//DTD SVG 1.1//EN" "http://www.w3.org/Graphics/SVG/1.1/DTD/svg11.dtd">
<svg version="1.1" xmlns="http://www.w3.org/2000/svg" xmlns:xlink="http://www.w3.org/1999/xlink" x="0px" y="0px"
	 viewBox="0 0 470.7 488" enable-background="new 0 0 470.7 488" xml:space="preserve">
<g id="fondo">
</g>
<g id="Capa_2">
</g>
<g id="crucigrama">
	<g>
		<rect x="87.4" y="29.4" fill="#FFF59D" stroke="#333333" stroke-miterlimit="10" width="20.9" height="21.6"/>
		<rect x="87.4" y="50.8" fill="#81D4FA" stroke="#333333" stroke-miterlimit="10" width="20.9" height="21.6"/>
		<rect x="87.4" y="72.3" fill="#81D4FA" stroke="#333333" stroke-miterlimit="10" width="20.9" height="21.6"/>
		<rect x="87.4" y="93.7" fill="#81D4FA" stroke="#333333" stroke-miterlimit="10" width="20.9" height="21.6"/>
		<rect x="87.4" y="115.2" fill="#81D4FA" stroke="#333333" stroke-miterlimit="10" width="20.9" height="21.6"/>
		<rect x="87.4" y="136.7" fill="#81D4FA" stroke="#333333" stroke-miterlimit="10" width="20.9" height="21.6"/>
		<rect x="87.4" y="158.1" fill="#81D4FA" stroke="#333333" stroke-miterlimit="10" width="20.9" height="21.6"/>
		<rect x="87.4" y="179.6" fill="#81D4FA" stroke="#333333" stroke-miterlimit="10" width="20.9" height="21.6"/>
		<rect x="212.9" y="7.8" fill="#FFF59D" stroke="#333333" stroke-miterlimit="10" width="20.9" height="21.6"/>
		<rect x="212.9" y="29.3" fill="#81D4FA" stroke="#333333" stroke-miterlimit="10" width="20.9" height="21.6"/>
		<rect x="212.9" y="50.8" fill="#81D4FA" stroke="#333333" stroke-miterlimit="10" width="20.9" height="21.6"/>
		<rect x="212.9" y="72.2" fill="#81D4FA" stroke="#333333" stroke-miterlimit="10" width="20.9" height="21.6"/>
		<rect x="212.9" y="93.7" fill="#81D4FA" stroke="#333333" stroke-miterlimit="10" width="20.9" height="21.6"/>
		<rect x="212.9" y="115.2" fill="#81D4FA" stroke="#333333" stroke-miterlimit="10" width="20.9" height="21.6"/>
		<rect x="442.9" y="93.6" fill="#FFF59D" stroke="#333333" stroke-miterlimit="10" width="20.9" height="21.6"/>
		<rect x="442.9" y="115.1" fill="#81D4FA" stroke="#333333" stroke-miterlimit="10" width="20.9" height="21.6"/>
		<rect x="442.9" y="136.6" fill="#81D4FA" stroke="#333333" stroke-miterlimit="10" width="20.9" height="21.6"/>
		<rect x="442.9" y="158" fill="#81D4FA" stroke="#333333" stroke-miterlimit="10" width="20.9" height="21.6"/>
		<rect x="401.1" y="136.9" fill="#FFF59D" stroke="#333333" stroke-miterlimit="10" width="20.9" height="21.6"/>
		<rect x="401.1" y="158.3" fill="#81D4FA" stroke="#333333" stroke-miterlimit="10" width="20.9" height="21.6"/>
		<rect x="401.1" y="179.8" fill="#81D4FA" stroke="#333333" stroke-miterlimit="10" width="20.9" height="21.6"/>
		<rect x="401.1" y="201.3" fill="#81D4FA" stroke="#333333" stroke-miterlimit="10" width="20.9" height="21.6"/>
		<rect x="442.9" y="179.5" fill="#81D4FA" stroke="#333333" stroke-miterlimit="10" width="20.9" height="21.6"/>
		<rect x="442.9" y="201" fill="#81D4FA" stroke="#333333" stroke-miterlimit="10" width="20.9" height="21.6"/>
		<rect x="212.9" y="136.6" fill="#81D4FA" stroke="#333333" stroke-miterlimit="10" width="20.9" height="21.6"/>
		<rect x="212.9" y="158.1" fill="#81D4FA" stroke="#333333" stroke-miterlimit="10" width="20.9" height="21.6"/>
		<rect x="212.9" y="201.2" fill="#81D4FA" stroke="#333333" stroke-miterlimit="10" width="20.9" height="21.6"/>
		<rect x="66.5" y="179.6" fill="#FFF59D" stroke="#333333" stroke-miterlimit="10" width="20.9" height="21.6"/>
		<rect x="108.4" y="179.6" fill="#81D4FA" stroke="#333333" stroke-miterlimit="10" width="20.9" height="21.6"/>
		<rect x="129.3" y="179.6" fill="#81D4FA" stroke="#333333" stroke-miterlimit="10" width="20.9" height="21.6"/>
		<rect x="150.2" y="179.6" fill="#81D4FA" stroke="#333333" stroke-miterlimit="10" width="20.9" height="21.6"/>
		<rect x="171.1" y="179.6" fill="#81D4FA" stroke="#333333" stroke-miterlimit="10" width="20.9" height="21.6"/>
		<rect x="192" y="179.6" fill="#81D4FA" stroke="#333333" stroke-miterlimit="10" width="20.9" height="21.6"/>
		<rect x="212.9" y="179.6" fill="#81D4FA" stroke="#333333" stroke-miterlimit="10" width="20.9" height="21.6"/>
		<rect x="129.2" y="308.3" fill="#81D4FA" stroke="#333333" stroke-miterlimit="10" width="20.9" height="21.6"/>
		<rect x="129.2" y="329.8" fill="#81D4FA" stroke="#333333" stroke-miterlimit="10" width="20.9" height="21.6"/>
		<rect x="129.2" y="351.3" fill="#81D4FA" stroke="#333333" stroke-miterlimit="10" width="20.9" height="21.6"/>
		<rect x="129.2" y="372.7" fill="#81D4FA" stroke="#333333" stroke-miterlimit="10" width="20.9" height="21.6"/>
		<rect x="129.2" y="415.9" fill="#81D4FA" stroke="#333333" stroke-miterlimit="10" width="20.9" height="21.6"/>
		<rect x="129.2" y="394.2" fill="#81D4FA" stroke="#333333" stroke-miterlimit="10" width="20.9" height="21.6"/>
		<rect x="129.2" y="265.1" fill="#81D4FA" stroke="#333333" stroke-miterlimit="10" width="20.9" height="21.6"/>
		<rect x="129.2" y="243.5" fill="#FFF59D" stroke="#333333" stroke-miterlimit="10" width="20.9" height="21.6"/>
		<rect x="254.7" y="158.4" fill="#FFF59D" stroke="#333333" stroke-miterlimit="10" width="20.9" height="21.6"/>
		<rect x="254.7" y="201.3" fill="#81D4FA" stroke="#333333" stroke-miterlimit="10" width="20.9" height="21.6"/>
		<rect x="254.7" y="222.7" fill="#FFF59D" stroke="#333333" stroke-miterlimit="10" width="20.9" height="21.6"/>
		<rect x="254.7" y="244.2" fill="#81D4FA" stroke="#333333" stroke-miterlimit="10" width="20.9" height="21.6"/>
		<rect x="254.7" y="265.7" fill="#81D4FA" stroke="#333333" stroke-miterlimit="10" width="20.9" height="21.6"/>
		<rect x="254.7" y="287.1" fill="#81D4FA" stroke="#333333" stroke-miterlimit="10" width="20.9" height="21.6"/>
		<rect x="254.7" y="308.6" fill="#81D4FA" stroke="#333333" stroke-miterlimit="10" width="20.9" height="21.6"/>
		<rect x="254.7" y="351.7" fill="#81D4FA" stroke="#333333" stroke-miterlimit="10" width="20.9" height="21.6"/>
		<rect x="254.7" y="330.1" fill="#81D4FA" stroke="#333333" stroke-miterlimit="10" width="20.9" height="21.6"/>
		<rect x="254.7" y="373.6" fill="#81D4FA" stroke="#333333" stroke-miterlimit="10" width="20.9" height="21.6"/>
		<rect x="254.7" y="395.1" fill="#81D4FA" stroke="#333333" stroke-miterlimit="10" width="20.9" height="21.6"/>
		<rect x="254.7" y="416.5" fill="#81D4FA" stroke="#333333" stroke-miterlimit="10" width="20.9" height="21.6"/>
		<rect x="254.7" y="459.6" fill="#81D4FA" stroke="#333333" stroke-miterlimit="10" width="20.9" height="21.6"/>
		<rect x="254.7" y="438" fill="#81D4FA" stroke="#333333" stroke-miterlimit="10" width="20.9" height="21.6"/>
		<rect x="233.8" y="179.6" fill="#81D4FA" stroke="#333333" stroke-miterlimit="10" width="20.9" height="21.6"/>
		<rect x="254.7" y="179.6" fill="#81D4FA" stroke="#333333" stroke-miterlimit="10" width="20.9" height="21.6"/>
		<rect x="275.6" y="222.7" fill="#81D4FA" stroke="#333333" stroke-miterlimit="10" width="20.9" height="21.6"/>
		<rect x="296.5" y="222.7" fill="#81D4FA" stroke="#333333" stroke-miterlimit="10" width="20.9" height="21.6"/>
		<rect x="317.4" y="222.7" fill="#81D4FA" stroke="#333333" stroke-miterlimit="10" width="20.9" height="21.6"/>
		<rect x="338.4" y="222.7" fill="#81D4FA" stroke="#333333" stroke-miterlimit="10" width="20.9" height="21.6"/>
		<rect x="359.3" y="222.7" fill="#81D4FA" stroke="#333333" stroke-miterlimit="10" width="20.9" height="21.6"/>
		<rect x="380.2" y="222.7" fill="#81D4FA" stroke="#333333" stroke-miterlimit="10" width="20.9" height="21.6"/>
		<rect x="401.1" y="223.1" fill="#81D4FA" stroke="#333333" stroke-miterlimit="10" width="20.9" height="21.6"/>
		<rect x="401.1" y="244" fill="#81D4FA" stroke="#333333" stroke-miterlimit="10" width="20.9" height="21.6"/>
		<rect x="401.1" y="265.4" fill="#81D4FA" stroke="#333333" stroke-miterlimit="10" width="20.9" height="21.6"/>
		<rect x="401.1" y="286.9" fill="#81D4FA" stroke="#333333" stroke-miterlimit="10" width="20.9" height="21.6"/>
		<rect x="401.1" y="308.4" fill="#81D4FA" stroke="#333333" stroke-miterlimit="10" width="20.9" height="21.6"/>
		<rect x="401.1" y="330.2" fill="#81D4FA" stroke="#333333" stroke-miterlimit="10" width="20.9" height="21.6"/>
		<rect x="338.4" y="50.6" fill="#FFF59D" stroke="#333333" stroke-miterlimit="10" width="20.9" height="21.6"/>
		<rect x="338.4" y="72.1" fill="#81D4FA" stroke="#333333" stroke-miterlimit="10" width="20.9" height="21.6"/>
		<rect x="338.4" y="93.9" fill="#81D4FA" stroke="#333333" stroke-miterlimit="10" width="20.9" height="21.6"/>
		<rect x="338.4" y="114.8" fill="#81D4FA" stroke="#333333" stroke-miterlimit="10" width="20.9" height="21.6"/>
		<rect x="338.4" y="136.2" fill="#81D4FA" stroke="#333333" stroke-miterlimit="10" width="20.9" height="21.6"/>
		<rect x="338.4" y="157.7" fill="#81D4FA" stroke="#333333" stroke-miterlimit="10" width="20.9" height="21.6"/>
		<rect x="338.4" y="179.2" fill="#81D4FA" stroke="#333333" stroke-miterlimit="10" width="20.9" height="21.6"/>
		<rect x="338.4" y="201" fill="#81D4FA" stroke="#333333" stroke-miterlimit="10" width="20.9" height="21.6"/>
		<rect x="422" y="222.7" fill="#81D4FA" stroke="#333333" stroke-miterlimit="10" width="20.9" height="21.6"/>
		<rect x="442.9" y="222.7" fill="#81D4FA" stroke="#333333" stroke-miterlimit="10" width="20.9" height="21.6"/>
		<rect x="317.4" y="265.5" fill="#FFF59D" stroke="#333333" stroke-miterlimit="10" width="20.9" height="21.6"/>
		<rect x="338.4" y="265.5" fill="#81D4FA" stroke="#333333" stroke-miterlimit="10" width="20.9" height="21.6"/>
		<rect x="359.3" y="265.5" fill="#81D4FA" stroke="#333333" stroke-miterlimit="10" width="20.9" height="21.6"/>
		<rect x="380.2" y="265.5" fill="#81D4FA" stroke="#333333" stroke-miterlimit="10" width="20.9" height="21.6"/>
		<rect x="275.6" y="179.6" fill="#81D4FA" stroke="#333333" stroke-miterlimit="10" width="20.9" height="21.6"/>
		<rect x="296.5" y="179.6" fill="#81D4FA" stroke="#333333" stroke-miterlimit="10" width="20.9" height="21.6"/>
		<rect x="24.7" y="459.6" fill="#81D4FA" stroke="#333333" stroke-miterlimit="10" width="20.9" height="21.6"/>
		<rect x="3.8" y="459.6" fill="#FFF59D" stroke="#333333" stroke-miterlimit="10" width="20.9" height="21.6"/>
		<rect x="45.6" y="459.6" fill="#81D4FA" stroke="#333333" stroke-miterlimit="10" width="20.9" height="21.6"/>
		<rect x="66.5" y="459.6" fill="#81D4FA" stroke="#333333" stroke-miterlimit="10" width="20.9" height="21.6"/>
		<rect x="87.4" y="459.6" fill="#81D4FA" stroke="#333333" stroke-miterlimit="10" width="20.9" height="21.6"/>
		<rect x="108.4" y="459.6" fill="#81D4FA" stroke="#333333" stroke-miterlimit="10" width="20.9" height="21.6"/>
		<rect x="129.3" y="459.6" fill="#81D4FA" stroke="#333333" stroke-miterlimit="10" width="20.9" height="21.6"/>
		<rect x="129.3" y="287.1" fill="#81D4FA" stroke="#333333" stroke-miterlimit="10" width="20.9" height="21.6"/>
		<rect x="108.4" y="287.1" fill="#FFF59D" stroke="#333333" stroke-miterlimit="10" width="20.9" height="21.6"/>
		<rect x="150.2" y="287.1" fill="#81D4FA" stroke="#333333" stroke-miterlimit="10" width="20.9" height="21.6"/>
		<rect x="171.1" y="287.1" fill="#81D4FA" stroke="#333333" stroke-miterlimit="10" width="20.9" height="21.6"/>
		<rect x="171.1" y="394.2" fill="#81D4FA" stroke="#333333" stroke-miterlimit="10" width="20.9" height="21.6"/>
		<rect x="150.2" y="394.2" fill="#81D4FA" stroke="#333333" stroke-miterlimit="10" width="20.9" height="21.6"/>
		<rect x="192" y="394.2" fill="#81D4FA" stroke="#333333" stroke-miterlimit="10" width="20.9" height="21.6"/>
		<rect x="212.9" y="394.2" fill="#81D4FA" stroke="#333333" stroke-miterlimit="10" width="20.9" height="21.6"/>
		<rect x="171.1" y="351.3" fill="#81D4FA" stroke="#333333" stroke-miterlimit="10" width="20.9" height="21.6"/>
		<rect x="150.2" y="351.3" fill="#81D4FA" stroke="#333333" stroke-miterlimit="10" width="20.9" height="21.6"/>
		<rect x="192" y="351.3" fill="#81D4FA" stroke="#333333" stroke-miterlimit="10" width="20.9" height="21.6"/>
		<rect x="212.9" y="351.3" fill="#81D4FA" stroke="#333333" stroke-miterlimit="10" width="20.9" height="21.6"/>
		<rect x="66.5" y="351.3" fill="#81D4FA" stroke="#333333" stroke-miterlimit="10" width="20.9" height="21.6"/>
		<rect x="45.6" y="351.3" fill="#FFF59D" stroke="#333333" stroke-miterlimit="10" width="20.9" height="21.6"/>
		<rect x="87.4" y="351.3" fill="#81D4FA" stroke="#333333" stroke-miterlimit="10" width="20.9" height="21.6"/>
		<rect x="108.4" y="351.3" fill="#81D4FA" stroke="#333333" stroke-miterlimit="10" width="20.9" height="21.6"/>
		<rect x="66.5" y="394.2" fill="#FFF59D" stroke="#333333" stroke-miterlimit="10" width="20.9" height="21.6"/>
		<rect x="87.4" y="394.2" fill="#81D4FA" stroke="#333333" stroke-miterlimit="10" width="20.9" height="21.6"/>
		<rect x="108.4" y="394.2" fill="#81D4FA" stroke="#333333" stroke-miterlimit="10" width="20.9" height="21.6"/>
		<rect x="192" y="287.1" fill="#81D4FA" stroke="#333333" stroke-miterlimit="10" width="20.9" height="21.6"/>
		<rect x="212.9" y="287.1" fill="#81D4FA" stroke="#333333" stroke-miterlimit="10" width="20.9" height="21.6"/>
		<rect x="233.8" y="287.1" fill="#81D4FA" stroke="#333333" stroke-miterlimit="10" width="20.9" height="21.6"/>
		<rect x="150.2" y="459.6" fill="#81D4FA" stroke="#333333" stroke-miterlimit="10" width="20.9" height="21.6"/>
		<rect x="171.1" y="459.6" fill="#81D4FA" stroke="#333333" stroke-miterlimit="10" width="20.9" height="21.6"/>
		<rect x="192" y="459.6" fill="#81D4FA" stroke="#333333" stroke-miterlimit="10" width="20.9" height="21.6"/>
		<rect x="212.9" y="459.6" fill="#81D4FA" stroke="#333333" stroke-miterlimit="10" width="20.9" height="21.6"/>
		<rect x="233.8" y="459.6" fill="#81D4FA" stroke="#333333" stroke-miterlimit="10" width="20.9" height="21.6"/>
		<text transform="matrix(1 0 0 1 90.282 40.0864)" fill="#212121" font-family="'Chewy'" font-size="10">7</text>
		<text transform="matrix(1 0 0 1 214.282 16.5863)" fill="#212121" font-family="'Chewy'" font-size="10">4</text>
		<text transform="matrix(1 0 0 1 257.282 167.6531)" fill="#212121" font-family="'Chewy'" font-size="10">3</text>
		<text transform="matrix(1 0 0 1 340.782 59.3373)" fill="#212121" font-family="'Chewy'" font-size="10">5</text>
		<text transform="matrix(1 0 0 1 403.7719 147.6402)" fill="#212121" font-family="'Chewy'" font-size="10">6</text>
		<text transform="matrix(1 0 0 1 445.5219 103.4167)" fill="#212121" font-family="'Chewy'" font-size="10">2</text>
		<text transform="matrix(1 0 0 1 257.2816 233.5259)" fill="#212121" font-family="'Chewy'" font-size="10">11</text>
		<text transform="matrix(1 0 0 1 132.6065 252.0763)" fill="#212121" font-family="'Chewy'" font-size="10">1</text>
		<text transform="matrix(1 0 0 1 111.0219 296.1364)" fill="#212121" font-family="'Chewy'" font-size="10">8</text>
		<text transform="matrix(1 0 0 1 47.6281 360.386)" fill="#212121" font-family="'Chewy'" font-size="10">13</text>
		<text transform="matrix(1 0 0 1 68.9486 189.9479)" fill="#212121" font-family="'Chewy'" font-size="10">14</text>
		<text transform="matrix(1 0 0 1 68.9487 403.1797)" fill="#212121" font-family="'Chewy'" font-size="10">9</text>
		<text transform="matrix(1 0 0 1 5.8882 468.7448)" fill="#212121" font-family="'Chewy'" font-size="10">12</text>
		<text transform="matrix(1 0 0 1 319.5219 275.8441)" fill="#212121" font-family="'Chewy'" font-size="10">10</text>
	</g>
</g>
</svg>
