<?xml version="1.0" encoding="utf-8"?>
<!-- Generator: Adobe Illustrator 18.0.0, SVG Export Plug-In . SVG Version: 6.00 Build 0)  -->
<!DOCTYPE svg PUBLIC "-//W3C//DTD SVG 1.1//EN" "http://www.w3.org/Graphics/SVG/1.1/DTD/svg11.dtd">
<svg version="1.1" xmlns="http://www.w3.org/2000/svg" xmlns:xlink="http://www.w3.org/1999/xlink" x="0px" y="0px"
	 viewBox="0 0 258.7 66.9" enable-background="new 0 0 258.7 66.9" xml:space="preserve">
<g id="fondo">
</g>
<g id="Capa_2">
	<g>
		<path fill="#546E7A" d="M22.9,44.8c0,0.3,0,0.5-0.1,0.8s-0.2,0.6-0.3,0.8S22.2,46.8,22,47s-0.5,0.2-0.8,0.2
			c-0.5,0-0.8-0.1-1.1-0.3s-0.4-0.4-0.5-0.6s-0.1-0.5-0.2-0.8s0-0.6,0-0.8s-0.1-0.5-0.1-0.6s-0.2-0.3-0.5-0.3
			c-0.3,0-0.5,0.1-0.7,0.3s-0.4,0.5-0.5,0.8s-0.3,0.7-0.4,1.1s-0.2,0.8-0.2,1.2s-0.1,0.8-0.1,1.1s0,0.6,0,0.9c0,0.3,0,0.6,0,1
			s0.1,0.8,0.2,1.1s0.3,0.7,0.5,0.9s0.5,0.4,0.9,0.4c0.3,0,0.5,0,0.8-0.1s0.5-0.1,0.8-0.2s0.5-0.2,0.8-0.2s0.5-0.1,0.8-0.1
			c0.3,0,0.6,0.1,0.8,0.4s0.3,0.5,0.3,0.9c0,0.4-0.1,0.8-0.4,1.2s-0.6,0.7-1,1S20.5,55.8,20,56s-0.9,0.2-1.3,0.2
			c-1,0-1.8-0.2-2.5-0.7s-1.2-1-1.7-1.7s-0.7-1.5-0.9-2.4s-0.3-1.7-0.3-2.6c0-0.6,0.1-1.2,0.2-1.9s0.3-1.4,0.5-2.1s0.5-1.4,0.8-2
			s0.7-1.2,1.2-1.7s1-0.9,1.5-1.2s1.2-0.5,1.9-0.5c0.7,0,1.2,0.2,1.7,0.5s0.8,0.8,1.1,1.3s0.5,1.1,0.6,1.7S22.9,44.2,22.9,44.8z"/>
		<path fill="#546E7A" d="M30.9,47.5c-0.2,0-0.4,0-0.5-0.1s-0.3-0.1-0.4-0.2c-0.1-0.1-0.2-0.1-0.4-0.2s-0.3-0.1-0.4-0.1
			c-0.3,0-0.5,0.1-0.7,0.2s-0.4,0.3-0.6,0.5s-0.3,0.4-0.4,0.7s-0.2,0.5-0.3,0.7c0,0.2-0.1,0.4-0.1,0.7s0,0.7,0,1.1
			c0,0.4,0,0.8,0,1.1s0,0.6,0,0.8c0,0.2,0,0.5-0.1,0.8s-0.1,0.6-0.3,0.8s-0.3,0.5-0.5,0.7s-0.4,0.3-0.7,0.3c-0.2,0-0.4-0.1-0.6-0.2
			s-0.3-0.3-0.4-0.5s-0.2-0.5-0.3-0.8s-0.1-0.6-0.2-0.9c0-0.3-0.1-0.7-0.1-1s0-0.6,0-0.9s0-0.6,0-0.8s0-0.4,0-0.6c0-0.5,0-1-0.1-1.4
			s-0.1-1-0.1-1.4c0-0.3,0-0.6,0-1s0.1-0.7,0.2-1s0.3-0.6,0.5-0.8s0.6-0.3,1-0.3c0.2,0,0.4,0.1,0.6,0.2s0.3,0.3,0.4,0.6
			s0.2,0.5,0.2,0.7s0.1,0.5,0.1,0.7c0.3-0.5,0.7-1,1.1-1.3s0.9-0.5,1.6-0.5c0.3,0,0.7,0,1,0.1s0.6,0.2,0.9,0.4s0.5,0.4,0.7,0.7
			s0.3,0.6,0.3,1c0,0.4-0.1,0.8-0.4,1S31.3,47.5,30.9,47.5z"/>
		<path fill="#546E7A" d="M41.6,49.3c0,0.8-0.1,1.5-0.2,2.2s-0.4,1.4-0.8,2s-0.8,1-1.4,1.4s-1.3,0.5-2.2,0.5c-0.9,0-1.6-0.2-2.2-0.5
			s-1.1-0.8-1.4-1.4s-0.6-1.2-0.7-1.9s-0.2-1.5-0.2-2.2c0-0.8,0.1-1.6,0.3-2.4c0-0.2,0.1-0.5,0.2-0.9s0.3-0.8,0.5-1.1s0.4-0.7,0.6-1
			s0.5-0.4,0.8-0.4c0.3,0,0.5,0.1,0.7,0.2s0.3,0.3,0.4,0.6s0.2,0.5,0.2,0.7s0,0.5,0,0.7c0,0.3,0,0.6-0.1,0.9s-0.1,0.6-0.2,0.9
			c-0.1,0.4-0.1,0.8-0.2,1.2s-0.1,0.8-0.1,1.2c0,0.2,0,0.4,0,0.7s0.1,0.5,0.2,0.7s0.2,0.4,0.3,0.6s0.4,0.2,0.6,0.2
			c0.4,0,0.6-0.1,0.9-0.3s0.4-0.4,0.5-0.7s0.2-0.6,0.2-0.9s0-0.6,0-0.9c0-0.6,0-1.2-0.1-1.8s-0.2-1.2-0.2-1.8c0-0.1,0-0.2,0-0.3
			c0-0.2,0-0.4,0.1-0.6s0.2-0.4,0.3-0.6s0.3-0.3,0.5-0.4s0.4-0.2,0.6-0.2c0.3,0,0.6,0.1,0.8,0.3s0.4,0.5,0.6,0.8s0.3,0.7,0.4,1.1
			s0.2,0.8,0.2,1.2s0.1,0.8,0.1,1.1S41.6,49.1,41.6,49.3z"/>
		<path fill="#546E7A" d="M50.5,47.3c0,0.1,0,0.1,0,0.2s0,0.1-0.1,0.2c-0.1,0.3-0.3,0.6-0.6,0.8s-0.6,0.3-0.9,0.3
			c-0.5,0-0.9-0.3-1.1-0.8c0-0.1,0-0.1,0-0.2s0-0.2,0-0.3V47c0-0.2-0.1-0.3-0.1-0.5s-0.2-0.2-0.3-0.2c-0.2,0-0.5,0.1-0.7,0.4
			s-0.4,0.6-0.6,1s-0.3,0.8-0.4,1.2s-0.1,0.8-0.1,1c0,0.2,0,0.5,0,0.7s0.1,0.6,0.2,0.9s0.2,0.5,0.3,0.7s0.3,0.3,0.6,0.3
			s0.4-0.1,0.6-0.2s0.4-0.3,0.6-0.5c0.2-0.2,0.4-0.3,0.6-0.5s0.5-0.3,0.7-0.3c0.3,0,0.6,0.1,0.8,0.4s0.3,0.5,0.3,0.8
			c0,0.5-0.1,0.9-0.4,1.3s-0.6,0.8-0.9,1s-0.8,0.5-1.2,0.7s-0.9,0.3-1.3,0.3c-0.7,0-1.4-0.2-1.9-0.6s-0.9-0.8-1.2-1.4
			s-0.5-1.2-0.7-1.9s-0.2-1.3-0.2-1.9c0-0.7,0.1-1.5,0.3-2.3s0.5-1.6,0.9-2.3s0.9-1.3,1.5-1.7s1.4-0.7,2.2-0.7c0.5,0,1,0.1,1.4,0.3
			s0.7,0.5,1,0.9s0.4,0.8,0.6,1.3s0.2,0.9,0.2,1.4c0,0.1,0,0.1,0,0.2S50.5,47.3,50.5,47.3z"/>
		<path fill="#546E7A" d="M55.2,47.9c0,0.2,0,0.4,0,0.6s0,0.4,0,0.6c0,0.2,0,0.5,0,0.9s0,0.8,0,1.3s-0.1,0.9-0.1,1.4
			s-0.2,0.9-0.3,1.3s-0.3,0.7-0.5,0.9s-0.5,0.4-0.9,0.4c-0.3,0-0.5-0.1-0.7-0.3s-0.3-0.5-0.4-0.9s-0.2-0.7-0.3-1.2s-0.1-0.8-0.1-1.3
			s0-0.8,0-1.1s0-0.6,0-0.8c0-0.2,0-0.5,0-0.9s0-0.8,0-1.3s0.1-0.9,0.2-1.4s0.2-0.9,0.3-1.3s0.3-0.7,0.6-1s0.5-0.4,0.9-0.4
			c0.4,0,0.6,0.2,0.8,0.6s0.3,0.8,0.4,1.3s0.2,1,0.2,1.5S55.2,47.6,55.2,47.9z M55,40.9c0,0.2-0.1,0.4-0.2,0.5s-0.2,0.3-0.4,0.4
			s-0.3,0.2-0.5,0.3s-0.4,0.1-0.5,0.1c-0.3,0-0.5-0.1-0.7-0.2s-0.3-0.3-0.3-0.6c0-0.2,0.1-0.4,0.2-0.5s0.2-0.3,0.4-0.4
			s0.3-0.2,0.5-0.2s0.4-0.1,0.6-0.1c0.3,0,0.5,0.1,0.7,0.2S55,40.6,55,40.9z"/>
		<path fill="#546E7A" d="M65.9,48.2c0,0.7,0,1.4,0,2.1s-0.1,1.4-0.1,2.1c0,0.6-0.1,1.2-0.2,1.9s-0.2,1.4-0.3,2s-0.3,1.3-0.6,1.9
			s-0.6,1.2-1,1.7s-0.9,0.9-1.5,1.1s-1.3,0.4-2.1,0.4c-0.4,0-0.8-0.1-1.2-0.2s-0.9-0.3-1.3-0.5s-0.7-0.5-1-0.8s-0.4-0.7-0.4-1.1
			c0-0.3,0.1-0.6,0.3-0.9s0.5-0.4,0.9-0.4c0.2,0,0.4,0,0.6,0.1s0.4,0.2,0.6,0.3s0.4,0.2,0.6,0.3s0.4,0.1,0.6,0.1
			c0.5,0,0.9-0.1,1.3-0.4s0.6-0.6,0.8-1s0.4-0.8,0.5-1.3s0.2-0.9,0.2-1.3c-0.3,0.3-0.6,0.5-1,0.6s-0.7,0.2-1.1,0.2
			c-0.7,0-1.3-0.1-1.8-0.4s-0.9-0.6-1.2-1s-0.5-1-0.7-1.5s-0.2-1.2-0.2-1.9c0-0.4,0-0.9,0.1-1.4s0.2-1.1,0.4-1.6s0.4-1.1,0.7-1.6
			s0.6-1,0.9-1.4s0.8-0.7,1.2-1s0.9-0.4,1.5-0.4c0.5,0,1,0.2,1.4,0.5s0.6,0.7,0.7,1.3c0.2-0.3,0.3-0.6,0.6-0.9s0.5-0.4,0.9-0.4
			c0.2,0,0.4,0.1,0.5,0.3s0.2,0.4,0.3,0.7s0.1,0.6,0.2,1s0.1,0.7,0.1,1.1s0,0.7,0,1S65.9,48.1,65.9,48.2z M62.8,49.5
			c0-0.2,0-0.5-0.1-0.8s-0.2-0.6-0.3-0.9S62.2,47.2,62,47s-0.4-0.3-0.6-0.3c-0.3,0-0.6,0.1-0.8,0.3s-0.4,0.5-0.6,0.8s-0.3,0.6-0.4,1
			s-0.1,0.6-0.1,0.9c0,0.2,0,0.4,0,0.7s0.1,0.6,0.2,0.9s0.2,0.5,0.4,0.7s0.3,0.3,0.6,0.3c0.4,0,0.7-0.1,1-0.3s0.5-0.4,0.7-0.7
			s0.3-0.6,0.4-0.9S62.8,49.8,62.8,49.5z"/>
		<path fill="#546E7A" d="M74.5,47.5c-0.2,0-0.4,0-0.5-0.1s-0.3-0.1-0.4-0.2c-0.1-0.1-0.2-0.1-0.4-0.2s-0.3-0.1-0.4-0.1
			c-0.3,0-0.5,0.1-0.7,0.2s-0.4,0.3-0.6,0.5s-0.3,0.4-0.4,0.7s-0.2,0.5-0.3,0.7c0,0.2-0.1,0.4-0.1,0.7s0,0.7,0,1.1
			c0,0.4,0,0.8,0,1.1s0,0.6,0,0.8c0,0.2,0,0.5-0.1,0.8s-0.1,0.6-0.3,0.8s-0.3,0.5-0.5,0.7s-0.4,0.3-0.7,0.3c-0.2,0-0.4-0.1-0.6-0.2
			s-0.3-0.3-0.4-0.5s-0.2-0.5-0.3-0.8s-0.1-0.6-0.2-0.9c0-0.3-0.1-0.7-0.1-1s0-0.6,0-0.9s0-0.6,0-0.8s0-0.4,0-0.6c0-0.5,0-1-0.1-1.4
			s-0.1-1-0.1-1.4c0-0.3,0-0.6,0-1s0.1-0.7,0.2-1s0.3-0.6,0.5-0.8s0.6-0.3,1-0.3c0.2,0,0.4,0.1,0.6,0.2s0.3,0.3,0.4,0.6
			s0.2,0.5,0.2,0.7s0.1,0.5,0.1,0.7c0.3-0.5,0.7-1,1.1-1.3s0.9-0.5,1.6-0.5c0.3,0,0.7,0,1,0.1s0.6,0.2,0.9,0.4s0.5,0.4,0.7,0.7
			s0.3,0.6,0.3,1c0,0.4-0.1,0.8-0.4,1S74.9,47.5,74.5,47.5z"/>
		<path fill="#546E7A" d="M84.9,52.3c0,0.2,0,0.6,0,1s-0.1,0.8-0.2,1.2s-0.2,0.7-0.5,1s-0.5,0.4-0.9,0.4c-0.5,0-0.9-0.2-1.2-0.5
			s-0.4-0.7-0.4-1.2c-0.4,0.4-0.9,0.7-1.5,0.9s-1.1,0.3-1.7,0.3c-0.4,0-0.8-0.1-1.1-0.3s-0.7-0.4-0.9-0.7s-0.5-0.6-0.7-1
			s-0.2-0.7-0.2-1.1c0-0.7,0.2-1.2,0.6-1.7s0.9-0.9,1.5-1.3s1.2-0.6,1.9-0.8s1.3-0.3,1.8-0.4c0-0.1,0-0.1,0-0.2s0-0.1,0-0.2
			c0-0.4-0.1-0.8-0.3-1s-0.6-0.4-1-0.4c-0.3,0-0.6,0.1-0.9,0.2s-0.5,0.2-0.7,0.4s-0.4,0.3-0.7,0.4s-0.5,0.2-0.7,0.2
			c-0.3,0-0.6-0.1-0.8-0.3s-0.3-0.4-0.3-0.7c0-0.5,0.1-0.9,0.4-1.2s0.6-0.7,1-0.9s0.8-0.5,1.3-0.6s0.9-0.2,1.3-0.2
			c0.4,0,0.7,0,1.1,0.1s0.7,0.2,1,0.4s0.6,0.4,0.9,0.7s0.5,0.6,0.6,0.9c0.2,0.5,0.4,1,0.6,1.6s0.3,1.1,0.3,1.7s0.1,1.2,0.2,1.8
			S84.9,51.8,84.9,52.3z M81.7,51.7l-0.1-1.4c0,0-0.1,0-0.1,0s-0.1,0-0.1,0c-0.2,0-0.4,0-0.7,0.1s-0.5,0.2-0.8,0.4s-0.5,0.3-0.6,0.5
			s-0.3,0.4-0.3,0.6c0,0.2,0.1,0.3,0.2,0.4s0.3,0.1,0.5,0.1c0.3,0,0.6-0.1,1-0.2S81.4,51.8,81.7,51.7z"/>
		<path fill="#546E7A" d="M98.6,48.4c0,0.3,0,0.6,0,1.1s0,0.9,0,1.4s-0.1,1-0.1,1.6s-0.2,1-0.3,1.4s-0.3,0.8-0.5,1s-0.5,0.4-0.8,0.4
			c-0.3,0-0.5-0.1-0.7-0.4s-0.3-0.5-0.3-0.9s-0.1-0.7-0.1-1s0-0.6,0-0.8c0-0.6,0-1.2,0.1-1.8s0.1-1.2,0.1-1.8c0-0.1,0-0.2,0-0.4
			s0-0.4,0-0.5s-0.1-0.3-0.1-0.5S95.4,47,95.3,47c-0.2,0-0.4,0.1-0.6,0.4s-0.3,0.6-0.4,0.9s-0.2,0.7-0.2,1S94,49.9,94,50.1
			c0,0.2-0.1,0.4-0.1,0.8s0,0.7-0.1,1.2s-0.1,0.9-0.2,1.3s-0.2,0.8-0.3,1.2s-0.3,0.7-0.4,0.9s-0.4,0.3-0.7,0.3
			c-0.3,0-0.6-0.1-0.8-0.4s-0.3-0.6-0.4-1S91,53.6,91,53.2s0-0.7,0-0.9c0-0.2,0-0.5,0-0.7s0-0.4,0-0.7c0-0.1,0-0.3,0-0.5
			s0-0.5,0-0.7s0-0.5,0-0.8s-0.1-0.6-0.1-0.8s-0.1-0.4-0.2-0.6s-0.2-0.2-0.3-0.2c-0.2,0-0.3,0.1-0.5,0.3s-0.3,0.5-0.4,0.8
			s-0.2,0.6-0.3,0.9s-0.1,0.5-0.1,0.7v0.1c0,0.7,0,1.3,0.1,1.9s0.1,1.3,0.1,1.9c0,0.4-0.1,0.7-0.4,1.1s-0.6,0.5-1,0.5
			c-0.3,0-0.6-0.1-0.8-0.4s-0.4-0.5-0.5-0.9s-0.2-0.8-0.3-1.3s-0.1-0.9-0.2-1.4s0-0.8-0.1-1.2s0-0.6,0-0.8c0-0.2,0-0.5,0-0.9
			s0-0.8,0-1.3s0.1-0.9,0.1-1.4s0.1-0.9,0.3-1.3s0.3-0.7,0.5-1s0.5-0.4,0.8-0.4c0.4,0,0.6,0.1,0.9,0.3s0.3,0.5,0.3,0.9
			c0,0.1,0,0.2,0,0.2s0,0.2,0,0.2c0.2-0.2,0.3-0.4,0.6-0.7s0.5-0.4,0.7-0.6s0.5-0.3,0.8-0.5s0.6-0.2,0.9-0.2c0.3,0,0.5,0.1,0.7,0.2
			s0.4,0.3,0.6,0.6s0.3,0.5,0.4,0.7s0.2,0.5,0.2,0.7c0.1-0.2,0.3-0.5,0.5-0.7s0.4-0.5,0.6-0.7s0.5-0.3,0.8-0.5s0.6-0.2,0.9-0.2
			c0.3,0,0.5,0.1,0.7,0.3s0.4,0.5,0.5,0.8s0.3,0.7,0.3,1.1s0.2,0.8,0.2,1.2s0.1,0.8,0.1,1.1S98.6,48.2,98.6,48.4z"/>
		<path fill="#546E7A" d="M108.7,52.3c0,0.2,0,0.6,0,1s-0.1,0.8-0.2,1.2s-0.2,0.7-0.5,1s-0.5,0.4-0.9,0.4c-0.5,0-0.9-0.2-1.2-0.5
			s-0.4-0.7-0.4-1.2c-0.4,0.4-0.9,0.7-1.5,0.9s-1.1,0.3-1.7,0.3c-0.4,0-0.8-0.1-1.1-0.3s-0.7-0.4-0.9-0.7s-0.5-0.6-0.7-1
			s-0.2-0.7-0.2-1.1c0-0.7,0.2-1.2,0.6-1.7s0.9-0.9,1.5-1.3s1.2-0.6,1.9-0.8s1.3-0.3,1.8-0.4c0-0.1,0-0.1,0-0.2s0-0.1,0-0.2
			c0-0.4-0.1-0.8-0.3-1s-0.6-0.4-1-0.4c-0.3,0-0.6,0.1-0.9,0.2s-0.5,0.2-0.7,0.4s-0.4,0.3-0.7,0.4s-0.5,0.2-0.7,0.2
			c-0.3,0-0.6-0.1-0.8-0.3s-0.3-0.4-0.3-0.7c0-0.5,0.1-0.9,0.4-1.2s0.6-0.7,1-0.9s0.8-0.5,1.3-0.6s0.9-0.2,1.3-0.2
			c0.4,0,0.7,0,1.1,0.1s0.7,0.2,1,0.4s0.6,0.4,0.9,0.7s0.5,0.6,0.6,0.9c0.2,0.5,0.4,1,0.6,1.6s0.3,1.1,0.3,1.7s0.1,1.2,0.2,1.8
			S108.7,51.8,108.7,52.3z M105.4,51.7l-0.1-1.4c0,0-0.1,0-0.1,0s-0.1,0-0.1,0c-0.2,0-0.4,0-0.7,0.1s-0.5,0.2-0.8,0.4
			s-0.5,0.3-0.6,0.5s-0.3,0.4-0.3,0.6c0,0.2,0.1,0.3,0.2,0.4s0.3,0.1,0.5,0.1c0.3,0,0.6-0.1,1-0.2S105.1,51.8,105.4,51.7z"/>
	</g>
	<g>
		<path fill="#263238" d="M23.4,11.2c0,0.7-0.2,1.5-0.5,2.2s-0.7,1.4-1.3,1.9s-1.1,1-1.8,1.4s-1.4,0.6-2.1,0.6c0,0.2,0,0.6,0,0.9
			s0,0.8-0.1,1.2s-0.1,0.8-0.2,1.2s-0.2,0.8-0.3,1.1s-0.3,0.6-0.6,0.8s-0.5,0.3-0.8,0.3c-0.4,0-0.7-0.1-0.9-0.4s-0.4-0.6-0.5-0.9
			s-0.2-0.7-0.2-1.1s-0.1-0.7-0.1-1c0-0.4,0-0.8-0.1-1.2s0-0.8,0-1.2c0-0.2,0-0.5,0-1s0-1,0-1.7s0-1.3,0-1.9s0-1.3,0.1-1.9
			s0.1-1.1,0.1-1.5s0.1-0.6,0.1-0.7c0,0,0.1,0,0.1-0.1s0.1-0.1,0.2-0.1s0.2-0.1,0.2-0.1S14.9,8,14.9,8c0.6-0.4,1.3-0.7,2.1-0.9
			s1.5-0.4,2.2-0.4c0.6,0,1.2,0.1,1.7,0.4s1,0.6,1.3,1s0.6,0.9,0.8,1.5S23.4,10.6,23.4,11.2z M19.9,11.7c0-0.3-0.1-0.5-0.2-0.7
			s-0.3-0.3-0.6-0.3c-0.3,0-0.5,0.1-0.8,0.2s-0.5,0.2-0.7,0.3c0,0.5,0.1,0.9,0.1,1.4s0,0.9,0,1.4c0.2-0.1,0.5-0.2,0.7-0.4
			s0.5-0.3,0.7-0.5s0.4-0.4,0.6-0.6S19.9,12,19.9,11.7z"/>
		<path fill="#263238" d="M31,14.5c-0.2,0-0.4,0-0.5-0.1s-0.3-0.1-0.4-0.2c-0.1-0.1-0.2-0.1-0.4-0.2s-0.3-0.1-0.4-0.1
			c-0.3,0-0.5,0.1-0.7,0.2s-0.4,0.3-0.6,0.5s-0.3,0.4-0.4,0.7s-0.2,0.5-0.3,0.7c0,0.2-0.1,0.4-0.1,0.7s0,0.7,0,1.1
			c0,0.4,0,0.8,0,1.1s0,0.6,0,0.8c0,0.2,0,0.5-0.1,0.8s-0.1,0.6-0.3,0.8s-0.3,0.5-0.5,0.7s-0.4,0.3-0.7,0.3c-0.2,0-0.4-0.1-0.6-0.2
			s-0.3-0.3-0.4-0.5s-0.2-0.5-0.3-0.8s-0.1-0.6-0.2-0.9c0-0.3-0.1-0.7-0.1-1s0-0.6,0-0.9s0-0.6,0-0.8s0-0.4,0-0.6c0-0.5,0-1-0.1-1.4
			s-0.1-1-0.1-1.4c0-0.3,0-0.6,0-1s0.1-0.7,0.2-1s0.3-0.6,0.5-0.8s0.6-0.3,1-0.3c0.2,0,0.4,0.1,0.6,0.2s0.3,0.3,0.4,0.6
			s0.2,0.5,0.2,0.7s0.1,0.5,0.1,0.7c0.3-0.5,0.7-1,1.1-1.3s0.9-0.5,1.6-0.5c0.3,0,0.7,0,1,0.1s0.6,0.2,0.9,0.4s0.5,0.4,0.7,0.7
			s0.3,0.6,0.3,1c0,0.4-0.1,0.8-0.4,1S31.4,14.5,31,14.5z"/>
		<path fill="#263238" d="M41.5,19.3c0,0.2,0,0.6,0,1s-0.1,0.8-0.2,1.2s-0.2,0.7-0.5,1s-0.5,0.4-0.9,0.4c-0.5,0-0.9-0.2-1.2-0.5
			s-0.4-0.7-0.4-1.2c-0.4,0.4-0.9,0.7-1.5,0.9s-1.1,0.3-1.7,0.3c-0.4,0-0.8-0.1-1.1-0.3s-0.7-0.4-0.9-0.7s-0.5-0.6-0.7-1
			s-0.2-0.7-0.2-1.1c0-0.7,0.2-1.2,0.6-1.7s0.9-0.9,1.5-1.3s1.2-0.6,1.9-0.8s1.3-0.3,1.8-0.4c0-0.1,0-0.1,0-0.2s0-0.1,0-0.2
			c0-0.4-0.1-0.8-0.3-1s-0.6-0.4-1-0.4c-0.3,0-0.6,0.1-0.9,0.2s-0.5,0.2-0.7,0.4s-0.4,0.3-0.7,0.4s-0.5,0.2-0.7,0.2
			c-0.3,0-0.6-0.1-0.8-0.3s-0.3-0.4-0.3-0.7c0-0.5,0.1-0.9,0.4-1.2s0.6-0.7,1-0.9s0.8-0.5,1.3-0.6s0.9-0.2,1.3-0.2
			c0.4,0,0.7,0,1.1,0.1s0.7,0.2,1,0.4s0.6,0.4,0.9,0.7s0.5,0.6,0.6,0.9c0.2,0.5,0.4,1,0.6,1.6s0.3,1.1,0.3,1.7s0.1,1.2,0.2,1.8
			S41.5,18.8,41.5,19.3z M38.2,18.7l-0.1-1.4c0,0-0.1,0-0.1,0s-0.1,0-0.1,0c-0.2,0-0.4,0-0.7,0.1s-0.5,0.2-0.8,0.4s-0.5,0.3-0.6,0.5
			s-0.3,0.4-0.3,0.6c0,0.2,0.1,0.3,0.2,0.4s0.3,0.1,0.5,0.1c0.3,0,0.6-0.1,1-0.2S37.9,18.8,38.2,18.7z"/>
		<path fill="#263238" d="M50.3,14.3c0,0.1,0,0.1,0,0.2s0,0.1-0.1,0.2c-0.1,0.3-0.3,0.6-0.6,0.8s-0.6,0.3-0.9,0.3
			c-0.5,0-0.9-0.3-1.1-0.8c0-0.1,0-0.1,0-0.2s0-0.2,0-0.3V14c0-0.2-0.1-0.3-0.1-0.5s-0.2-0.2-0.3-0.2c-0.2,0-0.5,0.1-0.7,0.4
			s-0.4,0.6-0.6,1s-0.3,0.8-0.4,1.2s-0.1,0.8-0.1,1c0,0.2,0,0.5,0,0.7s0.1,0.6,0.2,0.9s0.2,0.5,0.3,0.7s0.3,0.3,0.6,0.3
			s0.4-0.1,0.6-0.2s0.4-0.3,0.6-0.5c0.2-0.2,0.4-0.3,0.6-0.5s0.5-0.3,0.7-0.3c0.3,0,0.6,0.1,0.8,0.4s0.3,0.5,0.3,0.8
			c0,0.5-0.1,0.9-0.4,1.3s-0.6,0.8-0.9,1s-0.8,0.5-1.2,0.7s-0.9,0.3-1.3,0.3c-0.7,0-1.4-0.2-1.9-0.6s-0.9-0.8-1.2-1.4
			s-0.5-1.2-0.7-1.9s-0.2-1.3-0.2-1.9c0-0.7,0.1-1.5,0.3-2.3s0.5-1.6,0.9-2.3s0.9-1.3,1.5-1.7s1.4-0.7,2.2-0.7c0.5,0,1,0.1,1.4,0.3
			s0.7,0.5,1,0.9s0.4,0.8,0.6,1.3s0.2,0.9,0.2,1.4c0,0.1,0,0.1,0,0.2S50.3,14.3,50.3,14.3z"/>
		<path fill="#263238" d="M56.2,22.9c-1,0-1.7-0.1-2.3-0.4S53,22,52.8,21.5s-0.4-1-0.5-1.7s-0.1-1.4-0.1-2.2c0-0.6,0-1.3,0.1-1.9
			s0.1-1.3,0.2-2.1c-0.2,0-0.3,0-0.5,0s-0.2,0-0.3,0c-0.4,0-0.8-0.1-1.1-0.3s-0.5-0.5-0.5-0.9c0-0.2,0.1-0.5,0.3-0.7
			s0.4-0.4,0.7-0.5s0.6-0.2,0.9-0.3s0.7-0.1,1-0.2c0-0.4,0-0.8,0.1-1.3s0.2-0.9,0.3-1.3s0.3-0.7,0.6-1s0.6-0.4,0.9-0.4
			c0.2,0,0.4,0.1,0.6,0.2s0.3,0.3,0.4,0.5s0.2,0.4,0.2,0.7s0.1,0.5,0.1,0.7c0,0.3,0,0.6-0.1,0.8s-0.1,0.6-0.2,1.1
			c0.2,0,0.4,0,0.5-0.1s0.2,0,0.2,0c0.2,0,0.5,0,0.7,0.1s0.5,0.1,0.7,0.2s0.4,0.2,0.5,0.4s0.2,0.3,0.2,0.6c0,0.2-0.1,0.5-0.3,0.7
			s-0.4,0.4-0.7,0.5s-0.6,0.2-1,0.3s-0.7,0.1-1,0.2c-0.1,0.6-0.1,1.1-0.2,1.5s-0.1,0.9-0.1,1.4c0,0.2-0.1,0.5-0.1,0.7s0,0.5,0,0.7
			c0,0.2,0,0.4,0,0.6s0.1,0.5,0.1,0.7s0.2,0.4,0.4,0.6s0.4,0.2,0.7,0.2c0.2,0,0.4,0,0.6-0.1s0.4-0.1,0.6-0.1c0.4,0,0.6,0.1,0.8,0.4
			s0.2,0.6,0.2,0.9c0,0.3-0.1,0.5-0.3,0.7s-0.4,0.4-0.6,0.5s-0.6,0.2-0.9,0.3S56.5,22.9,56.2,22.9z"/>
		<path fill="#263238" d="M62.9,14.9c0,0.2,0,0.4,0,0.6s0,0.4,0,0.6c0,0.2,0,0.5,0,0.9s0,0.8,0,1.3s-0.1,0.9-0.1,1.4
			s-0.2,0.9-0.3,1.3s-0.3,0.7-0.5,0.9s-0.5,0.4-0.9,0.4c-0.3,0-0.5-0.1-0.7-0.3s-0.3-0.5-0.4-0.9s-0.2-0.7-0.3-1.2s-0.1-0.8-0.1-1.3
			s0-0.8,0-1.1s0-0.6,0-0.8c0-0.2,0-0.5,0-0.9s0-0.8,0-1.3s0.1-0.9,0.2-1.4s0.2-0.9,0.3-1.3s0.3-0.7,0.6-1s0.5-0.4,0.9-0.4
			c0.4,0,0.6,0.2,0.8,0.6s0.3,0.8,0.4,1.3s0.2,1,0.2,1.5S62.9,14.6,62.9,14.9z M62.7,7.9c0,0.2-0.1,0.4-0.2,0.5s-0.2,0.3-0.4,0.4
			S61.8,9,61.6,9.1s-0.4,0.1-0.5,0.1c-0.3,0-0.5-0.1-0.7-0.2s-0.3-0.3-0.3-0.6c0-0.2,0.1-0.4,0.2-0.5s0.2-0.3,0.4-0.4
			s0.3-0.2,0.5-0.2s0.4-0.1,0.6-0.1c0.3,0,0.5,0.1,0.7,0.2S62.7,7.6,62.7,7.9z"/>
		<path fill="#263238" d="M71.9,14.3c0,0.1,0,0.1,0,0.2s0,0.1-0.1,0.2c-0.1,0.3-0.3,0.6-0.6,0.8s-0.6,0.3-0.9,0.3
			c-0.5,0-0.9-0.3-1.1-0.8c0-0.1,0-0.1,0-0.2s0-0.2,0-0.3V14c0-0.2-0.1-0.3-0.1-0.5s-0.2-0.2-0.3-0.2c-0.2,0-0.5,0.1-0.7,0.4
			s-0.4,0.6-0.6,1s-0.3,0.8-0.4,1.2s-0.1,0.8-0.1,1c0,0.2,0,0.5,0,0.7s0.1,0.6,0.2,0.9s0.2,0.5,0.3,0.7s0.3,0.3,0.6,0.3
			s0.4-0.1,0.6-0.2s0.4-0.3,0.6-0.5c0.2-0.2,0.4-0.3,0.6-0.5s0.5-0.3,0.7-0.3c0.3,0,0.6,0.1,0.8,0.4s0.3,0.5,0.3,0.8
			c0,0.5-0.1,0.9-0.4,1.3s-0.6,0.8-0.9,1s-0.8,0.5-1.2,0.7s-0.9,0.3-1.3,0.3c-0.7,0-1.4-0.2-1.9-0.6s-0.9-0.8-1.2-1.4
			s-0.5-1.2-0.7-1.9s-0.2-1.3-0.2-1.9c0-0.7,0.1-1.5,0.3-2.3s0.5-1.6,0.9-2.3s0.9-1.3,1.5-1.7S68,10,68.8,10c0.5,0,1,0.1,1.4,0.3
			s0.7,0.5,1,0.9s0.4,0.8,0.6,1.3s0.2,0.9,0.2,1.4c0,0.1,0,0.1,0,0.2S72,14.3,71.9,14.3z"/>
		<path fill="#263238" d="M81.8,19.3c0,0.2,0,0.6,0,1s-0.1,0.8-0.2,1.2s-0.2,0.7-0.5,1s-0.5,0.4-0.9,0.4c-0.5,0-0.9-0.2-1.2-0.5
			s-0.4-0.7-0.4-1.2c-0.4,0.4-0.9,0.7-1.5,0.9s-1.1,0.3-1.7,0.3c-0.4,0-0.8-0.1-1.1-0.3s-0.7-0.4-0.9-0.7s-0.5-0.6-0.7-1
			s-0.2-0.7-0.2-1.1c0-0.7,0.2-1.2,0.6-1.7s0.9-0.9,1.5-1.3s1.2-0.6,1.9-0.8s1.3-0.3,1.8-0.4c0-0.1,0-0.1,0-0.2s0-0.1,0-0.2
			c0-0.4-0.1-0.8-0.3-1s-0.6-0.4-1-0.4c-0.3,0-0.6,0.1-0.9,0.2s-0.5,0.2-0.7,0.4S75,14,74.8,14.1s-0.5,0.2-0.7,0.2
			c-0.3,0-0.6-0.1-0.8-0.3s-0.3-0.4-0.3-0.7c0-0.5,0.1-0.9,0.4-1.2s0.6-0.7,1-0.9s0.8-0.5,1.3-0.6s0.9-0.2,1.3-0.2
			c0.4,0,0.7,0,1.1,0.1s0.7,0.2,1,0.4s0.6,0.4,0.9,0.7s0.5,0.6,0.6,0.9c0.2,0.5,0.4,1,0.6,1.6s0.3,1.1,0.3,1.7s0.1,1.2,0.2,1.8
			S81.8,18.8,81.8,19.3z M78.5,18.7l-0.1-1.4c0,0-0.1,0-0.1,0s-0.1,0-0.1,0c-0.2,0-0.4,0-0.7,0.1s-0.5,0.2-0.8,0.4s-0.5,0.3-0.6,0.5
			S76,18.7,76,18.9c0,0.2,0.1,0.3,0.2,0.4s0.3,0.1,0.5,0.1c0.3,0,0.6-0.1,1-0.2S78.3,18.8,78.5,18.7z"/>
		<path fill="#263238" d="M91.3,10.3c0,0.4-0.1,0.8-0.4,1.1s-0.6,0.4-1.1,0.4c-0.5,0-0.9-0.1-1.3-0.4S88,10.7,88,10.2
			c0-0.2,0.1-0.5,0.2-0.8s0.3-0.7,0.4-1s0.4-0.6,0.6-0.8s0.4-0.3,0.7-0.3c0.1,0,0.2,0,0.3,0.1s0.1,0.2,0.1,0.3c0,0.2,0,0.3-0.1,0.5
			S90,8.3,89.9,8.5s-0.2,0.3-0.2,0.4s-0.1,0.3-0.1,0.4c0.2-0.1,0.4-0.2,0.7-0.2c0.3,0,0.6,0.1,0.8,0.4S91.3,10,91.3,10.3z
			 M95.1,10.3c0,0.4-0.1,0.8-0.4,1.1s-0.6,0.4-1.1,0.4c-0.5,0-0.9-0.1-1.3-0.4s-0.6-0.7-0.6-1.2c0-0.2,0.1-0.5,0.2-0.9
			s0.3-0.7,0.4-1s0.4-0.6,0.6-0.8s0.4-0.3,0.7-0.3c0.1,0,0.2,0,0.3,0.1S94,7.5,94,7.6c0,0.2,0,0.3-0.1,0.5s-0.2,0.3-0.2,0.4
			s-0.2,0.3-0.2,0.4s-0.1,0.3-0.1,0.4c0.2-0.1,0.4-0.2,0.7-0.2c0.3,0,0.6,0.1,0.8,0.4S95.1,10,95.1,10.3z"/>
		<path fill="#263238" d="M104.8,19c0,0.3-0.1,0.5-0.2,0.8c-0.1,0.2-0.5,0.5-1,0.8s-1.1,0.6-1.7,0.9s-1.2,0.5-1.8,0.7
			s-1,0.3-1.3,0.3c-0.2,0-0.4,0-0.7-0.1s-0.5-0.2-0.8-0.3s-0.5-0.3-0.7-0.5s-0.4-0.3-0.5-0.5c-0.1-0.1-0.1-0.3-0.2-0.6
			s-0.1-0.6-0.1-1s-0.1-0.8-0.1-1.2s-0.1-0.8-0.1-1.2s0-0.7,0-1s0-0.5,0-0.7c0-0.5,0-1.1,0.1-1.7s0.1-1.3,0.2-2s0.2-1.3,0.4-1.9
			s0.4-1.1,0.7-1.5c0.1-0.1,0.3-0.3,0.6-0.4s0.6-0.3,1-0.4s0.8-0.2,1.3-0.3s0.9-0.2,1.3-0.3s0.8-0.1,1.1-0.2s0.6-0.1,0.8-0.1
			c0.2,0,0.4,0,0.6,0.1s0.3,0.2,0.5,0.4s0.2,0.3,0.3,0.5s0.1,0.4,0.1,0.6c0,0.2,0,0.3-0.1,0.5s-0.1,0.3-0.2,0.4
			c-0.1,0.2-0.4,0.4-0.9,0.6s-0.9,0.5-1.4,0.7s-1,0.5-1.5,0.6s-0.8,0.3-1,0.4c-0.1,0.3-0.1,0.6-0.2,1s-0.1,0.6-0.1,1
			c0.4-0.2,0.9-0.4,1.4-0.6s1-0.3,1.5-0.3c1,0,1.5,0.5,1.5,1.4c0,0.2,0,0.4-0.1,0.6s-0.2,0.3-0.3,0.5s-0.3,0.3-0.5,0.4
			s-0.4,0.2-0.5,0.3c-0.4,0.2-0.9,0.4-1.4,0.6s-1,0.3-1.4,0.5c0,0.1-0.1,0.2-0.1,0.4s0,0.3,0,0.4c0,0.2,0,0.4,0,0.6s0.1,0.4,0.1,0.6
			c0.2-0.1,0.4-0.1,0.8-0.3s0.7-0.2,1.1-0.4s0.8-0.2,1.1-0.3s0.6-0.1,0.8-0.1c0.2,0,0.4,0,0.6,0.1s0.3,0.2,0.5,0.3s0.2,0.3,0.3,0.5
			S104.8,18.8,104.8,19z"/>
		<path fill="#263238" d="M109.6,9.8c0,0.7,0,1.5-0.1,2.2s-0.1,1.5-0.1,2.2c0,1,0,1.9,0.1,2.9s0.1,1.9,0.1,2.9c0,0.2,0,0.5,0,0.8
			s-0.1,0.6-0.2,0.9s-0.3,0.5-0.5,0.7s-0.5,0.3-0.8,0.3c-0.3,0-0.6-0.2-0.9-0.5s-0.4-0.7-0.6-1.2s-0.3-1.1-0.4-1.7s-0.2-1.2-0.2-1.8
			s-0.1-1.1-0.1-1.6s0-0.8,0-1.1c0-0.3,0-0.6,0-1.1s0.1-1,0.1-1.6s0.2-1.2,0.3-1.8s0.3-1.1,0.5-1.6s0.4-0.9,0.7-1.2s0.6-0.5,1-0.5
			c0.3,0,0.5,0.1,0.7,0.3s0.3,0.4,0.3,0.7s0.1,0.6,0.1,0.9S109.6,9.6,109.6,9.8z"/>
		<path fill="#263238" d="M123.2,14.5c-0.2,0-0.4,0-0.5-0.1s-0.3-0.1-0.4-0.2c-0.1-0.1-0.2-0.1-0.4-0.2s-0.3-0.1-0.4-0.1
			c-0.3,0-0.5,0.1-0.7,0.2s-0.4,0.3-0.6,0.5s-0.3,0.4-0.4,0.7s-0.2,0.5-0.3,0.7c0,0.2-0.1,0.4-0.1,0.7s0,0.7,0,1.1
			c0,0.4,0,0.8,0,1.1s0,0.6,0,0.8c0,0.2,0,0.5-0.1,0.8s-0.1,0.6-0.3,0.8s-0.3,0.5-0.5,0.7s-0.4,0.3-0.7,0.3c-0.2,0-0.4-0.1-0.6-0.2
			s-0.3-0.3-0.4-0.5s-0.2-0.5-0.3-0.8s-0.1-0.6-0.2-0.9c0-0.3-0.1-0.7-0.1-1s0-0.6,0-0.9s0-0.6,0-0.8s0-0.4,0-0.6c0-0.5,0-1-0.1-1.4
			s-0.1-1-0.1-1.4c0-0.3,0-0.6,0-1s0.1-0.7,0.2-1s0.3-0.6,0.5-0.8s0.6-0.3,1-0.3c0.2,0,0.4,0.1,0.6,0.2s0.3,0.3,0.4,0.6
			s0.2,0.5,0.2,0.7s0.1,0.5,0.1,0.7c0.3-0.5,0.7-1,1.1-1.3s0.9-0.5,1.6-0.5c0.3,0,0.7,0,1,0.1s0.6,0.2,0.9,0.4s0.5,0.4,0.7,0.7
			s0.3,0.6,0.3,1c0,0.4-0.1,0.8-0.4,1S123.6,14.5,123.2,14.5z"/>
		<path fill="#263238" d="M128.8,22.8c-0.7,0-1.3-0.2-1.8-0.6s-1-0.8-1.3-1.4s-0.6-1.2-0.8-1.9s-0.3-1.4-0.3-2.1
			c0-0.7,0.1-1.5,0.3-2.2s0.5-1.5,0.8-2.1s0.8-1.2,1.4-1.6s1.3-0.6,2.1-0.6c0.8,0,1.4,0.2,2,0.6s1,0.9,1.3,1.6s0.6,1.3,0.7,2
			s0.2,1.4,0.1,2.1c0,0.7-0.2,1.5-0.3,2.2s-0.5,1.4-0.8,2s-0.8,1.1-1.4,1.4S129.6,22.8,128.8,22.8z M129,13.5
			c-0.2,0-0.4,0.1-0.5,0.3s-0.3,0.5-0.4,0.8s-0.2,0.6-0.2,1s-0.1,0.7-0.1,0.9c0,0.3,0,0.7,0.1,1.1s0.1,0.7,0.3,1.1s0.2,0.6,0.4,0.8
			s0.3,0.3,0.5,0.3c0.2,0,0.4-0.1,0.6-0.3s0.3-0.5,0.4-0.8s0.2-0.7,0.2-1s0.1-0.7,0.1-1.1c0-0.3,0-0.6-0.1-1s-0.1-0.7-0.2-1
			s-0.2-0.6-0.4-0.8S129.2,13.5,129,13.5z"/>
		<path fill="#263238" d="M138.2,9.8c0,0.7,0,1.5-0.1,2.2s-0.1,1.5-0.1,2.2c0,1,0,1.9,0.1,2.9s0.1,1.9,0.1,2.9c0,0.2,0,0.5,0,0.8
			s-0.1,0.6-0.2,0.9s-0.3,0.5-0.5,0.7s-0.5,0.3-0.8,0.3c-0.3,0-0.6-0.2-0.9-0.5s-0.4-0.7-0.6-1.2s-0.3-1.1-0.4-1.7s-0.2-1.2-0.2-1.8
			s-0.1-1.1-0.1-1.6s0-0.8,0-1.1c0-0.3,0-0.6,0-1.1s0.1-1,0.1-1.6s0.2-1.2,0.3-1.8s0.3-1.1,0.5-1.6s0.4-0.9,0.7-1.2s0.6-0.5,1-0.5
			c0.3,0,0.5,0.1,0.7,0.3s0.3,0.4,0.3,0.7s0.1,0.6,0.1,0.9S138.2,9.6,138.2,9.8z"/>
		<path fill="#263238" d="M153.5,8.7c0,1,0,2-0.1,3s-0.1,2-0.1,3c0,0.8,0,1.6,0.1,2.4s0.1,1.6,0.1,2.4c0,0.2,0,0.5,0,0.8
			s-0.1,0.6-0.1,0.9s-0.2,0.5-0.4,0.7s-0.4,0.3-0.7,0.3c-0.4,0-0.7-0.2-1-0.5s-0.4-0.7-0.5-1c-0.3,0.5-0.6,0.9-1.1,1.3
			s-1,0.5-1.6,0.5c-0.6,0-1.1-0.2-1.6-0.6s-0.8-0.9-1.1-1.5s-0.5-1.2-0.7-1.9s-0.2-1.2-0.2-1.7c0-0.3,0-0.7,0.1-1.2s0.1-0.9,0.2-1.3
			s0.2-0.9,0.4-1.3s0.4-0.8,0.6-1.2s0.6-0.6,0.9-0.8s0.7-0.3,1.2-0.3c0.5,0,1,0.1,1.4,0.4s0.8,0.6,1,1.1l0.2-3.3
			c0-0.3,0-0.6,0.1-0.9s0.1-0.7,0.2-1s0.2-0.6,0.4-0.8s0.5-0.3,0.8-0.3c0.4,0,0.7,0.1,0.9,0.3s0.4,0.4,0.5,0.7s0.2,0.6,0.2,1
			S153.5,8.4,153.5,8.7z M150.2,17.8c0-0.3,0-0.6,0-0.9s0-0.6,0-0.9c-0.1-0.2-0.2-0.4-0.3-0.6s-0.2-0.4-0.4-0.6s-0.3-0.3-0.5-0.5
			s-0.4-0.2-0.6-0.2c-0.2,0-0.4,0.1-0.6,0.2s-0.3,0.3-0.3,0.5s-0.1,0.4-0.1,0.7s0,0.5,0,0.6c0,0.2,0,0.4,0,0.7s0.1,0.6,0.2,1
			s0.2,0.6,0.3,0.9s0.3,0.4,0.6,0.4c0.2,0,0.4,0,0.5-0.1s0.3-0.2,0.5-0.3s0.3-0.2,0.5-0.4s0.3-0.3,0.4-0.4V17.8z"/>
		<path fill="#263238" d="M163.4,18.6c0,0.5-0.1,0.9-0.4,1.4s-0.7,0.8-1.1,1.2s-0.9,0.6-1.4,0.8s-1,0.3-1.4,0.3
			c-0.7,0-1.4-0.2-1.9-0.5s-1-0.8-1.4-1.4s-0.7-1.2-0.9-1.9s-0.3-1.3-0.3-2c0-0.7,0.1-1.4,0.3-2.2s0.5-1.5,0.9-2.2s0.9-1.2,1.5-1.6
			s1.3-0.7,2.1-0.7c0.5,0,0.9,0.1,1.3,0.2s0.8,0.4,1.1,0.7s0.6,0.6,0.8,1s0.3,0.8,0.3,1.3c0,0.6-0.1,1.2-0.4,1.8s-0.6,1-1.1,1.5
			s-1,0.7-1.6,1s-1.2,0.4-1.8,0.4c0.1,0.4,0.2,0.7,0.5,0.9s0.6,0.3,1,0.3c0.3,0,0.5-0.1,0.8-0.2s0.5-0.3,0.8-0.5s0.5-0.3,0.7-0.5
			s0.5-0.2,0.7-0.2c0.3,0,0.5,0.1,0.7,0.3S163.4,18.3,163.4,18.6z M160.1,13.5c0-0.2,0-0.4-0.1-0.6s-0.2-0.3-0.5-0.3
			c-0.3,0-0.6,0.1-0.8,0.2s-0.4,0.4-0.5,0.6s-0.2,0.5-0.3,0.8s-0.1,0.5-0.1,0.8c0.2,0,0.4-0.1,0.7-0.2s0.5-0.2,0.8-0.3
			s0.4-0.3,0.6-0.4S160.1,13.8,160.1,13.5z"/>
		<path fill="#263238" d="M168.1,9.8c0,0.7,0,1.5-0.1,2.2s-0.1,1.5-0.1,2.2c0,1,0,1.9,0.1,2.9s0.1,1.9,0.1,2.9c0,0.2,0,0.5,0,0.8
			s-0.1,0.6-0.2,0.9s-0.3,0.5-0.5,0.7s-0.5,0.3-0.8,0.3c-0.3,0-0.6-0.2-0.9-0.5s-0.4-0.7-0.6-1.2s-0.3-1.1-0.4-1.7s-0.2-1.2-0.2-1.8
			s-0.1-1.1-0.1-1.6s0-0.8,0-1.1c0-0.3,0-0.6,0-1.1s0.1-1,0.1-1.6s0.2-1.2,0.3-1.8s0.3-1.1,0.5-1.6s0.4-0.9,0.7-1.2s0.6-0.5,1-0.5
			c0.3,0,0.5,0.1,0.7,0.3s0.3,0.4,0.3,0.7s0.1,0.6,0.1,0.9S168.1,9.6,168.1,9.8z"/>
		<path fill="#263238" d="M187.1,15.4c0,0.3,0,0.6,0,1.1s0,0.9,0,1.4c0,0.5-0.1,1-0.1,1.6s-0.2,1-0.3,1.4c-0.1,0.4-0.3,0.8-0.5,1
			s-0.5,0.4-0.8,0.4c-0.3,0-0.5-0.1-0.7-0.4s-0.3-0.6-0.3-0.9s-0.1-0.7-0.1-1s0-0.6,0-0.8c0-0.6,0-1.2,0.1-1.8s0.1-1.2,0.1-1.8
			c0-0.1,0-0.2,0-0.4s0-0.4,0-0.5s-0.1-0.3-0.1-0.5c-0.1-0.1-0.2-0.2-0.3-0.2c-0.2,0-0.4,0.1-0.6,0.4s-0.3,0.6-0.4,0.9
			s-0.2,0.7-0.2,1s-0.1,0.6-0.1,0.7c0,0.2-0.1,0.4-0.1,0.8c0,0.4,0,0.7-0.1,1.2c0,0.4-0.1,0.9-0.2,1.3c-0.1,0.4-0.2,0.8-0.3,1.2
			c-0.1,0.4-0.3,0.7-0.4,0.9s-0.4,0.3-0.7,0.3c-0.3,0-0.6-0.1-0.8-0.4s-0.3-0.6-0.4-1s-0.1-0.8-0.2-1.2c0-0.4,0-0.7,0-0.9
			c0-0.2,0-0.5,0-0.7c0-0.2,0-0.4,0-0.7c0-0.1,0-0.3,0-0.5s0-0.5,0-0.7c0-0.3,0-0.5,0-0.8c0-0.3-0.1-0.6-0.1-0.8s-0.1-0.4-0.2-0.6
			s-0.2-0.2-0.3-0.2c-0.2,0-0.3,0.1-0.5,0.3s-0.3,0.5-0.4,0.8s-0.2,0.6-0.3,0.9c-0.1,0.3-0.1,0.5-0.1,0.7v0.1c0,0.7,0,1.3,0.1,1.9
			s0.1,1.3,0.1,1.9c0,0.4-0.1,0.7-0.4,1.1s-0.6,0.5-1,0.5c-0.3,0-0.6-0.1-0.8-0.4s-0.4-0.6-0.5-0.9s-0.2-0.8-0.3-1.3
			c-0.1-0.5-0.1-0.9-0.2-1.4s0-0.8-0.1-1.2c0-0.4,0-0.6,0-0.8c0-0.2,0-0.5,0-0.9s0-0.8,0-1.3c0-0.5,0.1-0.9,0.1-1.4s0.1-0.9,0.3-1.3
			s0.3-0.7,0.5-1c0.2-0.3,0.5-0.4,0.8-0.4c0.4,0,0.6,0.1,0.9,0.3c0.2,0.2,0.3,0.5,0.3,0.9c0,0.1,0,0.2,0,0.2c0,0.1,0,0.2,0,0.2
			c0.2-0.2,0.3-0.4,0.6-0.7s0.5-0.4,0.7-0.6c0.3-0.2,0.5-0.3,0.8-0.5s0.6-0.2,0.9-0.2c0.3,0,0.5,0.1,0.7,0.2s0.4,0.3,0.6,0.6
			s0.3,0.5,0.4,0.7s0.2,0.5,0.2,0.7c0.1-0.2,0.3-0.5,0.5-0.7s0.4-0.5,0.6-0.7s0.5-0.3,0.8-0.5c0.3-0.1,0.6-0.2,0.9-0.2
			c0.3,0,0.5,0.1,0.7,0.3s0.4,0.5,0.5,0.8s0.3,0.7,0.3,1.1s0.2,0.8,0.2,1.2s0.1,0.8,0.1,1.1S187.1,15.2,187.1,15.4z"/>
		<path fill="#263238" d="M197.1,19.3c0,0.2,0,0.6,0,1c0,0.4-0.1,0.8-0.2,1.2s-0.2,0.7-0.5,1s-0.5,0.4-0.9,0.4
			c-0.5,0-0.9-0.2-1.2-0.5s-0.4-0.7-0.4-1.2c-0.4,0.4-0.9,0.7-1.5,0.9c-0.6,0.2-1.1,0.3-1.7,0.3c-0.4,0-0.8-0.1-1.1-0.3
			s-0.7-0.4-0.9-0.7s-0.5-0.6-0.7-1s-0.2-0.7-0.2-1.1c0-0.7,0.2-1.2,0.6-1.7s0.9-0.9,1.5-1.3s1.2-0.6,1.9-0.8s1.3-0.3,1.8-0.4
			c0-0.1,0-0.1,0-0.2c0-0.1,0-0.1,0-0.2c0-0.4-0.1-0.8-0.3-1s-0.6-0.4-1-0.4c-0.3,0-0.6,0.1-0.9,0.2s-0.5,0.2-0.7,0.4
			s-0.4,0.3-0.7,0.4s-0.5,0.2-0.7,0.2c-0.3,0-0.6-0.1-0.8-0.3s-0.3-0.4-0.3-0.7c0-0.5,0.1-0.9,0.4-1.2c0.3-0.4,0.6-0.7,1-0.9
			c0.4-0.3,0.8-0.5,1.3-0.6c0.5-0.1,0.9-0.2,1.3-0.2c0.4,0,0.7,0,1.1,0.1s0.7,0.2,1,0.4s0.6,0.4,0.9,0.7c0.3,0.3,0.5,0.6,0.6,0.9
			c0.2,0.5,0.4,1,0.6,1.6s0.3,1.1,0.3,1.7s0.1,1.2,0.2,1.8S197.1,18.8,197.1,19.3z M193.8,18.7l-0.1-1.4c0,0-0.1,0-0.1,0
			s-0.1,0-0.1,0c-0.2,0-0.4,0-0.7,0.1c-0.3,0.1-0.5,0.2-0.8,0.4s-0.5,0.3-0.6,0.5c-0.2,0.2-0.3,0.4-0.3,0.6c0,0.2,0.1,0.3,0.2,0.4
			s0.3,0.1,0.5,0.1c0.3,0,0.6-0.1,1-0.2S193.6,18.8,193.8,18.7z"/>
		<path fill="#263238" d="M206.9,18.6c0,0.5-0.1,0.9-0.4,1.4c-0.3,0.4-0.7,0.8-1.1,1.2c-0.4,0.3-0.9,0.6-1.4,0.8s-1,0.3-1.4,0.3
			c-0.7,0-1.4-0.2-1.9-0.5c-0.6-0.4-1-0.8-1.4-1.4s-0.7-1.2-0.9-1.9c-0.2-0.7-0.3-1.3-0.3-2c0-0.7,0.1-1.4,0.3-2.2s0.5-1.5,0.9-2.2
			c0.4-0.7,0.9-1.2,1.5-1.6c0.6-0.4,1.3-0.7,2.1-0.7c0.5,0,0.9,0.1,1.3,0.2s0.8,0.4,1.1,0.7s0.6,0.6,0.8,1s0.3,0.8,0.3,1.3
			c0,0.6-0.1,1.2-0.4,1.8s-0.6,1-1.1,1.5s-1,0.7-1.6,1s-1.2,0.4-1.8,0.4c0.1,0.4,0.2,0.7,0.5,0.9c0.3,0.2,0.6,0.3,1,0.3
			c0.3,0,0.5-0.1,0.8-0.2s0.5-0.3,0.8-0.5s0.5-0.3,0.7-0.5c0.2-0.1,0.5-0.2,0.7-0.2c0.3,0,0.5,0.1,0.7,0.3S206.9,18.3,206.9,18.6z
			 M203.6,13.5c0-0.2,0-0.4-0.1-0.6s-0.2-0.3-0.5-0.3c-0.3,0-0.6,0.1-0.8,0.2s-0.4,0.4-0.5,0.6s-0.2,0.5-0.3,0.8s-0.1,0.5-0.1,0.8
			c0.2,0,0.4-0.1,0.7-0.2c0.3-0.1,0.5-0.2,0.8-0.3s0.4-0.3,0.6-0.4S203.6,13.8,203.6,13.5z"/>
		<path fill="#263238" d="M213.8,10.9c0,0.4-0.1,0.7-0.4,0.9c-0.3,0.2-0.6,0.4-0.9,0.5s-0.6,0.4-0.9,0.6c-0.3,0.2-0.4,0.6-0.4,1
			c0,0.2,0.1,0.5,0.2,0.6c0.1,0.2,0.3,0.3,0.4,0.5s0.4,0.3,0.6,0.4s0.4,0.3,0.6,0.5c0.2,0.2,0.3,0.4,0.4,0.7s0.2,0.6,0.2,1
			c0,0.6-0.1,1.1-0.4,1.7c-0.3,0.6-0.7,1-1.1,1.5s-1,0.8-1.5,1s-1.1,0.4-1.7,0.4c-0.2,0-0.5,0-0.7-0.1s-0.4-0.1-0.6-0.2
			c-0.2-0.1-0.3-0.2-0.5-0.4s-0.2-0.4-0.2-0.7c0-0.4,0.1-0.7,0.2-0.9s0.3-0.4,0.6-0.5s0.5-0.2,0.7-0.3c0.3-0.1,0.5-0.2,0.7-0.3
			s0.4-0.2,0.6-0.4s0.2-0.4,0.2-0.7c0-0.3-0.1-0.6-0.3-0.9c-0.2-0.3-0.5-0.6-0.7-1s-0.5-0.7-0.7-1.1c-0.2-0.4-0.3-0.8-0.3-1.3
			c0-0.6,0.1-1.1,0.4-1.6s0.6-0.9,1-1.3c0.4-0.4,0.9-0.7,1.4-0.9s1.1-0.3,1.6-0.3c0.2,0,0.4,0,0.6,0.1s0.4,0.1,0.6,0.2
			s0.3,0.2,0.4,0.4C213.7,10.5,213.8,10.7,213.8,10.9z"/>
		<path fill="#263238" d="M219.4,22.9c-1,0-1.7-0.1-2.3-0.4s-0.9-0.6-1.2-1.1c-0.3-0.5-0.4-1-0.5-1.7s-0.1-1.4-0.1-2.2
			c0-0.6,0-1.3,0.1-1.9s0.1-1.3,0.2-2.1c-0.2,0-0.3,0-0.5,0s-0.2,0-0.3,0c-0.4,0-0.8-0.1-1.1-0.3c-0.3-0.2-0.5-0.5-0.5-0.9
			c0-0.2,0.1-0.5,0.3-0.7c0.2-0.2,0.4-0.4,0.7-0.5s0.6-0.2,0.9-0.3c0.3-0.1,0.7-0.1,1-0.2c0-0.4,0-0.8,0.1-1.3s0.2-0.9,0.3-1.3
			c0.1-0.4,0.3-0.7,0.6-1s0.6-0.4,0.9-0.4c0.2,0,0.4,0.1,0.6,0.2c0.2,0.1,0.3,0.3,0.4,0.5s0.2,0.4,0.2,0.7s0.1,0.5,0.1,0.7
			c0,0.3,0,0.6-0.1,0.8s-0.1,0.6-0.2,1.1c0.2,0,0.4,0,0.5-0.1s0.2,0,0.2,0c0.2,0,0.5,0,0.7,0.1c0.3,0,0.5,0.1,0.7,0.2
			c0.2,0.1,0.4,0.2,0.5,0.4s0.2,0.3,0.2,0.6c0,0.2-0.1,0.5-0.3,0.7s-0.4,0.4-0.7,0.5s-0.6,0.2-1,0.3s-0.7,0.1-1,0.2
			c-0.1,0.6-0.1,1.1-0.2,1.5c0,0.5-0.1,0.9-0.1,1.4c0,0.2-0.1,0.5-0.1,0.7c0,0.2,0,0.5,0,0.7c0,0.2,0,0.4,0,0.6s0.1,0.5,0.1,0.7
			s0.2,0.4,0.4,0.6s0.4,0.2,0.7,0.2c0.2,0,0.4,0,0.6-0.1s0.4-0.1,0.6-0.1c0.4,0,0.6,0.1,0.8,0.4s0.2,0.6,0.2,0.9
			c0,0.3-0.1,0.5-0.3,0.7c-0.2,0.2-0.4,0.4-0.6,0.5s-0.6,0.2-0.9,0.3C220,22.9,219.7,22.9,219.4,22.9z"/>
		<path fill="#263238" d="M229.6,14.5c-0.2,0-0.4,0-0.5-0.1s-0.3-0.1-0.4-0.2c-0.1-0.1-0.2-0.1-0.4-0.2s-0.3-0.1-0.4-0.1
			c-0.3,0-0.5,0.1-0.7,0.2c-0.2,0.1-0.4,0.3-0.6,0.5c-0.2,0.2-0.3,0.4-0.4,0.7s-0.2,0.5-0.3,0.7c0,0.2-0.1,0.4-0.1,0.7
			c0,0.3,0,0.7,0,1.1c0,0.4,0,0.8,0,1.1s0,0.6,0,0.8c0,0.2,0,0.5-0.1,0.8s-0.1,0.6-0.3,0.8c-0.1,0.3-0.3,0.5-0.5,0.7
			s-0.4,0.3-0.7,0.3c-0.2,0-0.4-0.1-0.6-0.2c-0.2-0.1-0.3-0.3-0.4-0.5s-0.2-0.5-0.3-0.8s-0.1-0.6-0.2-0.9c0-0.3-0.1-0.7-0.1-1
			c0-0.3,0-0.6,0-0.9c0-0.3,0-0.6,0-0.8c0-0.2,0-0.4,0-0.6c0-0.5,0-1-0.1-1.4s-0.1-1-0.1-1.4c0-0.3,0-0.6,0-1s0.1-0.7,0.2-1
			s0.3-0.6,0.5-0.8c0.2-0.2,0.6-0.3,1-0.3c0.2,0,0.4,0.1,0.6,0.2s0.3,0.3,0.4,0.6c0.1,0.2,0.2,0.5,0.2,0.7s0.1,0.5,0.1,0.7
			c0.3-0.5,0.7-1,1.1-1.3s0.9-0.5,1.6-0.5c0.3,0,0.7,0,1,0.1s0.6,0.2,0.9,0.4c0.3,0.2,0.5,0.4,0.7,0.7c0.2,0.3,0.3,0.6,0.3,1
			c0,0.4-0.1,0.8-0.4,1S230,14.5,229.6,14.5z"/>
		<path fill="#263238" d="M235.2,22.8c-0.7,0-1.3-0.2-1.8-0.6s-1-0.8-1.3-1.4s-0.6-1.2-0.8-1.9s-0.3-1.4-0.3-2.1
			c0-0.7,0.1-1.5,0.3-2.2s0.5-1.5,0.8-2.1s0.8-1.2,1.4-1.6s1.3-0.6,2.1-0.6c0.8,0,1.4,0.2,2,0.6s1,0.9,1.3,1.6s0.6,1.3,0.7,2
			s0.2,1.4,0.1,2.1c0,0.7-0.2,1.5-0.3,2.2c-0.2,0.7-0.5,1.4-0.8,2s-0.8,1.1-1.4,1.4S236,22.8,235.2,22.8z M235.4,13.5
			c-0.2,0-0.4,0.1-0.5,0.3c-0.2,0.2-0.3,0.5-0.4,0.8c-0.1,0.3-0.2,0.6-0.2,1s-0.1,0.7-0.1,0.9c0,0.3,0,0.7,0.1,1.1
			c0.1,0.4,0.1,0.7,0.3,1.1s0.2,0.6,0.4,0.8c0.2,0.2,0.3,0.3,0.5,0.3c0.2,0,0.4-0.1,0.6-0.3c0.2-0.2,0.3-0.5,0.4-0.8s0.2-0.7,0.2-1
			s0.1-0.7,0.1-1.1c0-0.3,0-0.6-0.1-1s-0.1-0.7-0.2-1c-0.1-0.3-0.2-0.6-0.4-0.8S235.6,13.5,235.4,13.5z"/>
		<path fill="#263238" d="M243.7,8.6c0,0.2-0.1,0.5-0.2,0.9c-0.1,0.3-0.3,0.7-0.4,1s-0.4,0.6-0.6,0.8s-0.4,0.3-0.6,0.3
			c-0.3,0-0.4-0.2-0.4-0.5c0-0.2,0-0.3,0.1-0.5s0.1-0.3,0.2-0.4s0.2-0.3,0.2-0.4s0.1-0.3,0.1-0.4c-0.2,0.1-0.4,0.2-0.7,0.2
			c-0.3,0-0.6-0.1-0.8-0.4s-0.3-0.5-0.3-0.8c0-0.4,0.1-0.8,0.4-1.1s0.6-0.4,1.1-0.4c0.5,0,0.9,0.1,1.3,0.4S243.7,8.1,243.7,8.6z
			 M247.4,8.6c0,0.2-0.1,0.5-0.2,0.9s-0.3,0.7-0.4,1s-0.4,0.6-0.6,0.8s-0.4,0.3-0.6,0.3c-0.3,0-0.4-0.1-0.4-0.4c0-0.2,0-0.3,0.1-0.5
			c0.1-0.2,0.2-0.3,0.2-0.4s0.2-0.3,0.2-0.4s0.1-0.3,0.1-0.4c-0.2,0.2-0.4,0.2-0.7,0.2c-0.3,0-0.6-0.1-0.8-0.4S244,8.8,244,8.5
			c0-0.4,0.1-0.8,0.4-1s0.6-0.4,1.1-0.4c0.5,0,0.9,0.1,1.3,0.4C247.2,7.7,247.4,8.1,247.4,8.6z"/>
	</g>
</g>
<g id="crucigrama">
</g>
</svg>
