<?xml version="1.0" encoding="utf-8"?>
<!-- Generator: Adobe Illustrator 17.0.0, SVG Export Plug-In . SVG Version: 6.00 Build 0)  -->
<!DOCTYPE svg PUBLIC "-//W3C//DTD SVG 1.1//EN" "http://www.w3.org/Graphics/SVG/1.1/DTD/svg11.dtd">
<svg version="1.1" xmlns="http://www.w3.org/2000/svg" xmlns:xlink="http://www.w3.org/1999/xlink" x="0px" y="0px" width="42px"
	 height="43px" viewBox="0 0 42 43" enable-background="new 0 0 42 43" xml:space="preserve">
<g id="cielo">
</g>
<g id="Capa_3">
</g>
<g id="ventanas">
	<g>
		<g>
			
				<ellipse transform="matrix(0.3844 -0.9231 0.9231 0.3844 -6.8577 32.5895)" fill="#EEEEEE" cx="21" cy="21.4" rx="21.1" ry="20.3"/>
			<g>
				<path fill="#1D1E1C" d="M28.9,2.4c10,4.5,14.2,15.5,10.8,25.7c-3.5,10.5-15.3,16-25.6,12.6C3.2,37.2-1,24.8,2.4,14.7
					C6.1,3.8,18.5-1.6,29,2.5c0.7,0.3,0.9-0.8,0.3-1.1C18.2-2.8,6.5,2.8,1.8,13.4C-3,24,2.1,36.7,12.6,41.4
					c10.8,4.8,23-1.6,27.6-11.9c4.7-10.7-0.3-23.3-10.9-28C28.7,1.2,28.2,2.2,28.9,2.4z"/>
			</g>
		</g>
		<g>
			<g>
				<path fill="#FFFFFF" d="M24.9,12.5c-0.1,0.1-1.8,1.9-4,4.2c-2.3-2.2-4.1-3.9-4.1-3.9c-1.9-1.9-3.8-1.7-5-0.4
					c-1.2,1.3-1.4,3.2,0.5,5.1c0,0,1.8,1.7,4,4c-2.2,2.3-4,4.2-4,4.2c-1.9,1.9-1.7,3.8-0.4,5c1.3,1.2,3.2,1.4,5.1-0.5
					c0,0,1.8-1.8,4-4.1c2,1.9,3.7,3.6,4.7,4.5c1.9,1.8,3.2,0.6,4.2-0.5c1.7-1.8,1.5-3.4,0-4.8c-0.1-0.1-1.9-1.8-4.3-4.1
					c1.9-1.9,3.7-3.5,4.4-4.6c1-1.5,1.5-3.6,0.4-4.6C28.8,10.5,26.3,11,24.9,12.5z"/>
				<g>
					<path fill="#1D1E1C" d="M24.6,12.2c-0.5,0.5-1,1.1-1.5,1.6c-0.9,0.9-2.3,2.2-2.3,2.2s-1.1-1-2.2-2c-1.4-1.3-2.3-2.3-4.3-2.7
						c-3-0.6-5,2.9-3.1,5.6c1,1.4,4.5,4.5,4.5,4.5s-0.8,1-1.4,1.7c-1.1,1.1-3.1,3-3.4,4.6c-0.7,3.5,2.4,5.2,5.5,3.7
						c1-0.5,4.7-4.6,4.7-4.6s0.5,0.4,0.7,0.6c1.6,1.6,2.6,3.1,4.8,4.1c4,1.8,6.6-3.2,3.9-6.2c-1.3-1.4-4-4-4-4c0.5-0.6,1-1,1.5-1.4
						c0.9-0.9,3.6-3.1,3.7-5.4C31.8,10.5,27.4,9.2,24.6,12.2c-0.4,0.4,0.2,1,0.6,0.6c2.1-2,3.8-1.4,4.7-0.6c1.3,1.1,1.1,3.3-0.7,5.1
						c-1.1,1.1-2.6,2.7-3.7,3.8c-0.2,0.2-0.2,0.4,0,0.6c1.4,1.4,2,1.9,3.4,3.3c1.4,1.2,2.5,3.2,1,5c-1.5,2.1-4.1,0.6-5.1-0.7
						c-1.2-1.1-2.3-2.3-3.5-3.4c-0.2-0.2-0.4-0.2-0.6,0c-1.3,1.4-2.7,2.7-4,4.1c-2.1,2-4.1,0.8-4.5,0.5c-1.2-1.1-0.9-3.1,0.5-4.5
						c0.3-0.3,0.5-0.5,0.8-0.8c1-1.1,2.1-2.2,3.1-3.3c0.2-0.2,0.2-0.4,0-0.6c-1.3-1.3-2.7-2.6-4-4c-1.8-1.7-1.3-3.2-0.8-3.9
						c1.2-1.7,3.4-1.5,4.8-0.1c0.3,0.2,0.5,0.5,0.8,0.7c1.1,1,2.1,2,3.2,3c0.2,0.2,0.4,0.2,0.6,0c1.3-1.4,2.7-2.8,4-4.2
						C25.6,12.4,25,11.8,24.6,12.2z"/>
				</g>
			</g>
		</g>
		<path opacity="0.3" fill="#616261" d="M28.6,35.2C16.2,30,8.9,17.8,9,4.8C6.1,7,3.8,10,2.3,13.6c-4.5,10.8,0.3,23,10.6,27.3
			c7.4,3.1,15.7,1.3,21.5-4C32.4,36.5,30.5,36,28.6,35.2z"/>
	</g>
</g>
</svg>
